<?xml version="1.0" encoding="UTF-8"?>
<!DOCTYPE svg PUBLIC "-//W3C//DTD SVG 1.1//EN" "http://www.w3.org/Graphics/SVG/1.1/DTD/svg11.dtd">
<!-- Creator: CorelDRAW 2020 (64 Bit) -->
<svg xmlns="http://www.w3.org/2000/svg" xml:space="preserve" width="24.2953mm" height="7.5755mm" version="1.1" shape-rendering="geometricPrecision" text-rendering="geometricPrecision" image-rendering="optimizeQuality" fill-rule="evenodd" clip-rule="evenodd"
viewBox="0 0 96029 29943"
 xmlns:xlink="http://www.w3.org/1999/xlink"
 xmlns:xodm="http://www.corel.com/coreldraw/odm/2003">
 <g id="Camada_x0020_1">
  <metadata id="CorelCorpID_0Corel-Layer"/>
  <g id="_2005940898560">
   <g id="vivo.svg">
    <g data-name="Capa 2">
     <g data-name="Layer 1">
      <path fill="#666666" fill-rule="nonzero" d="M83625 203c488,-134 993,-203 1500,-203 2374,0 4494,1488 5302,3720 706,1943 195,4259 -1223,5753 -477,523 -1132,827 -1655,1291 -355,291 -228,919 186,1084 280,155 601,26 894,-19 1516,-351 3026,-734 4543,-1084 148,-32 300,-49 452,-49 827,0 1575,490 1906,1248 195,582 309,1188 454,1787 235,1016 -425,2146 -1440,2408 -1536,404 -3097,740 -4629,1138 -540,133 -1062,526 -1152,1108 -117,523 186,1016 499,1411 1564,1947 3128,3894 4692,5840 313,377 485,851 485,1341 0,232 -39,463 -115,683 -271,822 -1084,1239 -1703,1785 -815,729 -2205,651 -2907,-197 -1248,-1490 -2455,-3015 -3686,-4519 -263,-317 -655,-640 -1096,-526 -316,128 -590,343 -790,619 -1129,1409 -2277,2805 -3407,4209 -394,570 -1044,911 -1738,911 -76,0 -153,-4 -228,-12 -872,-59 -1440,-793 -2100,-1268 -929,-664 -1113,-2123 -379,-2998 1549,-1950 3122,-3890 4683,-5832 334,-409 640,-915 521,-1467 -76,-587 -630,-957 -1162,-1095 -1507,-379 -3020,-725 -4525,-1104 -921,-236 -1566,-1068 -1566,-2019 0,-89 6,-179 17,-268 110,-602 262,-1197 424,-1787 284,-836 1069,-1399 1952,-1399 139,0 278,14 415,42 1662,364 3305,817 4971,1157 619,225 1179,-598 753,-1084 -427,-415 -986,-663 -1417,-1073 -2032,-1770 -2435,-5098 -864,-7294 752,-1088 1864,-1881 3138,-2238l0 0z"/>
      <path fill="#666666" fill-rule="nonzero" d="M23991 2365c1609,-610 3562,228 4235,1810 199,439 302,917 302,1399 0,1875 -1521,3396 -3396,3396 -233,0 -466,-24 -695,-72 -1417,-297 -2489,-1462 -2668,-2899 -234,-1538 754,-3136 2222,-3634l0 0z"/>
      <path fill="#666666" fill-rule="nonzero" d="M1500 11242c895,-322 1768,-1047 2770,-764 638,178 1155,646 1394,1264 1437,2889 2862,5785 4305,8672 1445,-2953 2931,-5885 4376,-8838 384,-838 1394,-1357 2290,-1104 539,155 1030,446 1549,658 519,212 1084,418 1394,903 228,321 351,706 351,1101 0,338 -91,670 -261,962 -2279,4073 -4579,8133 -6860,12203 -254,492 -666,885 -1170,1115 -714,310 -1510,144 -2264,191 -46,2 -94,4 -140,4 -839,0 -1613,-451 -2028,-1180 -2215,-3923 -4427,-7852 -6637,-11786 -299,-513 -629,-1061 -559,-1680 34,-841 736,-1468 1490,-1721z"/>
      <path fill="#666666" fill-rule="nonzero" d="M32467 10958c734,-351 1578,-790 2391,-393 943,353 1219,1394 1645,2204 1290,2534 2498,5110 3813,7628 1445,-2940 2901,-5876 4367,-8810 376,-852 1403,-1375 2309,-1111 531,166 1017,443 1530,654 474,217 1011,382 1338,817 266,339 410,757 410,1187 0,345 -93,684 -269,981 -2303,4090 -4607,8181 -6910,12271 -405,751 -1191,1220 -2044,1220 -24,0 -49,-1 -73,-1 -853,-50 -1785,166 -2560,-300 -485,-245 -799,-703 -1047,-1168 -2237,-3992 -4480,-7981 -6728,-11966 -196,-308 -300,-666 -300,-1031 0,-365 104,-723 300,-1030 390,-663 1189,-825 1829,-1152l0 0z"/>
      <path fill="#666666" fill-rule="nonzero" d="M58091 10624c1773,-310 3656,-129 5287,661 3019,1417 4948,4454 4948,7791 0,4753 -3854,8607 -8607,8607 -4753,0 -8607,-3854 -8607,-8607 0,-4126 2929,-7672 6979,-8452l0 0zm6447 5801c-1045,153 -1961,782 -2478,1704 -287,508 -438,1083 -438,1666 0,1871 1517,3388 3389,3388 49,0 98,-1 147,-3 1793,-19 3364,-1704 3226,-3501 19,-1945 -1940,-3590 -3845,-3254l0 0z"/>
      <path fill="#666666" fill-rule="nonzero" d="M23832 10700c754,-57 1511,-13 2267,-26 1120,-36 2049,1021 2026,2112 23,4135 0,8270 11,12406 32,774 -252,1600 -929,2043 -774,562 -1775,309 -2662,368 -80,9 -161,14 -242,14 -779,0 -1497,-420 -1879,-1098 -310,-540 -258,-1181 -260,-1781 0,-3974 0,-7949 0,-11924 0,-16 -1,-32 -1,-49 0,-996 696,-1857 1670,-2065l0 0z"/>
     </g>
    </g>
   </g>
   <circle fill="#666666" cx="59795" cy="19070" r="8691"/>
   <circle fill="#FFE069" cx="59795" cy="19070" r="3642"/>
  </g>
 </g>
</svg>
