<?xml version="1.0" encoding="UTF-8"?>
<!DOCTYPE svg PUBLIC "-//W3C//DTD SVG 1.1//EN" "http://www.w3.org/Graphics/SVG/1.1/DTD/svg11.dtd">
<!-- Creator: CorelDRAW 2020 (64 Bit) -->
<svg xmlns="http://www.w3.org/2000/svg" xml:space="preserve" width="11.894mm" height="11.8924mm" version="1.1" shape-rendering="geometricPrecision" text-rendering="geometricPrecision" image-rendering="optimizeQuality" fill-rule="evenodd" clip-rule="evenodd"
viewBox="0 0 21169 21166"
 xmlns:xlink="http://www.w3.org/1999/xlink"
 xmlns:xodm="http://www.corel.com/coreldraw/odm/2003">
 <g id="Camada_x0020_1">
  <metadata id="CorelCorpID_0Corel-Layer"/>
  <g id="_2006141357040">
   <path fill="#666666" fill-rule="nonzero" d="M21124 8340c-7,-113 -19,-335 -27,-492 -8,-157 -20,-365 -27,-459 -8,-96 -25,-331 -40,-525 -15,-194 -29,-377 -33,-406 -4,-29 -16,-158 -27,-286 -11,-128 -23,-248 -27,-266 -4,-19 -19,-141 -33,-273 -35,-318 -77,-669 -86,-710 -4,-19 -19,-125 -33,-234 -65,-497 -186,-1191 -290,-1663 -15,-67 -39,-174 -53,-239 -37,-170 -81,-342 -96,-373 -7,-15 -19,-50 -28,-80 -29,-98 -177,-427 -214,-479 -5,-8 -48,-70 -93,-140 -94,-142 -336,-395 -481,-502 -287,-211 -607,-355 -1019,-456 -71,-17 -142,-35 -213,-53 -49,-15 -148,-36 -359,-80 -60,-13 -120,-25 -180,-39 -257,-62 -1092,-198 -1636,-267 -109,-13 -217,-28 -240,-33 -40,-8 -233,-28 -625,-67 -109,-11 -259,-27 -333,-33 -73,-8 -205,-20 -293,-28 -88,-6 -232,-19 -319,-25 -298,-25 -1125,-73 -1583,-93 -449,-20 -1091,-32 -1747,-37 -91,-1 -182,-1 -273,-1l-484 0c-374,1 -728,6 -1029,13l0 0c-609,14 -1057,36 -1876,86 -379,23 -793,56 -1084,85 -73,8 -226,23 -339,33 -158,15 -340,36 -525,57 -373,44 -753,95 -951,129 -63,11 -154,25 -206,33 -51,7 -141,23 -200,33 -59,11 -157,29 -219,40 -220,37 -593,113 -805,164 -59,15 -164,40 -233,56 -69,16 -132,30 -140,32 -390,93 -777,281 -1075,524 -290,235 -549,616 -680,994 -21,59 -43,118 -49,133 -16,35 -68,251 -122,496 -24,108 -48,222 -70,329 -11,59 -29,145 -40,193 -11,48 -25,132 -35,186 -8,54 -19,121 -25,146 -20,76 -101,595 -153,971 -51,365 -84,630 -113,898 -15,132 -29,261 -32,286 -4,25 -16,154 -28,286 -11,132 -27,293 -35,359 -28,245 -97,1310 -132,2062 -22,453 -37,1326 -37,1986 0,152 1,293 2,415 9,811 29,1537 48,1789 7,102 20,318 28,479 8,161 19,367 25,459 31,460 55,762 66,858 7,59 23,214 33,345 11,130 27,286 33,346 8,60 23,189 33,287 33,315 59,521 80,659 11,73 29,198 40,279 39,293 84,577 133,838 11,58 28,157 40,219 23,133 75,398 112,565 128,587 183,762 334,1051 41,80 94,173 118,206 23,33 56,81 73,106 76,113 293,334 413,419 20,14 59,42 84,62 27,21 52,37 59,37 5,0 19,9 29,20 52,51 418,225 575,271 29,9 65,21 80,28 35,16 230,65 466,118 103,24 208,49 233,56 61,16 447,93 738,146 167,30 494,82 698,112 77,11 176,25 219,33 161,28 826,105 1244,145 150,15 335,32 412,40 125,13 253,24 865,68 92,7 301,19 466,27 165,8 395,20 512,27 464,27 1350,40 2243,41l114 0c893,-1 1776,-14 2233,-41 117,-8 347,-19 512,-27 283,-13 387,-20 832,-53 569,-44 1406,-125 1690,-165 81,-12 221,-31 313,-43 339,-44 805,-114 1071,-163 291,-53 677,-130 738,-146 25,-7 130,-32 233,-56 230,-52 430,-102 466,-118 44,-16 89,-32 133,-47 109,-36 471,-208 502,-237 9,-9 36,-29 58,-43 104,-65 152,-102 246,-188 106,-97 254,-257 290,-311 12,-19 44,-64 70,-100 28,-37 51,-70 51,-76 0,-6 21,-43 47,-83 25,-40 56,-98 68,-130 13,-30 27,-64 32,-70 25,-33 118,-298 158,-449 63,-233 180,-782 222,-1042 11,-66 23,-129 27,-140 12,-29 85,-486 152,-951 15,-103 29,-205 33,-226 11,-61 59,-470 80,-685 11,-106 25,-229 33,-273 8,-44 23,-188 33,-319 11,-132 25,-294 32,-359 8,-66 20,-218 28,-339 8,-121 20,-270 27,-332 8,-63 23,-293 33,-512 12,-220 25,-490 33,-599 30,-484 45,-1360 45,-2240 0,-880 -15,-1764 -45,-2263z"/>
   <path fill="#666666" fill-rule="nonzero" d="M10874 15637c-486,0 -667,-324 -700,-481 -13,-62 -20,-120 -20,-176l0 -6c2,-457 435,-719 1323,-722l32 0c108,0 223,5 345,13l-17 658c-11,48 -96,514 -540,646 -162,48 -302,68 -423,68z"/>
   <g>
    <polygon fill="#FFE069" fill-rule="nonzero" points="2339,16615 3895,16615 3895,11320 2339,11320 "/>
    <path fill="#FFE069" fill-rule="nonzero" d="M4034 9873c0,506 -410,917 -917,917 -507,0 -917,-411 -917,-917 0,-507 411,-917 917,-917 507,0 917,411 917,917z"/>
    <path fill="#FFE069" fill-rule="nonzero" d="M6813 9720l-1547 259 0 1341 -772 0 0 1184 770 0 15 2443c11,544 130,944 471,1288 540,544 1424,582 2336,374 12,-394 -12,-773 0,-1167 -525,109 -948,77 -1143,-202 -41,-59 -99,-168 -105,-342 -6,-798 -11,-1595 -17,-2393l1332 0 0 -1184c-444,0 -887,0 -1330,0l-9 -1600z"/>
    <path fill="#FFE069" fill-rule="nonzero" d="M10449 16738c-659,0 -1385,-267 -1632,-853 -320,-759 -22,-1451 10,-1512 54,-96 113,-182 175,-260 570,-706 1553,-839 2232,-839 265,0 483,20 613,35 1,-242 -66,-398 -137,-501 -188,-272 -576,-413 -1082,-413 -481,0 -1069,127 -1698,388l11 -1248c663,-251 1310,-369 1893,-369 961,0 1751,322 2155,903 135,194 308,534 321,1079l18 3466 -1451 0c-7,-184 -13,-367 -20,-551 -106,143 -276,330 -531,475 -228,130 -544,198 -878,198zm-295 -1759c0,56 7,115 20,176 33,157 214,481 700,481 121,0 262,-20 423,-68 443,-132 528,-598 540,-646l17 -658c-122,-8 -237,-12 -345,-13l-32 0c-887,3 -1321,265 -1323,722l0 6z"/>
    <path fill="#FFE069" fill-rule="nonzero" d="M14098 11320l1558 0 13 3372c24,353 201,808 780,799 476,-7 785,-334 814,-786 5,-1128 11,-2257 16,-3385l1556 0 0 5295 -1486 -17 -29 -541c-491,678 -1403,870 -2236,519 -607,-256 -962,-927 -971,-1621 -5,-1211 -10,-2423 -15,-3634z"/>
    <polygon fill="#FFE069" fill-rule="nonzero" points="15257,9703 15257,10602 17838,10602 17838,9258 "/>
   </g>
  </g>
 </g>
</svg>
