<?xml version="1.0" encoding="UTF-8"?>
<!DOCTYPE svg PUBLIC "-//W3C//DTD SVG 1.1//EN" "http://www.w3.org/Graphics/SVG/1.1/DTD/svg11.dtd">
<!-- Creator: CorelDRAW 2020 (64 Bit) -->
<svg xmlns="http://www.w3.org/2000/svg" xml:space="preserve" width="11.8314mm" height="7.6255mm" version="1.1" shape-rendering="geometricPrecision" text-rendering="geometricPrecision" image-rendering="optimizeQuality" fill-rule="evenodd" clip-rule="evenodd"
viewBox="0 0 16315 10515"
 xmlns:xlink="http://www.w3.org/1999/xlink"
 xmlns:xodm="http://www.corel.com/coreldraw/odm/2003">
 <g id="Camada_x0020_1">
  <metadata id="CorelCorpID_0Corel-Layer"/>
  <g id="_2006045874944">
   <polygon fill="#666666" points="6496,10394 7826,10394 7826,3888 6496,3888 "/>
   <path fill="#666666" d="M9046 3899l0 1220 1120 0 0 3670c0,506 139,913 407,1220 268,317 624,474 1074,485 446,11 842,-89 1177,-296l21 -11 0 -21 317 -1238 -78 50c-357,218 -685,325 -984,325 -414,0 -624,-246 -624,-731l0 -3453 1359 0 0 -1220 -1359 0 0 -2033 -1309 703 0 1330 -1120 0z"/>
   <polygon fill="#666666" points="14143,10394 15484,10394 15484,3888 14143,3888 "/>
   <path fill="#666666" d="M5732 4912l-29 -21c-614,-745 -1380,-1109 -2301,-1109 -963,0 -1755,296 -2390,881 -674,617 -1013,1448 -1013,2490 0,1042 339,1865 1013,2490 624,585 1427,874 2390,874 920,0 1694,-367 2301,-1102l29 -22 -753 -910 -29 29c-489,485 -1013,735 -1577,735 -589,0 -1074,-200 -1459,-596 -389,-389 -574,-892 -574,-1498 0,-606 185,-1113 574,-1509 385,-385 870,-585 1459,-585 564,0 1088,250 1577,735l29 28 753 -910z"/>
   <path fill="#666666" d="M7152 2818c524,-535 1109,-942 1776,-1231 642,-278 1327,-414 2033,-414 703,0 1388,136 2044,414 653,289 1238,696 1762,1231l21 18 1527 0 -57 -89c-606,-853 -1391,-1527 -2333,-2019 -942,-489 -1923,-728 -2964,-728 -1031,0 -2026,239 -2968,728 -942,492 -1726,1166 -2329,2019l-61 89 1537 0 11 -18z"/>
   <polygon fill="#666666" points="6496,10394 7826,10394 7826,3888 6496,3888 "/>
   <path fill="#666666" d="M9046 3899l0 1220 1120 0 0 3670c0,506 139,913 407,1220 268,317 624,474 1074,485 446,11 842,-89 1177,-296l21 -11 0 -21 317 -1238 -78 50c-357,218 -685,325 -984,325 -414,0 -624,-246 -624,-731l0 -3453 1359 0 0 -1220 -1359 0 0 -2033 -1309 703 0 1330 -1120 0z"/>
   <polygon fill="#666666" points="14143,10394 15484,10394 15484,3888 14143,3888 "/>
   <path fill="#666666" d="M5732 4912l-29 -21c-614,-745 -1380,-1109 -2301,-1109 -963,0 -1755,296 -2390,881 -674,617 -1013,1448 -1013,2490 0,1042 339,1865 1013,2490 624,585 1427,874 2390,874 920,0 1694,-367 2301,-1102l29 -22 -753 -910 -29 29c-489,485 -1013,735 -1577,735 -589,0 -1074,-200 -1459,-596 -389,-389 -574,-892 -574,-1498 0,-606 185,-1113 574,-1509 385,-385 870,-585 1459,-585 564,0 1088,250 1577,735l29 28 753 -910z"/>
   <path fill="#666666" d="M7152 2818c524,-535 1109,-942 1776,-1231 642,-278 1327,-414 2033,-414 703,0 1388,136 2044,414 653,289 1238,696 1762,1231l21 18 1527 0 -57 -89c-606,-853 -1391,-1527 -2333,-2019 -942,-489 -1923,-728 -2964,-728 -1031,0 -2026,239 -2968,728 -942,492 -1726,1166 -2329,2019l-61 89 1537 0 11 -18z"/>
  </g>
 </g>
</svg>
