<?xml version="1.0" encoding="UTF-8"?>
<!DOCTYPE svg PUBLIC "-//W3C//DTD SVG 1.1//EN" "http://www.w3.org/Graphics/SVG/1.1/DTD/svg11.dtd">
<!-- Creator: CorelDRAW 2020 (64 Bit) -->
<svg xmlns="http://www.w3.org/2000/svg" xml:space="preserve" width="10.6186mm" height="10.6172mm" version="1.1" shape-rendering="geometricPrecision" text-rendering="geometricPrecision" image-rendering="optimizeQuality" fill-rule="evenodd" clip-rule="evenodd"
viewBox="0 0 11061 11060"
 xmlns:xlink="http://www.w3.org/1999/xlink"
 xmlns:xodm="http://www.corel.com/coreldraw/odm/2003">
 <g id="Camada_x0020_1">
  <metadata id="CorelCorpID_0Corel-Layer"/>
  <g id="_2006138151408">
   <path fill="#666666" fill-rule="nonzero" d="M11038 4358c-4,-59 -10,-175 -14,-257 -4,-82 -10,-191 -14,-240 -4,-50 -13,-173 -21,-275 -8,-101 -15,-197 -17,-212 -2,-15 -8,-83 -14,-149 -6,-67 -12,-129 -14,-139 -2,-10 -10,-74 -17,-143 -18,-166 -40,-350 -45,-371 -2,-10 -10,-65 -17,-123 -34,-260 -97,-622 -152,-869 -8,-35 -20,-91 -28,-125 -19,-89 -42,-179 -50,-195 -4,-8 -10,-26 -15,-42 -15,-51 -93,-223 -112,-250 -3,-4 -25,-37 -49,-73 -49,-74 -176,-206 -252,-262 -150,-111 -317,-186 -533,-239 -37,-9 -74,-18 -111,-28 -26,-8 -77,-19 -188,-42 -31,-7 -63,-13 -94,-20 -134,-33 -571,-104 -855,-140 -57,-7 -113,-15 -125,-17 -21,-4 -122,-15 -327,-35 -57,-6 -136,-14 -174,-17 -38,-4 -107,-10 -153,-15 -46,-3 -121,-10 -167,-13 -156,-13 -588,-38 -827,-49 -235,-10 -570,-17 -913,-19 -48,0 -95,-1 -143,-1l-253 0c-195,1 -380,3 -537,7l0 0c-318,8 -552,19 -980,45 -198,12 -414,29 -566,44 -38,4 -118,12 -177,17 -82,8 -178,19 -275,30 -195,23 -393,50 -497,67 -33,6 -81,13 -108,17 -26,3 -74,12 -104,17 -31,6 -82,15 -115,21 -115,19 -310,59 -421,86 -31,8 -86,21 -122,29 -36,8 -69,16 -73,17 -204,49 -406,147 -562,274 -152,123 -287,322 -355,519 -11,31 -22,62 -26,69 -8,18 -36,131 -64,259 -13,57 -25,116 -36,172 -6,31 -15,76 -21,101 -6,25 -13,69 -18,97 -4,29 -10,63 -13,76 -10,40 -53,311 -80,508 -26,191 -44,329 -59,469 -8,69 -15,136 -17,149 -2,13 -8,81 -15,149 -6,69 -14,153 -18,188 -15,128 -51,685 -69,1078 -11,237 -19,693 -19,1038 0,80 0,153 1,217 5,424 15,803 25,935 4,54 11,166 15,250 4,84 10,192 13,240 16,241 28,398 35,448 4,31 12,112 17,180 6,68 14,149 17,181 4,31 12,99 17,150 17,165 31,273 42,344 6,38 15,104 21,146 20,153 44,302 69,438 6,31 15,82 21,115 12,69 39,208 58,295 67,307 96,398 174,549 22,42 49,90 62,108 12,17 29,42 38,56 40,59 153,174 216,219 10,8 31,22 44,33 14,11 27,19 31,19 3,0 10,5 15,10 27,26 218,118 300,142 15,5 34,11 42,15 18,8 120,34 243,62 54,13 108,26 122,29 32,8 234,49 386,76 88,16 258,43 365,58 40,5 92,13 115,17 84,15 432,55 650,76 79,8 175,17 216,21 65,7 132,13 452,36 48,3 157,10 243,14 86,4 206,10 268,14 242,14 705,21 1172,21l60 0c467,0 928,-7 1167,-21 61,-4 182,-10 268,-14 148,-7 202,-11 434,-28 298,-23 735,-65 883,-86 42,-6 115,-16 163,-22 177,-23 421,-60 560,-85 152,-28 354,-68 386,-76 13,-4 68,-17 122,-29 120,-27 224,-54 243,-62 23,-8 46,-16 70,-24 57,-19 246,-108 262,-124 5,-5 19,-15 31,-22 54,-34 79,-53 129,-98 56,-51 133,-134 152,-163 6,-10 23,-33 37,-52 15,-19 26,-37 26,-40 0,-3 11,-22 24,-43 13,-21 29,-51 36,-68 7,-16 14,-33 17,-37 13,-17 62,-156 83,-234 33,-122 94,-409 116,-544 6,-35 12,-67 14,-73 6,-15 44,-254 79,-497 8,-54 15,-107 17,-118 6,-32 31,-245 42,-358 6,-56 13,-120 17,-143 4,-23 12,-98 17,-167 6,-69 13,-154 17,-188 4,-35 10,-114 15,-177 4,-63 10,-141 14,-174 4,-33 12,-153 17,-268 6,-115 13,-256 17,-313 16,-253 23,-711 23,-1171 0,-460 -8,-922 -23,-1183z"/>
   <path fill="#666666" fill-rule="nonzero" d="M5682 8170c-254,0 -348,-169 -366,-251 -7,-32 -10,-63 -10,-92l0 -3c1,-239 227,-376 691,-377l17 0c57,0 117,2 180,7l-9 344c-6,25 -50,269 -282,338 -84,25 -158,36 -221,36z"/>
   <g>
    <polygon fill="#FFE069" fill-rule="nonzero" points="1222,8682 2035,8682 2035,5915 1222,5915 "/>
    <path fill="#FFE069" fill-rule="nonzero" d="M2108 5159c0,265 -215,479 -479,479 -265,0 -479,-215 -479,-479 0,-265 214,-479 479,-479 265,0 479,214 479,479z"/>
    <path fill="#FFE069" fill-rule="nonzero" d="M3560 5079l-808 136 0 701 -403 0 0 619 403 0 8 1276c6,284 68,493 246,673 282,284 744,304 1220,195 6,-206 -6,-404 0,-610 -274,57 -496,40 -597,-106 -22,-31 -52,-88 -55,-179 -3,-417 -6,-834 -9,-1250l696 0 0 -619c-232,0 -463,0 -695,0l-5 -836z"/>
    <path fill="#FFE069" fill-rule="nonzero" d="M5460 8746c-344,0 -724,-139 -853,-446 -167,-397 -11,-758 5,-790 28,-50 59,-95 91,-136 298,-369 812,-438 1167,-438 138,0 253,11 320,18 1,-126 -34,-208 -72,-262 -98,-142 -301,-216 -565,-216 -251,0 -559,66 -887,203l6 -652c346,-131 684,-193 989,-193 502,0 915,168 1126,472 70,101 161,279 168,564l9 1811 -758 0c-3,-96 -7,-192 -10,-288 -55,75 -144,172 -278,248 -119,68 -284,104 -459,104zm-154 -919c0,29 4,60 10,92 17,82 112,251 366,251 63,0 137,-11 221,-36 232,-69 276,-312 282,-338l9 -344c-64,-4 -124,-6 -180,-7l-17 0c-464,2 -690,138 -691,377l0 3z"/>
    <path fill="#FFE069" fill-rule="nonzero" d="M7366 5915l814 0 7 1762c13,184 105,422 408,418 249,-4 410,-175 425,-411 3,-590 6,-1179 8,-1769l813 0 0 2767 -776 -9 -15 -283c-257,354 -733,454 -1169,271 -317,-134 -503,-484 -508,-847 -3,-633 -5,-1266 -8,-1899z"/>
    <polygon fill="#FFE069" fill-rule="nonzero" points="7972,5070 7972,5539 9321,5539 9321,4837 "/>
   </g>
  </g>
 </g>
</svg>
