<?xml version="1.0" encoding="UTF-8"?>
<!DOCTYPE svg PUBLIC "-//W3C//DTD SVG 1.1//EN" "http://www.w3.org/Graphics/SVG/1.1/DTD/svg11.dtd">
<!-- Creator: CorelDRAW 2020 (64 Bit) -->
<svg xmlns="http://www.w3.org/2000/svg" xml:space="preserve" width="11.894mm" height="11.8924mm" version="1.1" shape-rendering="geometricPrecision" text-rendering="geometricPrecision" image-rendering="optimizeQuality" fill-rule="evenodd" clip-rule="evenodd"
viewBox="0 0 73.91 73.9"
 xmlns:xlink="http://www.w3.org/1999/xlink"
 xmlns:xodm="http://www.corel.com/coreldraw/odm/2003">
 <g id="Camada_x0020_1">
  <metadata id="CorelCorpID_0Corel-Layer"/>
  <g id="_2290252629072">
   <path fill="#666666" fill-rule="nonzero" d="M73.76 29.12c-0.02,-0.4 -0.06,-1.17 -0.09,-1.72 -0.03,-0.55 -0.07,-1.27 -0.09,-1.6 -0.03,-0.33 -0.09,-1.16 -0.14,-1.83 -0.05,-0.68 -0.1,-1.31 -0.12,-1.42 -0.01,-0.1 -0.06,-0.55 -0.09,-1 -0.04,-0.45 -0.08,-0.86 -0.09,-0.93 -0.01,-0.07 -0.07,-0.49 -0.12,-0.95 -0.12,-1.11 -0.27,-2.34 -0.3,-2.48 -0.01,-0.07 -0.07,-0.44 -0.12,-0.82 -0.23,-1.74 -0.65,-4.16 -1.01,-5.81 -0.05,-0.23 -0.13,-0.61 -0.19,-0.84 -0.13,-0.59 -0.28,-1.19 -0.33,-1.3 -0.02,-0.05 -0.07,-0.18 -0.1,-0.28 -0.1,-0.34 -0.62,-1.49 -0.75,-1.67 -0.02,-0.03 -0.17,-0.25 -0.33,-0.49 -0.33,-0.5 -1.17,-1.38 -1.68,-1.75 -1,-0.74 -2.12,-1.24 -3.56,-1.59 -0.25,-0.06 -0.5,-0.12 -0.74,-0.19 -0.17,-0.05 -0.52,-0.13 -1.25,-0.28 -0.21,-0.04 -0.42,-0.09 -0.63,-0.14 -0.9,-0.22 -3.81,-0.69 -5.71,-0.93 -0.38,-0.05 -0.76,-0.1 -0.84,-0.12 -0.14,-0.03 -0.81,-0.1 -2.18,-0.23 -0.38,-0.04 -0.91,-0.09 -1.16,-0.12 -0.26,-0.03 -0.72,-0.07 -1.02,-0.1 -0.31,-0.02 -0.81,-0.06 -1.12,-0.09 -1.04,-0.09 -3.93,-0.26 -5.53,-0.33 -1.57,-0.07 -3.81,-0.11 -6.1,-0.13 -0.32,-0 -0.64,-0 -0.95,-0l-1.69 0c-1.3,0 -2.54,0.02 -3.59,0.05l0 0c-2.13,0.05 -3.69,0.13 -6.55,0.3 -1.32,0.08 -2.77,0.2 -3.79,0.3 -0.26,0.03 -0.79,0.08 -1.18,0.12 -0.55,0.05 -1.19,0.12 -1.83,0.2 -1.3,0.15 -2.63,0.33 -3.32,0.45 -0.22,0.04 -0.54,0.09 -0.72,0.12 -0.18,0.02 -0.49,0.08 -0.7,0.12 -0.2,0.04 -0.55,0.1 -0.77,0.14 -0.77,0.13 -2.07,0.4 -2.81,0.57 -0.2,0.05 -0.57,0.14 -0.81,0.2 -0.24,0.06 -0.46,0.11 -0.49,0.11 -1.36,0.33 -2.71,0.98 -3.75,1.83 -1.01,0.82 -1.92,2.15 -2.37,3.47 -0.07,0.2 -0.15,0.41 -0.17,0.46 -0.05,0.12 -0.24,0.88 -0.43,1.73 -0.08,0.38 -0.17,0.78 -0.24,1.15 -0.04,0.2 -0.1,0.51 -0.14,0.67 -0.04,0.17 -0.09,0.46 -0.12,0.65 -0.03,0.19 -0.07,0.42 -0.09,0.51 -0.07,0.27 -0.35,2.08 -0.53,3.39 -0.18,1.27 -0.29,2.2 -0.39,3.14 -0.05,0.46 -0.1,0.91 -0.11,1 -0.01,0.09 -0.06,0.54 -0.1,1 -0.04,0.46 -0.09,1.02 -0.12,1.25 -0.1,0.85 -0.34,4.58 -0.46,7.2 -0.08,1.58 -0.13,4.63 -0.13,6.93 0,0.53 0,1.02 0.01,1.45 0.03,2.83 0.1,5.37 0.17,6.25 0.02,0.36 0.07,1.11 0.1,1.67 0.03,0.56 0.06,1.28 0.09,1.6 0.11,1.61 0.19,2.66 0.23,3 0.02,0.2 0.08,0.75 0.12,1.2 0.04,0.45 0.09,1 0.12,1.21 0.03,0.21 0.08,0.66 0.12,1 0.12,1.1 0.2,1.82 0.28,2.3 0.04,0.26 0.1,0.69 0.14,0.98 0.13,1.02 0.29,2.02 0.46,2.93 0.04,0.2 0.1,0.55 0.14,0.77 0.08,0.46 0.26,1.39 0.39,1.97 0.45,2.05 0.64,2.66 1.17,3.67 0.14,0.28 0.33,0.6 0.41,0.72 0.08,0.12 0.2,0.28 0.26,0.37 0.26,0.39 1.02,1.17 1.44,1.46 0.07,0.05 0.2,0.15 0.29,0.22 0.09,0.07 0.18,0.13 0.21,0.13 0.02,0 0.06,0.03 0.1,0.07 0.18,0.18 1.46,0.78 2.01,0.95 0.1,0.03 0.23,0.07 0.28,0.1 0.12,0.06 0.8,0.23 1.63,0.41 0.36,0.08 0.72,0.17 0.81,0.2 0.21,0.06 1.56,0.33 2.58,0.51 0.58,0.11 1.72,0.29 2.44,0.39 0.27,0.04 0.61,0.09 0.77,0.12 0.56,0.1 2.89,0.37 4.34,0.51 0.52,0.05 1.17,0.11 1.44,0.14 0.44,0.05 0.88,0.08 3.02,0.24 0.32,0.02 1.05,0.07 1.63,0.09 0.58,0.03 1.38,0.07 1.79,0.09 1.62,0.09 4.71,0.14 7.83,0.14l0.4 0c3.12,-0 6.2,-0.05 7.8,-0.14 0.41,-0.03 1.21,-0.07 1.79,-0.09 0.99,-0.05 1.35,-0.07 2.9,-0.19 1.99,-0.15 4.91,-0.44 5.9,-0.58 0.28,-0.04 0.77,-0.11 1.09,-0.15 1.18,-0.15 2.81,-0.4 3.74,-0.57 1.02,-0.19 2.36,-0.46 2.58,-0.51 0.09,-0.02 0.45,-0.11 0.81,-0.2 0.8,-0.18 1.5,-0.36 1.63,-0.41 0.15,-0.06 0.31,-0.11 0.46,-0.16 0.38,-0.12 1.64,-0.72 1.75,-0.83 0.03,-0.03 0.13,-0.1 0.2,-0.15 0.36,-0.23 0.53,-0.36 0.86,-0.65 0.37,-0.34 0.89,-0.9 1.01,-1.09 0.04,-0.06 0.15,-0.22 0.25,-0.35 0.1,-0.13 0.18,-0.25 0.18,-0.26 0,-0.02 0.07,-0.15 0.16,-0.29 0.09,-0.14 0.2,-0.34 0.24,-0.46 0.05,-0.11 0.09,-0.22 0.11,-0.25 0.09,-0.12 0.41,-1.04 0.55,-1.57 0.22,-0.81 0.63,-2.73 0.78,-3.64 0.04,-0.23 0.08,-0.45 0.09,-0.49 0.04,-0.1 0.3,-1.7 0.53,-3.32 0.05,-0.36 0.1,-0.72 0.12,-0.79 0.04,-0.21 0.2,-1.64 0.28,-2.39 0.04,-0.37 0.09,-0.8 0.12,-0.95 0.03,-0.15 0.08,-0.65 0.12,-1.11 0.04,-0.46 0.09,-1.03 0.11,-1.25 0.03,-0.23 0.07,-0.76 0.1,-1.18 0.03,-0.42 0.07,-0.94 0.09,-1.16 0.03,-0.22 0.08,-1.02 0.12,-1.79 0.04,-0.77 0.09,-1.71 0.12,-2.09 0.1,-1.69 0.16,-4.75 0.16,-7.82 0,-3.07 -0.05,-6.16 -0.16,-7.9z"/>
   <path fill="#666666" fill-rule="nonzero" d="M37.97 54.6c-1.7,0 -2.33,-1.13 -2.44,-1.68 -0.05,-0.22 -0.07,-0.42 -0.07,-0.62l0 -0.02c0.01,-1.6 1.52,-2.51 4.62,-2.52l0.11 0c0.38,0 0.78,0.02 1.21,0.04l-0.06 2.3c-0.04,0.17 -0.34,1.79 -1.88,2.26 -0.56,0.17 -1.05,0.24 -1.48,0.24z"/>
   <g>
    <polygon fill="white" fill-rule="nonzero" points="8.17,58.01 13.6,58.01 13.6,39.53 8.17,39.53 "/>
    <path fill="white" fill-rule="nonzero" d="M14.08 34.47c0,1.77 -1.43,3.2 -3.2,3.2 -1.77,0 -3.2,-1.43 -3.2,-3.2 0,-1.77 1.43,-3.2 3.2,-3.2 1.77,0 3.2,1.43 3.2,3.2z"/>
    <path fill="white" fill-rule="nonzero" d="M23.79 33.94l-5.4 0.91 0 4.68 -2.7 0 0 4.13 2.69 0 0.05 8.53c0.04,1.9 0.45,3.3 1.65,4.5 1.89,1.9 4.97,2.03 8.16,1.31 0.04,-1.38 -0.04,-2.7 0,-4.07 -1.83,0.38 -3.31,0.27 -3.99,-0.71 -0.14,-0.21 -0.35,-0.59 -0.37,-1.2 -0.02,-2.79 -0.04,-5.57 -0.06,-8.36l4.65 0 0 -4.13c-1.55,0 -3.1,0 -4.65,0l-0.03 -5.59z"/>
    <path fill="white" fill-rule="nonzero" d="M36.48 58.44c-2.3,0 -4.83,-0.93 -5.7,-2.98 -1.12,-2.65 -0.08,-5.07 0.04,-5.28 0.19,-0.34 0.39,-0.64 0.61,-0.91 1.99,-2.46 5.42,-2.93 7.79,-2.93 0.92,0 1.69,0.07 2.14,0.12 0,-0.84 -0.23,-1.39 -0.48,-1.75 -0.66,-0.95 -2.01,-1.44 -3.78,-1.44 -1.68,0 -3.73,0.44 -5.93,1.35l0.04 -4.36c2.31,-0.88 4.57,-1.29 6.61,-1.29 3.36,0 6.11,1.12 7.53,3.15 0.47,0.68 1.08,1.86 1.12,3.77l0.06 12.1 -5.07 0c-0.02,-0.64 -0.05,-1.28 -0.07,-1.92 -0.37,0.5 -0.96,1.15 -1.85,1.66 -0.8,0.45 -1.9,0.69 -3.07,0.69zm-1.03 -6.14c0,0.2 0.02,0.4 0.07,0.62 0.12,0.55 0.75,1.68 2.44,1.68 0.42,0 0.91,-0.07 1.48,-0.24 1.55,-0.46 1.84,-2.09 1.88,-2.26l0.06 -2.3c-0.43,-0.03 -0.83,-0.04 -1.21,-0.04l-0.11 0c-3.1,0.01 -4.61,0.92 -4.62,2.52l0 0.02z"/>
    <path fill="white" fill-rule="nonzero" d="M49.23 39.53l5.44 0 0.04 11.77c0.08,1.23 0.7,2.82 2.72,2.79 1.66,-0.02 2.74,-1.17 2.84,-2.74 0.02,-3.94 0.04,-7.88 0.06,-11.82l5.43 0 0 18.49 -5.19 -0.06 -0.1 -1.89c-1.71,2.37 -4.9,3.04 -7.81,1.81 -2.12,-0.89 -3.36,-3.24 -3.39,-5.66 -0.02,-4.23 -0.03,-8.46 -0.05,-12.69z"/>
    <polygon fill="white" fill-rule="nonzero" points="53.27,33.88 53.27,37.02 62.28,37.02 62.28,32.33 "/>
   </g>
  </g>
 </g>
</svg>
