<?xml version="1.0" encoding="UTF-8"?>
<!DOCTYPE svg PUBLIC "-//W3C//DTD SVG 1.1//EN" "http://www.w3.org/Graphics/SVG/1.1/DTD/svg11.dtd">
<!-- Creator: CorelDRAW 2020 (64 Bit) -->
<svg xmlns="http://www.w3.org/2000/svg" xml:space="preserve" width="14.4711mm" height="10.9087mm" version="1.1" shape-rendering="geometricPrecision" text-rendering="geometricPrecision" image-rendering="optimizeQuality" fill-rule="evenodd" clip-rule="evenodd"
viewBox="0 0 30067 22666"
 xmlns:xlink="http://www.w3.org/1999/xlink"
 xmlns:xodm="http://www.corel.com/coreldraw/odm/2003">
 <g id="Camada_x0020_1">
  <metadata id="CorelCorpID_0Corel-Layer"/>
  <g id="_2006169569312">
   <path fill="#666666" d="M14825 5639c-224,1493 -1448,1597 -2180,179 -2881,-5136 -7151,-2045 -2598,2239 806,642 672,1150 -314,1090 -4882,-1777 -3926,1194 1075,2419 746,-105 1299,358 672,821 -657,985 3150,1657 4195,149 4165,1015 6420,-1105 4016,-1195 -1015,-149 -642,-926 134,-1015 5016,-1702 4971,-5688 105,-2702 -1194,776 -2060,388 -1538,-657 3210,-4852 -2329,-7749 -3568,-1329zm1329 7465c-1150,1135 -6390,791 -5987,-1149 -5987,-1956 -6390,-6017 -1777,-4136 -4703,-5823 1165,-9570 5136,-3135 881,-7121 9361,-5703 6793,1433 4882,-2971 6748,1179 746,4553 2956,75 -1448,3523 -4912,2433z"/>
   <path fill="#666666" d="M21035 17373l-1120 0 0 2747c-433,2060 -2807,1687 -2971,0l-15 -2777 -1224 0 15 2672c90,2344 4763,2881 5315,254l0 -2896zm-21035 4479l1180 0 0 -2732c60,-1926 3001,-1881 2911,134l0 2642 1239 0 0 -2747c-567,-2568 -4598,-2568 -5315,-314l-15 3016zm10256 90l1164 0 0 -2598c-194,-3269 -6808,-2553 -4927,1613 702,1134 2448,1358 3449,657l0 -433c-1060,239 -1851,493 -2433,-761 -1030,-3001 2777,-3628 2717,-1060l30 2583zm18647 179l1164 0 0 -2598c-194,-3270 -6808,-2553 -4927,1612 702,1135 2448,1344 3449,657l0 -433c-1060,239 -1851,493 -2433,-761 -1030,-3001 2777,-3628 2717,-1060l30 2583zm-4180 -4688c0,134 0,269 0,403 -896,-75 -1373,299 -1433,1120l-74 3075 -1090 0c0,-1075 0,-2060 0,-3120 298,-1344 1284,-1792 2598,-1478zm-10973 -134l1090 0 -30 776 -1000 0c0,1030 0,2075 0,3105 60,836 567,1075 1269,1030 0,134 0,284 0,418 -1344,164 -2329,-179 -2538,-1672l0 -5673 1209 0 0 2015z"/>
  </g>
 </g>
</svg>
