<?xml version="1.0" encoding="UTF-8"?>
<!DOCTYPE svg PUBLIC "-//W3C//DTD SVG 1.1//EN" "http://www.w3.org/Graphics/SVG/1.1/DTD/svg11.dtd">
<!-- Creator: CorelDRAW 2020 (64 Bit) -->
<svg xmlns="http://www.w3.org/2000/svg" xml:space="preserve" width="24.2277mm" height="4.2295mm" version="1.1" shape-rendering="geometricPrecision" text-rendering="geometricPrecision" image-rendering="optimizeQuality" fill-rule="evenodd" clip-rule="evenodd"
viewBox="0 0 240.03 41.9"
 xmlns:xlink="http://www.w3.org/1999/xlink"
 xmlns:xodm="http://www.corel.com/coreldraw/odm/2003">
 <g id="Camada_x0020_1">
  <metadata id="CorelCorpID_0Corel-Layer"/>
  <g id="_2290404459072">
   <polygon fill="#666666" points="217.75,7.11 218.99,0 197.02,0 189.49,41.9 212.13,41.9 213.42,34.8 198.85,34.8 200.72,23.69 211.35,23.69 212.6,16.62 201.97,16.62 203.8,7.11 217.75,7.11 "/>
   <polygon fill="#666666" points="238.79,41.9 240.03,34.8 227.06,34.8 233.21,0 225.19,0 217.75,41.9 238.79,41.9 "/>
   <polygon fill="#666666" points="189.22,7.11 190.47,0 168.26,0 160.85,41.9 183.46,41.9 184.9,34.8 170.13,34.8 172.19,23.69 182.83,23.69 184.08,16.62 173.44,16.62 175.08,7.11 189.22,7.11 "/>
   <polygon fill="#666666" points="161.83,0 154.54,0 150.18,24.85 149.98,24.85 143.2,0 134.39,0 126.88,41.9 134.16,41.9 138.99,14.84 139.11,14.84 146.75,41.9 154.54,41.9 161.83,0 "/>
   <path fill="#666666" d="M114.64 26.1l-7.87 0 7.02 -17.01 0.86 17.01 0 0zm-14.57 15.81l3.86 -8.82 11.22 0 0.47 8.82 7.71 0 -2.77 -41.9 -10.25 0 -17.93 41.9 7.68 0 0 0z"/>
   <polygon fill="#666666" points="68.93,0.12 63.87,0 62.27,8.35 48.94,8.35 47.58,16.78 60.75,16.78 59.39,25.13 46.06,25.13 44.46,33.55 57.83,33.55 56.42,41.9 61.65,41.71 65.85,40.93 69.83,39.46 71.89,38.41 75.48,35.73 78.56,32.66 81.17,29.09 83.04,25.13 84.29,20.93 84.64,16.78 84.4,14.64 83.51,10.95 81.79,7.53 79.53,4.78 76.45,2.53 72.95,0.93 68.93,0.12 "/>
   <polygon fill="#666666" points="39.4,8.35 40.92,0 22.6,0.12 20.15,0.47 15.63,1.9 11.61,3.88 8.26,6.64 5.3,9.86 4.05,11.57 1.44,17.13 0.35,20.93 -0,24.7 0.47,28.19 1.6,31.69 3.43,34.91 4.68,36.58 7.44,39.03 10.99,40.66 15.31,41.71 33.47,41.9 34.84,33.55 21.74,33.55 23.11,25.13 36.43,25.13 38.03,16.78 24.67,16.78 26.07,8.35 39.4,8.35 "/>
  </g>
 </g>
</svg>
