<?xml version="1.0" encoding="UTF-8"?>
<!DOCTYPE svg PUBLIC "-//W3C//DTD SVG 1.1//EN" "http://www.w3.org/Graphics/SVG/1.1/DTD/svg11.dtd">
<!-- Creator: CorelDRAW 2020 (64 Bit) -->
<svg xmlns="http://www.w3.org/2000/svg" xml:space="preserve" width="17.8121mm" height="5.5583mm" version="1.1" shape-rendering="geometricPrecision" text-rendering="geometricPrecision" image-rendering="optimizeQuality" fill-rule="evenodd" clip-rule="evenodd"
viewBox="0 0 32107 10019"
 xmlns:xlink="http://www.w3.org/1999/xlink"
 xmlns:xodm="http://www.corel.com/coreldraw/odm/2003">
 <g id="Camada_x0020_1">
  <metadata id="CorelCorpID_0Corel-Layer"/>
  <path fill="#666666" d="M0 535l3904 0 428 18 410 36 392 89 374 89 339 143 321 143 303 178 285 196 249 214 250 232 214 250 196 267 160 285 160 285 125 303 107 303 5544 -3565 2014 1355 -4314 2781 695 463 4350 -2763 1872 1248 -4296 2834 731 446 4368 -2781 0 -3048 3209 0 0 6079 2852 0 0 2852 -6061 0 0 -2924 -5402 3476 -5508 -3726 -107 321 -107 303 -160 303 -160 303 -196 267 -214 267 -232 249 -267 214 -267 214 -321 178 -321 160 -357 143 -374 107 -392 71 -410 53 -446 18 -3940 0 0 -8931zm3066 2799l838 0 374 36 303 107 267 160 232 214 161 249 125 267 71 303 18 303 -18 303 -71 303 -125 267 -178 250 -214 214 -267 160 -321 107 -357 36 -838 0 0 -3280zm22979 -2799l3227 0 0 6079 2834 0 0 2852 -6061 0 0 -8931z"/>
 </g>
</svg>
