<?xml version="1.0" encoding="UTF-8"?>
<!DOCTYPE svg PUBLIC "-//W3C//DTD SVG 1.1//EN" "http://www.w3.org/Graphics/SVG/1.1/DTD/svg11.dtd">
<!-- Creator: CorelDRAW 2020 (64 Bit) -->
<svg xmlns="http://www.w3.org/2000/svg" xml:space="preserve" width="12.224mm" height="12.2223mm" version="1.1" shape-rendering="geometricPrecision" text-rendering="geometricPrecision" image-rendering="optimizeQuality" fill-rule="evenodd" clip-rule="evenodd"
viewBox="0 0 11657 11656"
 xmlns:xlink="http://www.w3.org/1999/xlink"
 xmlns:xodm="http://www.corel.com/coreldraw/odm/2003">
 <g id="Camada_x0020_1">
  <metadata id="CorelCorpID_0Corel-Layer"/>
  <path fill="#666666" fill-rule="nonzero" d="M11632 4593c-4,-62 -10,-185 -15,-271 -4,-86 -11,-201 -15,-253 -4,-53 -14,-182 -22,-289 -8,-107 -16,-207 -18,-224 -2,-16 -9,-87 -15,-157 -6,-70 -12,-136 -15,-147 -2,-10 -10,-78 -18,-150 -19,-175 -42,-368 -48,-391 -2,-10 -10,-69 -18,-129 -36,-274 -103,-656 -160,-916 -8,-37 -21,-96 -29,-132 -21,-94 -45,-188 -53,-205 -4,-8 -10,-28 -15,-44 -16,-54 -98,-235 -118,-264 -3,-4 -26,-39 -51,-77 -52,-78 -185,-218 -265,-276 -158,-116 -334,-196 -561,-251 -39,-10 -78,-19 -117,-29 -27,-8 -81,-20 -198,-44 -33,-7 -66,-14 -99,-21 -141,-34 -602,-109 -901,-147 -60,-7 -119,-15 -132,-18 -22,-4 -128,-15 -344,-37 -60,-6 -143,-15 -183,-18 -40,-4 -113,-11 -161,-15 -48,-4 -128,-10 -176,-14 -164,-14 -620,-40 -872,-51 -247,-11 -601,-18 -962,-20 -50,0 -100,-1 -150,-1l-266 0c-206,1 -401,3 -566,7l0 0c-336,8 -582,20 -1033,48 -209,12 -437,31 -597,47 -40,4 -125,12 -187,18 -87,8 -187,20 -289,32 -205,24 -415,52 -524,71 -35,6 -85,14 -114,18 -28,4 -78,12 -110,18 -32,6 -86,16 -121,22 -121,21 -327,62 -443,90 -32,8 -90,22 -128,31 -38,9 -72,17 -77,18 -215,51 -428,155 -592,289 -160,130 -303,339 -374,547 -12,32 -23,65 -27,73 -9,19 -37,138 -67,273 -13,60 -27,122 -38,181 -6,32 -16,80 -22,106 -6,26 -14,72 -19,103 -4,30 -10,67 -14,81 -11,42 -56,327 -84,535 -28,201 -46,347 -62,495 -8,72 -16,144 -18,158 -2,14 -9,85 -15,158 -6,72 -15,161 -19,198 -15,135 -53,722 -72,1136 -12,249 -20,730 -20,1094 0,84 0,162 1,229 5,447 16,846 26,985 4,56 11,175 15,264 4,89 10,202 14,253 17,253 30,420 37,473 4,32 12,118 18,190 6,72 15,158 18,191 4,33 12,104 18,158 18,174 32,287 44,363 6,40 16,109 22,154 21,161 46,318 73,462 6,32 15,86 22,121 12,73 41,219 62,311 70,323 101,420 184,579 23,44 52,95 65,114 12,18 31,45 40,59 42,62 161,184 227,231 11,8 32,23 46,34 15,12 29,21 32,21 3,0 10,5 16,11 29,28 230,124 317,149 16,5 36,12 44,15 19,9 127,36 256,65 56,13 114,27 128,31 34,9 246,51 407,81 92,17 272,45 385,62 42,6 97,14 121,18 89,15 455,58 685,80 83,8 185,18 227,22 69,7 139,13 476,37 51,4 166,10 256,15 91,4 218,11 282,15 255,15 743,22 1235,23l63 0c492,0 978,-8 1230,-23 64,-4 191,-10 282,-15 156,-7 213,-11 458,-29 314,-24 774,-69 930,-91 45,-6 122,-17 172,-23 187,-24 443,-63 590,-90 160,-29 373,-72 407,-81 14,-4 72,-18 128,-31 127,-29 237,-56 256,-65 24,-9 49,-17 73,-26 60,-20 259,-114 276,-130 5,-5 20,-16 32,-23 57,-36 83,-56 136,-103 59,-54 140,-141 160,-171 7,-10 24,-35 39,-55 15,-21 28,-39 28,-42 0,-3 12,-23 26,-45 14,-22 31,-54 37,-72 7,-17 15,-35 18,-39 14,-18 65,-164 87,-247 35,-128 99,-431 122,-574 6,-37 12,-71 15,-77 7,-16 47,-267 84,-524 8,-56 16,-113 18,-125 6,-34 32,-259 44,-377 6,-59 14,-126 18,-150 4,-24 12,-103 18,-176 6,-72 14,-162 18,-198 4,-37 11,-120 15,-187 4,-67 11,-149 15,-183 4,-34 12,-161 18,-282 7,-121 14,-270 18,-330 16,-266 25,-749 25,-1234 0,-485 -8,-972 -25,-1246z"/>
  <path fill="#666666" fill-rule="nonzero" d="M5988 8611c-267,0 -367,-178 -386,-265 -7,-34 -11,-66 -11,-97l0 -3c1,-252 240,-396 728,-398l18 0c60,0 123,2 190,7l-10 362c-6,27 -53,283 -297,356 -89,26 -166,38 -233,38z"/>
  <g id="_2732378129984">
   <polygon fill="white" fill-rule="nonzero" points="1288,9149 2145,9149 2145,6234 1288,6234 "/>
   <path fill="white" fill-rule="nonzero" d="M2221 5437c0,279 -226,505 -505,505 -279,0 -505,-226 -505,-505 0,-279 226,-505 505,-505 279,0 505,226 505,505z"/>
   <path fill="white" fill-rule="nonzero" d="M3752 5352l-852 143 0 738 -425 0 0 652 424 0 8 1345c6,300 71,520 260,709 298,299 784,320 1286,206 7,-217 -7,-426 0,-643 -289,60 -522,43 -630,-111 -23,-33 -55,-93 -58,-189 -3,-439 -6,-878 -9,-1318l733 0 0 -652c-244,0 -488,0 -733,0l-5 -881z"/>
   <path fill="white" fill-rule="nonzero" d="M5754 9217c-363,0 -762,-147 -899,-470 -176,-418 -12,-799 6,-832 29,-53 62,-100 96,-143 314,-389 855,-462 1229,-462 146,0 266,11 338,19 0,-133 -36,-219 -76,-276 -104,-150 -317,-227 -596,-227 -265,0 -589,70 -935,214l6 -687c365,-138 721,-203 1043,-203 529,0 964,177 1187,498 74,107 170,294 177,594l10 1909 -799 0c-4,-101 -7,-202 -11,-303 -58,79 -152,182 -292,262 -125,72 -300,109 -483,109zm-162 -969c0,31 4,63 11,97 18,86 118,265 386,265 67,0 144,-11 233,-38 244,-73 291,-329 297,-356l10 -362c-67,-4 -130,-7 -190,-7l-18 0c-489,2 -727,146 -728,398l0 3z"/>
   <path fill="white" fill-rule="nonzero" d="M7763 6234l858 0 7 1857c13,194 111,445 430,440 262,-4 432,-184 448,-433 3,-621 6,-1243 9,-1864l857 0 0 2916 -818 -10 -16 -298c-270,374 -773,479 -1232,286 -334,-141 -530,-510 -535,-893 -3,-667 -5,-1334 -8,-2001z"/>
   <polygon fill="white" fill-rule="nonzero" points="8402,5343 8402,5838 9823,5838 9823,5098 "/>
  </g>
 </g>
</svg>
