<?xml version="1.0" encoding="UTF-8"?>
<!DOCTYPE svg PUBLIC "-//W3C//DTD SVG 1.1//EN" "http://www.w3.org/Graphics/SVG/1.1/DTD/svg11.dtd">
<!-- Creator: CorelDRAW 2020 (64 Bit) -->
<svg xmlns="http://www.w3.org/2000/svg" xml:space="preserve" width="9.2169mm" height="9.2363mm" version="1.1" shape-rendering="geometricPrecision" text-rendering="geometricPrecision" image-rendering="optimizeQuality" fill-rule="evenodd" clip-rule="evenodd"
viewBox="0 0 10888 10911"
 xmlns:xlink="http://www.w3.org/1999/xlink"
 xmlns:xodm="http://www.corel.com/coreldraw/odm/2003">
 <g id="Camada_x0020_1">
  <metadata id="CorelCorpID_0Corel-Layer"/>
  <path fill="#666666" d="M8678 1494l1116 765 1092 -730 2 -1499 -2210 1465 0 0zm-6453 7946l-1112 -758 -1113 760 0 1469 2226 -1471 0 0zm4223 -6486l1090 733 -5178 3504 3200 2160 1503 -1018 -1168 -773 2694 -1806 2254 1496 -5446 3630 -5374 -3605 6425 -4320 0 0zm-2040 4970l-1090 -733 5178 -3504 -3200 -2160 -1503 1018 1167 773 -2694 1806 -2254 -1496 5427 -3630 5388 3621 -6420 4304 0 0z"/>
 </g>
</svg>
