<?xml version="1.0" encoding="UTF-8"?>
<!DOCTYPE svg PUBLIC "-//W3C//DTD SVG 1.1//EN" "http://www.w3.org/Graphics/SVG/1.1/DTD/svg11.dtd">
<!-- Creator: CorelDRAW 2020 (64 Bit) -->
<svg xmlns="http://www.w3.org/2000/svg" xml:space="preserve" width="10.6186mm" height="10.6172mm" version="1.1" shape-rendering="geometricPrecision" text-rendering="geometricPrecision" image-rendering="optimizeQuality" fill-rule="evenodd" clip-rule="evenodd"
viewBox="0 0 11469 11468"
 xmlns:xlink="http://www.w3.org/1999/xlink"
 xmlns:xodm="http://www.corel.com/coreldraw/odm/2003">
 <g id="Camada_x0020_1">
  <metadata id="CorelCorpID_0Corel-Layer"/>
  <path fill="#666666" fill-rule="nonzero" d="M11445 4519c-4,-61 -10,-182 -14,-267 -4,-85 -11,-198 -14,-249 -4,-52 -14,-180 -22,-285 -8,-105 -16,-204 -18,-220 -2,-16 -9,-86 -14,-155 -6,-69 -12,-134 -14,-144 -2,-10 -10,-76 -18,-148 -19,-172 -42,-363 -47,-385 -2,-10 -10,-68 -18,-127 -35,-269 -101,-645 -157,-901 -8,-36 -21,-94 -29,-130 -20,-92 -44,-185 -52,-202 -4,-8 -10,-27 -15,-43 -16,-53 -96,-231 -116,-259 -3,-4 -26,-38 -51,-76 -51,-77 -182,-214 -261,-272 -156,-115 -329,-192 -552,-247 -38,-9 -77,-19 -115,-29 -27,-8 -80,-19 -195,-43 -32,-7 -65,-14 -97,-21 -139,-34 -592,-107 -887,-145 -59,-7 -118,-15 -130,-18 -22,-4 -126,-15 -339,-36 -59,-6 -141,-14 -180,-18 -40,-4 -111,-11 -159,-15 -48,-3 -125,-10 -173,-14 -161,-14 -610,-40 -858,-50 -243,-11 -591,-18 -946,-20 -49,0 -99,-1 -148,-1l-262 0c-202,1 -394,3 -557,7l0 0c-330,8 -572,19 -1016,47 -205,12 -430,30 -587,46 -40,4 -123,12 -184,18 -85,8 -184,19 -285,31 -202,24 -408,51 -515,70 -34,6 -84,14 -112,18 -27,4 -76,12 -108,18 -32,6 -85,16 -119,21 -119,20 -321,61 -436,89 -32,8 -89,22 -126,30 -37,9 -71,17 -76,17 -211,50 -421,152 -582,284 -157,128 -298,334 -368,538 -11,32 -23,64 -27,72 -9,19 -37,136 -66,269 -13,59 -26,120 -38,178 -6,32 -16,79 -22,104 -6,26 -14,71 -19,101 -4,30 -10,66 -14,79 -11,41 -55,322 -83,526 -27,198 -45,341 -61,487 -8,71 -16,141 -17,155 -2,14 -9,84 -15,155 -6,71 -14,159 -19,195 -15,133 -53,710 -71,1117 -12,245 -20,718 -20,1076 0,83 0,159 1,225 5,440 16,833 26,969 4,56 11,172 15,260 4,87 10,199 14,249 17,249 29,413 36,465 4,32 12,116 18,187 6,71 14,155 18,188 4,32 12,102 18,156 18,171 32,283 43,357 6,40 16,107 22,151 21,159 45,313 72,454 6,32 15,85 22,119 12,72 40,215 61,306 69,318 99,413 181,570 22,43 51,94 64,112 12,18 30,44 40,58 41,61 159,181 224,227 11,8 32,23 45,34 14,11 28,20 32,20 3,0 10,5 16,11 28,27 226,122 311,147 16,5 35,11 43,15 19,9 125,35 252,64 56,13 112,27 126,30 33,9 242,50 400,79 91,17 267,45 378,61 42,6 95,14 119,18 87,15 448,57 674,79 81,8 182,17 223,21 68,7 137,13 469,37 50,4 163,10 252,14 89,4 214,11 277,14 251,14 731,22 1215,22l62 0c484,0 962,-8 1210,-22 64,-4 188,-10 278,-14 153,-7 210,-11 451,-29 308,-24 762,-68 915,-89 44,-6 120,-17 169,-23 184,-24 436,-62 580,-89 158,-29 367,-71 400,-79 14,-4 71,-17 126,-30 125,-28 233,-56 252,-64 24,-9 48,-17 72,-25 59,-19 255,-112 272,-128 5,-5 19,-16 32,-23 56,-35 82,-55 133,-102 58,-53 138,-139 157,-169 6,-10 24,-35 38,-54 15,-20 27,-38 27,-41 0,-3 12,-23 25,-45 14,-22 30,-53 37,-71 7,-17 14,-35 17,-38 14,-18 64,-162 86,-243 34,-126 97,-424 120,-564 6,-36 12,-70 14,-76 6,-16 46,-263 82,-515 8,-56 16,-111 18,-122 6,-33 32,-254 43,-371 6,-58 14,-124 18,-148 4,-24 12,-102 18,-173 6,-71 14,-159 17,-195 4,-36 11,-118 15,-184 4,-66 11,-146 14,-180 4,-34 12,-159 18,-277 7,-119 14,-265 18,-324 16,-262 24,-737 24,-1214 0,-477 -8,-956 -24,-1226z"/>
  <path fill="#666666" fill-rule="nonzero" d="M5891 8472c-263,0 -361,-175 -379,-260 -7,-33 -11,-65 -11,-96l0 -3c1,-248 236,-389 717,-391l17 0c59,0 121,2 187,7l-9 357c-6,26 -52,278 -292,350 -88,26 -164,37 -229,37z"/>
  <g id="_2792796180720">
   <polygon fill="#FFE069" fill-rule="nonzero" points="1267,9002 2110,9002 2110,6133 1267,6133 "/>
   <path fill="#FFE069" fill-rule="nonzero" d="M2186 5349c0,274 -222,497 -497,497 -274,0 -497,-222 -497,-497 0,-274 222,-497 497,-497 274,0 497,222 497,497z"/>
   <path fill="#FFE069" fill-rule="nonzero" d="M3691 5266l-838 141 0 727 -418 0 0 642 417 0 8 1323c6,295 70,511 255,698 293,294 771,315 1265,203 6,-214 -6,-419 0,-632 -284,59 -514,42 -619,-109 -22,-32 -54,-91 -57,-186 -3,-432 -6,-864 -9,-1297l722 0 0 -642c-240,0 -481,0 -721,0l-5 -867z"/>
   <path fill="#FFE069" fill-rule="nonzero" d="M5661 9068c-357,0 -750,-145 -884,-462 -173,-411 -12,-786 6,-819 29,-52 61,-99 95,-141 309,-382 842,-455 1210,-455 143,0 262,11 332,19 1,-131 -36,-216 -74,-272 -102,-147 -312,-224 -586,-224 -261,0 -579,69 -920,210l6 -676c359,-136 710,-200 1026,-200 521,0 949,174 1168,489 73,105 167,289 174,585l10 1878 -786 0c-4,-99 -7,-199 -11,-298 -57,77 -150,179 -288,257 -124,71 -295,108 -476,108zm-160 -953c0,30 4,62 11,96 18,85 116,260 379,260 66,0 142,-11 229,-37 240,-72 286,-324 292,-350l9 -357c-66,-4 -128,-7 -187,-7l-17 0c-481,2 -716,143 -717,391l0 3z"/>
   <path fill="#FFE069" fill-rule="nonzero" d="M7638 6133l844 0 7 1827c13,191 109,438 423,433 258,-4 425,-181 441,-426 3,-611 6,-1223 9,-1834l843 0 0 2869 -805 -9 -16 -293c-266,368 -760,471 -1212,281 -329,-138 -521,-502 -526,-878 -3,-656 -5,-1313 -8,-1969z"/>
   <polygon fill="#FFE069" fill-rule="nonzero" points="8266,5257 8266,5744 9664,5744 9664,5016 "/>
  </g>
 </g>
</svg>
