<?xml version="1.0" encoding="UTF-8"?>
<!DOCTYPE svg PUBLIC "-//W3C//DTD SVG 1.1//EN" "http://www.w3.org/Graphics/SVG/1.1/DTD/svg11.dtd">
<!-- Creator: CorelDRAW 2020 (64 Bit) -->
<svg xmlns="http://www.w3.org/2000/svg" xml:space="preserve" width="11.1085mm" height="6.8359mm" version="1.1" shape-rendering="geometricPrecision" text-rendering="geometricPrecision" image-rendering="optimizeQuality" fill-rule="evenodd" clip-rule="evenodd"
viewBox="0 0 13878 8540"
 xmlns:xlink="http://www.w3.org/1999/xlink"
 xmlns:xodm="http://www.corel.com/coreldraw/odm/2003">
 <g id="Camada_x0020_1">
  <metadata id="CorelCorpID_0Corel-Layer"/>
  <g id="_217956912">
   <polygon id="_217961256" fill="#666666" fill-rule="nonzero" points="0,0 276,8540 1621,8540 1591,4999 2719,4999 2719,3895 1591,3895 1596,1116 3067,1116 3059,0 "/>
   <polygon id="_217958256" fill="#666666" fill-rule="nonzero" points="3591,0 3761,8540 5149,8540 5177,0 "/>
   <polygon id="_217960584" fill="#666666" fill-rule="nonzero" points="10098,0 10098,1077 11194,1077 11163,8540 12506,8540 12791,1076 13878,1076 13870,0 "/>
   <path id="_217960752" fill="#666666" fill-rule="nonzero" d="M7270 3953l15 -2901 775 0c351,646 577,1500 754,2901l-1544 0zm-1238 4587l136 0 1002 0 147 0 14 -3531 1540 0c121,623 151,2547 158,3531l127 0 1006 0 114 0c118,-4360 -248,-6824 -1257,-8540l-3104 0 118 8540z"/>
  </g>
 </g>
</svg>
