<?xml version="1.0" encoding="UTF-8"?>
<!DOCTYPE svg PUBLIC "-//W3C//DTD SVG 1.1//EN" "http://www.w3.org/Graphics/SVG/1.1/DTD/svg11.dtd">
<!-- Creator: CorelDRAW 2020 (64 Bit) -->
<svg xmlns="http://www.w3.org/2000/svg" xml:space="preserve" width="22.6461mm" height="7.0612mm" version="1.1" shape-rendering="geometricPrecision" text-rendering="geometricPrecision" image-rendering="optimizeQuality" fill-rule="evenodd" clip-rule="evenodd"
viewBox="0 0 85174 26558"
 xmlns:xlink="http://www.w3.org/1999/xlink"
 xmlns:xodm="http://www.corel.com/coreldraw/odm/2003">
 <g id="Camada_x0020_1">
  <metadata id="CorelCorpID_0Corel-Layer"/>
  <g id="vivo.svg">
   <g data-name="Capa 2">
    <g data-name="Layer 1">
     <path fill="#666666" fill-rule="nonzero" d="M74172 180c433,-119 880,-180 1330,-180 2106,0 3986,1319 4703,3299 626,1724 173,3777 -1085,5103 -423,464 -1004,733 -1468,1146 -314,258 -202,815 165,961 249,138 533,24 792,-16 1345,-312 2684,-651 4030,-962 132,-29 266,-44 401,-44 733,0 1397,435 1690,1107 173,516 275,1053 402,1585 209,901 -376,1904 -1277,2136 -1363,358 -2747,657 -4106,1009 -479,118 -942,467 -1022,982 -104,464 165,901 442,1251 1387,1727 2775,3454 4162,5180 278,334 430,755 430,1189 0,206 -34,411 -102,606 -240,729 -961,1099 -1511,1584 -723,647 -1956,577 -2578,-175 -1107,-1321 -2177,-2675 -3269,-4008 -233,-281 -581,-567 -972,-467 -280,114 -523,305 -701,549 -1001,1250 -2019,2487 -3022,3733 -350,505 -926,808 -1542,808 -68,0 -135,-4 -203,-11 -773,-52 -1277,-703 -1863,-1125 -824,-589 -988,-1883 -337,-2659 1374,-1729 2769,-3450 4154,-5173 297,-363 567,-812 461,-1301 -67,-521 -559,-849 -1030,-971 -1336,-337 -2678,-643 -4013,-979 -817,-209 -1389,-947 -1389,-1791 0,-79 5,-159 15,-238 98,-534 232,-1062 376,-1585 252,-741 948,-1240 1731,-1240 123,0 247,13 367,37 1474,323 2931,726 4409,1026 549,199 1046,-530 668,-961 -379,-368 -875,-588 -1257,-952 -1802,-1570 -2159,-4522 -767,-6469 667,-965 1653,-1668 2783,-1985l0 0z"/>
     <path fill="#666666" fill-rule="nonzero" d="M21280 2097c1427,-541 3159,202 3757,1606 176,389 267,813 267,1241 0,1663 -1349,3012 -3012,3012 -207,0 -414,-21 -616,-64 -1257,-264 -2208,-1297 -2367,-2571 -207,-1364 669,-2781 1971,-3224l0 0z"/>
     <path fill="#666666" fill-rule="nonzero" d="M1330 9971c794,-286 1569,-929 2458,-677 566,158 1024,573 1236,1121 1275,2563 2538,5132 3819,7692 1281,-2620 2600,-5220 3881,-7839 341,-743 1236,-1203 2032,-979 478,137 913,396 1374,584 460,188 961,371 1236,801 202,285 311,627 311,976 0,300 -80,595 -231,853 -2022,3613 -4062,7214 -6085,10824 -225,436 -591,785 -1037,989 -633,275 -1339,128 -2008,169 -41,2 -83,4 -124,4 -744,0 -1431,-400 -1798,-1046 -1964,-3480 -3927,-6964 -5887,-10454 -265,-454 -557,-941 -496,-1490 30,-746 653,-1302 1321,-1526z"/>
     <path fill="#666666" fill-rule="nonzero" d="M28797 9719c651,-312 1400,-700 2121,-349 836,313 1081,1236 1459,1955 1144,2247 2216,4533 3382,6766 1282,-2607 2573,-5212 3874,-7814 334,-756 1245,-1220 2048,-985 471,147 903,393 1357,580 420,192 897,339 1187,725 235,301 363,671 363,1053 0,306 -82,607 -238,870 -2043,3628 -4086,7256 -6129,10884 -359,666 -1056,1082 -1813,1082 -21,0 -43,0 -64,-1 -757,-44 -1584,147 -2271,-266 -430,-217 -709,-624 -929,-1036 -1984,-3541 -3974,-7079 -5968,-10613 -173,-273 -266,-590 -266,-914 0,-324 93,-641 266,-914 346,-588 1055,-732 1622,-1022l0 0z"/>
     <path fill="#666666" fill-rule="nonzero" d="M51525 9422c1573,-275 3243,-114 4689,587 2677,1257 4388,3951 4388,6910 0,4215 -3418,7634 -7634,7634 -4215,0 -7634,-3419 -7634,-7634 0,-3659 2597,-6805 6190,-7496l0 0zm5718 5146c-927,135 -1739,694 -2198,1511 -254,451 -388,960 -388,1478 0,1659 1346,3005 3005,3005 43,0 87,-1 131,-3 1591,-17 2983,-1511 2861,-3106 16,-1725 -1721,-3184 -3411,-2886l0 0z"/>
     <path fill="#666666" fill-rule="nonzero" d="M21138 9490c669,-51 1340,-11 2011,-23 993,-32 1817,905 1797,1874 21,3667 0,7335 9,11003 29,687 -224,1419 -824,1812 -687,499 -1574,275 -2361,327 -71,8 -144,12 -215,12 -691,0 -1328,-372 -1667,-973 -275,-480 -229,-1048 -231,-1580 0,-3525 0,-7050 0,-10577 0,-14 0,-29 0,-43 0,-883 618,-1647 1481,-1832l0 0z"/>
    </g>
   </g>
  </g>
  <circle fill="#666666" cx="53036" cy="16914" r="7709"/>
  <circle fill="white" cx="53036" cy="16914" r="3230"/>
 </g>
</svg>
