<?xml version="1.0" encoding="UTF-8"?>
<!DOCTYPE svg PUBLIC "-//W3C//DTD SVG 1.1//EN" "http://www.w3.org/Graphics/SVG/1.1/DTD/svg11.dtd">
<!-- Creator: CorelDRAW 2020 (64 Bit) -->
<svg xmlns="http://www.w3.org/2000/svg" xml:space="preserve" width="17.1953mm" height="7.0571mm" version="1.1" shape-rendering="geometricPrecision" text-rendering="geometricPrecision" image-rendering="optimizeQuality" fill-rule="evenodd" clip-rule="evenodd"
viewBox="0 0 116.99 48.02"
 xmlns:xlink="http://www.w3.org/1999/xlink"
 xmlns:xodm="http://www.corel.com/coreldraw/odm/2003">
 <g id="Camada_x0020_1">
  <metadata id="CorelCorpID_0Corel-Layer"/>
  <g id="_2290398782656">
   <path fill="#666666" d="M29.32 24.93c0,10.76 -4.96,14.87 -14.87,14.87 -10.06,0 -14.45,-5.52 -14.45,-14.02l0 -5.38 10.91 0 0 4.39c0,2.97 0,5.81 3.26,5.81 3.12,0 2.97,-3.82 2.97,-5.52l0 -25.07 12.18 0 0 24.93z"/>
   <path fill="#666666" d="M40.23 21.53c0.42,-2.97 2.12,-4.67 4.96,-4.67 2.55,0 4.39,2.12 4.39,4.67l-9.35 0zm18.84 5.66c0,-11.05 -4.53,-17.28 -14.73,-17.28 -8.21,0 -13.6,6.66 -13.6,14.87 0,9.49 6.23,14.87 14.45,14.87 5.95,0 11.33,-2.83 13.31,-8.92l-9.21 0c-0.85,1.28 -2.55,1.98 -4.11,1.98 -3.12,0 -4.82,-2.27 -5.1,-5.52l18.98 0z"/>
   <path fill="#666666" d="M69.26 21.53c0.42,-2.97 2.12,-4.67 4.96,-4.67 2.55,0 4.39,2.12 4.39,4.67l-9.35 0zm18.84 5.66c0,-11.05 -4.53,-17.28 -14.73,-17.28 -8.21,0 -13.6,6.66 -13.6,14.87 0,9.49 6.23,14.87 14.45,14.87 5.81,0 11.33,-2.83 13.32,-8.92l-9.21 0c-0.85,1.28 -2.55,1.98 -4.11,1.98 -3.12,0 -4.82,-2.27 -5.1,-5.52l18.98 0z"/>
   <path fill="#666666" d="M98.58 24.79c0,-3.4 0.71,-6.94 4.25,-6.94 3.54,0 4.39,3.54 4.39,6.94 0,3.26 -0.85,6.94 -4.39,6.94 -3.54,0 -4.25,-3.68 -4.25,-6.94zm-9.49 23.23l9.77 0 0 -12.18 0.14 0c1.42,2.41 4.11,3.82 7.08,3.82 8.64,0 10.91,-8.07 10.91,-14.73 0,-7.08 -3.4,-15.01 -10.77,-15.01 -4.82,0 -6.37,1.98 -7.65,3.82l0 -3.12 -9.49 0 0 37.39z"/>
   <path fill="#666666" d="M112.6 43.06c0,-1.27 0.85,-2.12 1.98,-2.12 1.13,0 1.98,0.85 1.98,2.12 0,1.13 -0.85,1.98 -1.98,1.98 -1.13,0 -1.98,-0.85 -1.98,-1.98zm-0.57 0c0,1.28 1.13,2.41 2.55,2.41 1.28,0 2.41,-1.13 2.41,-2.41 0,-1.42 -1.13,-2.41 -2.41,-2.41 -1.42,0 -2.55,0.99 -2.55,2.41zm1.56 1.42l0.43 0 0 -1.28 0.57 0 0.71 1.28 0.57 0 -0.85 -1.28c0.43,0 0.71,-0.28 0.71,-0.85 0,-0.42 -0.28,-0.71 -0.99,-0.71l-1.13 0 0 2.83zm0.43 -2.55l0.71 0c0.28,0 0.57,0.14 0.57,0.42 0,0.43 -0.42,0.57 -0.71,0.57l-0.57 0 0 -0.99z"/>
  </g>
 </g>
</svg>
