<?xml version="1.0" encoding="UTF-8"?>
<!DOCTYPE svg PUBLIC "-//W3C//DTD SVG 1.1//EN" "http://www.w3.org/Graphics/SVG/1.1/DTD/svg11.dtd">
<!-- Creator: CorelDRAW 2020 (64 Bit) -->
<svg xmlns="http://www.w3.org/2000/svg" xml:space="preserve" width="17.6078mm" height="9.5321mm" version="1.1" shape-rendering="geometricPrecision" text-rendering="geometricPrecision" image-rendering="optimizeQuality" fill-rule="evenodd" clip-rule="evenodd"
viewBox="0 0 41389 22406"
 xmlns:xlink="http://www.w3.org/1999/xlink"
 xmlns:xodm="http://www.corel.com/coreldraw/odm/2003">
 <g id="Camada_x0020_1">
  <metadata id="CorelCorpID_0Corel-Layer"/>
  <g id="logo_chilli_beans_1c.eps">
   <path fill="#666666" d="M14170 2926c-794,155 -1354,714 -1250,1248 104,535 833,842 1627,688 794,-155 1354,-714 1249,-1248 -104,-534 -833,-842 -1626,-688zm18078 4782c2359,-2520 -1085,-2645 -3489,-2368 -7844,901 -12364,9391 -21512,6532 -1522,-476 -1444,420 -574,1022 8566,5927 13458,-2219 21909,-1590 2536,189 7811,-2441 3665,-3596l0 0zm8198 -1743c-625,-1148 -2559,-903 -4733,-322 -807,-1966 -2276,-2614 -4546,-1671l-473 -993c-654,163 -991,536 -631,1371 3075,76 4473,906 3419,2836 1698,840 1615,3265 -2596,4518 212,458 400,937 1009,1059 1232,-1138 1930,-2237 3580,-2764 744,-455 966,-1489 1042,-2685 1000,-550 2117,-436 3352,343 -5,-641 232,-1188 578,-1692l0 0zm-8173 -1925c881,1 1802,313 2353,814 83,-636 -1667,-1152 -2353,-814l0 0zm6147 1537c508,75 1039,226 1357,407 48,-318 -962,-575 -1357,-407l0 0zm-10330 87c1583,68 2736,325 4236,981 246,108 70,-505 -275,-618 -1620,-530 -2669,-451 -3961,-363l0 0zm-19967 6546c5280,2896 10295,-848 14527,-4161 -4685,3317 -9422,5990 -14527,4161l0 0zm2295 3327c-421,-113 -855,-252 -1304,-421l96 1399c379,-507 793,-822 1208,-978l0 0zm340 1666c-1146,-73 -1358,1189 -1145,3057 1562,644 1163,-2257 1145,-3057l0 0zm5412 -625c843,-180 1367,-569 1192,-1419 -49,-2 -96,-2 -142,-1 -231,84 -465,164 -701,238 -263,229 -379,623 -348,1183l0 0zm7461 -3099l-843 226c-1341,3367 1388,4257 843,-226l0 0zm14296 -3398c-515,-229 -1048,-265 -1432,-183 -152,199 -328,382 -527,549 77,194 347,414 890,628 3626,1428 -281,4653 -2996,3632l-53 -1518c1340,1130 2402,30 713,-905 -243,-134 -444,-275 -609,-418 -372,416 -717,751 -1035,1004l239 2622 -2346 629 -198 -3258c151,198 317,335 498,411 -340,-228 -621,-692 -849,-1397 -40,11 -80,22 -120,33 17,51 35,100 53,148 -912,521 -716,2671 -667,4407l-2346 629 -342 -4994c-264,-5 -523,0 -777,15l352 5150 -2273 609 -117 -1462c-1932,4690 -5339,168 -3709,-2578 -448,207 -894,416 -1344,618 219,195 377,437 438,721 321,1487 -1710,1820 -3027,2343 484,879 1371,1060 3144,-292l16 1528c-3996,2863 -6527,-449 -5565,-2851 -534,37 -1089,33 -1668,-23 600,486 1036,1322 1118,2327 160,1951 -2133,4247 -3861,2938l43 636 -2346 629 -525 -7679 943 -253c-248,-122 -500,-250 -758,-390 -629,-341 -869,-530 -1136,-922l-133 100c-5939,4304 -8470,-5252 -1005,-5321l598 1605c-3494,-1321 -3568,5374 248,1867 46,-58 338,-349 647,-446l-385 -5637 2509 -673 136 2233c1972,-1096 3901,-1451 4059,1035l231 3614c-790,117 -1684,158 -2549,50l-216 -3553c-1089,108 -1125,1608 -1106,3300 1802,491 3334,329 4823,51l-424 -5915 2510 -673 405 5642c320,-154 637,-318 954,-490l-514 -7522 2510 -673 461 6748c389,-239 780,-480 1176,-720l-434 -6350 2510 -673 385 5625c343,-177 691,-347 1046,-509l-236 -3293 2510 -673 217 3033c805,-233 1647,-410 2537,-511 -244,-1913 1418,-3073 2506,-1278 1967,-898 3437,-354 4412,1632 3023,-811 4775,-327 5253,1451 -817,564 -969,1526 -457,2888 -1296,-946 -2545,-1546 -3692,-1390 -18,320 -65,621 -139,903 115,19 230,43 343,73l483 1364 0 0zm-12987 -10040c-794,155 -1353,714 -1249,1248 104,535 833,842 1627,688 794,-155 1354,-714 1250,-1248 -86,-441 -598,-728 -1221,-728l-7 0c-129,1 -263,14 -399,40l0 0z"/>
  </g>
 </g>
</svg>
