<?xml version="1.0" encoding="UTF-8"?>
<!DOCTYPE svg PUBLIC "-//W3C//DTD SVG 1.1//EN" "http://www.w3.org/Graphics/SVG/1.1/DTD/svg11.dtd">
<!-- Creator: CorelDRAW 2020 (64 Bit) -->
<svg xmlns="http://www.w3.org/2000/svg" xml:space="preserve" width="22.2761mm" height="6.9459mm" version="1.1" shape-rendering="geometricPrecision" text-rendering="geometricPrecision" image-rendering="optimizeQuality" fill-rule="evenodd" clip-rule="evenodd"
viewBox="0 0 46115 14379"
 xmlns:xlink="http://www.w3.org/1999/xlink"
 xmlns:xodm="http://www.corel.com/coreldraw/odm/2003">
 <g id="Camada_x0020_1">
  <metadata id="CorelCorpID_0Corel-Layer"/>
  <g id="_2006138105328">
   <g id="vivo.svg">
    <g data-name="Capa 2">
     <g data-name="Layer 1">
      <path fill="#666666" fill-rule="nonzero" d="M40158 98c235,-64 477,-98 720,-98 1140,0 2158,714 2546,1787 339,933 94,2045 -587,2763 -229,251 -544,397 -795,620 -170,140 -109,441 89,521 135,74 289,13 429,-9 728,-169 1453,-353 2182,-521 71,-16 144,-24 217,-24 397,0 757,235 915,599 94,280 149,571 218,858 113,488 -204,1031 -692,1156 -738,194 -1487,355 -2223,547 -260,64 -510,253 -553,532 -57,251 89,488 240,677 751,935 1502,1870 2253,2804 150,181 233,409 233,644 0,112 -19,223 -55,328 -130,395 -521,595 -818,857 -391,350 -1059,312 -1396,-95 -599,-715 -1179,-1448 -1770,-2170 -126,-152 -315,-307 -527,-253 -152,62 -283,165 -379,297 -542,677 -1093,1347 -1636,2021 -189,274 -502,437 -835,437 -37,0 -73,-2 -110,-6 -419,-28 -692,-381 -1008,-609 -446,-319 -535,-1020 -182,-1440 744,-936 1499,-1868 2249,-2801 161,-196 307,-439 250,-704 -36,-282 -303,-460 -558,-526 -724,-182 -1450,-348 -2173,-530 -443,-113 -752,-513 -752,-969 0,-43 3,-86 8,-129 53,-289 126,-575 204,-858 136,-401 513,-672 937,-672 67,0 134,7 199,20 798,175 1587,393 2387,556 297,108 566,-287 361,-521 -205,-199 -474,-318 -680,-515 -976,-850 -1169,-2448 -415,-3503 361,-523 895,-903 1507,-1075l0 0z"/>
      <path fill="#666666" fill-rule="nonzero" d="M11521 1136c773,-293 1711,109 2034,869 95,211 145,440 145,672 0,901 -730,1631 -1631,1631 -112,0 -224,-12 -334,-35 -680,-143 -1196,-702 -1281,-1392 -112,-738 362,-1506 1067,-1745l0 0z"/>
      <path fill="#666666" fill-rule="nonzero" d="M720 5398c430,-155 849,-503 1330,-367 306,85 555,310 669,607 690,1388 1374,2778 2067,4165 694,-1418 1408,-2826 2101,-4244 184,-402 669,-651 1100,-530 259,74 495,214 744,316 249,102 521,201 669,433 110,154 169,339 169,529 0,162 -43,322 -125,462 -1095,1956 -2199,3906 -3294,5860 -122,236 -320,425 -562,536 -343,149 -725,69 -1087,92 -22,1 -45,2 -67,2 -403,0 -775,-216 -974,-566 -1063,-1884 -2126,-3771 -3187,-5660 -143,-246 -302,-509 -269,-807 16,-404 353,-705 715,-826z"/>
      <path fill="#666666" fill-rule="nonzero" d="M15591 5262c353,-169 758,-379 1148,-189 453,170 585,669 790,1058 620,1217 1200,2454 1831,3663 694,-1411 1393,-2822 2097,-4231 181,-409 674,-660 1109,-533 255,80 489,213 735,314 228,104 486,184 643,393 128,163 197,364 197,570 0,166 -45,329 -129,471 -1106,1964 -2212,3929 -3318,5893 -194,361 -572,586 -982,586 -12,0 -23,0 -35,-1 -410,-24 -857,80 -1229,-144 -233,-117 -384,-338 -503,-561 -1074,-1917 -2152,-3833 -3231,-5746 -94,-148 -144,-320 -144,-495 0,-175 50,-347 144,-495 187,-318 571,-396 878,-553l0 0z"/>
      <path fill="#666666" fill-rule="nonzero" d="M27897 5102c851,-149 1756,-62 2539,318 1450,681 2376,2139 2376,3741 0,2282 -1851,4133 -4133,4133 -2282,0 -4133,-1851 -4133,-4133 0,-1981 1406,-3684 3352,-4059l0 0zm3096 2786c-502,73 -942,376 -1190,818 -138,244 -210,520 -210,800 0,898 729,1627 1627,1627 23,0 47,-1 71,-2 861,-9 1615,-818 1549,-1681 9,-934 -932,-1724 -1847,-1563l0 0z"/>
      <path fill="#666666" fill-rule="nonzero" d="M11444 5138c362,-28 726,-6 1089,-13 538,-17 984,490 973,1014 11,1985 0,3971 5,5958 16,372 -121,768 -446,981 -372,270 -852,149 -1278,177 -39,4 -78,7 -117,7 -374,0 -719,-202 -902,-527 -149,-259 -124,-567 -125,-855 0,-1908 0,-3817 0,-5726 0,-7 0,-16 0,-23 0,-478 335,-892 802,-992l0 0z"/>
     </g>
    </g>
   </g>
   <circle fill="#666666" cx="28715" cy="9158" r="4174"/>
   <circle fill="#FFE069" cx="28715" cy="9158" r="1749"/>
  </g>
 </g>
</svg>
