<?xml version="1.0" encoding="UTF-8"?>
<!DOCTYPE svg PUBLIC "-//W3C//DTD SVG 1.1//EN" "http://www.w3.org/Graphics/SVG/1.1/DTD/svg11.dtd">
<!-- Creator: CorelDRAW 2020 (64 Bit) -->
<svg xmlns="http://www.w3.org/2000/svg" xml:space="preserve" width="22.2761mm" height="6.9459mm" version="1.1" shape-rendering="geometricPrecision" text-rendering="geometricPrecision" image-rendering="optimizeQuality" fill-rule="evenodd" clip-rule="evenodd"
viewBox="0 0 47723 14881"
 xmlns:xlink="http://www.w3.org/1999/xlink"
 xmlns:xodm="http://www.corel.com/coreldraw/odm/2003">
 <g id="Camada_x0020_1">
  <metadata id="CorelCorpID_0Corel-Layer"/>
  <g id="vivo.svg">
   <g data-name="Capa 2">
    <g data-name="Layer 1">
     <path fill="#666666" fill-rule="nonzero" d="M41559 101c243,-67 493,-101 745,-101 1180,0 2233,739 2635,1849 351,966 97,2116 -608,2859 -237,260 -563,411 -823,642 -176,145 -113,456 92,539 139,77 299,13 444,-9 753,-175 1504,-365 2258,-539 74,-16 149,-25 225,-25 411,0 783,244 947,620 97,289 154,590 226,888 117,505 -211,1067 -716,1197 -764,201 -1539,368 -2300,566 -269,66 -528,262 -573,550 -58,260 92,505 248,701 777,968 1554,1935 2332,2902 156,187 241,423 241,666 0,115 -19,230 -57,340 -135,409 -539,616 -847,887 -405,362 -1096,323 -1445,-98 -620,-740 -1220,-1498 -1832,-2246 -131,-158 -326,-318 -545,-262 -157,64 -293,171 -392,308 -561,700 -1131,1394 -1693,2092 -196,283 -519,452 -864,452 -38,0 -76,-2 -114,-6 -433,-29 -716,-394 -1044,-630 -462,-330 -553,-1055 -189,-1490 770,-969 1551,-1933 2327,-2898 166,-203 318,-455 259,-729 -38,-292 -313,-476 -577,-544 -749,-189 -1501,-360 -2249,-549 -458,-117 -778,-530 -778,-1003 0,-45 3,-89 9,-133 55,-300 130,-595 211,-888 141,-415 531,-695 970,-695 69,0 138,7 206,21 826,181 1642,406 2470,575 308,112 586,-297 374,-539 -213,-206 -490,-329 -704,-533 -1010,-880 -1210,-2534 -430,-3625 374,-541 926,-935 1559,-1112l0 0z"/>
     <path fill="#666666" fill-rule="nonzero" d="M11923 1175c800,-303 1770,113 2105,900 99,218 150,456 150,695 0,932 -756,1688 -1688,1688 -116,0 -232,-12 -345,-36 -704,-148 -1237,-726 -1326,-1441 -116,-764 375,-1558 1104,-1806l0 0z"/>
     <path fill="#666666" fill-rule="nonzero" d="M745 5587c445,-160 879,-520 1377,-379 317,88 574,321 693,628 714,1436 1422,2875 2140,4310 718,-1468 1457,-2925 2175,-4392 191,-416 693,-674 1138,-549 268,77 512,222 770,327 258,105 539,208 693,449 114,160 174,351 174,547 0,168 -45,333 -130,478 -1133,2024 -2276,4042 -3409,6064 -126,244 -331,440 -581,554 -355,154 -750,72 -1125,95 -23,1 -46,2 -70,2 -417,0 -802,-224 -1008,-586 -1101,-1950 -2200,-3902 -3299,-5857 -148,-255 -312,-527 -278,-835 17,-418 366,-729 740,-855z"/>
     <path fill="#666666" fill-rule="nonzero" d="M16135 5446c365,-175 784,-392 1188,-196 469,175 606,693 817,1095 641,1259 1241,2540 1895,3791 718,-1461 1442,-2920 2170,-4378 187,-423 697,-683 1147,-552 264,82 506,220 760,325 236,108 503,190 665,406 132,168 204,376 204,590 0,171 -46,340 -133,488 -1145,2033 -2290,4066 -3434,6098 -201,373 -592,606 -1016,606 -12,0 -24,0 -36,-1 -424,-25 -887,82 -1272,-149 -241,-121 -397,-349 -520,-580 -1112,-1984 -2227,-3966 -3344,-5947 -97,-153 -149,-331 -149,-512 0,-181 52,-359 149,-512 194,-329 591,-410 909,-572l0 0z"/>
     <path fill="#666666" fill-rule="nonzero" d="M28870 5280c881,-154 1817,-64 2627,329 1500,704 2459,2213 2459,3872 0,2362 -1915,4277 -4277,4277 -2362,0 -4277,-1915 -4277,-4277 0,-2050 1456,-3813 3468,-4200l0 0zm3204 2883c-520,76 -975,389 -1231,846 -142,253 -218,538 -218,828 0,930 754,1684 1684,1684 24,0 49,-1 73,-2 891,-9 1671,-846 1603,-1740 9,-967 -964,-1784 -1911,-1617l0 0z"/>
     <path fill="#666666" fill-rule="nonzero" d="M11844 5317c375,-28 751,-6 1127,-13 557,-18 1018,507 1007,1050 12,2055 0,4110 5,6165 16,385 -125,795 -462,1015 -385,279 -882,154 -1323,183 -40,4 -80,7 -121,7 -387,0 -744,-209 -934,-546 -154,-268 -129,-587 -129,-885 0,-1975 0,-3950 0,-5926 0,-8 0,-16 0,-24 0,-495 346,-923 830,-1026l0 0z"/>
    </g>
   </g>
  </g>
  <circle fill="#666666" cx="29716" cy="9477" r="4319"/>
  <circle fill="white" cx="29716" cy="9477" r="1810"/>
 </g>
</svg>
