<?xml version="1.0" encoding="UTF-8"?>
<!DOCTYPE svg PUBLIC "-//W3C//DTD SVG 1.1//EN" "http://www.w3.org/Graphics/SVG/1.1/DTD/svg11.dtd">
<!-- Creator: CorelDRAW 2020 (64 Bit) -->
<svg xmlns="http://www.w3.org/2000/svg" xml:space="preserve" width="24.2277mm" height="4.2295mm" version="1.1" shape-rendering="geometricPrecision" text-rendering="geometricPrecision" image-rendering="optimizeQuality" fill-rule="evenodd" clip-rule="evenodd"
viewBox="0 0 62192 10857"
 xmlns:xlink="http://www.w3.org/1999/xlink"
 xmlns:xodm="http://www.corel.com/coreldraw/odm/2003">
 <g id="Camada_x0020_1">
  <metadata id="CorelCorpID_0Corel-Layer"/>
  <g id="_2006158879216">
   <polygon fill="#666666" points="56417,1842 56740,0 51046,0 49098,10857 54963,10857 55297,9016 51521,9016 52005,6138 54761,6138 55085,4307 52329,4307 52803,1842 56417,1842 "/>
   <polygon fill="#666666" points="61869,10857 62192,9016 58830,9016 60425,0 58346,0 56417,10857 61869,10857 "/>
   <polygon fill="#666666" points="49027,1842 49350,0 43595,0 41677,10857 47533,10857 47906,9016 44080,9016 44615,6138 47371,6138 47694,4307 44938,4307 45362,1842 49027,1842 "/>
   <polygon fill="#666666" points="41930,0 40042,0 38911,6440 38860,6440 37103,0 34821,0 32873,10857 34761,10857 36013,3844 36044,3844 38022,10857 40042,10857 41930,0 "/>
   <path fill="#666666" d="M29703 6762l-2040 0 1818 -4408 222 4408 0 0zm-3776 4095l1000 -2284 2908 0 121 2284 1999 0 -717 -10857 -2655 0 -4644 10857 1989 0 0 0z"/>
   <polygon fill="#666666" points="17860,30 16548,0 16134,2163 12681,2163 12327,4347 15740,4347 15387,6510 11934,6510 11520,8694 14983,8694 14619,10857 15972,10807 17062,10606 18092,10223 18627,9951 19556,9257 20354,8462 21031,7536 21515,6510 21838,5423 21929,4347 21868,3793 21636,2837 21192,1952 20606,1238 19809,654 18900,242 17860,30 "/>
   <polygon fill="#666666" points="10207,2163 10601,0 5856,30 5220,121 4049,493 3009,1006 2141,1721 1373,2556 1050,2999 374,4438 91,5423 0,6399 121,7305 414,8211 889,9046 1212,9478 1929,10113 2847,10535 3968,10807 8673,10857 9026,8694 5634,8694 5987,6510 9440,6510 9854,4347 6391,4347 6755,2163 10207,2163 "/>
  </g>
 </g>
</svg>
