<?xml version="1.0" encoding="UTF-8"?>
<!DOCTYPE svg PUBLIC "-//W3C//DTD SVG 1.1//EN" "http://www.w3.org/Graphics/SVG/1.1/DTD/svg11.dtd">
<!-- Creator: CorelDRAW 2020 (64 Bit) -->
<svg xmlns="http://www.w3.org/2000/svg" xml:space="preserve" width="16.5862mm" height="6.8071mm" version="1.1" shape-rendering="geometricPrecision" text-rendering="geometricPrecision" image-rendering="optimizeQuality" fill-rule="evenodd" clip-rule="evenodd"
viewBox="0 0 33291 13663"
 xmlns:xlink="http://www.w3.org/1999/xlink"
 xmlns:xodm="http://www.corel.com/coreldraw/odm/2003">
 <g id="Camada_x0020_1">
  <metadata id="CorelCorpID_0Corel-Layer"/>
  <g id="_2006044782080">
   <path fill="#666666" d="M8343 7093c0,3063 -1411,4232 -4232,4232 -2862,0 -4111,-1572 -4111,-3990l0 -1531 3103 0 0 1249c0,846 0,1652 927,1652 887,0 846,-1088 846,-1572l0 -7134 3466 0 0 7093z"/>
   <path fill="#666666" d="M11446 6126c121,-846 605,-1330 1411,-1330 725,0 1249,605 1249,1330l-2660 0zm5360 1612c0,-3144 -1290,-4917 -4192,-4917 -2338,0 -3869,1894 -3869,4232 0,2700 1773,4232 4111,4232 1693,0 3224,-806 3789,-2539l-2620 0c-242,363 -726,564 -1169,564 -887,0 -1370,-645 -1451,-1572l5401 0z"/>
   <path fill="#666666" d="M19709 6126c121,-846 605,-1330 1410,-1330 726,0 1250,605 1250,1330l-2660 0zm5360 1612c0,-3144 -1290,-4917 -4192,-4917 -2338,0 -3869,1894 -3869,4232 0,2700 1773,4232 4111,4232 1653,0 3224,-806 3789,-2539l-2620 0c-242,363 -725,564 -1169,564 -887,0 -1370,-645 -1451,-1572l5401 0z"/>
   <path fill="#666666" d="M28052 7053c0,-967 202,-1975 1209,-1975 1008,0 1250,1008 1250,1975 0,927 -242,1975 -1250,1975 -1007,0 -1209,-1048 -1209,-1975zm-2700 6610l2781 0 0 -3466 40 0c403,685 1169,1088 2015,1088 2459,0 3103,-2297 3103,-4192 0,-2015 -967,-4272 -3063,-4272 -1370,0 -1814,564 -2176,1088l0 -887 -2700 0 0 10640z"/>
   <path fill="#666666" d="M32042 12252c0,-363 242,-605 564,-605 323,0 564,242 564,605 0,322 -242,564 -564,564 -322,0 -564,-242 -564,-564zm-161 0c0,362 322,685 725,685 363,0 685,-323 685,-685 0,-403 -322,-685 -685,-685 -403,0 -725,282 -725,685zm443 403l121 0 0 -363 161 0 202 363 161 0 -242 -363c121,0 202,-80 202,-242 0,-121 -81,-201 -282,-201l-323 0 0 806zm121 -726l202 0c80,0 161,40 161,121 0,121 -121,161 -202,161l-161 0 0 -282z"/>
  </g>
 </g>
</svg>
