<?xml version="1.0" encoding="UTF-8"?>
<!DOCTYPE svg PUBLIC "-//W3C//DTD SVG 1.1//EN" "http://www.w3.org/Graphics/SVG/1.1/DTD/svg11.dtd">
<!-- Creator: CorelDRAW 2020 (64 Bit) -->
<svg xmlns="http://www.w3.org/2000/svg" xml:space="preserve" width="62.5017mm" height="62.7971mm" version="1.1" style="shape-rendering:geometricPrecision; text-rendering:geometricPrecision; image-rendering:optimizeQuality; fill-rule:evenodd; clip-rule:evenodd"
viewBox="0 0 2840.29 2853.71"
 xmlns:xlink="http://www.w3.org/1999/xlink"
 xmlns:xodm="http://www.corel.com/coreldraw/odm/2003">
 <defs>
  <style type="text/css">
   <![CDATA[
    .fil1 {fill:#49C758}
    .fil0 {fill:white}
   ]]>
  </style>
 </defs>
 <g id="Camada_x0020_1">
  <metadata id="CorelCorpID_0Corel-Layer"/>
  <g id="_1296826641584">
   <path class="fil0" d="M1000.42 64.96l-96.19 35.06c-31.03,12.37 -60.72,25.59 -90.19,39.7 -117.55,56.27 -245.51,141.25 -340.47,229.72 -3.15,2.94 -4.84,5.22 -7.91,7.93l-65.76 64.15c-5.41,6.06 -9.78,11.77 -15.8,17.41l-74.8 88.31c-60.45,80.18 -102.87,143.83 -150.62,239.12 -58.22,116.17 -103.47,250.16 -127.5,392.01 -53.79,317.46 5.2,621.02 130.39,871.72 7.4,14.81 15.08,29.07 22.99,43.43 17.46,31.7 16.87,23.37 10.74,45.82 -9.19,33.66 -19.05,67.9 -27.98,101.98 -17.93,68.41 -37.48,135.69 -55.8,204.04l-97.78 356.89c-4.53,16.52 -10.72,35.2 -13.74,51.46 27.99,-5.47 58.9,-15.47 87.27,-22.71l259.49 -68.03c129.23,-32.64 260.61,-67.71 390.07,-102.31 11.73,-3.14 9.82,-4.62 19.98,0.87l91.97 45.21c291.22,129.55 615.04,157.95 926.75,79.04 218.69,-55.36 406.65,-157.62 574.14,-300.66 61.26,-52.32 110.95,-104.32 162.46,-165.25 16.93,-20.03 31.84,-39.1 47.83,-60.4 289.53,-385.67 363.89,-911.45 180.34,-1369.2 -43.75,-109.11 -95.25,-199.42 -153.41,-283.98 -46.72,-67.93 -84.27,-108.91 -135.53,-166.14 -14.76,-16.47 -54.61,-52.12 -68.64,-67.03 -9.94,-10.57 -45.03,-39.88 -58.49,-51.19 -95.09,-79.98 -222.57,-157.83 -338.64,-206.97 -46.87,-19.85 -100.45,-40.41 -150.3,-54.7l-9.84 -3.97c-5.97,-4.17 -81.32,-21.6 -93.39,-24.18 -50.16,-10.73 -100.8,-18.84 -152.92,-24.63 -37.05,-4.12 -75.38,-6.57 -114.09,-7.48l-69.31 0c-70.52,1.62 -140.52,8.11 -204.63,18.76 -33.47,5.56 -67.56,12.19 -98.45,19.92 -7.71,1.93 -83.85,20.79 -92.23,26.28z"/>
   <path class="fil1" d="M761.17 1317.38c-3.06,-11.03 -11.91,-29.12 -16.73,-40.63 -5.67,-13.55 -10.29,-27.48 -14.76,-41.54 -9.57,-30.07 -16.56,-60.35 -20.25,-93.55 -10.67,-96.15 13.45,-196.62 66.98,-271.65 8.5,-11.91 15.78,-21.13 24.51,-31.79 9.08,-11.09 18.41,-19.79 27.52,-30.22 14.7,-16.84 38.6,-36.18 70.46,-43.6 21.84,-5.09 84.03,-4.3 107.79,-1.41 34.31,4.17 49.04,26.96 61.86,52.42 24.17,47.99 78.93,187.91 100.57,241.56 21.92,54.33 35.29,61.89 -2.19,124.19 -13.42,22.31 -61.19,77.21 -77.6,94.18 -27.78,28.72 -20.32,46.74 -0.85,78.76 33.18,54.56 55.75,84.05 94.17,132.48l19.22 22.64c3.56,3.59 4.04,4.01 6.83,7.61 9.64,12.4 45.09,47.78 56.54,57.51l30.42 27.31c49.85,45.89 147,106.29 208.52,133.62 15.18,6.74 67.87,31.11 79.58,34.34 40.07,11.04 56.08,-21.74 72.19,-38.84 15.09,-16.01 62.92,-75.94 76.63,-93.71 7.51,-9.72 15.98,-24.21 24.53,-33.19 25.01,-26.29 46.11,-19.25 83.01,-3.88 52.7,21.96 103.97,49.06 154.71,73.36 25.8,12.36 51.17,24.7 76.64,37.39 12.68,6.32 25.57,12.32 37.61,18.7 12.47,6.61 21.09,11.05 28.71,21.7l3.59 4.49c-0.55,8.52 2.51,25.13 2.19,37.25 -0.31,11.93 -1.46,23.94 -3.04,35.65 -8.38,62.29 -25.28,119.44 -72.92,160.91 -6.94,6.04 -13.11,12.35 -20.88,18.09 -61.57,45.47 -107.78,73.31 -190.25,82.8 -94.51,10.87 -184.76,-14.09 -265.98,-41.55 -77.61,-26.23 -153.9,-53.99 -222.57,-89.2 -66.62,-34.16 -175.81,-108.96 -230.23,-160.95l-20.64 -18.35c-44.99,-37.87 -129.45,-131.63 -169.71,-182.5 -39.81,-50.31 -127.72,-171.46 -159.69,-230.07 -4.01,-7.35 -24.25,-48 -26.47,-50.31zm1760.4 520.67c3.58,-3.83 4.44,-8.26 6.43,-13.37 1.95,-4.99 3.56,-9.87 5.4,-14.8 9.5,-25.5 21.9,-65.54 28.49,-91.34 10.87,-42.54 20.83,-86.5 27.21,-131.76 39.25,-278.24 -16.8,-546.26 -153.84,-775.43 -141,-235.78 -391.29,-457.57 -733.26,-539.63 -388.37,-93.19 -755.24,24.87 -995.36,213.85 -39.59,31.17 -109.28,91.84 -144.46,132.69l-37.24 42.14c-35.77,40.09 -89.93,119.24 -115.64,164.4 -39,68.49 -71.66,137.31 -98.86,218.61 -25.14,75.17 -50.79,179.29 -55.36,264.85 -24.33,285.85 49.53,541.36 192.23,759.19 10.4,15.87 11.59,12.57 6.21,32.91l-93.43 341c-6.33,23.02 -16.7,53.8 -20.63,76.29 19.8,-3.11 290.67,-75.91 320.62,-83.56l120.25 -31.71c6.96,-1.05 11.19,3.57 16.68,6.81 5.65,3.33 10.49,6.18 16.35,9.64 43.13,25.43 84.31,47.69 133.46,70.08 198.67,90.5 451.54,127.42 688.73,83.14 233.47,-43.58 412.11,-144.03 549.47,-260.21 115.54,-97.73 198.11,-202.96 273.13,-334.62 9.03,-15.84 64.06,-126.2 63.42,-139.18z"/>
   <path class="fil0" d="M761.17 1317.38c2.22,2.32 22.46,42.97 26.47,50.31 31.97,58.6 119.88,179.76 159.69,230.07 40.26,50.87 124.72,144.63 169.71,182.5l20.64 18.35c54.42,51.99 163.61,126.79 230.23,160.95 68.67,35.2 144.96,62.96 222.57,89.2 81.22,27.46 171.48,52.42 265.98,41.55 82.47,-9.49 128.68,-37.33 190.25,-82.8 7.77,-5.74 13.94,-12.04 20.88,-18.09 47.64,-41.47 64.54,-98.63 72.92,-160.91 1.58,-11.7 2.73,-23.72 3.04,-35.65 0.32,-12.12 -2.74,-28.73 -2.19,-37.25l-3.59 -4.49c-7.62,-10.65 -16.24,-15.09 -28.71,-21.7 -12.04,-6.38 -24.93,-12.38 -37.61,-18.7 -25.46,-12.69 -50.84,-25.03 -76.64,-37.39 -50.75,-24.3 -102.02,-51.4 -154.71,-73.36 -36.9,-15.37 -58,-22.41 -83.01,3.88 -8.55,8.98 -17.02,23.47 -24.53,33.19 -13.71,17.76 -61.54,77.7 -76.63,93.71 -16.11,17.1 -32.12,49.88 -72.19,38.84 -11.7,-3.23 -64.4,-27.6 -79.58,-34.34 -61.52,-27.33 -158.67,-87.73 -208.52,-133.62l-30.42 -27.31c-11.44,-9.73 -46.9,-45.11 -56.54,-57.51 -2.79,-3.59 -3.27,-4.02 -6.83,-7.61l-19.22 -22.64c-38.42,-48.43 -60.99,-77.92 -94.17,-132.48 -19.47,-32.02 -26.93,-50.04 0.85,-78.76 16.41,-16.96 64.18,-71.86 77.6,-94.18 37.47,-62.3 24.1,-69.86 2.19,-124.19 -21.64,-53.65 -76.4,-193.57 -100.57,-241.56 -12.82,-25.47 -27.55,-48.25 -61.86,-52.42 -23.76,-2.89 -85.95,-3.67 -107.79,1.41 -31.87,7.43 -55.77,26.76 -70.46,43.6 -9.1,10.43 -18.44,19.13 -27.52,30.22 -8.73,10.67 -16.01,19.89 -24.51,31.79 -53.54,75.02 -77.65,175.49 -66.98,271.65 3.69,33.19 10.67,63.48 20.25,93.55 4.47,14.06 9.09,27.99 14.76,41.54 4.82,11.52 13.67,29.6 16.73,40.63z"/>
  </g>
 </g>
</svg>
