<?xml version="1.0" encoding="UTF-8"?>
<!DOCTYPE svg PUBLIC "-//W3C//DTD SVG 1.1//EN" "http://www.w3.org/Graphics/SVG/1.1/DTD/svg11.dtd">
<!-- Creator: CorelDRAW 2020 (64 Bit) -->
<svg xmlns="http://www.w3.org/2000/svg" xml:space="preserve" width="30.4339mm" height="30.416mm" version="1.1" style="shape-rendering:geometricPrecision; text-rendering:geometricPrecision; image-rendering:optimizeQuality; fill-rule:evenodd; clip-rule:evenodd"
viewBox="0 0 633.21 632.84"
 xmlns:xlink="http://www.w3.org/1999/xlink"
 xmlns:xodm="http://www.corel.com/coreldraw/odm/2003">
 <defs>
  <style type="text/css">
   <![CDATA[
    .fil1 {fill:black}
    .fil0 {fill:#39F90A}
    .fil2 {fill:#46E627}
   ]]>
  </style>
 </defs>
 <g id="Camada_x0020_1">
  <metadata id="CorelCorpID_0Corel-Layer"/>
  <g id="_1256394982544">
   <path class="fil0" d="M-0 632.83c12.7,0.29 128.63,-38.72 158.44,-48.35 26.42,-8.53 31.12,12.48 94.83,26.34 50.03,10.89 101.36,9.59 151.28,-2.59 80.91,-19.73 148.38,-78.62 189.08,-147.07 20.2,-33.99 35.77,-82.6 38.88,-129.35 13.01,-195.09 -157.75,-352.22 -341.46,-329.65 -101.46,12.46 -170.53,61.45 -216.07,119.85 -67.19,86.18 -87.62,211.81 -31.23,325.93 4.34,8.79 12.89,16.78 9.81,27.01l-32.04 95.28c-3.99,11.06 -17.35,55.96 -21.52,62.6z"/>
   <path class="fil1" d="M80.41 555.93c25.89,-4.36 88.8,-33.82 104.09,-26.37 38.16,18.61 51.44,29.98 102.05,36.79 155.48,20.91 291.44,-98.32 296.96,-248.15 1.45,-39.28 -8.96,-83.48 -22.7,-112.63 -89.01,-188.88 -327.12,-199.6 -438.82,-61.64 -38.21,47.2 -75.74,126.33 -56.75,212.54 7.77,35.26 21.03,71.74 39.63,96.3 8.93,11.79 6.77,10.63 1,24.33l-25.46 78.83z"/>
   <path class="fil0" d="M183.47 196.08c-3.33,1.2 -0.74,-1.21 -3.83,3.4 -21.53,32.11 -3.45,85.26 19.78,117.82 49.72,69.68 98.71,115.75 190.71,136.13 25.22,5.59 48.79,-3.33 65.19,-14.52 18.81,-12.84 27.28,-29.04 24.13,-59.51 -16.38,-9.98 -43.58,-22.17 -62.28,-30.41 -15.47,-6.82 -19.03,-2.69 -28.26,9.66 -6.66,8.92 -15.64,17.13 -20.13,24.98 -3.44,3.41 -7.49,8.49 -22.85,4.03 -10,-2.91 -6.66,-4.34 -12.85,-8.12 -8.8,-5.38 -6.24,-2.27 -14.33,-8.88 -9.65,-7.88 -7.36,-2.57 -13.42,-7.36 -6.49,-5.13 0.12,-4.53 -11.48,-10.91 -14.06,-7.74 -3.19,-5.85 -16.15,-15.44 -3.62,-2.68 -2.89,-0.99 -6.1,-5.36 -3.94,-5.34 -2.79,-6.77 -7.86,-12.57l-11.19 1.76c-1.4,-6.14 -0.4,-6 2.97,-9.92 -2.63,-7.75 -5.79,-8.55 -8.11,-14.39 -1.62,-4.08 -4.39,-15.09 -1.34,-18.28l2.47 -2.62c0.37,-0.37 0.86,-0.82 1.24,-1.19l10.32 -11.32c2.99,-5.08 -0.61,-0.66 4.63,-7.86 4.53,-6.23 2.67,1.76 5.92,-9.68 -8.37,-15.66 -4.03,-7.35 -13.69,-9.08 -4.27,-24.5 13.18,9.17 -6.5,-39.08l-5.6 -9.7c-21.66,-27.3 -25.73,-10.28 -37.91,-6.63 -18.7,5.61 -10.94,12.15 -10.86,21.35l-5.01 -3.8c-2.51,-1.35 -0.41,-2.08 -7.6,-2.52z"/>
   <path class="fil2" d="M183.47 196.08c7.19,0.44 5.1,1.17 7.6,2.52l5.01 3.8c-0.08,-9.2 -7.84,-15.75 10.86,-21.35 12.17,-3.65 16.25,-20.67 37.91,6.63l5.6 9.7c19.68,48.24 2.23,14.58 6.5,39.08 9.66,1.73 5.32,-6.58 13.69,9.08 -3.25,11.44 -1.39,3.44 -5.92,9.68 -5.23,7.21 -1.63,2.78 -4.63,7.86l-10.32 11.32c-0.38,0.37 -0.87,0.82 -1.24,1.19l-2.47 2.62c-3.05,3.19 -0.27,14.21 1.34,18.28 2.32,5.83 5.48,6.64 8.11,14.39 -3.37,3.92 -4.38,3.78 -2.97,9.92l11.19 -1.76c5.06,5.8 3.92,7.23 7.86,12.57 3.22,4.36 2.48,2.68 6.1,5.36 12.96,9.59 2.09,7.7 16.15,15.44 11.6,6.38 4.99,5.78 11.48,10.91 6.06,4.79 3.77,-0.51 13.42,7.36 8.1,6.61 5.53,3.5 14.33,8.88 6.19,3.78 2.85,5.22 12.85,8.12 15.36,4.46 19.41,-0.61 22.85,-4.03 -42.77,-0.41 -90.35,-51.17 -113.98,-85.49 -10.05,-14.59 0.18,-19.13 7.03,-27.91 6.55,-8.4 16.71,-18.78 11.19,-33.05 -6.21,-16.05 -22.02,-56.95 -31.3,-67.67 -13.13,-0.73 -27.58,-2.65 -36.97,2.48 -9.58,5.23 -18.2,14.14 -21.28,24.07z"/>
  </g>
 </g>
</svg>
