<?xml version="1.0" encoding="UTF-8"?>
<!DOCTYPE svg PUBLIC "-//W3C//DTD SVG 1.1//EN" "http://www.w3.org/Graphics/SVG/1.1/DTD/svg11.dtd">
<!-- Creator: CorelDRAW 2020 (64 Bit) -->
<svg xmlns="http://www.w3.org/2000/svg" xml:space="preserve" width="192.45mm" height="72.0627mm" version="1.1" shape-rendering="geometricPrecision" text-rendering="geometricPrecision" image-rendering="optimizeQuality" fill-rule="evenodd" clip-rule="evenodd"
viewBox="0 0 19230591 7200878"
 xmlns:xlink="http://www.w3.org/1999/xlink"
 xmlns:xodm="http://www.corel.com/coreldraw/odm/2003">
 <g id="Camada_x0020_1">
  <metadata id="CorelCorpID_0Corel-Layer"/>
  <rect fill="white" x="-5" y="-4" width="19230590" height="7200878"/>
  <path fill="#669999" fill-rule="nonzero" d="M1244698 2749042l369303 0c122548,0 209673,-17987 261374,-53970 51701,-35963 77582,-94979 77582,-177047 0,-82069 -26420,-140535 -79261,-175379 -52830,-34854 -141664,-52281 -266440,-52281l-362559 0 0 458677zm0 -912297l328854 0c110168,0 187719,-16308 232686,-48893 44966,-32596 67459,-87674 67459,-165256 0,-82069 -24172,-138286 -72526,-168624 -48344,-30357 -160190,-45536 -335569,-45536l-220905 0 0 428309zm-774010 1492393l0 -2483920 1018537 0c219216,0 378826,5606 478891,16857 100075,11222 186071,29788 258027,55638 125896,47225 222284,120840 289173,220895 66920,100085 100355,221474 100355,364267 0,112396 -25031,210492 -75054,294240 -50023,83767 -125046,152606 -225131,206565 131542,47225 228799,118062 291742,212481 62953,94439 94449,216998 94449,367615 0,147280 -30647,275164 -91921,383623 -61274,108499 -150347,191966 -267260,250442 -78711,40450 -168634,69138 -269818,85996 -101184,16847 -268699,25301 -502514,25301l-1099477 0z"/>
  <path fill="#FFCC00" fill-rule="nonzero" d="M1796125 3329117c0,-6725 -550,-16578 -1679,-29508 -1129,-12920 -1709,-22763 -1709,-29508 0,-171991 52860,-334729 158521,-488174 105661,-153465 276553,-312816 512636,-478072 61824,-44966 147819,-102303 257997,-172001 263083,-168634 394595,-315334 394595,-440140 0,-95538 -26130,-170592 -78411,-225101 -52281,-54529 -123947,-81789 -215009,-81789 -113525,0 -198421,36253 -254609,108769 -56208,72496 -84317,182393 -84317,329673l0 42148 -642479 0c0,-8983 -580,-21054 -1699,-36243 -1129,-15179 -1679,-26150 -1679,-32895 0,-299026 90782,-533431 272316,-703193 181574,-169733 431427,-254609 749569,-254609 291162,0 523888,71666 698137,214979 174260,143343 261374,333051 261374,569124 0,155174 -33715,284417 -101174,387860 -67469,103443 -205166,218097 -413131,344022 -24761,15728 -64662,39910 -119750,72496 -198971,116902 -351307,219795 -456968,308599l1084288 0 0 593566 -2016820 0z"/>
  <path fill="#669999" fill-rule="nonzero" d="M3831491 2749042l369283 0c122558,0 209683,-17987 261384,-53970 51701,-35963 77582,-94979 77582,-177047 0,-82069 -26430,-140535 -79261,-175379 -52830,-34854 -141664,-52281 -266440,-52281l-362549 0 0 458677zm0 -912297l328834 0c110168,0 187729,-16308 232686,-48893 44976,-32596 67469,-87674 67469,-165256 0,-82069 -24172,-138286 -72526,-168624 -48344,-30357 -160200,-45536 -335579,-45536l-220885 0 0 428309zm-774020 1492393l0 -2483920 1018537 0c219216,0 378836,5606 478881,16857 100085,11222 186081,29788 258027,55638 125906,47225 222294,120840 289173,220895 66920,100085 100365,221474 100365,364267 0,112396 -25031,210492 -75064,294240 -50023,83767 -125046,152606 -225121,206565 131542,47225 228789,118062 291742,212481 62943,94439 94439,216998 94439,367615 0,147280 -30637,275164 -91911,383623 -61274,108499 -150357,191966 -267260,250442 -78711,40450 -168644,69138 -269828,85996 -101174,16847 -268689,25301 -502514,25301l-1099467 0z"/>
  <polygon fill="#FFCC00" fill-rule="nonzero" points="3831831,2735542 2995147,2735542 2988622,3329117 3831831,3329117 "/>
  <path fill="#666666" d="M10647717 3467064c3028,60555 31636,54429 -16638,101004 -48734,47045 -92381,95738 -151177,136658 -43557,30317 -52830,46235 -96927,19945 8644,-45606 64971,-62763 108898,-84297 42588,-20884 84407,-49383 81569,-114085 -50962,-70867 -112036,-24062 -183343,12561 -207615,106650 -653701,256038 -696538,429359 -26530,107300 50882,136838 108019,176398 144652,100165 281619,55568 436263,-13760 290492,-130213 484167,-288484 663963,-461215 76982,-73955 96408,-48224 218327,-60954 60495,-6315 192256,-23392 243318,-44037 37072,-14979 47355,-36822 67060,-68499 31916,-51302 105591,-96348 151906,-135848 31896,-27210 53650,-49303 83238,-12830 26460,56887 -88094,253410 -17707,422843 159820,384672 598832,230757 844608,43457 72626,-55349 66790,-64452 127135,-133100 35853,31796 27979,54729 80190,78611 131841,60335 261464,-53020 353126,-129613 88344,-73835 153265,-176997 237722,-261454 23772,-23792 55468,-72795 97647,-69748 26710,61894 17077,336508 72666,503293 55199,165616 237272,219785 384052,145971 202508,-101834 286176,-281859 433196,-429508 36862,-37022 100924,-137197 145161,-154874 13620,34045 35553,64592 49313,103483 42618,120370 83448,217817 233295,249074 99476,20744 174250,-11831 250622,-52121 43268,-22823 178306,-94120 199790,-120570l-88893 -221654c-55339,14759 -72756,34234 -145061,17307 -37332,-8733 -63562,-43807 -75404,-85926 -17837,-63433 -18456,-386451 -57387,-424462 -21694,-21174 -74964,-38101 -117412,-42039 -109848,-10202 -161679,55778 -202319,119760 -49973,78691 -58126,114584 -123667,197922 -83268,105881 -114894,168804 -212131,278452 -54309,61244 -86605,120800 -159351,162159 -33205,18876 -75773,52021 -111487,58057 -43507,-35613 -39570,-111137 -40380,-177677 -869,-72446 -2408,-150527 5546,-221134 12391,-109948 54749,-267839 90862,-366216 21424,-58376 26080,-122858 47904,-180535 31247,-82548 137407,-321629 -46445,-283068 -198262,41569 -251412,159411 -361100,324147l-100305 127964c-18216,22453 -33375,34404 -52571,57227 -111067,132091 -183423,247295 -313465,372091 -36932,35443 -113115,202938 -183363,60625 288834,-368424 141684,-977398 -303912,-818717l-113855 39940c-28529,7964 -52301,9893 -38871,-30447 3188,-9573 11272,-26190 16098,-36293 14449,-30257 27479,-41509 18017,-71447 -39930,-55808 -171432,-29328 -217547,-1079 -81769,50102 -151656,145641 -221644,209993 -51771,47604 -107490,80540 -148589,139026 -86006,122378 -188519,179416 -283728,283088 -98446,107200 -155254,112136 -240710,190657 -48644,44697 -70018,149958 -163438,114564 -34005,-34194 -22453,-251841 -37792,-317292 -29218,-124597 -74614,-218087 -155743,-293200 -42918,-39730 -83817,-105131 -124417,-146570 -38002,-38771 -46925,-53520 -84587,-92731 -92910,-96718 -338986,-390348 -406656,-499036 -215898,-346810 -86165,-532911 182234,-766086 48144,-41819 92801,-95998 150667,-129053 73755,-42128 82808,11182 33845,59875 -56538,56208 -163797,98706 -181654,184922 -14000,67539 27549,101774 93670,92551 140515,-19605 523498,-328864 652451,-431927 85326,-68189 90242,-167944 87864,-279621 -6415,-301494 -299006,-154274 -448045,-80889 -124886,61504 -255509,91981 -362968,178616 -35044,28269 -66250,42968 -116083,69938 -97717,52890 -219016,152945 -303603,229828 -90852,82568 -190138,180865 -245476,304182 -40160,89463 -88004,156663 -111197,252331 -55588,229388 -6095,454590 118811,570443 149478,138646 60585,159431 239920,301494 93050,73715 131332,128454 187400,176518 67649,57987 111816,117902 169063,186201 85276,101744 169433,196963 217927,332061 33015,92001 -58336,173950 -119780,229019z"/>
  <g id="_1738018872832">
   <path fill="#666666" d="M8406446 6149475l0 148879c16997,39660 14329,107320 24672,155464 13910,64772 25281,63582 78321,91292 98236,51332 103952,99306 259066,83917 89943,-8913 213680,-25741 305002,-41109 96288,-16208 168894,-62623 250922,-96378l245686 -100815c141264,-74874 155653,-166435 238571,-286206 47654,-68838 171572,-250223 248904,-267690 37752,68149 16488,176508 30897,262414 23353,139316 30357,346191 180725,403478 241949,92161 416858,-133170 547660,-286715l203588 -236583c28339,-29608 39460,-60974 79840,-72116 13760,38741 34264,67859 49843,112206 44087,125446 85456,208854 233975,240310 189498,40140 309618,-115024 452062,-166605 -6425,75583 -28629,88654 -21784,174379 13170,164907 95329,231876 220475,313945 120620,79111 96038,88913 280590,82478 99665,-3467 215029,-19585 301404,-52531 85996,-32805 174050,-86475 230138,-133740 89793,-75663 96518,-95578 203757,-151397 81219,-42278 241079,-168284 309648,-232046 28239,-26260 53900,-76383 98396,-79161 65381,-4097 115623,158531 143702,216788 92611,192136 359341,221944 503313,142523 36243,-19995 97227,-19296 142343,-35204 100645,-35493 199021,-112106 275394,-181754 15468,-14109 26580,-29048 40959,-43268 39341,-38931 43338,-62823 74055,-103662 37252,-49543 95588,-89233 142463,-128314l131761 -130592c21394,-21954 183433,-207834 218936,-108369 3457,9703 3597,12461 4147,23243 1809,35423 -67469,237562 -79740,279281 -30697,104362 -64342,204947 -96388,309878 -38481,126026 -78181,177037 -44936,322409 13760,60145 70567,64901 141654,61214 78491,-4067 99116,-24981 140195,-62233l202608 -203548c35913,-35923 65661,-65611 101584,-101524 63213,-63183 115004,-179596 185761,-220435 114145,-65881 258446,-227450 361379,-239691 38521,39540 56508,59895 90602,109118 27250,39341 59585,71906 87395,107420 61704,78791 82258,186710 155763,241759 87415,65471 218876,58366 301314,-350l217947 -180675 -22313 -70807c9783,36383 46205,64632 23273,114864 -8614,18866 -50073,60954 -66850,85506 -79670,116553 -75364,376998 142703,394185 73245,5776 174160,-50842 227550,-83068 242129,-146111 242748,-179586 426960,-359831 22123,-21644 56967,-45816 85376,-66930l172771 -143163c83737,96658 -3647,453211 372251,451272 109888,-570 231657,-66640 291562,-122848l156573 -148189c19236,-21824 28848,-31486 49043,-50392 -7664,-54149 -62473,-187210 -91082,-220795 -50122,35004 -143902,151137 -191037,165316 -92121,27729 -167505,-85596 -177917,-166246 -13380,-103622 23992,-239621 -4047,-335769 -85356,-292641 -496688,178267 -511977,188599l-290612 242508c-27120,26250 -163737,150777 -211901,125866 -8564,-26270 66200,-120800 83747,-144262 58176,-77792 111736,-129653 177757,-194195 21744,-21264 39880,-34864 62064,-56578 73585,-72056 156573,-190537 165156,-198711 23902,-22723 37302,-23462 64961,-53420 22483,-24362 36493,-31746 60165,-58476 82069,-92661 109968,-100375 184102,-179426 19415,-20704 43138,-35803 61234,-57027 49853,-58486 65111,-68379 129213,-116433 13580,-10182 19785,-16668 32286,-26810 149378,-121089 97707,-390038 -305331,-161579 -105331,59705 -187969,134489 -277742,204517l-129803 115673c-20944,18996 -36423,41729 -59535,58716 -52221,38381 -92950,59945 -142473,102673 -45406,39171 -93920,97787 -128564,117052 -65931,36673 -75154,72546 -117282,128124 -73505,96977 -218506,136118 -270767,211522 -33035,47674 -59206,98166 -113525,122988 -157922,72176 -210722,-207125 -250522,-333220 -40849,-129433 -101194,-232566 -257367,-232876 -167465,-340 -350817,170462 -448065,278721l-232376 249853c-34624,37292 -68179,101554 -115653,121509 -30117,-62943 19635,-139526 45496,-200150 27779,-65121 47145,-133380 69508,-201119 44717,-135409 195444,-534590 33285,-633905 -57927,-35473 -164427,-25271 -223942,3328 -198731,95469 -159730,129803 -287545,253770 -42848,41559 -101614,97527 -137967,141304 -56468,68029 -263992,303673 -323028,353575 -76723,64851 -157322,185131 -200610,205586 -129243,61104 -272536,124727 -418407,84097 -70967,-19765 -127155,-59396 -145131,-125966 -30227,-111876 16957,-145291 67360,-191856 74924,-69208 132471,-141174 197842,-208374 113285,-116453 212541,-260105 252841,-423273 25881,-104732 49353,-95928 26041,-219815 -34804,-184971 -107609,-251092 -316173,-206236 -138896,29878 -218406,151347 -298766,251102 -90252,112046 -153035,190837 -211652,329843 -84637,200750 -77652,216168 -116912,424812 -13320,70757 -89593,91901 -129293,141164 -21034,26110 -38321,51212 -57707,77632l-205176 209553 -336148 205066c-78161,47754 -113215,41359 -202309,68559 -46885,14319 -50932,30377 -98656,15598 -39291,-12171 -64931,-19216 -99945,-36403 -64841,-31816 -103003,-76203 -109218,-164507 -3887,-55319 18416,-189618 40779,-234025 34414,-68339 151417,-150098 214749,-199920l228419 -177607c28519,-20704 43477,-45916 69348,-65851 26770,-20625 60844,-28379 92601,-43328 33705,-15868 53490,-33195 86985,-47794 95279,-41549 179196,-94799 187480,-221314 5396,-82438 20325,-200430 -56678,-217217 -173480,-37812 -430398,197682 -466011,213300 -85816,37632 -183103,100465 -246296,159541 -113575,106171 -248894,209163 -367465,309398 -74614,63083 -169323,105991 -225741,180495 -53620,70827 -64981,108079 -178626,87594 -76423,-13780 -90612,-90802 -93940,-175159 -3018,-76812 -18286,-172491 -25001,-254729 -7774,-95259 -49413,-118661 -145831,-124896 -180385,-11651 -198222,162039 -276423,263433 -75623,98057 -276483,377847 -357262,454929 -25191,24042 -138167,91961 -169443,98776 -100874,-95848 -12351,-586841 42838,-733181 26980,-71536 36922,-153475 64642,-222753 66930,-167225 122658,-364777 -150717,-235743 -32106,15159 -73555,29378 -94239,49803 -60315,59535 -124757,173920 -174389,248834 -54529,82318 -108349,127574 -164737,198781l-156763 198531c-20135,25441 -41509,54599 -65271,78721 -37902,38461 -77202,69398 -103852,116183 -6615,11621 -20685,29418 -29668,37912 -23343,22073 -50013,34874 -77972,65841 -32366,35833 -20045,53630 -73125,70817 -69358,22473 -133710,52091 -212291,75463 -90802,27010 -397193,97077 -482569,73965 -111217,-94859 18636,-673636 52381,-816599 17117,-72486 23992,-137157 34015,-213110 14139,-107120 76842,-263882 102673,-378607 16068,-71367 7934,-133480 28099,-208944 37632,-140845 86825,-221044 92571,-391777 2488,-73615 17027,-144122 25431,-217008 5196,-45166 2568,-62473 23802,-95459 55568,-86355 36423,-190567 61574,-301634 15009,-66270 28289,-133470 36713,-201159 8054,-64702 -2148,-152066 -42488,-188769 -50682,-46115 -123218,-20794 -181934,-1449 -162219,53440 -159680,113585 -221584,260825 -42848,101894 -109948,235374 -138366,344082 -33245,127145 -51332,265711 -85736,396503 -32236,122568 -71696,268669 -88704,392516 -4657,33945 -15099,77112 -14429,111137 2128,107959 101844,4966 63163,268289 -20245,137837 -56738,269888 -72885,409843 -12641,109488 4387,158152 -869,226550l-127315 584482z"/>
   <path fill="white" d="M12450098 2890716c-73785,43338 -102833,156903 -156992,207475 -100325,93670 -123687,-9393 -195424,176888 -72466,188189 -159670,500925 185851,388919 161739,-52421 233165,-209623 332011,-311077 42118,-43218 57197,-142793 76643,-202468 25621,-78631 25051,-98756 -31267,-206675 -26620,-51002 -112965,-56997 -169243,-60974 -40170,-2838 -14409,-8044 -41579,7914z"/>
   <path fill="white" d="M14023720 5088580c-112156,41489 -307500,425391 -167095,361080 20055,-9183 51751,-69758 70028,-91871 44567,-53900 109698,-93190 141724,-179855 15558,-42088 19046,-112905 -44657,-89353z"/>
   <path fill="#666666" fill-rule="nonzero" d="M18370105 4871522c-19815,60884 -19086,149578 -18306,246625 1479,182234 3168,388279 -105341,596823l-250053 -129983c77062,-148109 75693,-316083 74484,-464642 -989,-121819 -1899,-233155 31536,-335859l267680 87035z"/>
  </g>
  <polygon fill="#666666" fill-rule="nonzero" points="6941073,535989 6941073,6658884 6835312,6658884 6835312,535989 "/>
 </g>
</svg>
