<?xml version="1.0" encoding="UTF-8"?>
<!DOCTYPE svg PUBLIC "-//W3C//DTD SVG 1.1//EN" "http://www.w3.org/Graphics/SVG/1.1/DTD/svg11.dtd">
<!-- Creator: CorelDRAW 2020 (64 Bit) -->
<svg xmlns="http://www.w3.org/2000/svg" xml:space="preserve" width="20.9815mm" height="10.6647mm" version="1.1" shape-rendering="geometricPrecision" text-rendering="geometricPrecision" image-rendering="optimizeQuality" fill-rule="evenodd" clip-rule="evenodd"
viewBox="0 0 240.36 122.17"
 xmlns:xlink="http://www.w3.org/1999/xlink"
 xmlns:xodm="http://www.corel.com/coreldraw/odm/2003">
 <g id="Camada_x0020_1">
  <metadata id="CorelCorpID_0Corel-Layer"/>
  <g id="_2290395679120">
   <path fill="#666666" d="M-0 107.11l0 14.41 11.04 0c2.65,0 9.22,-0.3 9.22,-7.14 0,-3.7 -1.16,-6.28 -5.58,-6.84 0.53,-0.1 1.02,-0.25 1.46,-0.43l-16.14 -0.01 0 0zm24.82 0l-4.42 14.41 5.55 0 1.39 -4.89 5.96 0 1.35 4.89 5.89 0 -4.33 -14.41 -5.31 0 1.51 6.12 -4.26 0 1.38 -6.12 -4.71 0 0 0zm17.02 0l0 14.41 4.76 0 0 -14.41 -4.76 0 0 0zm4.9 0l6.02 14.41 6.62 0 0 -14.41 -4.77 0 0 6.61 -2.77 -6.61 -5.1 0 0 0zm14.98 0c-0.06,1.08 -0.07,2.22 -0.07,3.43 0,6.64 -0.2,11.63 8.39,11.63 4.88,0 7.73,-1.93 7.73,-7.95l-5.55 0c-0.07,1.78 -0.1,4.58 -2.18,4.58 -2.36,0 -2.7,-1.42 -2.7,-8.27 0,-1.34 0.02,-2.47 0.06,-3.42l-5.68 -0.01 0 0zm17.76 0c-0.06,1.11 -0.06,2.26 -0.06,3.43 0,5.89 0,11.63 8.6,11.63 8.59,0 8.59,-5.74 8.59,-11.63 0,-1.16 0,-2.32 -0.06,-3.41l-5.76 -0.01c0.05,0.98 0.07,2.12 0.07,3.43 0,5.77 -0.32,8.27 -2.84,8.27 -2.52,0 -2.84,-2.5 -2.84,-8.27 0,-1.31 0.02,-2.44 0.07,-3.43l-5.76 -0 0 0zm23.23 0l0 14.41 8.39 0c8.8,0 8.22,-7.79 8.22,-11.2 0,-1.15 -0.04,-2.22 -0.12,-3.21l-5.62 -0.01c0.08,1.03 0.08,2.18 0.08,3.37 0,5.55 -0.53,7.67 -3.22,7.67l-2.14 0 0 -11.04 -5.6 0 0 0zm18.77 0c-0.07,1.13 -0.07,2.29 -0.07,3.47 0,5.87 0,11.59 8.6,11.59 8.6,0 8.6,-5.72 8.6,-11.59 0,-1.18 0,-2.35 -0.07,-3.46l-5.77 -0.01c0.06,0.99 0.08,2.14 0.08,3.47 0,5.75 -0.32,8.23 -2.84,8.23 -2.52,0 -2.84,-2.48 -2.84,-8.23 0,-1.33 0.02,-2.48 0.08,-3.47l-5.76 0 0 0zm22.94 0l0 14.42 11.04 0c2.65,0 9.22,-0.3 9.22,-7.14 0,-3.7 -1.16,-6.28 -5.58,-6.84 0.55,-0.11 1.05,-0.26 1.52,-0.45l-16.19 0.01 0 0zm22.12 0l0 14.41 5.76 0 0 -14.41 -5.76 0 0 0zm10.62 0c-0.26,1.4 -1.1,2.41 -2.32,2.33l-1.6 0.02 5.24 12.05 9.21 0 1.39 -4.89 5.95 0 1.36 4.89 13.38 0c3.7,0 7.44,-0.49 7.44,-6.21 0,-5.36 -6.32,-5.93 -8.69,-8.21l-7.6 0.01c1.52,5.02 10.38,5.18 10.38,8.56 0,1.5 -0.8,2.51 -2.44,2.51l-7.59 -0 -3.32 -11.06 -5.31 0 1.52 6.13 -4.26 0 1.38 -6.13 -4.74 0 -3.85 12.43 -3.9 -8.64c2.26,-0.42 3.45,-1.64 3.85,-3.77l-5.47 -0.01 0 0zm42.13 0l0 14.41 5.62 0 0 -14.41 -5.62 0 0 0zm8.92 0l0 14.41 12.17 0 0 -3.34 -6.56 0 0 -11.07 -5.61 0 0 0zm-220.04 2.61l0.87 0c3.3,0 4.34,1.46 4.34,3.85 0,3.77 -3.13,3.81 -4.51,3.81l-2.05 0 0 -7.62 1.36 -0.04 0 0zm144.78 0.04l1.4 0c2.69,0 3.53,1.46 3.53,3.85 0,3.77 -2.55,3.81 -3.68,3.81l-2.97 0 0 -7.62 1.71 -0.04 0 0z"/>
   <path fill="#666666" d="M16.14 107.11c2.41,-0.95 3.62,-2.96 3.62,-5.58 0,-5.75 -3.93,-6.99 -8.68,-6.99l-11.08 0 0 12.56 16.14 0 0 0zm13.39 0l0.65 -2.91 0.72 2.91 5.31 0 -2.3 -7.67 -6.73 0 -2.35 7.67 4.71 0 0 0zm17.07 0l0 -0.32 0.13 0.32 5.1 0 -3.21 -7.67 -6.79 0 0 7.67 4.76 0 0 0zm12.77 0l0 -7.67 -4.77 0 0 7.67 4.77 0 0 0zm8.02 0c0.2,-4.06 0.87,-4.84 2.53,-4.84 1.48,0 2.15,1.12 2.15,4.12l5.51 0c0.21,-4.84 -2.48,-7.49 -7.8,-7.49 -6.48,0 -7.81,3.37 -8.08,8.21l5.68 0 0 0zm17.84 0c0.19,-3.35 0.82,-4.84 2.77,-4.84 1.95,0 2.58,1.49 2.77,4.84l5.76 -0c-0.26,-4.53 -1.61,-8.21 -8.53,-8.21 -6.92,0 -8.27,3.68 -8.53,8.22l5.76 -0.01 0 0zm23.07 0l0 -4.29 2.28 0c2.17,0 2.81,1.8 2.99,4.29l5.62 0.01c-0.45,-4.92 -2.26,-7.74 -7.89,-7.74l-8.6 0 0 7.74 5.6 0 0 0zm18.94 0c0.19,-3.29 0.83,-4.76 2.77,-4.76 1.93,0 2.58,1.47 2.77,4.76l5.77 0c-0.27,-4.48 -1.64,-8.11 -8.53,-8.11 -6.89,0 -8.26,3.63 -8.53,8.12l5.76 -0.01 0 0zm33.37 0c2.38,-0.98 3.57,-2.98 3.57,-5.57 0,-5.75 -3.93,-6.99 -8.68,-6.99l-11.08 0 0 12.56 16.19 0 0 0zm11.68 0l0 -4.28 1.91 0c1.63,0 3.04,1.18 3.04,3.36 0,0.32 -0.03,0.64 -0.08,0.93l5.47 -0.01c0.11,-0.56 0.16,-1.19 0.16,-1.89 0.01,-3.76 -2.23,-5.78 -5.72,-5.78l-10.53 0 0 7.67 5.76 0 0 0zm18.97 0l0.65 -2.9 0.72 2.9 5.31 0 -2.3 -7.67 -6.73 0 -2.38 7.67 4.74 0 0 0zm17.25 0c-0.55,-0.53 -0.88,-1.15 -0.88,-1.93 0,-1.53 0.93,-2.36 2.51,-2.36l5.12 0 0 -3.4 -7.19 0c-5.92,0 -7.38,2.67 -7.38,6.12 0,0.57 0.08,1.08 0.22,1.56l7.6 0 0 0zm16.39 0l0 -7.67 -5.62 0 0 7.67 5.62 0 0 0zm8.91 0l0 -7.67 -5.61 0 0 7.67 5.61 0 0 0zm-227.01 -1.52l0 -6.9 2.44 0c2.21,0 3.78,1.46 3.78,3.44 0,2.62 -2,3.44 -3.43,3.44l-2.29 0 -0.5 0.02 0 0zm144.42 0.04l0 -6.9 3.29 0c1.8,0 3.08,1.46 3.08,3.44 0,2.62 -1.63,3.44 -2.79,3.44l-1.86 0 -1.71 0.02 0 0z"/>
   <path fill="#666666" d="M144.24 11.1l8.29 5.68 8.11 -5.42 0.01 -11.14 -16.42 10.88 0 0zm-47.92 59.02l-8.26 -5.63 -8.27 5.64 0 10.91 16.53 -10.92 0 0zm31.37 -48.17l8.09 5.44 -38.46 26.02 23.77 16.04 11.16 -7.56 -8.67 -5.74 20.01 -13.41 16.74 11.11 -40.45 26.96 -39.91 -26.77 47.71 -32.08 0 0zm-15.15 36.91l-8.09 -5.44 38.46 -26.02 -23.77 -16.04 -11.16 7.56 8.67 5.74 -20.01 13.41 -16.74 -11.11 40.3 -26.96 40.01 26.89 -47.68 31.97 0 0z"/>
  </g>
 </g>
</svg>
