<?xml version="1.0" encoding="UTF-8"?>
<!DOCTYPE svg PUBLIC "-//W3C//DTD SVG 1.1//EN" "http://www.w3.org/Graphics/SVG/1.1/DTD/svg11.dtd">
<!-- Creator: CorelDRAW 2020 (64 Bit) -->
<svg xmlns="http://www.w3.org/2000/svg" xml:space="preserve" width="51.4502mm" height="13.0924mm" version="1.1" shape-rendering="geometricPrecision" text-rendering="geometricPrecision" image-rendering="optimizeQuality" fill-rule="evenodd" clip-rule="evenodd"
viewBox="0 0 2857.89 727.24"
 xmlns:xlink="http://www.w3.org/1999/xlink"
 xmlns:xodm="http://www.corel.com/coreldraw/odm/2003">
 <g id="Camada_x0020_1">
  <metadata id="CorelCorpID_0Corel-Layer"/>
  <g id="_2290259028816">
   <path fill="#669999" fill-rule="nonzero" d="M226 557.86l107.83 0c35.78,0 61.22,-5.25 76.32,-15.76 15.1,-10.5 22.65,-27.73 22.65,-51.7 0,-23.96 -7.72,-41.03 -23.14,-51.21 -15.43,-10.18 -41.37,-15.26 -77.8,-15.26l-105.86 0 0 133.93zm0 -266.38l96.02 0c32.17,0 54.81,-4.76 67.94,-14.28 13.13,-9.52 19.7,-25.6 19.7,-48.25 0,-23.96 -7.05,-40.37 -21.17,-49.23 -14.12,-8.87 -46.78,-13.3 -97.98,-13.3l-64.5 0 0 125.06zm-226 435.76l0 -725.27 297.4 0c64.01,0 110.61,1.64 139.83,4.92 29.22,3.28 54.33,8.7 75.34,16.25 36.76,13.79 64.91,35.28 84.44,64.5 19.54,29.22 29.31,64.66 29.31,106.36 0,32.82 -7.31,61.46 -21.92,85.91 -14.61,24.46 -36.51,44.56 -65.73,60.31 38.41,13.79 66.81,34.48 85.18,62.05 18.38,27.57 27.58,63.36 27.58,107.33 0,43 -8.95,80.34 -26.84,112.02 -17.89,31.68 -43.9,56.05 -78.03,73.12 -22.99,11.81 -49.24,20.19 -78.79,25.11 -29.54,4.92 -78.45,7.39 -146.73,7.39l-321.03 0z"/>
   <path fill="#FFCC00" fill-rule="nonzero" d="M387 727.23c0,-1.97 -0.16,-4.84 -0.49,-8.62 -0.33,-3.77 -0.5,-6.65 -0.5,-8.62 0,-50.22 15.44,-97.73 46.29,-142.54 30.85,-44.81 80.75,-91.34 149.68,-139.59 18.05,-13.13 43.16,-29.87 75.33,-50.22 76.82,-49.24 115.21,-92.07 115.21,-128.51 0,-27.9 -7.63,-49.81 -22.9,-65.73 -15.26,-15.92 -36.19,-23.88 -62.78,-23.88 -33.15,0 -57.94,10.58 -74.34,31.76 -16.41,21.17 -24.62,53.26 -24.62,96.26l0 12.3 -187.59 0c0,-2.62 -0.17,-6.15 -0.49,-10.58 -0.33,-4.43 -0.49,-7.64 -0.49,-9.6 0,-87.31 26.5,-155.75 79.51,-205.32 53.02,-49.56 125.97,-74.34 218.86,-74.34 85.02,0 152.97,20.93 203.85,62.77 50.88,41.85 76.32,97.25 76.32,166.17 0,45.31 -9.85,83.05 -29.55,113.25 -19.7,30.2 -59.9,63.68 -120.63,100.45 -7.23,4.59 -18.88,11.65 -34.97,21.17 -58.1,34.13 -102.57,64.18 -133.43,90.11l316.6 0 0 173.31 -588.88 0z"/>
   <path fill="#669999" fill-rule="nonzero" d="M981.3 557.86l107.83 0c35.78,0 61.22,-5.25 76.32,-15.76 15.09,-10.5 22.65,-27.73 22.65,-51.7 0,-23.96 -7.72,-41.03 -23.14,-51.21 -15.43,-10.18 -41.37,-15.26 -77.8,-15.26l-105.86 0 0 133.93zm0 -266.38l96.02 0c32.17,0 54.81,-4.76 67.94,-14.28 13.13,-9.52 19.7,-25.6 19.7,-48.25 0,-23.96 -7.06,-40.37 -21.17,-49.23 -14.12,-8.87 -46.78,-13.3 -97.98,-13.3l-64.5 0 0 125.06zm-226 435.76l0 -725.27 297.4 0c64.01,0 110.61,1.64 139.83,4.92 29.22,3.28 54.33,8.7 75.34,16.25 36.76,13.79 64.91,35.28 84.44,64.5 19.54,29.22 29.3,64.66 29.3,106.36 0,32.82 -7.31,61.46 -21.91,85.91 -14.61,24.46 -36.52,44.56 -65.73,60.31 38.4,13.79 66.8,34.48 85.18,62.05 18.38,27.57 27.58,63.36 27.58,107.33 0,43 -8.95,80.34 -26.84,112.02 -17.89,31.68 -43.9,56.05 -78.04,73.12 -22.98,11.81 -49.24,20.19 -78.78,25.11 -29.55,4.92 -78.45,7.39 -146.73,7.39l-321.03 0z"/>
   <polygon fill="#FFCC00" fill-rule="nonzero" points="981.4,553.92 737.1,553.92 735.2,727.23 981.4,727.23 "/>
  </g>
  <g id="_2290258979808">
   <path fill="#666666" fill-rule="nonzero" d="M1503.24 426.34l18.29 0c11.87,0 19.82,-1.33 23.83,-3.97 4.01,-2.65 6.01,-7.34 6.01,-14.08 0,-6.82 -1.92,-11.55 -5.77,-14.2 -3.85,-2.65 -11.88,-3.97 -24.07,-3.97l-18.29 0 0 36.22zm-56.92 97.58l0 -177.24 72.92 0c16.13,0 28.9,0.94 38.32,2.82 9.44,1.89 17.31,4.92 23.65,9.09 8.18,5.54 14.28,12.4 18.28,20.58 4.02,8.18 6.03,17.89 6.03,29.11 0,19.82 -5.87,35 -17.57,45.55 -11.71,10.55 -28.6,15.83 -50.65,15.83l-34.06 0 0 54.26 -56.92 0z"/>
   <path fill="#666666" fill-rule="nonzero" d="M1670.37 463.28l35.73 0 -17.69 -61.36 -18.05 61.36zm-73.16 60.65l62.32 -177.24 57.64 0 62.33 177.24 -56.43 0 -6.62 -23.46 -56.44 0 -6.85 23.46 -55.95 0z"/>
   <path fill="#666666" fill-rule="nonzero" d="M1851.95 422.85l25.87 0c9.06,0 15.32,-1.22 18.77,-3.67 3.45,-2.44 5.18,-6.72 5.18,-12.81 0,-6.26 -1.73,-10.61 -5.18,-13.06 -3.45,-2.44 -10.19,-3.67 -20.21,-3.67l-24.43 0 0 33.21zm-56.2 101.07l0 -177.24 84.83 0c26.56,0 45.51,3.97 56.86,11.91 11.35,7.94 17.03,20.98 17.03,39.11 0,10.82 -2.33,19.81 -6.98,26.95 -4.65,7.14 -11.84,12.79 -21.54,16.96 9.87,2.08 17.05,6.19 21.54,12.34 4.49,6.13 6.9,15.14 7.22,27.01l0.96 24.67c0,0.16 0.03,0.36 0.12,0.59 0.25,7.07 1.93,10.75 5.05,11.08l0 6.62 -57.4 0c-1.04,-4.25 -1.82,-7.96 -2.35,-11.13 -0.52,-3.17 -0.77,-5.64 -0.77,-7.4l0 -17.69c0,-9.15 -1.81,-15.59 -5.42,-19.32 -3.6,-3.73 -9.87,-5.6 -18.76,-5.6l-24.19 0 0 61.13 -56.2 0z"/>
   <polygon fill="#666666" fill-rule="nonzero" points="2021.13,523.93 2021.13,393.38 1970.11,393.38 1970.11,346.68 2129.06,346.68 2129.06,393.38 2078.04,393.38 2078.04,523.93 "/>
   <path fill="#666666" fill-rule="nonzero" d="M2147.47 523.93l0 -177.24 54.04 0 49.69 82.43c1.52,2.32 3.14,5.6 4.88,9.86 1.72,4.26 3.54,9.39 5.47,15.41 -0.47,-3.13 -0.84,-6.58 -1.08,-10.35 -0.25,-3.77 -0.37,-8.35 -0.37,-13.72l0 -83.63 54.27 0 0 177.24 -54.27 0 -49.69 -81.83c-1.52,-2.41 -3.19,-5.81 -4.99,-10.23 -1.8,-4.4 -3.63,-9.47 -5.48,-15.16 0.56,3.13 0.97,6.4 1.22,9.81 0.24,3.41 0.36,8.19 0.36,14.37l0 83.03 -54.04 0z"/>
   <polygon fill="#666666" fill-rule="nonzero" points="2348.06,523.93 2348.06,346.68 2489.68,346.68 2489.68,389.17 2404.97,389.17 2404.97,412.74 2476.59,412.74 2476.59,453.42 2404.97,453.42 2404.97,480.86 2493.17,480.86 2493.17,523.93 "/>
   <path fill="#666666" fill-rule="nonzero" d="M2575.96 422.85l25.87 0c9.06,0 15.31,-1.22 18.77,-3.67 3.44,-2.44 5.18,-6.72 5.18,-12.81 0,-6.26 -1.73,-10.61 -5.18,-13.06 -3.46,-2.44 -10.19,-3.67 -20.21,-3.67l-24.43 0 0 33.21zm-56.2 101.07l0 -177.24 84.83 0c26.56,0 45.51,3.97 56.86,11.91 11.35,7.94 17.03,20.98 17.03,39.11 0,10.82 -2.33,19.81 -6.98,26.95 -4.65,7.14 -11.84,12.79 -21.54,16.96 9.87,2.08 17.05,6.19 21.54,12.34 4.49,6.13 6.9,15.14 7.22,27.01l0.96 24.67c0,0.16 0.03,0.36 0.12,0.59 0.25,7.07 1.93,10.75 5.05,11.08l0 6.62 -57.4 0c-1.04,-4.25 -1.82,-7.96 -2.35,-11.13 -0.52,-3.17 -0.77,-5.64 -0.77,-7.4l0 -17.69c0,-9.15 -1.81,-15.59 -5.42,-19.32 -3.6,-3.73 -9.87,-5.6 -18.76,-5.6l-24.19 0 0 61.13 -56.2 0z"/>
   <path fill="#666666" fill-rule="nonzero" d="M2699.53 468.7l55.35 0c1.52,6.42 4.29,11.03 8.3,13.83 4.02,2.81 9.99,4.22 17.93,4.22 6.67,0 11.9,-1.14 15.71,-3.42 3.81,-2.3 5.72,-5.44 5.72,-9.46 0,-6.42 -7.98,-11.63 -23.94,-15.65 -3.22,-0.79 -5.67,-1.39 -7.34,-1.79 -13.08,-3.37 -23.49,-6.44 -31.23,-9.2 -7.74,-2.77 -13.38,-5.36 -16.9,-7.76 -6.82,-4.9 -11.94,-10.75 -15.35,-17.57 -3.42,-6.82 -5.11,-14.6 -5.11,-23.35 0,-17.56 6.62,-31.36 19.85,-41.38 13.24,-10.03 31.44,-15.04 54.62,-15.04 22.78,0 40.72,4.79 53.79,14.38 13.08,9.59 20.45,23.33 22.14,41.21l-54.02 0c-0.89,-5.22 -3.19,-9.1 -6.93,-11.67 -3.73,-2.57 -9.04,-3.85 -15.94,-3.85 -6.1,0 -10.63,1.01 -13.6,3.01 -2.97,2.01 -4.45,5.06 -4.45,9.15 0,5.85 7.78,10.74 23.35,14.68 1.36,0.4 2.41,0.68 3.12,0.83 2.26,0.57 5.66,1.41 10.23,2.53 20.62,5.22 34.09,9.95 40.43,14.2 7.86,5.22 13.6,11.15 17.21,17.81 3.6,6.66 5.41,14.53 5.41,23.59 0,19.56 -6.84,34.61 -20.51,45.12 -13.68,10.51 -33.27,15.76 -58.77,15.76 -23.51,0 -42.14,-5.25 -55.9,-15.76 -13.75,-10.51 -21.48,-25.31 -23.16,-44.4z"/>
   <path fill="#666666" fill-rule="nonzero" d="M1501.55 685.84l26.36 0c8.74,0 14.95,-1.28 18.65,-3.84 3.69,-2.57 5.54,-6.78 5.54,-12.64 0,-5.86 -1.89,-10.03 -5.65,-12.51 -3.77,-2.48 -10.11,-3.73 -19.01,-3.73l-25.87 0 0 32.73zm0 -65.09l23.46 0c7.86,0 13.4,-1.17 16.61,-3.49 3.21,-2.33 4.82,-6.26 4.82,-11.8 0,-5.85 -1.73,-9.86 -5.17,-12.03 -3.46,-2.17 -11.44,-3.25 -23.95,-3.25l-15.76 0 0 30.57zm-55.24 106.48l0 -177.24 72.68 0c15.65,0 27.03,0.41 34.17,1.21 7.14,0.8 13.28,2.13 18.41,3.98 8.98,3.37 15.86,8.62 20.64,15.76 4.77,7.15 7.15,15.81 7.15,25.99 0,8.02 -1.79,15.03 -5.35,21 -3.57,5.98 -8.93,10.9 -16.06,14.74 9.38,3.36 16.31,8.42 20.81,15.16 4.5,6.73 6.74,15.48 6.74,26.22 0,10.51 -2.18,19.64 -6.56,27.38 -4.37,7.74 -10.73,13.7 -19.07,17.87 -5.61,2.88 -12.03,4.93 -19.25,6.13 -7.22,1.2 -19.17,1.8 -35.86,1.8l-78.47 0z"/>
   <path fill="#666666" fill-rule="nonzero" d="M1689.26 626.16l25.88 0c9.06,0 15.31,-1.22 18.77,-3.67 3.44,-2.45 5.17,-6.72 5.17,-12.82 0,-6.25 -1.73,-10.61 -5.17,-13.06 -3.46,-2.44 -10.19,-3.67 -20.21,-3.67l-24.43 0 0 33.21zm-56.19 101.07l0 -177.24 84.83 0c26.56,0 45.51,3.97 56.86,11.91 11.35,7.94 17.03,20.99 17.03,39.12 0,10.82 -2.33,19.81 -6.98,26.95 -4.65,7.14 -11.84,12.79 -21.54,16.96 9.87,2.08 17.05,6.2 21.54,12.34 4.49,6.14 6.9,15.14 7.22,27.01l0.96 24.67c0,0.16 0.03,0.36 0.12,0.6 0.25,7.07 1.93,10.75 5.05,11.07l0 6.62 -57.4 0c-1.04,-4.25 -1.82,-7.96 -2.35,-11.13 -0.52,-3.17 -0.77,-5.63 -0.77,-7.39l0 -17.69c0,-9.15 -1.81,-15.59 -5.42,-19.31 -3.6,-3.73 -9.87,-5.6 -18.76,-5.6l-24.2 0 0 61.12 -56.19 0z"/>
   <polygon fill="#666666" fill-rule="nonzero" points="1812.84,727.24 1812.84,684.63 1894.9,595.84 1815.48,595.84 1815.48,549.99 1964.82,549.99 1964.82,592.23 1881.79,681.64 1969.27,681.64 1969.27,727.24 "/>
   <polygon fill="#666666" fill-rule="nonzero" points="1994.9,727.24 1994.9,549.99 2051.81,549.99 2051.81,680.19 2129.18,680.19 2129.18,727.24 "/>
  </g>
 </g>
</svg>
