<?xml version="1.0" encoding="UTF-8"?>
<!DOCTYPE svg PUBLIC "-//W3C//DTD SVG 1.1//EN" "http://www.w3.org/Graphics/SVG/1.1/DTD/svg11.dtd">
<!-- Creator: CorelDRAW 2020 (64 Bit) -->
<svg xmlns="http://www.w3.org/2000/svg" xml:space="preserve" width="15.5417mm" height="11.7158mm" version="1.1" shape-rendering="geometricPrecision" text-rendering="geometricPrecision" image-rendering="optimizeQuality" fill-rule="evenodd" clip-rule="evenodd"
viewBox="0 0 95.05 71.65"
 xmlns:xlink="http://www.w3.org/1999/xlink"
 xmlns:xodm="http://www.corel.com/coreldraw/odm/2003">
 <g id="Camada_x0020_1">
  <metadata id="CorelCorpID_0Corel-Layer"/>
  <g id="_2290095691552">
   <path fill="#666666" d="M46.86 17.82c-0.71,4.72 -4.58,5.05 -6.89,0.57 -9.11,-16.23 -22.61,-6.47 -8.21,7.08 2.55,2.03 2.12,3.63 -0.99,3.44 -15.43,-5.62 -12.41,3.78 3.4,7.65 2.36,-0.33 4.11,1.13 2.12,2.6 -2.08,3.11 9.96,5.24 13.26,0.47 13.17,3.21 20.29,-3.49 12.7,-3.78 -3.21,-0.47 -2.03,-2.93 0.42,-3.21 15.86,-5.38 15.72,-17.98 0.33,-8.54 -3.78,2.45 -6.51,1.23 -4.86,-2.08 10.15,-15.34 -7.36,-24.49 -11.28,-4.2zm4.2 23.6c-3.63,3.59 -20.2,2.5 -18.92,-3.63 -18.92,-6.18 -20.2,-19.02 -5.62,-13.07 -14.87,-18.41 3.68,-30.25 16.23,-9.91 2.78,-22.51 29.59,-18.03 21.47,4.53 15.43,-9.39 21.33,3.73 2.36,14.39 9.34,0.24 -4.58,11.14 -15.53,7.69z"/>
   <path fill="#666666" d="M66.5 54.92l-3.54 0 0 8.68c-1.37,6.51 -8.87,5.33 -9.39,0l-0.05 -8.78 -3.87 0 0.05 8.45c0.28,7.41 15.05,9.11 16.8,0.8l0 -9.16zm-66.5 14.16l3.73 0 0 -8.64c0.19,-6.09 9.49,-5.95 9.2,0.42l0 8.35 3.92 0 0 -8.68c-1.79,-8.12 -14.54,-8.12 -16.8,-0.99l-0.05 9.53zm32.42 0.28l3.68 0 0 -8.21c-0.61,-10.33 -21.52,-8.07 -15.57,5.1 2.22,3.59 7.74,4.29 10.9,2.08l0 -1.37c-3.35,0.76 -5.85,1.56 -7.69,-2.41 -3.26,-9.49 8.78,-11.47 8.59,-3.35l0.09 8.16zm58.94 0.57l3.68 0 0 -8.21c-0.61,-10.33 -21.52,-8.07 -15.57,5.1 2.22,3.59 7.74,4.25 10.9,2.08l0 -1.37c-3.35,0.76 -5.85,1.56 -7.69,-2.41 -3.26,-9.49 8.78,-11.47 8.59,-3.35l0.09 8.16zm-13.21 -14.82c0,0.42 0,0.85 0,1.27 -2.83,-0.24 -4.34,0.94 -4.53,3.54l-0.24 9.72 -3.45 0c0,-3.4 0,-6.51 0,-9.86 0.94,-4.25 4.06,-5.66 8.21,-4.67zm-34.69 -0.43l3.45 0 -0.09 2.45 -3.16 0c0,3.26 0,6.56 0,9.82 0.19,2.64 1.79,3.4 4.01,3.26 0,0.42 0,0.9 0,1.32 -4.25,0.52 -7.36,-0.57 -8.02,-5.29l0 -17.93 3.82 0 0 6.37z"/>
  </g>
 </g>
</svg>
