<?xml version="1.0" encoding="UTF-8"?>
<!DOCTYPE svg PUBLIC "-//W3C//DTD SVG 1.1//EN" "http://www.w3.org/Graphics/SVG/1.1/DTD/svg11.dtd">
<!-- Creator: CorelDRAW 2020 (64 Bit) -->
<svg xmlns="http://www.w3.org/2000/svg" xml:space="preserve" width="50.8258mm" height="21.2304mm" version="1.1" shape-rendering="geometricPrecision" text-rendering="geometricPrecision" image-rendering="optimizeQuality" fill-rule="evenodd" clip-rule="evenodd"
viewBox="0 0 5068221 2117042"
 xmlns:xlink="http://www.w3.org/1999/xlink"
 xmlns:xodm="http://www.corel.com/coreldraw/odm/2003">
 <g id="Camada_x0020_1">
  <metadata id="CorelCorpID_0Corel-Layer"/>
  <g id="_2290167409552">
   <g>
    <path fill="#669999" fill-rule="nonzero" d="M405711 1001473l193582 0c64238,0 109899,-9433 137002,-28290 27103,-18847 40665,-49789 40665,-92807 0,-43018 -13851,-73661 -41542,-91930 -27692,-18268 -74260,-27402 -139664,-27402l-190042 0 0 240429zm0 -478205l172372 0c57756,0 98401,-8546 121974,-25627 23573,-17082 35360,-45960 35360,-86625 0,-43018 -12664,-72475 -38012,-88380 -25348,-15915 -83972,-23872 -175902,-23872l-115792 0 0 224504zm-405711 782274l0 -1302001 533887 0c114904,0 198567,2942 251019,8835 52461,5883 97534,15616 135247,29167 65993,24750 116520,63341 151581,115792 35081,52451 52611,116081 52611,190929 0,58923 -13123,110337 -39349,154233 -26226,43916 -65544,79993 -118006,108273 68955,24760 119930,61895 152917,111384 32997,49500 49510,113738 49510,192684 0,77201 -16064,144231 -48183,201090 -32119,56869 -78807,100625 -140083,131268 -41263,21210 -88400,36247 -141439,45082 -53030,8835 -140841,13262 -263404,13262l-576307 0z"/>
    <path fill="#FFCC00" fill-rule="nonzero" d="M694752 1305531c0,-3530 -289,-8695 -878,-15466 -588,-6771 -897,-11936 -897,-15466 0,-90155 27711,-175453 83095,-255895 55383,-80442 144959,-163965 268709,-250590 32408,-23573 77480,-53628 135237,-90155 137899,-88390 206834,-165292 206834,-230706 0,-50078 -13701,-89417 -41104,-117996 -27402,-28579 -64966,-42869 -112701,-42869 -59511,0 -104005,18996 -133452,57008 -29467,38002 -44205,95609 -44205,172810l0 22087 -336766 0c0,-4707 -299,-11039 -887,-18996 -598,-7957 -878,-13711 -878,-17241 0,-156736 47575,-279608 142736,-368596 95180,-88968 226139,-133462 392897,-133462 152628,0 274612,37574 365943,112691 91341,75137 137012,174575 137012,298315 0,81340 -17680,149088 -53040,203314 -35360,54216 -107535,114316 -216546,180319 -12983,8247 -33894,20921 -62772,38002 -104295,61276 -184138,115214 -239531,161762l568360 0 0 311129 -1057165 0z"/>
    <path fill="#669999" fill-rule="nonzero" d="M1761629 1001473l193572 0c64238,0 109909,-9433 137012,-28290 27093,-18847 40665,-49789 40665,-92807 0,-43018 -13851,-73661 -41542,-91930 -27692,-18268 -74260,-27402 -139664,-27402l-190042 0 0 240429zm0 -478205l172372 0c57746,0 98401,-8546 121964,-25627 23573,-17082 35370,-45960 35370,-86625 0,-43018 -12674,-72475 -38012,-88380 -25348,-15915 -83982,-23872 -175902,-23872l-115792 0 0 224504zm-405711 782274l0 -1302001 533887 0c114904,0 198567,2942 251019,8835 52451,5883 97534,15616 135247,29167 65993,24750 116520,63341 151581,115792 35071,52451 52601,116081 52601,190929 0,58923 -13123,110337 -39339,154233 -26226,43916 -65554,79993 -118006,108273 68945,24760 119920,61895 152917,111384 32997,49500 49510,113738 49510,192684 0,77201 -16064,144231 -48183,201090 -32119,56869 -78807,100625 -140093,131268 -41253,21210 -88390,36247 -141429,45082 -53040,8835 -140841,13262 -263404,13262l-576307 0z"/>
    <polygon fill="#FFCC00" fill-rule="nonzero" points="1761818,994393 1323251,994393 1319831,1305531 1761818,1305531 "/>
   </g>
   <g>
    <path fill="#666666" fill-rule="nonzero" d="M102190 1576872l32827 0c21310,0 35579,-2383 42779,-7130 7200,-4757 10789,-13173 10789,-25278 0,-12235 -3450,-20741 -10351,-25488 -6920,-4757 -21320,-7120 -43218,-7120l-32827 0 0 65016zm-102181 175184l0 -318179 130909 0c28948,0 51883,1685 68785,5066 16942,3400 31082,8835 42460,16314 14688,9942 25637,22257 32817,36945 7210,14678 10829,32109 10829,52262 0,35589 -10530,62832 -31551,81768 -21030,18936 -51335,28410 -90932,28410l-61137 0 0 97414 -102181 0z"/>
    <path fill="#666666" fill-rule="nonzero" d="M402230 1643185l64148 0 -31750 -110158 -32398 110158zm-131338 108872l111883 -318179 103467 0 111903 318179 -101303 0 -11876 -42121 -101323 0 -12305 42121 -100445 0z"/>
    <path fill="#666666" fill-rule="nonzero" d="M728197 1570610l46448 0c16264,0 27502,-2194 33695,-6591 6192,-4388 9294,-12056 9294,-23005 0,-11238 -3101,-19046 -9294,-23444 -6192,-4378 -18288,-6581 -36287,-6581l-43856 0 0 59621zm-100884 181446l0 -318179 152289 0c47675,0 81699,7120 102071,21379 20372,14250 30573,37663 30573,70211 0,19425 -4188,35569 -12534,48383 -8356,12814 -21250,22965 -38670,30454 17720,3739 30603,11118 38670,22147 8057,11009 12385,27183 12963,48483l1725 44295c0,289 60,638 209,1067 449,12694 3470,19305 9074,19884l0 11876 -103038 0c-1865,-7628 -3271,-14290 -4218,-19973 -927,-5694 -1386,-10121 -1386,-13282l0 -31750c0,-16433 -3251,-27981 -9732,-34682 -6472,-6691 -17710,-10052 -33685,-10052l-43427 0 0 109739 -100884 0z"/>
    <polygon fill="#666666" fill-rule="nonzero" points="1031906,1752056 1031906,1517690 940316,1517690 940316,1433868 1225677,1433868 1225677,1517690 1134087,1517690 1134087,1752056 "/>
    <path fill="#666666" fill-rule="nonzero" d="M1258714 1752056l0 -318189 97005 0 89207 147981c2732,4168 5644,10061 8755,17700 3081,7648 6362,16852 9812,27662 -848,-5624 -1506,-11807 -1935,-18577 -449,-6761 -658,-14988 -658,-24630l0 -150135 97434 0 0 318189 -97434 0 -89207 -146894c-2732,-4318 -5724,-10430 -8965,-18358 -3231,-7908 -6522,-16992 -9832,-27213 1007,5624 1735,11487 2184,17610 429,6113 638,14708 638,25797l0 149058 -97005 0z"/>
    <polygon fill="#666666" fill-rule="nonzero" points="1618814,1752056 1618814,1433868 1873063,1433868 1873063,1510131 1720984,1510131 1720984,1552462 1849560,1552462 1849560,1625475 1720984,1625475 1720984,1674735 1879325,1674735 1879325,1752056 "/>
    <path fill="#666666" fill-rule="nonzero" d="M2027944 1570610l46448 0c16264,0 27492,-2194 33695,-6591 6182,-4388 9294,-12056 9294,-23005 0,-11238 -3111,-19046 -9294,-23444 -6202,-4378 -18288,-6581 -36287,-6581l-43856 0 0 59621zm-100884 181446l0 -318179 152289 0c47675,0 81699,7120 102071,21379 20372,14250 30573,37663 30573,70211 0,19425 -4188,35569 -12534,48383 -8356,12814 -21250,22965 -38670,30454 17720,3739 30603,11118 38670,22147 8057,11009 12385,27183 12963,48483l1725 44295c0,289 60,638 209,1067 449,12694 3460,19305 9074,19884l0 11876 -103038 0c-1865,-7628 -3271,-14290 -4218,-19973 -927,-5694 -1386,-10121 -1386,-13282l0 -31750c0,-16433 -3251,-27981 -9732,-34682 -6472,-6691 -17710,-10052 -33685,-10052l-43427 0 0 109739 -100884 0z"/>
    <path fill="#666666" fill-rule="nonzero" d="M2249786 1652917l99368 0c2722,11517 7698,19794 14898,24830 7210,5046 17939,7569 32189,7569 11966,0 21359,-2054 28200,-6143 6841,-4128 10261,-9772 10261,-16982 0,-11517 -14329,-20881 -42978,-28090 -5774,-1416 -10171,-2503 -13183,-3221 -23483,-6053 -42171,-11557 -56061,-16523 -13901,-4976 -24012,-9623 -30344,-13931 -12235,-8795 -21429,-19305 -27552,-31551 -6133,-12235 -9174,-26206 -9174,-41911 0,-31531 11876,-56300 35639,-74290 23763,-18009 56440,-27003 98062,-27003 40894,0 73093,8596 96566,25807 23473,17211 36716,41881 39737,73980l-96975 0c-1595,-9363 -5734,-16344 -12435,-20951 -6691,-4607 -16234,-6910 -28619,-6910 -10949,0 -19076,1805 -24411,5395 -5325,3600 -7987,9084 -7987,16433 0,10510 13960,19285 41911,26345 2443,718 4328,1217 5604,1496 4049,1027 10161,2533 18368,4547 37025,9363 61197,17859 72574,25488 14110,9363 24411,20013 30902,31969 6472,11956 9712,26086 9712,42350 0,35120 -12275,62124 -36826,81001 -24550,18867 -59731,28300 -105511,28300 -42210,0 -75646,-9433 -100356,-28300 -24690,-18877 -38561,-45431 -41582,-79704z"/>
    <path fill="#666666" fill-rule="nonzero" d="M99159 2042723l47316 0c15686,0 26844,-2303 33475,-6900 6631,-4617 9942,-12176 9942,-22686 0,-10520 -3390,-17999 -10151,-22466 -6771,-4457 -18149,-6701 -34133,-6701l-46448 0 0 58754zm0 -116849l42121 0c14110,0 24052,-2094 29816,-6262 5754,-4178 8646,-11238 8646,-21180 0,-10510 -3101,-17700 -9284,-21599 -6202,-3899 -20532,-5833 -42998,-5833l-28300 0 0 54875zm-99159 191158l0 -318189 130480 0c28090,0 48532,728 61346,2164 12824,1436 23832,3819 33056,7140 16124,6043 28469,15466 37055,28290 8566,12834 12844,28380 12844,46658 0,14389 -3211,26974 -9613,37693 -6412,10740 -16025,19565 -28828,26465 16842,6033 29287,15117 37354,27223 8077,12086 12106,27791 12106,47077 0,18867 -3919,35250 -11777,49161 -7848,13901 -19255,24590 -34243,32079 -10071,5165 -21589,8855 -34552,11009 -12953,2154 -34422,3231 -64368,3231l-140861 0z"/>
    <path fill="#666666" fill-rule="nonzero" d="M436134 1935586l46458 0c16264,0 27492,-2194 33695,-6581 6182,-4398 9284,-12066 9284,-23015 0,-11228 -3101,-19046 -9284,-23444 -6202,-4378 -18288,-6581 -36287,-6581l-43866 0 0 59621zm-100874 181446l0 -318189 152289 0c47675,0 81699,7130 102071,21379 20372,14260 30573,37673 30573,70221 0,19425 -4188,35569 -12534,48383 -8356,12814 -21250,22965 -38670,30454 17720,3739 30603,11128 38670,22147 8057,11019 12385,27183 12963,48483l1725 44295c0,289 60,638 209,1077 449,12684 3460,19295 9074,19874l0 11876 -103038 0c-1865,-7628 -3271,-14290 -4218,-19983 -927,-5684 -1386,-10111 -1386,-13272l0 -31750c0,-16423 -3251,-27981 -9732,-34672 -6472,-6701 -17710,-10052 -33685,-10052l-43437 0 0 109729 -100874 0z"/>
    <polygon fill="#666666" fill-rule="nonzero" points="657986,2117042 657986,2040559 805308,1881150 662732,1881150 662732,1798844 930823,1798844 930823,1874669 781765,2035174 938810,2035174 938810,2117042 "/>
    <polygon fill="#666666" fill-rule="nonzero" points="984820,2117042 984820,1798844 1086990,1798844 1086990,2032571 1225877,2032571 1225877,2117042 "/>
   </g>
  </g>
  <path fill="#4D4D4D" fill-rule="nonzero" d="M3121995 520814l-100366 -267363 -1705 0c848,8835 1566,20721 2134,35669 568,14948 848,30533 848,46767l0 184926 -35440 0 0 -304946 56799 0 93964 249852 1705 0 95669 -249852 56370 0 0 304946 -38012 0 0 -187489c0,-14808 359,-29476 1077,-43995 708,-14519 1346,-26335 1915,-35450l-1705 0 -101652 266934 -31600 0zm334413 -232761c27901,0 48542,6123 61925,18358 13382,12245 20073,31750 20073,58514l0 155888 -27333 0 -7259 -32458 -1705 0c-9972,12525 -20432,21778 -31391,27761 -10959,5973 -26126,8965 -45491,8965 -20781,0 -38002,-5474 -51674,-16443 -13671,-10959 -20502,-28110 -20502,-51464 0,-22775 8975,-40356 26904,-52741 17939,-12385 45561,-19146 82855,-20293l38870 -1276 0 -13671c0,-19076 -4128,-32308 -12385,-39717 -8257,-7399 -19934,-11099 -35021,-11099 -11956,0 -23344,1775 -34173,5335 -10819,3560 -20921,7618 -30314,12176l-11537 -28190c9972,-5415 21778,-10042 35450,-13881 13671,-3849 27901,-5764 42709,-5764zm11109 122144c-28479,1137 -48193,5694 -59152,13671 -10969,7967 -16443,19216 -16443,33734 0,12814 3909,22207 11747,28190 7828,5983 17859,8965 30105,8965 19365,0 35450,-5335 48263,-16015 12814,-10680 19216,-27113 19216,-49330l0 -20492 -33734 1276zm248566 -122573c4268,0 8895,209 13881,638 4986,429 9324,1067 13023,1925l-4697 34592c-3700,-858 -7758,-1566 -12166,-2134 -4417,-568 -8616,-858 -12604,-858 -11677,0 -22636,3201 -32887,9613 -10251,6402 -18438,15376 -24560,26904 -6113,11537 -9174,24989 -9174,40366l0 122144 -37584 0 0 -228921 30743 0 4278 41851 1705 0c7399,-12525 16942,-23344 28619,-32458 11667,-9104 25478,-13661 41423,-13661zm106777 78159c0,4557 -219,10530 -638,17939 -429,7399 -788,13801 -1077,19216l1715 0c1705,-2284 4268,-5554 7688,-9822 3410,-4268 6900,-8616 10460,-13023 3560,-4417 6621,-8047 9184,-10899l73033 -77301 43985 0 -92677 97803 99089 131119 -45272 0 -79445 -106777 -26046 22636 0 84142 -37155 0 0 -324590 37155 0 0 169560zm279309 -78159c19654,0 36517,4268 50617,12814 14090,8536 24909,20572 32458,36088 7539,15516 11318,33665 11318,54456l0 22636 -156746 0c568,25907 7190,45621 19864,59152 12664,13522 30394,20283 53169,20283 14519,0 27402,-1356 38650,-4059 11248,-2702 22855,-6621 34811,-11747l0 32887c-11677,5125 -23204,8905 -34592,11318 -11388,2423 -24919,3630 -40575,3630 -21639,0 -40784,-4408 -57447,-13233 -16653,-8835 -29606,-21998 -38860,-39508 -9254,-17510 -13881,-38940 -13881,-64278 0,-25059 4198,-46558 12594,-64487 8396,-17939 20213,-31750 35450,-41433 15237,-9683 32957,-14519 53169,-14519zm-419 30753c-17939,0 -32109,5764 -42500,17291 -10391,11537 -16583,27552 -18577,48054l116590 0c-279,-19365 -4836,-35101 -13661,-47196 -8825,-12106 -22775,-18149 -41851,-18149zm229340 175961c5694,0 11537,-499 17510,-1496 5983,-997 10819,-2064 14519,-3211l0 28619c-3979,1994 -9673,3630 -17082,4916 -7399,1276 -14519,1915 -21350,1915 -11966,0 -22995,-2064 -33106,-6192 -10101,-4128 -18288,-11318 -24550,-21569 -6272,-10251 -9403,-24630 -9403,-43128l0 -133252 -32458 0 0 -17939 32887 -14948 14948 -48692 22207 0 0 52531 66202 0 0 29048 -66202 0 0 132395c0,13950 3351,24271 10042,30962 6691,6691 15307,10042 25837,10042zm96955 -288293c5694,0 10750,1925 15157,5764 4417,3849 6621,9902 6621,18159 0,7967 -2204,13950 -6621,17939 -4408,3979 -9463,5973 -15157,5973 -6262,0 -11537,-1994 -15805,-5973 -4268,-3989 -6402,-9972 -6402,-17939 0,-8257 2134,-14309 6402,-18159 4268,-3839 9543,-5764 15805,-5764zm18368 85847l0 228921 -37584 0 0 -228921 37584 0zm182792 -4268c27333,0 47974,6621 61925,19854 13950,13242 20931,34672 20931,64278l0 149058 -37155 0 0 -146495c0,-36726 -17092,-55094 -51255,-55094 -25338,0 -42849,7120 -52531,21359 -9683,14230 -14519,34732 -14519,61496l0 118734 -37584 0 0 -228921 30314 0 5554 31182 2134 0c7409,-11966 17660,-20861 30753,-26694 13103,-5843 26904,-8755 41433,-8755zm234894 0c15097,0 28689,2842 40794,8536 12096,5694 22416,14379 30962,26056l2134 0 5125 -30324 29895 0 0 232761c0,32747 -8326,57377 -24989,73891 -16653,16513 -42490,24770 -77510,24770 -33605,0 -61077,-4836 -82426,-14519l0 -34592c22486,11956 50676,17939 84560,17939 19644,0 35091,-5774 46339,-17301 11248,-11527 16872,-27263 16872,-47196l0 -8965c0,-3420 140,-8326 429,-14738 279,-6402 568,-10889 848,-13452l-1705 0c-15376,23065 -39009,34592 -70899,34592 -29606,0 -52741,-10391 -69403,-31172 -16653,-20791 -24979,-49829 -24979,-87133 0,-36437 8326,-65415 24979,-86914 16663,-21489 39648,-32239 68975,-32239zm5125 31600c-19076,0 -33884,7618 -44414,22855 -10540,15227 -15805,36935 -15805,65125 0,28190 5195,49759 15586,64707 10401,14948 25558,22426 45491,22426 23065,0 39857,-6192 50397,-18587 10530,-12385 15805,-32388 15805,-60000l0 -8975c0,-31311 -5415,-53738 -16234,-67259 -10819,-13532 -27761,-20293 -50826,-20293zm-1711351 850341l-170407 0 0 -304946 170407 0 0 33744 -131976 0 0 95240 124288 0 0 33316 -124288 0 0 108901 131976 0 0 33744zm112312 0l-86694 -228921 40146 0 48692 134958c2274,6272 4697,13242 7259,20931 2563,7688 4836,15017 6831,21998 1994,6970 3420,12883 4268,17720l1715 0c1137,-4836 2772,-10819 4906,-17939 2134,-7110 4557,-14519 7259,-22207 2712,-7688 5056,-14519 7050,-20502l48692 -134958 40146 0 -87133 228921 -43138 0zm254978 -233189c19654,0 36517,4268 50617,12814 14090,8536 24909,20572 32458,36088 7539,15516 11318,33665 11318,54456l0 22636 -156746 0c568,25907 7190,45621 19864,59152 12664,13522 30394,20283 53169,20283 14519,0 27402,-1356 38650,-4059 11248,-2702 22855,-6621 34811,-11747l0 32887c-11677,5125 -23204,8905 -34592,11318 -11388,2423 -24919,3630 -40575,3630 -21639,0 -40784,-4408 -57447,-13233 -16653,-8835 -29606,-21998 -38860,-39508 -9254,-17510 -13881,-38940 -13881,-64278 0,-25059 4198,-46558 12594,-64487 8396,-17939 20213,-31750 35450,-41433 15237,-9683 32957,-14519 53169,-14519zm-419 30753c-17939,0 -32109,5764 -42500,17291 -10391,11537 -16583,27552 -18577,48054l116590 0c-279,-19365 -4836,-35101 -13661,-47196 -8825,-12106 -22775,-18149 -41851,-18149zm263085 -30753c27333,0 47974,6621 61925,19854 13950,13242 20931,34672 20931,64278l0 149058 -37155 0 0 -146495c0,-36726 -17092,-55094 -51255,-55094 -25338,0 -42849,7120 -52531,21359 -9683,14230 -14519,34732 -14519,61496l0 118734 -37584 0 0 -228921 30314 0 5554 31182 2134 0c7409,-11966 17660,-20861 30753,-26694 13103,-5843 26904,-8755 41433,-8755zm230198 206714c5694,0 11537,-499 17510,-1496 5983,-997 10819,-2064 14519,-3211l0 28619c-3979,1994 -9673,3630 -17082,4916 -7399,1276 -14519,1915 -21350,1915 -11966,0 -22995,-2064 -33106,-6192 -10101,-4128 -18288,-11318 -24550,-21569 -6272,-10251 -9403,-24630 -9403,-43128l0 -133252 -32458 0 0 -17939 32887 -14948 14948 -48692 22207 0 0 52531 66202 0 0 29048 -66202 0 0 132395c0,13950 3351,24271 10042,30962 6691,6691 15307,10042 25837,10042zm276756 -88410c0,37863 -9603,67190 -28828,87981 -19216,20781 -45202,31172 -77939,31172 -20213,0 -38222,-4627 -54027,-13881 -15805,-9254 -28260,-22775 -37374,-40575 -9104,-17790 -13661,-39358 -13661,-64697 0,-37873 9533,-67060 28609,-87552 19076,-20502 44993,-30753 77730,-30753 20791,0 39079,4627 54885,13881 15805,9254 28190,22636 37155,40146 8975,17510 13452,38930 13452,64278zm-172970 0c0,27043 5345,48473 16015,64278 10680,15795 27692,23703 51035,23703 23065,0 40007,-7908 50826,-23703 10819,-15805 16234,-37235 16234,-64278 0,-27053 -5415,-48263 -16234,-63640 -10819,-15376 -27901,-23065 -51245,-23065 -23354,0 -40296,7688 -50826,23065 -10540,15376 -15805,36586 -15805,63640zm381389 51674c0,22207 -8257,39009 -24770,50397 -16513,11388 -38720,17082 -66621,17082 -15945,0 -29686,-1276 -41213,-3839 -11537,-2563 -21718,-6123 -30543,-10680l0 -34163c9114,4557 20143,8755 33096,12594 12963,3849 26126,5764 39508,5764 19076,0 32887,-3061 41433,-9174 8536,-6123 12814,-14309 12814,-24560 0,-5694 -1566,-10819 -4697,-15376 -3141,-4557 -8755,-9114 -16872,-13671 -8117,-4547 -19724,-9673 -34811,-15376 -14808,-5694 -27472,-11388 -38012,-17082 -10530,-5694 -18647,-12525 -24341,-20502 -5694,-7967 -8546,-18218 -8546,-30743 0,-19365 7908,-34313 23703,-44843 15805,-10540 36517,-15805 62144,-15805 13950,0 26984,1346 39079,4059 12106,2702 23424,6472 33954,11318l-12814 29895c-9683,-3989 -19784,-7409 -30324,-10251 -10530,-2852 -21350,-4268 -32458,-4268 -15376,0 -27123,2483 -35230,7469 -8117,4986 -12176,11747 -12176,20293 0,6262 1855,11597 5554,16015 3700,4408 9892,8685 18577,12814 8685,4128 20283,9034 34811,14728 14519,5415 26904,10959 37155,16663 10251,5694 18079,12594 23483,20711 5415,8117 8117,18288 8117,30533zm-1419219 711963l-38441 0 0 -271202 -95240 0 0 -33744 228493 0 0 33744 -94811 0 0 271202zm194319 -233189c19654,0 36517,4268 50617,12814 14090,8536 24909,20572 32458,36088 7539,15516 11318,33665 11318,54456l0 22636 -156746 0c568,25907 7190,45621 19864,59152 12664,13522 30394,20283 53169,20283 14519,0 27402,-1356 38650,-4059 11248,-2702 22855,-6621 34811,-11747l0 32887c-11677,5125 -23204,8905 -34592,11318 -11388,2423 -24919,3630 -40575,3630 -21639,0 -40784,-4408 -57447,-13233 -16653,-8835 -29606,-21998 -38860,-39508 -9254,-17510 -13881,-38940 -13881,-64278 0,-25059 4198,-46558 12594,-64487 8396,-17939 20213,-31750 35450,-41433 15237,-9683 32957,-14519 53169,-14519zm-419 30753c-17939,0 -32109,5764 -42500,17291 -10391,11537 -16583,27552 -18577,48054l116590 0c-279,-19365 -4836,-35101 -13661,-47196 -8825,-12106 -22775,-18149 -41851,-18149zm244717 206704c-20213,0 -38222,-4128 -54027,-12385 -15805,-8257 -28190,-21070 -37155,-38431 -8975,-17371 -13452,-39578 -13452,-66631 0,-28190 4697,-51105 14090,-68765 9393,-17650 22137,-30603 38222,-38860 16094,-8257 34383,-12385 54885,-12385 11677,0 22925,1207 33744,3630 10819,2423 19644,5335 26475,8755l-11527 31172c-6841,-2563 -14808,-4976 -23922,-7259 -9114,-2274 -17650,-3410 -25627,-3410 -44983,0 -67479,28898 -67479,86694 0,27622 5484,48762 16443,63420 10959,14668 27263,21998 48901,21998 12534,0 23563,-1276 33096,-3839 9543,-2563 18298,-5694 26276,-9403l0 33316c-7688,3989 -16164,7050 -25418,9184 -9254,2134 -20432,3201 -33525,3201zm223367 -237457c27333,0 47974,6621 61925,19854 13950,13242 20931,34672 20931,64278l0 149058 -37155 0 0 -146495c0,-36726 -17092,-55094 -51255,-55094 -25338,0 -42849,7120 -52531,21359 -9683,14230 -14519,34732 -14519,61496l0 118734 -37584 0 0 -228921 30314 0 5554 31182 2134 0c7409,-11966 17660,-20861 30753,-26694 13103,-5843 26904,-8755 41433,-8755zm352771 118305c0,37863 -9603,67190 -28828,87981 -19216,20781 -45202,31172 -77939,31172 -20213,0 -38222,-4627 -54027,-13881 -15805,-9254 -28260,-22775 -37374,-40575 -9104,-17790 -13661,-39358 -13661,-64697 0,-37873 9533,-67060 28609,-87552 19076,-20502 44993,-30753 77730,-30753 20791,0 39079,4627 54885,13881 15805,9254 28190,22636 37155,40146 8975,17510 13452,38930 13452,64278zm-172970 0c0,27043 5345,48473 16015,64278 10680,15795 27692,23703 51035,23703 23065,0 40007,-7908 50826,-23703 10819,-15805 16234,-37235 16234,-64278 0,-27053 -5415,-48263 -16234,-63640 -10819,-15376 -27901,-23065 -51245,-23065 -23354,0 -40296,7688 -50826,23065 -10540,15376 -15805,36586 -15805,63640zm269925 114885l-37584 0 0 -324590 37584 0 0 324590zm271620 -114885c0,37863 -9603,67190 -28828,87981 -19216,20781 -45202,31172 -77939,31172 -20213,0 -38222,-4627 -54027,-13881 -15805,-9254 -28260,-22775 -37374,-40575 -9104,-17790 -13661,-39358 -13661,-64697 0,-37873 9533,-67060 28609,-87552 19076,-20502 44993,-30753 77730,-30753 20791,0 39079,4627 54885,13881 15805,9254 28190,22636 37155,40146 8975,17510 13452,38930 13452,64278zm-172970 0c0,27043 5345,48473 16015,64278 10680,15795 27692,23703 51035,23703 23065,0 40007,-7908 50826,-23703 10819,-15805 16234,-37235 16234,-64278 0,-27053 -5415,-48263 -16234,-63640 -10819,-15376 -27901,-23065 -51245,-23065 -23354,0 -40296,7688 -50826,23065 -10540,15376 -15805,36586 -15805,63640zm313482 -118305c15097,0 28689,2842 40794,8536 12096,5694 22416,14379 30962,26056l2134 0 5125 -30324 29895 0 0 232761c0,32747 -8326,57377 -24989,73891 -16653,16513 -42490,24770 -77510,24770 -33605,0 -61077,-4836 -82426,-14519l0 -34592c22486,11956 50676,17939 84560,17939 19644,0 35091,-5774 46339,-17301 11248,-11527 16872,-27263 16872,-47196l0 -8965c0,-3420 140,-8326 429,-14738 279,-6402 568,-10889 848,-13452l-1705 0c-15376,23065 -39009,34592 -70899,34592 -29606,0 -52741,-10391 -69403,-31172 -16653,-20791 -24979,-49829 -24979,-87133 0,-36437 8326,-65415 24979,-86914 16663,-21489 39648,-32239 68975,-32239zm5125 31600c-19076,0 -33884,7618 -44414,22855 -10540,15227 -15805,36935 -15805,65125 0,28190 5195,49759 15586,64707 10401,14948 25558,22426 45491,22426 23065,0 39857,-6192 50397,-18587 10530,-12385 15805,-32388 15805,-60000l0 -8975c0,-31311 -5415,-53738 -16234,-67259 -10819,-13532 -27761,-20293 -50826,-20293zm195606 -113179c5694,0 10750,1925 15157,5764 4417,3849 6621,9902 6621,18159 0,7967 -2204,13950 -6621,17939 -4408,3979 -9463,5973 -15157,5973 -6262,0 -11537,-1994 -15805,-5973 -4268,-3989 -6402,-9972 -6402,-17939 0,-8257 2134,-14309 6402,-18159 4268,-3839 9543,-5764 15805,-5764zm18368 85847l0 228921 -37584 0 0 -228921 37584 0zm159299 -3839c27901,0 48542,6123 61925,18358 13382,12245 20073,31750 20073,58514l0 155888 -27333 0 -7259 -32458 -1705 0c-9972,12525 -20432,21778 -31391,27761 -10959,5973 -26126,8965 -45491,8965 -20781,0 -38002,-5474 -51674,-16443 -13671,-10959 -20502,-28110 -20502,-51464 0,-22775 8975,-40356 26904,-52741 17939,-12385 45561,-19146 82855,-20293l38870 -1276 0 -13671c0,-19076 -4128,-32308 -12385,-39717 -8257,-7399 -19934,-11099 -35021,-11099 -11956,0 -23344,1775 -34173,5335 -10819,3560 -20921,7618 -30314,12176l-11537 -28190c9972,-5415 21778,-10042 35450,-13881 13671,-3849 27901,-5764 42709,-5764zm11109 122144c-28479,1137 -48193,5694 -59152,13671 -10969,7967 -16443,19216 -16443,33734 0,12814 3909,22207 11747,28190 7828,5983 17859,8965 30105,8965 19365,0 35450,-5335 48263,-16015 12814,-10680 19216,-27113 19216,-49330l0 -20492 -33734 1276z"/>
  <polygon fill="#4D4D4D" fill-rule="nonzero" points="2872761,96397 2629101,2025053 2594340,2020645 2837999,91989 "/>
 </g>
</svg>
