<?xml version="1.0" encoding="UTF-8"?>
<!DOCTYPE svg PUBLIC "-//W3C//DTD SVG 1.1//EN" "http://www.w3.org/Graphics/SVG/1.1/DTD/svg11.dtd">
<!-- Creator: CorelDRAW 2020 (64 Bit) -->
<svg xmlns="http://www.w3.org/2000/svg" xml:space="preserve" width="183.972mm" height="66.1281mm" version="1.1" shape-rendering="geometricPrecision" text-rendering="geometricPrecision" image-rendering="optimizeQuality" fill-rule="evenodd" clip-rule="evenodd"
viewBox="0 0 18340575 6592460"
 xmlns:xlink="http://www.w3.org/1999/xlink"
 xmlns:xodm="http://www.corel.com/coreldraw/odm/2003">
 <g id="Camada_x0020_1">
  <metadata id="CorelCorpID_0Corel-Layer"/>
  <rect fill="white" x="-4" y="-4" width="18340574" height="6592460"/>
  <path fill="#669999" fill-rule="nonzero" d="M840326 2425682l368443 0c122263,0 209184,-17945 260765,-53844 51581,-35879 77401,-94757 77401,-176635 0,-81877 -26359,-140207 -79076,-174970 -52707,-34773 -141334,-52159 -265819,-52159l-361713 0 0 457607zm0 -910170l328087 0c109911,0 187282,-16270 232143,-48779 44862,-32520 67302,-87470 67302,-164871 0,-81877 -24116,-137964 -72357,-168231 -48231,-30287 -159817,-45430 -334787,-45430l-220390 0 0 427311zm-772206 1488914l0 -2478130 1016163 0c218705,0 377943,5593 477775,16818 99842,11195 185637,29718 257425,55509 125602,47115 221765,120558 288499,220380 66764,99852 100121,220958 100121,363418 0,112134 -24973,210002 -74879,293554 -49906,83572 -124755,152250 -224607,206084 131235,47115 228265,117786 291062,211986 62806,94219 94229,216492 94229,366758 0,146936 -30576,274523 -91707,382729 -61131,108246 -149997,191519 -266637,249859 -78528,40355 -168241,68977 -269189,85795 -100948,16808 -268072,25242 -501342,25242l-1096914 0z"/>
  <path fill="#FFCC00" fill-rule="nonzero" d="M1390468 3004406c0,-6709 -548,-16539 -1675,-29439 -1127,-12890 -1705,-22710 -1705,-29439 0,-171590 52737,-333949 158152,-487037 105415,-153107 275908,-312087 511441,-476958 61680,-44862 147475,-102065 257395,-171600 262470,-168241 393675,-314599 393675,-439115 0,-95316 -26070,-170195 -78229,-224577 -52159,-54402 -123658,-81598 -214508,-81598 -113260,0 -197959,36168 -254016,108515 -56077,72327 -84120,181968 -84120,328905l0 42050 -640981 0c0,-8962 -578,-21005 -1695,-36158 -1127,-15143 -1675,-26089 -1675,-32819 0,-298329 90570,-532187 271681,-701554 181151,-169337 430421,-254016 747822,-254016 290483,0 522667,71499 696510,214478 173853,143009 260765,332274 260765,567797 0,154812 -33636,283754 -100938,386956 -67312,103201 -204688,217588 -412168,343221 -24704,15692 -64511,39817 -119471,72327 -198507,116630 -350488,219283 -455903,307880l1081761 0 0 592182 -2012119 0z"/>
  <path fill="#669999" fill-rule="nonzero" d="M3421089 2425682l368423 0c122273,0 209194,-17945 260775,-53844 51581,-35879 77401,-94757 77401,-176635 0,-81877 -26369,-140207 -79076,-174970 -52707,-34773 -141334,-52159 -265819,-52159l-361703 0 0 457607zm0 -910170l328067 0c109911,0 187292,-16270 232143,-48779 44871,-32520 67312,-87470 67312,-164871 0,-81877 -24116,-137964 -72357,-168231 -48231,-30287 -159827,-45430 -334797,-45430l-220370 0 0 427311zm-772216 1488914l0 -2478130 1016163 0c218705,0 377953,5593 477765,16818 99852,11195 185647,29718 257425,55509 125612,47115 221775,120558 288499,220380 66764,99852 100131,220958 100131,363418 0,112134 -24973,210002 -74889,293554 -49906,83572 -124755,152250 -224597,206084 131235,47115 228255,117786 291062,211986 62796,94219 94219,216492 94219,366758 0,146936 -30566,274523 -91697,382729 -61131,108246 -150007,191519 -266637,249859 -78528,40355 -168251,68977 -269199,85795 -100938,16808 -268063,25242 -501342,25242l-1096904 0z"/>
  <polygon fill="#FFCC00" fill-rule="nonzero" points="3421428,2412214 2586695,2412214 2580185,3004406 3421428,3004406 "/>
  <path fill="#666666" d="M10221428 3142031c3021,60414 31563,54302 -16599,100769 -48620,46935 -92165,95515 -150824,136339 -43456,30247 -52707,46128 -96701,19899 8623,-45500 64820,-62617 108645,-84100 42489,-20836 84210,-49268 81379,-113819 -50843,-70702 -111775,-24006 -182915,12531 -207131,106402 -652177,255441 -694915,428358 -26468,107050 50763,136519 107767,175987 144315,99932 280963,55439 435246,-13728 289815,-129909 483039,-287812 662415,-460140 76803,-73782 96183,-48111 217818,-60812 60354,-6301 191808,-23338 242751,-43934 36986,-14944 47244,-36737 66903,-68339 31842,-51182 105345,-96123 151552,-135532 31822,-27146 53525,-49188 83044,-12800 26399,56755 -87889,252820 -17665,421858 159448,383775 597436,230219 842639,43356 72456,-55220 66634,-64302 126838,-132790 35770,31722 27914,54601 80003,78428 131534,60194 260855,-52897 352302,-129311 88138,-73663 152908,-176585 237168,-260845 23717,-23737 55339,-72626 97419,-69585 26648,61749 17037,335724 72496,502120 55070,165230 236719,219273 383157,145630 202036,-101596 285509,-281202 432186,-428507 36776,-36936 100689,-136877 144823,-154513 13588,33965 35471,64441 49198,103241 42519,120089 83253,217309 232752,248493 99244,20696 173843,-11804 250038,-51999 43167,-22770 177891,-93900 199325,-120289l-88686 -221137c-55210,14725 -72586,34155 -144723,17267 -37245,-8713 -63414,-43705 -75228,-85725 -17795,-63285 -18413,-385550 -57253,-423473 -21643,-21125 -74789,-38013 -117138,-41941 -109592,-10179 -161302,55648 -201847,119481 -49856,78508 -57991,114317 -123379,197460 -83074,105634 -114626,168410 -211637,277802 -54183,61101 -86403,120518 -158979,161781 -33128,18832 -75597,51900 -111227,57921 -43406,-35530 -39478,-110878 -40286,-177263 -867,-72277 -2403,-150176 5533,-220619 12362,-109691 54621,-267215 90650,-365362 21374,-58240 26020,-122572 47792,-180114 31174,-82356 137087,-320879 -46337,-282408 -197799,41472 -250826,159039 -360258,323392l-100071 127666c-18174,22401 -33297,34324 -52448,57094 -110808,131783 -182995,246718 -312735,371224 -36846,35361 -112852,202465 -182935,60483 288160,-367565 141354,-975120 -303204,-816809l-113589 39847c-28462,7945 -52179,9870 -38780,-30376 3180,-9551 11245,-26129 16060,-36208 14416,-30187 27415,-41412 17975,-71280 -39837,-55678 -171032,-29260 -217040,-1077 -81578,49986 -151303,145301 -221127,209503 -51651,47493 -107239,80352 -148242,138702 -85805,122093 -188079,178997 -283066,282428 -98217,106950 -154892,111875 -240149,190213 -48530,44592 -69854,149608 -163057,114297 -33925,-34115 -22401,-251254 -37704,-316553 -29150,-124306 -74440,-217578 -155380,-292517 -42818,-39638 -83622,-104886 -124127,-146229 -37913,-38681 -46815,-53395 -84389,-92514 -92694,-96492 -338196,-389438 -405708,-497873 -215395,-346002 -85965,-531669 181809,-764301 48032,-41721 92584,-95774 150316,-128753 73583,-42030 82615,11156 33766,59736 -56406,56077 -163416,98476 -181231,184490 -13967,67382 27485,101537 93452,92335 140187,-19560 522278,-328097 650931,-430920 85127,-68030 90032,-167553 87659,-278969 -6400,-300791 -298309,-153915 -447000,-80701 -124595,61361 -254913,91767 -362122,178200 -34962,28203 -66096,42868 -115813,69775 -97489,52767 -218505,152589 -302895,229292 -90640,82376 -189694,180443 -244904,303473 -40066,89254 -87799,156298 -110938,251743 -55459,228854 -6081,453530 118534,569113 149130,138323 60443,159059 239361,300791 92833,73543 131026,128154 186963,176106 67492,57851 111556,117627 168669,185767 85077,101507 169038,196503 217419,331287 32938,91787 -58200,173544 -119501,228485z"/>
  <g id="_1704214163152">
   <path fill="#666666" d="M7985380 5818190l0 148532c16958,39568 14296,107069 24614,155101 13877,64621 25222,63434 78139,91079 98007,51212 103710,99074 258462,83722 89733,-8893 213182,-25681 304291,-41013 96063,-16170 168500,-62477 250337,-96153l245113 -100580c140935,-74699 155291,-166047 238015,-285539 47543,-68678 171172,-249639 248323,-267066 37664,67990 16449,176096 30825,261802 23298,138991 30287,345384 180303,402537 241385,91946 415886,-132860 546383,-286047l203113 -236031c28273,-29539 39368,-60832 79654,-71948 13728,38651 34184,67701 49727,111944 43984,125154 85257,208367 233429,239750 189056,40046 308896,-114756 451008,-166217 -6410,75407 -28562,88447 -21733,173973 13139,164522 95106,231336 219961,313213 120339,78926 95814,88706 279936,82286 99433,-3459 214528,-19540 300702,-52408 85795,-32729 173644,-86274 229601,-133428 89583,-75487 96293,-95356 203282,-151044 81030,-42180 240518,-167892 308926,-231505 28173,-26199 53774,-76205 98167,-78976 65229,-4087 115354,158162 143367,216282 92395,191688 358503,221426 502140,142191 36158,-19948 97001,-19251 142012,-35122 100410,-35411 198557,-111845 274752,-181330 15432,-14077 26518,-28981 40864,-43167 39249,-38840 43237,-62677 73882,-103421 37165,-49427 95366,-89025 142131,-128015l131454 -130288c21344,-21902 183005,-207350 218426,-108116 3449,9680 3589,12432 4137,23188 1804,35341 -67312,237008 -79554,278630 -30625,104119 -64192,204469 -96163,309156 -38391,125732 -77999,176625 -44832,321657 13728,60005 70403,64750 141324,61071 78308,-4057 98885,-24923 139868,-62088l202136 -203073c35829,-35839 65508,-65458 101347,-101287 63065,-63035 114736,-179177 185328,-219921 113878,-65727 257844,-226920 360537,-239132 38431,39448 56376,59756 90391,108864 27186,39249 59446,71739 87191,107169 61560,78607 82067,186275 155400,241195 87211,65318 218366,58230 300612,-349l217439 -180254 -22261 -70642c9760,36298 46098,64481 23218,114596 -8593,18822 -49956,60812 -66694,85307 -79485,116281 -75188,376119 142371,393266 73074,5762 173754,-50723 227019,-82874 241564,-145770 242182,-179167 425965,-358992 22072,-21593 56835,-45709 85177,-66774l172368 -142829c83542,96432 -3639,452154 371384,450220 109632,-568 231117,-66485 290882,-122562l156208 -147844c19191,-21773 28781,-31413 48929,-50275 -7646,-54023 -62328,-186773 -90869,-220280 -50006,34922 -143567,150785 -190592,164931 -91906,27665 -167114,-85396 -177502,-165858 -13349,-103381 23936,-239062 -4038,-334986 -85157,-291959 -495530,177851 -510783,188159l-289935 241943c-27056,26189 -163356,150426 -211407,125572 -8544,-26209 66046,-120518 83552,-143926 58041,-77610 111476,-129351 177343,-193742 21693,-21215 39787,-34783 61919,-56446 73413,-71888 156208,-190093 164771,-198248 23846,-22670 37215,-23408 64810,-53295 22431,-24305 36408,-31672 60025,-58340 81877,-92445 109711,-100141 183673,-179007 19370,-20656 43037,-35720 61091,-56894 49736,-58350 64959,-68219 128912,-116161 13548,-10159 19739,-16629 32211,-26747 149030,-120807 97479,-389129 -304620,-161202 -105086,59566 -187531,134176 -277095,204040l-129500 115404c-20895,18951 -36338,41631 -59397,58579 -52099,38292 -92734,59805 -142141,102434 -45300,39079 -93701,97559 -128264,116780 -65777,36587 -74979,72377 -117009,127825 -73334,96751 -217997,135801 -270136,211029 -32958,47563 -59068,97938 -113260,122701 -157554,72008 -210231,-206642 -249938,-332444 -40754,-129131 -100958,-232024 -256767,-232333 -167074,-339 -350000,170065 -447020,278072l-231834 249271c-34543,37205 -68020,101317 -115384,121226 -30047,-62796 19590,-139200 45390,-199684 27714,-64969 47035,-133069 69346,-200651 44612,-135093 194988,-533344 33207,-632428 -57792,-35391 -164044,-25212 -223420,3320 -198268,95246 -159358,129500 -286874,253178 -42748,41462 -101377,97300 -137645,140975 -56336,67870 -263377,302965 -322275,352751 -76544,64700 -156955,184700 -200142,205107 -128942,60962 -271901,124436 -417431,83901 -70801,-19719 -126858,-59257 -144793,-125672 -30157,-111615 16918,-144953 67203,-191409 74749,-69047 132162,-140845 197381,-207888 113021,-116181 212045,-259499 252251,-422286 25820,-104487 49238,-95705 25980,-219303 -34723,-184540 -107359,-250507 -315436,-205755 -138572,29808 -217897,150994 -298070,250517 -90042,111785 -152679,190392 -211158,329074 -84439,200282 -77471,215664 -116640,423822 -13289,70592 -89384,91687 -128992,140835 -20985,26050 -38232,51092 -57572,77451l-204698 209065 -335365 204588c-77979,47643 -112951,41263 -201837,68399 -46776,14286 -50813,30306 -98426,15562 -39199,-12143 -64780,-19171 -99712,-36318 -64690,-31742 -102763,-76025 -108964,-164123 -3878,-55190 18373,-189176 40684,-233479 34334,-68180 151064,-149748 214249,-199454l227887 -177193c28452,-20656 43376,-45809 69186,-65697 26708,-20576 60703,-28313 92385,-43227 33626,-15831 53365,-33118 86782,-47683 95057,-41452 178778,-94578 187043,-220798 5383,-82246 20277,-199963 -56545,-216711 -173076,-37724 -429395,197221 -464925,212803 -85616,37544 -182676,100231 -245721,159169 -113310,105923 -248313,208676 -366608,308677 -74440,62936 -168929,105744 -225215,180074 -53495,70662 -64830,107827 -178210,87390 -76245,-13748 -90401,-90590 -93721,-174751 -3011,-76633 -18244,-172089 -24943,-254136 -7756,-95037 -49298,-118385 -145491,-124605 -179964,-11624 -197760,161661 -275779,262819 -75447,97828 -275839,376966 -356430,453869 -25132,23986 -137844,91747 -169048,98546 -100639,-95625 -12322,-585473 42738,-731472 26917,-71370 36836,-153117 64491,-222234 66774,-166835 122372,-363927 -150366,-235194 -32031,15123 -73383,29310 -94020,49687 -60174,59397 -124466,173514 -173983,248254 -54402,82126 -108096,127277 -164353,198318l-156397 198069c-20088,25382 -41412,54472 -65119,78538 -37813,38372 -77022,69236 -103610,115912 -6600,11594 -20636,29349 -29599,37823 -23288,22022 -49896,34793 -77790,65687 -32290,35750 -19998,53505 -72955,70652 -69196,22421 -133398,51970 -211796,75288 -90590,26947 -396267,96851 -481444,73792 -110957,-94638 18593,-672065 52259,-814695 17077,-72317 23936,-136838 33935,-212614 14106,-106870 76663,-263267 102434,-377724 16031,-71200 7916,-133169 28033,-208457 37544,-140516 86623,-220529 92355,-390863 2482,-73443 16988,-143786 25372,-216502 5184,-45061 2562,-62328 23747,-95236 55439,-86154 36338,-190123 61430,-300931 14974,-66116 28223,-133159 36627,-200690 8035,-64551 -2143,-151712 -42389,-188329 -50564,-46008 -122931,-20746 -181510,-1446 -161840,53315 -159308,113320 -221068,260217 -42748,101656 -109691,234825 -138044,343280 -33168,126848 -51212,265092 -85536,395579 -32161,122283 -71529,268043 -88497,391601 -4646,33865 -15064,76933 -14396,110878 2123,107708 101606,4955 63015,267664 -20198,137516 -56605,269259 -72716,408888 -12611,109233 4376,157783 -867,226022l-127018 583120z"/>
   <path fill="white" d="M12019607 2567026c-73613,43237 -102593,156537 -156627,206991 -100091,93452 -123399,-9371 -194968,176475 -72297,187750 -159298,499757 185418,388012 161362,-52299 232622,-209134 331238,-310352 42020,-43117 57064,-142460 76464,-201996 25561,-78448 24993,-98526 -31194,-206194 -26558,-50883 -112702,-56864 -168849,-60832 -40076,-2831 -14376,-8025 -41482,7896z"/>
   <path fill="white" d="M13589561 4759767c-111895,41392 -306783,424400 -166705,360238 20008,-9162 51631,-69595 69864,-91657 44463,-53774 109442,-92973 141394,-179436 15522,-41990 19001,-112642 -44552,-89145z"/>
   <path fill="#666666" fill-rule="nonzero" d="M17925815 4543216c-19769,60742 -19041,149229 -18264,246050 1475,181809 3160,387374 -105096,595432l-249470 -129680c76883,-147764 75517,-315347 74311,-463559 -987,-121535 -1894,-232612 31463,-335076l267056 86832z"/>
  </g>
  <polygon fill="#666666" fill-rule="nonzero" points="6523423,217788 6523423,6326411 6417909,6326411 6417909,217788 "/>
 </g>
</svg>
