<?xml version="1.0" encoding="UTF-8"?>
<!DOCTYPE svg PUBLIC "-//W3C//DTD SVG 1.1//EN" "http://www.w3.org/Graphics/SVG/1.1/DTD/svg11.dtd">
<!-- Creator: CorelDRAW 2020 (64 Bit) -->
<svg xmlns="http://www.w3.org/2000/svg" xml:space="preserve" width="13.8011mm" height="8.4929mm" version="1.1" shape-rendering="geometricPrecision" text-rendering="geometricPrecision" image-rendering="optimizeQuality" fill-rule="evenodd" clip-rule="evenodd"
viewBox="0 0 100.25 61.69"
 xmlns:xlink="http://www.w3.org/1999/xlink"
 xmlns:xodm="http://www.corel.com/coreldraw/odm/2003">
 <g id="Camada_x0020_1">
  <metadata id="CorelCorpID_0Corel-Layer"/>
  <g id="_217956912">
   <polygon id="_217961256" fill="#666666" fill-rule="nonzero" points="-0,0 2,61.69 11.71,61.69 11.5,36.11 19.64,36.11 19.64,28.14 11.5,28.14 11.53,8.06 22.16,8.06 22.1,0 "/>
   <polygon id="_217958256" fill="#666666" fill-rule="nonzero" points="25.94,0 27.17,61.69 37.19,61.69 37.4,0 "/>
   <polygon id="_217960584" fill="#666666" fill-rule="nonzero" points="72.95,0 72.95,7.78 80.87,7.78 80.64,61.69 90.34,61.69 92.4,7.77 100.25,7.77 100.19,0 "/>
   <path id="_217960752" fill="#666666" fill-rule="nonzero" d="M52.52 28.55l0.11 -20.96 5.6 0c2.54,4.67 4.17,10.84 5.45,20.96l-11.16 0zm-8.95 33.14l0.98 0 7.24 0 1.06 0 0.1 -25.51 11.12 0c0.87,4.5 1.09,18.4 1.14,25.51l0.92 0 7.26 0 0.82 0c0.85,-31.5 -1.79,-49.3 -9.08,-61.69l-22.42 0 0.85 61.69z"/>
  </g>
 </g>
</svg>
