<?xml version="1.0" encoding="UTF-8"?>
<!DOCTYPE svg PUBLIC "-//W3C//DTD SVG 1.1//EN" "http://www.w3.org/Graphics/SVG/1.1/DTD/svg11.dtd">
<!-- Creator: CorelDRAW 2020 (64 Bit) -->
<svg xmlns="http://www.w3.org/2000/svg" xml:space="preserve" width="35.6534mm" height="35.6534mm" version="1.1" shape-rendering="geometricPrecision" text-rendering="geometricPrecision" image-rendering="optimizeQuality" fill-rule="evenodd" clip-rule="evenodd"
viewBox="0 0 822340 822340"
 xmlns:xlink="http://www.w3.org/1999/xlink"
 xmlns:xodm="http://www.corel.com/coreldraw/odm/2003">
 <defs>
    <radialGradient id="id0" gradientUnits="userSpaceOnUse" gradientTransform="matrix(1.74866 -1.74866 1.74866 1.74866 -1.45431E+06 -299341)" cx="156244" cy="764777" r="287819" fx="156244" fy="764777">
     <stop offset="0" stop-opacity="1" stop-color="#FFDD55"/>
     <stop offset="0.490196" stop-opacity="1" stop-color="#FA5148"/>
     <stop offset="1" stop-opacity="1" stop-color="#C837AB"/>
    </radialGradient>
    <mask id="id1">
      <linearGradient id="id2" gradientUnits="userSpaceOnUse" x1="301898" y1="-55649" x2="461963" y2="452442">
       <stop offset="0" stop-opacity="1" stop-color="white"/>
       <stop offset="1" stop-opacity="0" stop-color="white"/>
      </linearGradient>
     <rect fill="url(#id2)" x="-2034" y="-2034" width="826409" height="826409"/>
    </mask>
    <linearGradient id="id3" gradientUnits="userSpaceOnUse" x1="429880" y1="72331" x2="577433" y2="543604">
     <stop offset="0" stop-opacity="1" stop-color="#4366CA"/>
     <stop offset="1" stop-opacity="1" stop-color="#DD4282"/>
    </linearGradient>
 </defs>
 <g id="Camada_x0020_1">
  <metadata id="CorelCorpID_0Corel-Layer"/>
  <g id="instagram-seeklogo.cdr">
   <path fill="url(#id0)" d="M184611 0l453118 0c101536,0 184611,83075 184611,184611l0 453118c0,101536 -83075,184611 -184611,184611l-453118 0c-101536,0 -184611,-83075 -184611,-184611l0 -453118c0,-101536 83075,-184611 184611,-184611z"/>
   <path fill="url(#id3)" mask="url(#id1)" d="M184611 0l453118 0c101536,0 184611,83075 184611,184611l0 453118c0,101536 -83075,184611 -184611,184611l-453118 0c-101536,0 -184611,-83075 -184611,-184611l0 -453118c0,-101536 83075,-184611 184611,-184611z"/>
   <path fill="#FEFEFE" d="M277834 108070l266671 0c93371,0 169764,76393 169764,169764l0 266671c0,93371 -76393,169764 -169764,169764l-266671 0c-93371,0 -169764,-76393 -169764,-169764l0 -266671c0,-93371 76393,-169764 169764,-169764zm1086 53409l264498 0c64593,0 117442,52848 117442,117442l0 264498c0,64593 -52848,117442 -117442,117442l-264498 0c-64593,0 -117442,-52848 -117442,-117442l0 -264498c0,-64593 52848,-117442 117442,-117442z"/>
   <path fill="#FEFEFE" d="M412007 309786c55715,0 100879,45166 100879,100879 0,55715 -45163,100881 -100879,100881 -55713,0 -100879,-45166 -100879,-100881 0,-55713 45166,-100879 100879,-100879zm0 -55709c86482,0 156590,70106 156590,156587 0,86482 -70108,156590 -156590,156590 -86482,0 -156587,-70108 -156587,-156590 0,-86482 70106,-156587 156587,-156587z"/>
   <circle fill="#FEFEFE" cx="573113" cy="248807" r="36135"/>
  </g>
 </g>
</svg>
