<?xml version="1.0" encoding="UTF-8"?>
<!DOCTYPE svg PUBLIC "-//W3C//DTD SVG 1.1//EN" "http://www.w3.org/Graphics/SVG/1.1/DTD/svg11.dtd">
<!-- Creator: CorelDRAW 2020 (64 Bit) -->
<svg xmlns="http://www.w3.org/2000/svg" xml:space="preserve" width="103.612mm" height="61.35mm" version="1.1" shape-rendering="geometricPrecision" text-rendering="geometricPrecision" image-rendering="optimizeQuality" fill-rule="evenodd" clip-rule="evenodd"
viewBox="0 0 12194845 7220711"
 xmlns:xlink="http://www.w3.org/1999/xlink"
 xmlns:xodm="http://www.corel.com/coreldraw/odm/2003">
 <g id="Camada_x0020_1">
  <metadata id="CorelCorpID_0Corel-Layer"/>
  <path fill="#666666" d="M2639885 3453254c3566,71324 37263,64110 -19597,118968 -57401,55412 -108811,112765 -178064,160962 -51304,35709 -62226,54458 -114166,23492 10181,-53717 76527,-73925 128266,-99289 50162,-24599 99419,-58166 96076,-134375 -60025,-83471 -131962,-28341 -215950,14795 -244539,125618 -769962,301575 -820419,505720 -31249,126383 59931,161174 127230,207771 170378,117979 331705,65451 513853,-16207 342157,-153371 570277,-339791 782049,-543242 90674,-87108 113554,-56801 257156,-71795 71254,-7438 226449,-27553 286592,-51869 43666,-17643 55777,-43371 78986,-80681 37592,-60426 124370,-113483 178923,-160009 37569,-32049 63192,-58072 98042,-15112 31166,67005 -103762,298480 -20856,498047 188245,453086 705335,271798 994822,51186 85542,-65192 78669,-75915 149746,-156772 42230,37451 32955,64463 94452,92592 155289,71065 307966,-62450 415929,-152665 104056,-86966 180524,-208477 280001,-307954 28000,-28024 65334,-85742 115014,-82153 31460,72902 20114,396356 85589,592804 65016,195071 279472,258875 452357,171932 238525,-119945 337072,-331988 510240,-505897 43418,-43607 118874,-161598 170978,-182419 16042,40099 41877,76079 58083,121887 50198,141778 98289,256556 274787,293372 117167,24434 205240,-13935 295196,-61391 50963,-26882 210019,-110859 235323,-142013l-104703 -261075c-65181,17384 -85695,40323 -170861,20385 -43972,-10287 -74867,-51598 -88814,-101208 -21009,-74714 -21739,-455181 -67593,-499953 -25552,-24940 -88296,-44878 -138294,-49515 -129384,-12017 -190434,65698 -238301,141060 -58860,92686 -68464,134963 -145662,233122 -98077,124712 -135328,198826 -249859,327974 -63968,72136 -102008,142284 -187691,190999 -39111,22233 -89250,61273 -131315,68382 -51245,-41947 -46608,-130903 -47561,-209277 -1024,-85330 -2836,-177299 6532,-260463 14594,-129502 64486,-315475 107022,-431348 25234,-68759 30719,-144708 56424,-212643 36804,-97229 161845,-378831 -54706,-333412 -233523,48962 -296126,187762 -425322,381797l-118144 150723c-21456,26447 -39311,40523 -61920,67405 -130820,155584 -216045,291277 -369215,438268 -43501,41747 -133233,239031 -215974,71407 340203,-433949 166883,-1151230 -357964,-964327l-134104 47043c-33602,9380 -61603,11652 -45784,-35862 3755,-11275 13276,-30848 18961,-42748 17019,-35639 32367,-48891 21221,-84153 -47032,-65734 -201921,-34544 -256238,-1271 -96311,59013 -178629,171543 -261064,247340 -60979,56071 -126607,94864 -175015,163752 -101302,144144 -222047,211325 -334189,333436 -115955,126265 -182866,132080 -283520,224566 -57295,52646 -82470,176628 -192505,134940 -40052,-40276 -26447,-296632 -44513,-373723 -34415,-146756 -87884,-256874 -183443,-345347 -50551,-46796 -98724,-123829 -146545,-172638 -44760,-45666 -55271,-63039 -99631,-109223 -109435,-113919 -399275,-459772 -478980,-587791 -254296,-408491 -101490,-627690 214644,-902336 56706,-49256 109305,-113072 177464,-152006 86872,-49621 97536,13170 39864,70524 -66593,66205 -192929,116261 -213961,217810 -16489,79551 32449,119874 110329,109011 165506,-23092 616603,-387353 768491,-508745 100501,-80316 106292,-197813 103491,-329352 -7556,-355115 -352185,-181712 -527730,-95276 -147098,72443 -300951,108340 -427523,210383 -41276,33296 -78033,50610 -136729,82376 -115096,62297 -257968,180147 -357599,270703 -107010,97253 -223954,213032 -289134,358281 -47302,105374 -103656,184525 -130973,297208 -65475,270185 -7180,535439 139942,671897 176063,163305 71360,187786 282590,355115 109599,86825 154689,151299 220729,207912 79681,68300 131703,138871 199132,219317 100443,119839 199567,231993 256685,391119 38887,108364 -68712,204887 -141083,269750z"/>
  <g id="_1704290197216">
   <path fill="#666666" d="M0 6612735l0 175357c20020,46714 16878,126407 29059,183113 16383,76291 29777,74891 92251,107528 115708,60461 122440,116967 305141,98842 105939,-10499 251683,-30319 359247,-48421 113413,-19090 198931,-73761 295549,-113519l289382 -118745c166388,-88190 183337,-196036 281002,-337108 56130,-81081 202086,-294725 293171,-315298 44466,80269 19420,207900 36392,309084 27506,164093 35756,407761 212867,475237 284980,108552 490997,-156855 645062,-337708l239796 -278659c33379,-34874 46479,-71819 94040,-84942 16207,45631 40358,79928 58707,132162 51928,147757 100654,245998 275588,283050 223201,47279 364684,-135481 532461,-196236 -7568,89026 -33720,104421 -25658,205393 15512,194235 112283,273116 259687,369780 142072,93181 113119,104727 330493,97147 117391,-4084 253272,-23069 355009,-61873 101290,-38640 205005,-101855 271068,-157526 105763,-89120 113684,-112577 239996,-178323 95664,-49798 283956,-198214 364719,-273316 33261,-30931 63486,-89968 115896,-93240 77009,-4826 136187,186726 169260,255344 109082,226308 423250,261417 592828,167871 42689,-23551 114519,-22727 167659,-41465 118544,-41806 234417,-132044 324373,-214079 18219,-16619 31307,-34215 48244,-50963 46337,-45855 51045,-73996 87225,-122099 43877,-58354 112589,-105103 167801,-151135l155195 -153818c25199,-25858 216056,-244798 257874,-127642 4072,11428 4237,14677 4884,27376 2130,41724 -79469,279813 -93922,328951 -36157,122923 -75785,241397 -113531,364990 -45325,148439 -92086,208524 -52928,379749 16207,70842 83118,76444 166847,72101 92451,-4790 116744,-29424 165129,-73302l238642 -239749c42300,-42312 77339,-77280 119651,-119580 74455,-74420 135457,-211537 218799,-259640 134445,-77598 304412,-267902 425651,-282320 45372,46573 66558,70548 106716,128525 32096,46337 70183,84695 102938,126524 72678,92804 96888,219917 183466,284756 102961,77115 257804,68747 354904,-412l256709 -212808 -26282 -83400c11523,42853 54423,76126 27412,135293 -10145,22221 -58978,71795 -78739,100713 -93840,137282 -88767,444047 168083,464291 86272,6803 205134,-59884 268020,-97842 285192,-172097 285921,-211525 502896,-423827 26058,-25493 67099,-53964 100560,-78833l203498 -168624c98630,113848 -4296,533815 438457,531531 129431,-671 272857,-78492 343416,-144697l184419 -174545c22657,-25705 33979,-37086 57766,-59355 -9027,-63780 -73584,-220505 -107281,-260063 -59037,41229 -169495,178017 -225013,194718 -108505,32661 -197295,-100819 -209560,-195812 -15760,-122052 28259,-282237 -4767,-395485 -100537,-344687 -585025,209971 -603032,222141l-342298 285639c-31943,30919 -192858,177593 -249588,148251 -10087,-30943 77974,-142284 98642,-169919 68523,-91627 131609,-152712 209371,-228732 25611,-25046 46973,-41064 73102,-66640 86672,-84871 184419,-224425 194530,-234052 28153,-26764 43936,-27635 76515,-62921 26482,-28695 42983,-37392 70865,-68876 96665,-109140 129526,-118227 216845,-211337 22869,-24387 50810,-42171 72125,-67170 58719,-68888 76691,-80540 152194,-137141 15995,-11993 23304,-19632 38028,-31578 175945,-142625 115084,-459407 -359635,-190316 -124064,70324 -221400,158408 -327139,240890l-152888 136246c-24669,22374 -42901,49150 -70124,69159 -61508,45207 -109482,70606 -167812,120934 -53482,46137 -110623,115178 -151429,137870 -77656,43195 -88520,85448 -138141,150911 -86578,114225 -257368,160327 -318924,249141 -38911,56153 -69735,115626 -133716,144861 -186008,85013 -248199,-243962 -295078,-392484 -48115,-152453 -119192,-273928 -303140,-274293 -197248,-400 -413211,200779 -527753,328292l-273704 294290c-40782,43925 -80305,119615 -136223,143120 -35474,-74137 23127,-164340 53587,-235747 32720,-76703 55529,-157102 81870,-236889 52669,-159491 230204,-629667 39205,-746646 -68229,-41782 -193670,-29766 -263771,3919 -234076,112448 -188139,152888 -338685,298903 -50468,48950 -119686,114872 -162504,166435 -66511,80128 -310944,357681 -380479,416459 -90368,76385 -185302,218057 -236288,242150 -152229,71972 -321007,146909 -492821,99054 -83588,-23280 -149769,-69959 -170943,-148369 -35603,-131774 19973,-171131 79340,-225978 88249,-81517 156031,-166282 233028,-245434 133433,-137164 250342,-306365 297809,-498553 30484,-123358 58131,-112989 30672,-258910 -40994,-217869 -126748,-295749 -372405,-242915 -163599,35191 -257250,178264 -351902,295761 -106304,131974 -180253,224778 -249294,388506 -99689,236453 -91462,254614 -137705,500365 -15689,83341 -105527,108246 -152288,166271 -24775,30754 -45137,60320 -67970,91439l-241667 246822 -395933 241538c-92063,56247 -133351,48715 -238289,80752 -55223,16866 -59990,35780 -116202,18373 -46278,-14335 -76480,-22633 -117721,-42877 -76374,-37475 -121322,-89756 -128643,-193765 -4578,-65157 21692,-223342 48032,-275646 40535,-80493 178346,-176793 252943,-235476l269044 -209195c33591,-24387 51210,-54082 81682,-77562 31531,-24293 71666,-33426 109070,-51033 39699,-18690 63003,-39099 102455,-56294 112224,-48938 211066,-111659 220823,-260675 6356,-97100 23940,-236077 -66758,-255850 -204334,-44537 -506945,232840 -548892,251236 -101078,44325 -215668,118333 -290100,187915 -133774,125053 -293160,246363 -432819,364425 -87884,74302 -199438,124841 -265889,212596 -63156,83424 -76538,127301 -210395,103173 -90015,-16230 -106728,-106951 -110647,-206311 -3554,-90474 -21539,-203169 -29448,-300033 -9157,-112201 -58201,-139765 -171767,-147109 -212467,-13723 -233476,190857 -325585,310285 -89073,115496 -325656,445048 -420802,535839 -29671,28318 -162740,108317 -199579,116343 -118815,-112895 -14547,-691211 50457,-863578 31778,-84259 43489,-180771 76138,-262370 78833,-196966 144473,-429653 -177522,-277671 -37816,17855 -86637,34603 -111000,58660 -71042,70124 -146945,204852 -205405,293089 -64227,96959 -127619,150264 -194035,234135l-184643 233840c-23716,29966 -48891,64310 -76880,92722 -44642,45302 -90933,81741 -122322,136846 -7792,13688 -24363,34650 -34944,44654 -27494,25999 -58907,41076 -91839,77551 -38122,42206 -23610,63168 -86131,83412 -81693,26470 -157490,61355 -250047,88885 -106951,31813 -467834,114343 -568394,87119 -130997,-111730 21950,-793443 61697,-961832 20161,-85377 28259,-161551 40064,-251012 16654,-126171 90509,-310814 120934,-445942 18926,-84059 9345,-157220 33096,-246104 44325,-165894 102267,-260358 109035,-461455 2931,-86707 20056,-169754 29954,-255603 6120,-53199 3025,-73584 28035,-112436 65451,-101714 42901,-224460 72525,-355280 17678,-78057 33320,-157208 43242,-236936 9486,-76209 -2530,-179111 -50045,-222341 -59696,-54317 -145132,-24493 -214291,-1707 -191069,62944 -188080,133786 -260993,307213 -50468,120016 -129502,277235 -162975,405278 -39158,149758 -60461,312968 -100984,467022 -37969,144367 -84448,316452 -104480,462326 -5485,39982 -17784,90827 -16995,130903 2507,127160 119957,5850 74396,316005 -23845,162351 -66828,317888 -85848,482734 -14889,128961 5167,186279 -1024,266843l-149958 688433z"/>
   <path fill="white" d="M4762821 2774401c-86907,51045 -121122,184808 -184914,244374 -118168,110329 -145685,-11064 -230180,208347 -85354,221659 -188068,590015 218905,458088 190504,-61744 274634,-246905 391060,-366403 49609,-50904 67370,-168189 90274,-238478 30178,-92616 29507,-116320 -36827,-243433 -31354,-60073 -133056,-67134 -199343,-71819 -47314,-3343 -16972,-9475 -48974,9322z"/>
   <path fill="white" d="M6616313 5363158c-132103,48868 -362189,501048 -196813,425298 23622,-10816 60955,-82164 82482,-108211 52493,-63486 129208,-109764 166930,-211843 18325,-49574 22433,-132986 -52599,-105245z"/>
   <path fill="#666666" fill-rule="nonzero" d="M11735709 5107497c-23339,71713 -22480,176181 -21562,290488 1742,214644 3731,457335 -124076,702969l-294525 -153100c90768,-174450 89155,-372299 87731,-547279 -1165,-143484 -2236,-274622 37145,-395591l315287 102514z"/>
  </g>
 </g>
</svg>
