<?xml version="1.0" encoding="UTF-8"?>
<!DOCTYPE svg PUBLIC "-//W3C//DTD SVG 1.1//EN" "http://www.w3.org/Graphics/SVG/1.1/DTD/svg11.dtd">
<!-- Creator: CorelDRAW 2020 (64 Bit) -->
<svg xmlns="http://www.w3.org/2000/svg" xml:space="preserve" width="80.2808mm" height="14.518mm" version="1.1" shape-rendering="geometricPrecision" text-rendering="geometricPrecision" image-rendering="optimizeQuality" fill-rule="evenodd" clip-rule="evenodd"
viewBox="0 0 7028836 1271096"
 xmlns:xlink="http://www.w3.org/1999/xlink"
 xmlns:xodm="http://www.corel.com/coreldraw/odm/2003">
 <g id="Camada_x0020_1">
  <metadata id="CorelCorpID_0Corel-Layer"/>
  <g id="_2005942727360">
   <path fill="#669999" fill-rule="nonzero" d="M389471 961377l185832 0c61664,0 105502,-9053 131522,-27150 26012,-18097 39031,-47795 39031,-89094 0,-41290 -13291,-70717 -39880,-88245 -26581,-17537 -71286,-26310 -134070,-26310l-182434 0 0 230799zm0 -459059l165475 0c55439,0 94461,-8204 117085,-24602 22632,-16399 33944,-44109 33944,-83149 0,-41299 -12161,-69587 -36492,-84848 -24331,-15278 -80610,-22921 -168855,-22921l-111157 0 0 215521zm-389471 750961l0 -1249882 512519 0c110308,0 190621,2828 240973,8484 50352,5647 93629,14989 129833,27999 63345,23762 111849,60806 145505,111149 33673,50361 50501,111446 50501,183292 0,56559 -12590,105922 -37762,148061 -25172,42148 -62924,76793 -113285,103943 66190,23762 115124,59405 146800,106920 31677,47515 47524,109188 47524,184974 0,74105 -15418,138457 -46254,193037 -30827,54589 -75655,96597 -134482,126015 -39600,20356 -84857,34794 -135769,43278 -50912,8475 -135208,12730 -252862,12730l-553240 0z"/>
   <path fill="#FFCC00" fill-rule="nonzero" d="M666945 1253271c0,-3388 -280,-8344 -841,-14849 -569,-6496 -867,-11461 -867,-14849 0,-86546 26599,-168426 79770,-245648 53171,-77222 139157,-157403 257949,-240561 31108,-22624 74385,-51472 129824,-86546 132380,-84857 198553,-158673 198553,-221474 0,-48075 -13142,-85837 -39451,-113267 -26310,-27439 -62373,-41150 -108189,-41150 -57128,0 -99846,18237 -128117,54729 -28288,36475 -42428,91773 -42428,165887l0 21205 -323290 0c0,-4518 -289,-10594 -858,-18237 -569,-7635 -841,-13159 -841,-16548 0,-150469 45676,-268412 137029,-353846 91362,-85408 217088,-128117 377170,-128117 146511,0 263614,36072 351298,108181 87676,72126 131522,167585 131522,286378 0,78080 -16968,143114 -50921,195165 -33944,52050 -103234,109739 -207877,173110 -12459,7915 -32535,20076 -60254,36475 -100126,58827 -176770,110597 -229941,155284l545596 0 0 298679 -1014837 0z"/>
   <path fill="#669999" fill-rule="nonzero" d="M1691115 961377l185823 0c61664,0 105510,-9053 131522,-27150 26012,-18097 39040,-47795 39040,-89094 0,-41290 -13299,-70717 -39880,-88245 -26581,-17537 -71286,-26310 -134070,-26310l-182434 0 0 230799zm0 -459059l165467 0c55439,0 94461,-8204 117085,-24602 22632,-16399 33953,-44109 33953,-83149 0,-41299 -12170,-69587 -36492,-84848 -24331,-15278 -80610,-22921 -168864,-22921l-111149 0 0 215521zm-389480 750961l0 -1249882 512519 0c110308,0 190629,2828 240973,8484 50361,5647 93629,14989 129833,27999 63353,23762 111858,60806 145513,111149 33673,50361 50501,111446 50501,183292 0,56559 -12599,105922 -37770,148061 -25172,42148 -62924,76793 -113285,103943 66190,23762 115124,59405 146809,106920 31668,47515 47515,109188 47515,184974 0,74105 -15418,138457 -46246,193037 -30836,54589 -75663,96597 -134490,126015 -39600,20356 -84857,34794 -135769,43278 -50912,8475 -135200,12730 -252853,12730l-553248 0z"/>
   <polygon fill="#FFCC00" fill-rule="nonzero" points="1691290,954592 1270282,954592 1266999,1253271 1691290,1253271 "/>
   <g>
    <path fill="#666666" fill-rule="nonzero" d="M2590584 734728l31519 0c20452,0 34154,-2276 41071,-6838 6899,-4570 10358,-12651 10358,-24261 0,-11750 -3318,-19918 -9946,-24471 -6637,-4570 -20461,-6838 -41483,-6838l-31519 0 0 62408zm-98077 168172l0 -305438 125665 0c27789,0 49800,1620 66033,4859 16259,3266 29829,8484 40756,15663 14096,9543 24611,21372 31510,35468 6917,14096 10384,30827 10384,50177 0,34154 -10112,60307 -30276,78491 -20190,18176 -49292,27273 -87308,27273l-58687 0 0 93507 -98077 0z"/>
    <path fill="#666666" fill-rule="nonzero" d="M2878616 798397l61585 0 -30477 -105755 -31108 105755zm-126077 104503l107410 -305438 99320 0 107428 305438 -97254 0 -11399 -40432 -97272 0 -11811 40432 -96422 0z"/>
    <path fill="#666666" fill-rule="nonzero" d="M3191531 728722l44591 0c15619,0 26406,-2110 32351,-6321 5945,-4220 8913,-11583 8913,-22090 0,-10787 -2968,-18290 -8913,-22510 -5945,-4203 -17563,-6313 -34829,-6313l-42113 0 0 57233zm-96834 174178l0 -305438 146187 0c45773,0 78430,6838 97981,20522 19559,13676 29348,36151 29348,67398 0,18658 -4019,34146 -12021,46447 -8029,12301 -20409,22046 -37123,29243 17012,3581 29374,10673 37123,21258 7731,10568 11881,26091 12433,46543l1664 42516c0,280 61,613 201,1033 429,12179 3327,18526 8712,19078l0 11399 -98909 0c-1795,-7319 -3143,-13711 -4054,-19174 -893,-5463 -1331,-9710 -1331,-12748l0 -30477c0,-15777 -3117,-26861 -9342,-33288 -6216,-6435 -17003,-9657 -32333,-9657l-41702 0 0 105344 -96834 0z"/>
    <polygon fill="#666666" fill-rule="nonzero" points="3483092,902909 3483092,677915 3395162,677915 3395162,597454 3669098,597454 3669098,677915 3581177,677915 3581177,902909 "/>
    <path fill="#666666" fill-rule="nonzero" d="M3700819 902909l0 -305455 93122 0 85636 142055c2627,4001 5420,9666 8405,16994 2959,7337 6111,16171 9421,26555 -814,-5402 -1445,-11338 -1856,-17843 -429,-6488 -630,-14385 -630,-23631l0 -144130 93524 0 0 305455 -93524 0 -85644 -141013c-2618,-4150 -5490,-10025 -8606,-17633 -3091,-7591 -6251,-16302 -9429,-26126 963,5402 1655,11032 2084,16907 420,5875 622,14131 622,24778l0 143088 -93122 0z"/>
    <polygon fill="#666666" fill-rule="nonzero" points="4046505,902909 4046505,597454 4290577,597454 4290577,670666 4144590,670666 4144590,711299 4268005,711299 4268005,781385 4144590,781385 4144590,828673 4296591,828673 4296591,902909 "/>
    <path fill="#666666" fill-rule="nonzero" d="M4439251 728722l44591 0c15619,0 26397,-2110 32351,-6321 5936,-4220 8913,-11583 8913,-22090 0,-10787 -2977,-18290 -8913,-22510 -5954,-4203 -17563,-6313 -34837,-6313l-42104 0 0 57233zm-96843 174178l0 -305438 146196 0c45764,0 78421,6838 97981,20522 19559,13676 29348,36151 29348,67398 0,18658 -4019,34146 -12030,46447 -8020,12301 -20400,22046 -37114,29243 17012,3581 29365,10673 37114,21258 7740,10568 11890,26091 12441,46543l1664 42516c0,280 61,613 193,1033 438,12179 3327,18526 8720,19078l0 11399 -98918 0c-1795,-7319 -3143,-13711 -4045,-19174 -893,-5463 -1340,-9710 -1340,-12748l0 -30477c0,-15777 -3108,-26861 -9342,-33288 -6208,-6435 -16994,-9657 -32333,-9657l-41693 0 0 105344 -96843 0z"/>
    <path fill="#666666" fill-rule="nonzero" d="M4652224 807730l95380 0c2618,11058 7389,19008 14306,23841 6925,4842 17222,7267 30898,7267 11496,0 20514,-1979 27080,-5901 6566,-3957 9850,-9377 9850,-16294 0,-11058 -13763,-20050 -41273,-26966 -5533,-1366 -9753,-2408 -12651,-3099 -22536,-5814 -40485,-11093 -53810,-15865 -13343,-4772 -23053,-9237 -29129,-13369 -11750,-8440 -20575,-18535 -26450,-30285 -5892,-11750 -8799,-25163 -8799,-40239 0,-30267 11391,-54038 34207,-71312 22808,-17292 54178,-25924 94137,-25924 39259,0 70165,8256 92693,24769 22536,16530 35258,40213 38156,71032l-93095 0c-1541,-8992 -5516,-15698 -11942,-20111 -6426,-4430 -15584,-6645 -27465,-6645 -10515,0 -18316,1734 -23438,5183 -5113,3458 -7670,8720 -7670,15777 0,10086 13404,18509 40231,25294 2346,692 4159,1164 5385,1436 3879,981 9753,2425 17624,4360 35547,8992 58748,17143 69675,24462 13544,8992 23438,19218 29672,30696 6208,11478 9316,25040 9316,40651 0,33717 -11776,59641 -35354,77756 -23561,18115 -57339,27168 -101290,27168 -40511,0 -72608,-9053 -96326,-27168 -23701,-18115 -37017,-43610 -39915,-76513z"/>
    <path fill="#666666" fill-rule="nonzero" d="M2587677 1181941l45423 0c15059,0 25776,-2215 32141,-6628 6365,-4430 9535,-11688 9535,-21783 0,-10095 -3248,-17274 -9736,-21564 -6505,-4281 -17432,-6426 -32762,-6426l-44600 0 0 56402zm0 -112182l40441 0c13544,0 23088,-2005 28621,-6015 5516,-4001 8300,-10778 8300,-20321 0,-10095 -2977,-16994 -8913,-20741 -5954,-3739 -19717,-5603 -41281,-5603l-27168 0 0 52681zm-95179 183511l0 -305447 125245 0c26975,0 46587,692 58888,2075 12319,1375 22886,3660 31738,6855 15479,5796 27334,14849 35573,27150 8230,12319 12336,27247 12336,44792 0,13816 -3082,25889 -9237,36186 -6146,10314 -15383,18780 -27676,25399 16171,5796 28122,14516 35871,26143 7748,11592 11610,26677 11610,45186 0,18115 -3756,33839 -11303,47191 -7530,13343 -18482,23604 -32876,30801 -9666,4956 -20724,8501 -33165,10568 -12433,2066 -33043,3099 -61786,3099l-135217 0z"/>
    <path fill="#666666" fill-rule="nonzero" d="M2911168 1079084l44591 0c15619,0 26397,-2101 32351,-6321 5936,-4211 8913,-11583 8913,-22090 0,-10778 -2977,-18281 -8913,-22501 -5954,-4203 -17563,-6321 -34829,-6321l-42113 0 0 57233zm-96834 174187l0 -305447 146187 0c45773,0 78430,6838 97981,20522 19559,13685 29348,36159 29348,67407 0,18649 -4019,34146 -12021,46447 -8029,12301 -20409,22046 -37123,29234 17012,3590 29374,10681 37123,21267 7731,10568 11881,26091 12433,46534l1664 42525c0,280 61,613 201,1033 429,12179 3318,18526 8712,19078l0 11399 -98909 0c-1795,-7319 -3152,-13720 -4054,-19183 -884,-5455 -1340,-9710 -1340,-12739l0 -30486c0,-15768 -3108,-26861 -9333,-33288 -6216,-6426 -17003,-9648 -32342,-9648l-41693 0 0 105344 -96834 0z"/>
    <polygon fill="#666666" fill-rule="nonzero" points="3124141,1253279 3124141,1179857 3265557,1026832 3128694,1026832 3128694,947815 3386056,947815 3386056,1020607 3242968,1174692 3393726,1174692 3393726,1253279 "/>
    <polygon fill="#666666" fill-rule="nonzero" points="3437879,1253279 3437879,947815 3535965,947815 3535965,1172188 3669300,1172188 3669300,1253279 "/>
   </g>
  </g>
  <polygon fill="#4D4D4D" fill-rule="nonzero" points="5148755,336318 5032913,1253279 5016383,1251178 5132225,334217 "/>
  <path fill="#4D4D4D" fill-rule="nonzero" d="M5431429 466378l-57689 -153682 -981 0c490,5069 902,11907 1226,20496 333,8598 490,17554 490,26888l0 106298 -20374 0 0 -175281 32657 0 54003 143613 981 0 54992 -143613 32403 0 0 175281 -21853 0 0 -107769c0,-8519 210,-16942 622,-25285 403,-8353 770,-15147 1103,-20382l-981 0 -58433 153437 -18167 0zm192223 -133790c16040,0 27903,3511 35599,10550 7687,7039 11540,18255 11540,33629l0 89611 -15716 0 -4176 -18658 -972 0c-5735,7197 -11750,12520 -18053,15952 -6295,3441 -15015,5157 -26143,5157 -11951,0 -21845,-3152 -29707,-9447 -7854,-6304 -11785,-16162 -11785,-29584 0,-13089 5157,-23202 15471,-30320 10305,-7118 26187,-11005 47629,-11662l22335 -735 0 -7854c0,-10970 -2373,-18579 -7118,-22834 -4745,-4255 -11452,-6383 -20128,-6383 -6873,0 -13422,1024 -19638,3064 -6225,2049 -12030,4378 -17432,7004l-6628 -16206c5726,-3108 12520,-5770 20374,-7976 7854,-2206 16040,-3310 24550,-3310zm6383 70209c-16364,657 -27702,3266 -34006,7854 -6295,4579 -9447,11040 -9447,19393 0,7363 2250,12765 6750,16206 4500,3432 10270,5148 17309,5148 11128,0 20374,-3064 27737,-9202 7372,-6137 11049,-15593 11049,-28358l0 -11776 -19393 735zm142878 -70463c2451,0 5113,123 7976,376 2863,236 5367,613 7495,1094l-2705 19892c-2128,-499 -4456,-902 -6995,-1234 -2539,-324 -4947,-482 -7241,-482 -6715,0 -13010,1839 -18903,5516 -5892,3686 -10594,8843 -14114,15471 -3520,6628 -5279,14359 -5279,23202l0 70209 -21608 0 0 -131584 17677 0 2460 24051 981 0c4255,-7197 9736,-13413 16442,-18649 6707,-5236 14648,-7862 23814,-7862zm61375 44924c0,2627 -123,6059 -368,10314 -245,4255 -455,7941 -613,11049l981 0c981,-1313 2460,-3187 4421,-5647 1961,-2451 3966,-4947 6006,-7486 2049,-2539 3817,-4623 5288,-6260l41973 -44433 25285 0 -53267 56218 56953 75366 -26021 0 -45659 -61375 -14980 13010 0 48364 -21363 0 0 -186576 21363 0 0 97455zm160546 -44924c11303,0 20995,2460 29094,7363 8107,4912 14324,11828 18658,20750 4343,8913 6505,19349 6505,31300l0 13010 -90092 0c324,14893 4133,26222 11417,34006 7284,7766 17467,11653 30565,11653 8344,0 15751,-779 22212,-2329 6461,-1558 13142,-3809 20006,-6750l0 18903c-6707,2942 -13334,5113 -19883,6496 -6549,1392 -14324,2093 -23324,2093 -12433,0 -23447,-2539 -33016,-7608 -9578,-5078 -17020,-12643 -22335,-22711 -5323,-10060 -7985,-22379 -7985,-36947 0,-14394 2416,-26756 7241,-37061 4833,-10314 11627,-18255 20382,-23814 8755,-5568 18938,-8353 30556,-8353zm-236 17677c-10314,0 -18456,3318 -24427,9946 -5971,6628 -9535,15830 -10681,27614l67022 0c-166,-11128 -2784,-20172 -7854,-27124 -5078,-6960 -13098,-10436 -24060,-10436zm131829 101141c3266,0 6628,-280 10069,-858 3432,-578 6216,-1182 8344,-1839l0 16442c-2294,1156 -5568,2093 -9823,2828 -4255,735 -8344,1103 -12275,1103 -6873,0 -13212,-1182 -19025,-3555 -5814,-2381 -10515,-6505 -14114,-12398 -3598,-5892 -5402,-14166 -5402,-24795l0 -76600 -18658 0 0 -10305 18903 -8589 8598 -27991 12756 0 0 30197 38059 0 0 16688 -38059 0 0 76101c0,8020 1926,13956 5779,17808 3844,3844 8790,5761 14849,5761zm55719 -165703c3274,0 6181,1103 8720,3310 2539,2215 3800,5691 3800,10436 0,4579 -1261,8020 -3800,10314 -2539,2285 -5446,3432 -8720,3432 -3598,0 -6628,-1147 -9079,-3432 -2451,-2294 -3686,-5735 -3686,-10314 0,-4745 1234,-8221 3686,-10436 2451,-2206 5481,-3310 9079,-3310zm10559 49345l0 131584 -21608 0 0 -131584 21608 0zm105073 -2460c15716,0 27579,3809 35599,11417 8011,7608 12030,19927 12030,36947l0 85680 -21363 0 0 -84209c0,-21109 -9815,-31668 -29462,-31668 -14560,0 -24629,4089 -30188,12275 -5568,8186 -8344,19971 -8344,35345l0 68256 -21608 0 0 -131584 17432 0 3187 17922 1226 0c4264,-6882 10147,-11986 17677,-15348 7530,-3353 15471,-5034 23814,-5034zm135024 0c8668,0 16486,1637 23438,4912 6960,3274 12888,8265 17800,14972l1226 0 2951 -17423 17178 0 0 133790c0,18824 -4780,32981 -14359,42472 -9570,9491 -24427,14236 -44556,14236 -19314,0 -35100,-2784 -47384,-8344l0 -19883c12932,6873 29138,10305 48610,10305 11294,0 20172,-3310 26634,-9937 6470,-6637 9701,-15672 9701,-27133l0 -5157c0,-1961 88,-4780 245,-8466 166,-3677 324,-6260 499,-7731l-989 0c-8834,13256 -22422,19883 -40747,19883 -17020,0 -30320,-5971 -39898,-17922 -9570,-11942 -14359,-28639 -14359,-50080 0,-20943 4789,-37595 14359,-49958 9578,-12354 22790,-18535 39653,-18535zm2942 18167c-10962,0 -19481,4378 -25530,13142 -6059,8755 -9079,21223 -9079,37429 0,16206 2986,28604 8957,37193 5971,8598 14691,12888 26143,12888 13256,0 22913,-3555 28971,-10673 6050,-7127 9079,-18623 9079,-34496l0 -5157c0,-18001 -3108,-30889 -9324,-38663 -6225,-7775 -15961,-11662 -29216,-11662zm-983686 488774l-97954 0 0 -175281 97954 0 0 19402 -75865 0 0 54738 71443 0 0 19148 -71443 0 0 62600 75865 0 0 19393zm64562 0l-49835 -131584 23070 0 27991 77581c1313,3598 2705,7608 4176,12021 1471,4421 2784,8641 3922,12643 1147,4019 1970,7407 2460,10191l981 0c657,-2784 1593,-6216 2828,-10314 1217,-4089 2609,-8344 4168,-12756 1558,-4421 2907,-8353 4054,-11785l27982 -77581 23079 0 -50080 131584 -24795 0zm146555 -134035c11294,0 20995,2451 29094,7363 8099,4912 14315,11820 18658,20741 4334,8922 6505,19358 6505,31300l0 13010 -90092 0c324,14902 4124,26231 11408,34006 7284,7775 17476,11653 30565,11653 8353,0 15751,-770 22221,-2329 6461,-1550 13133,-3800 20006,-6750l0 18903c-6707,2951 -13334,5122 -19883,6505 -6549,1392 -14324,2084 -23324,2084 -12441,0 -23447,-2530 -33025,-7608 -9570,-5069 -17020,-12643 -22335,-22703 -5314,-10069 -7976,-22379 -7976,-36947 0,-14402 2416,-26756 7241,-37070 4833,-10314 11618,-18246 20374,-23814 8764,-5560 18946,-8344 30565,-8344zm-245 17668c-10305,0 -18447,3318 -24427,9946 -5971,6628 -9535,15838 -10681,27614l67022 0c-166,-11128 -2784,-20163 -7854,-27124 -5069,-6952 -13089,-10436 -24060,-10436zm151222 -17668c15716,0 27579,3800 35599,11417 8020,7608 12030,19927 12030,36947l0 85671 -21354 0 0 -84200c0,-21118 -9823,-31668 -29462,-31668 -14569,0 -24637,4089 -30197,12266 -5568,8195 -8344,19971 -8344,35354l0 68248 -21608 0 0 -131584 17432 0 3187 17922 1234 0c4255,-6873 10147,-11986 17677,-15339 7521,-3362 15462,-5034 23806,-5034zm132328 118810c3266,0 6628,-280 10060,-858 3432,-569 6216,-1182 8344,-1839l0 16451c-2285,1147 -5560,2084 -9815,2819 -4255,744 -8353,1103 -12275,1103 -6873,0 -13221,-1182 -19025,-3555 -5814,-2373 -10515,-6505 -14114,-12398 -3607,-5892 -5402,-14157 -5402,-24795l0 -76591 -18658 0 0 -10314 18903 -8589 8589 -27982 12765 0 0 30188 38059 0 0 16696 -38059 0 0 76101c0,8020 1926,13947 5770,17800 3844,3844 8799,5761 14858,5761zm159067 -50816c0,21774 -5516,38628 -16565,50579 -11049,11942 -25977,17913 -44801,17913 -11627,0 -21976,-2653 -31055,-7967 -9079,-5323 -16241,-13098 -21477,-23324 -5244,-10235 -7862,-22632 -7862,-37201 0,-21757 5490,-38541 16451,-50326 10970,-11776 25863,-17668 44678,-17668 11942,0 22466,2662 31545,7976 9079,5314 16206,13010 21354,23079 5157,10060 7731,22379 7731,36939zm-99417 0c0,15558 3064,27868 9202,36956 6137,9079 15917,13623 29339,13623 13256,0 22991,-4544 29216,-13623 6216,-9088 9324,-21398 9324,-36956 0,-15541 -3108,-27737 -9324,-36571 -6225,-8843 -16040,-13256 -29462,-13256 -13422,0 -23158,4413 -29216,13256 -6050,8834 -9079,21030 -9079,36571zm219224 29716c0,12756 -4754,22414 -14245,28963 -9491,6549 -22256,9815 -38296,9815 -9167,0 -17064,-735 -23692,-2206 -6628,-1471 -12476,-3511 -17554,-6137l0 -19638c5236,2618 11583,5034 19025,7241 7451,2206 15015,3318 22711,3318 10970,0 18903,-1760 23814,-5279 4912,-3520 7363,-8230 7363,-14122 0,-3266 -902,-6216 -2697,-8834 -1804,-2618 -5034,-5236 -9701,-7854 -4667,-2618 -11329,-5568 -20006,-8834 -8510,-3274 -15795,-6549 -21845,-9823 -6059,-3274 -10725,-7197 -14000,-11785 -3274,-4579 -4912,-10471 -4912,-17677 0,-11128 4544,-19717 13623,-25767 9088,-6067 20995,-9088 35722,-9088 8020,0 15506,770 22466,2329 6952,1550 13466,3721 19516,6505l-7363 17187c-5568,-2294 -11382,-4255 -17432,-5892 -6059,-1637 -12275,-2460 -18658,-2460 -8834,0 -15584,1436 -20251,4299 -4667,2863 -6995,6750 -6995,11662 0,3607 1059,6672 3187,9202 2128,2548 5691,4999 10681,7372 4991,2364 11662,5192 20006,8466 8344,3108 15471,6304 21363,9578 5892,3266 10393,7241 13501,11907 3108,4658 4667,10506 4667,17554zm-815032 411684c-19472,0 -34741,-5971 -45782,-17922 -11049,-11942 -16574,-28306 -16574,-49100 0,-10471 1234,-21109 3686,-31913 2451,-10804 6172,-21030 11163,-30679 4999,-9666 11294,-18290 18911,-25907 7608,-7608 16486,-13623 26634,-18045 10147,-4413 21599,-6628 34373,-6628 16364,0 30600,3274 42708,9823l-8843 18167c-4413,-2294 -9359,-4299 -14849,-6015 -5481,-1725 -11820,-2583 -19017,-2583 -12284,0 -22878,2749 -31799,8221 -8922,5490 -16329,12774 -22221,21853 -5884,9079 -10270,19113 -13133,30075 -2854,10970 -4290,22011 -4290,33139 0,14893 3809,26642 11417,35231 7608,8589 18123,12888 31545,12888 6707,0 13299,-657 19761,-1970 6461,-1305 12809,-3021 19025,-5157l0 19157c-6383,2285 -12809,4089 -19270,5402 -6461,1305 -14280,1961 -23447,1961zm124956 -490c-15225,0 -27212,-4544 -35967,-13623 -8755,-9088 -13133,-21398 -13133,-36947 0,-10147 1392,-20207 4176,-30197 2775,-9981 6908,-19069 12389,-27247 5490,-8186 12363,-14770 20619,-19769 8274,-4982 17808,-7486 28604,-7486 15383,0 27413,4544 36089,13632 8677,9079 13010,21477 13010,37184 0,9990 -1392,19971 -4176,29952 -2784,9981 -6908,19069 -12398,27255 -5481,8177 -12310,14770 -20487,19761 -8195,4991 -17765,7486 -28726,7486zm1226 -17922c7854,0 14980,-2740 21354,-8221 6383,-5481 11504,-13378 15348,-23692 3844,-10314 5770,-22668 5770,-37070 0,-4912 -858,-9692 -2583,-14359 -1716,-4667 -4544,-8510 -8466,-11540 -3922,-3029 -9167,-4544 -15707,-4544 -9009,0 -16819,3073 -23447,9211 -6628,6129 -11741,14315 -15348,24541 -3598,10235 -5393,21486 -5393,33760 0,10147 2487,18001 7486,23569 4991,5568 11986,8344 20986,8344zm82974 15961l27982 -131584 17677 0 -2697 24296 1226 0c2942,-4089 6418,-8177 10428,-12266 4019,-4097 8677,-7530 13991,-10314 5323,-2784 11338,-4176 18053,-4176 9000,0 15908,2583 20741,7740 4833,5157 7731,12310 8712,21477l981 0c3283,-4912 7162,-9578 11662,-13991 4500,-4421 9535,-8064 15094,-10927 5568,-2863 11706,-4299 18412,-4299 10147,0 18010,2784 23569,8353 5568,5560 8353,13579 8353,24051 0,3931 -254,7573 -735,10927 -499,3362 -1147,6917 -1970,10681l-16942 80032 -21845 0 17677 -82493c823,-3756 1392,-6952 1716,-9570 324,-2618 490,-5157 490,-7608 0,-4912 -1348,-8843 -4045,-11785 -2705,-2951 -6917,-4421 -12643,-4421 -5236,0 -10848,1961 -16819,5892 -5971,3931 -11540,10025 -16696,18290 -5157,8265 -9123,19025 -11907,32281l-12520 59414 -21599 0 17432 -82493c1471,-7363 2206,-12756 2206,-16197 0,-5402 -1226,-9613 -3677,-12643 -2460,-3029 -6549,-4544 -12275,-4544 -5244,0 -10892,1917 -16942,5770 -6059,3844 -11706,10104 -16942,18780 -5236,8677 -9412,20216 -12520,34610l-12030 56717 -21599 0zm317179 2451c-8843,0 -16285,-2128 -22344,-6383 -6059,-4255 -9088,-11697 -9088,-22344 0,-5236 735,-11049 2215,-17423l14972 -71443 -20374 0 1961 -9815 22090 -9333 15225 -27247 12765 0 -6628 29952 33139 0 -3432 16442 -32894 0 -15225 71689c-490,2128 -981,4535 -1471,7241 -490,2705 -735,5192 -735,7486 0,3765 1024,6952 3064,9578 2049,2618 5367,3922 9946,3922 2942,0 5805,-289 8589,-858 2784,-578 5726,-1348 8843,-2329l0 16442c-1970,989 -4991,1970 -9088,2951 -4089,981 -7941,1471 -11531,1471zm95494 0c-15225,0 -26966,-4465 -35231,-13378 -8265,-8922 -12398,-20986 -12398,-36212 0,-10471 1515,-20820 4544,-31055 3029,-10226 7407,-19559 13133,-27982 5726,-8431 12643,-15182 20741,-20251 8107,-5078 17222,-7617 27369,-7617 12441,0 21818,2705 28113,8099 6304,5402 9456,12932 9456,22589 0,8510 -2662,16285 -7985,23324 -5314,7039 -13623,12643 -24909,16810 -11303,4176 -25951,6269 -43952,6269l-4168 0c-166,1471 -289,3021 -368,4658 -79,1637 -123,3108 -123,4421 0,9981 2451,17878 7363,23692 4903,5805 12354,8712 22335,8712 6216,0 12109,-902 17677,-2705 5560,-1795 11627,-4246 18167,-7363l0 18412c-6216,2784 -12310,5078 -18290,6882 -5971,1795 -13133,2697 -21477,2697zm-20374 -76837c9815,0 18903,-858 27247,-2574 8344,-1725 15050,-4588 20128,-8598 5069,-4010 7617,-9368 7617,-16084 0,-4255 -1436,-7731 -4299,-10428 -2863,-2705 -7328,-4054 -13378,-4054 -7862,0 -15427,3642 -22711,10927 -7284,7284 -12721,17554 -16329,30810l1725 0zm144095 76837c-14569,0 -26345,-4089 -35345,-12275 -9000,-8177 -13501,-20461 -13501,-36825 0,-11785 1593,-22948 4780,-33507 3196,-10559 7775,-19848 13746,-27868 5980,-8011 13221,-14359 21731,-19017 8510,-4675 18001,-7004 28472,-7004 5735,0 11461,578 17195,1725 5717,1138 10874,2697 15462,4658l-6137 17922c-3274,-1471 -7162,-2863 -11662,-4176 -4500,-1305 -9368,-1961 -14604,-1961 -9333,0 -17511,3152 -24559,9456 -7031,6295 -12520,14691 -16442,25163 -3922,10471 -5892,21932 -5892,34365 0,9981 2574,17712 7731,23202 5157,5481 12240,8221 21240,8221 5726,0 11163,-814 16320,-2451 5157,-1646 10270,-3520 15348,-5647l0 18167c-4588,2294 -9701,4168 -15348,5638 -5638,1480 -11820,2215 -18535,2215zm56463 -2451l28236 -132319 19148 0 -2697 24296 245 0c3108,-4089 6750,-8186 10918,-12266 4176,-4097 9044,-7530 14613,-10314 5560,-2784 11863,-4176 18903,-4176 10638,0 18938,2907 24918,8720 5971,5805 8957,13947 8957,24419 0,3765 -289,7608 -858,11540 -578,3931 -1191,7372 -1847,10314l-17423 79787 -23079 0 17677 -82729c823,-3765 1427,-6925 1839,-9456 411,-2539 613,-4956 613,-7241 0,-10480 -5560,-15716 -16688,-15716 -5402,0 -11251,1882 -17554,5647 -6304,3765 -12196,9902 -17677,18412 -5481,8510 -9780,19971 -12888,34365l-12275 56717 -23079 0zm197135 1961c-15217,0 -27212,-4544 -35967,-13623 -8755,-9088 -13133,-21398 -13133,-36947 0,-10147 1392,-20207 4176,-30197 2775,-9981 6917,-19069 12389,-27247 5490,-8186 12363,-14770 20628,-19769 8265,-4982 17800,-7486 28595,-7486 15392,0 27413,4544 36089,13632 8677,9079 13019,21477 13019,37184 0,9990 -1392,19971 -4176,29952 -2784,9981 -6917,19069 -12398,27255 -5481,8177 -12319,14770 -20496,19761 -8186,4991 -17765,7486 -28726,7486zm1226 -17922c7854,0 14980,-2740 21354,-8221 6391,-5481 11504,-13378 15348,-23692 3844,-10314 5770,-22668 5770,-37070 0,-4912 -858,-9692 -2583,-14359 -1716,-4667 -4535,-8510 -8466,-11540 -3922,-3029 -9167,-4544 -15707,-4544 -9009,0 -16819,3073 -23447,9211 -6628,6129 -11741,14315 -15348,24541 -3598,10235 -5393,21486 -5393,33760 0,10147 2495,18001 7486,23569 4991,5568 11986,8344 20986,8344zm82729 15961l39767 -186576 21608 0 -39775 186576 -21599 0zm117593 1961c-15225,0 -27212,-4544 -35967,-13623 -8755,-9088 -13133,-21398 -13133,-36947 0,-10147 1392,-20207 4176,-30197 2775,-9981 6908,-19069 12389,-27247 5490,-8186 12363,-14770 20628,-19769 8265,-4982 17800,-7486 28595,-7486 15383,0 27413,4544 36089,13632 8677,9079 13010,21477 13010,37184 0,9990 -1392,19971 -4176,29952 -2775,9981 -6908,19069 -12398,27255 -5481,8177 -12310,14770 -20487,19761 -8195,4991 -17765,7486 -28726,7486zm1226 -17922c7854,0 14980,-2740 21354,-8221 6383,-5481 11504,-13378 15348,-23692 3844,-10314 5770,-22668 5770,-37070 0,-4912 -858,-9692 -2583,-14359 -1716,-4667 -4544,-8510 -8466,-11540 -3922,-3029 -9167,-4544 -15707,-4544 -9009,0 -16819,3073 -23447,9211 -6628,6129 -11741,14315 -15348,24541 -3598,10235 -5393,21486 -5393,33760 0,10147 2487,18001 7486,23569 4991,5568 11986,8344 20986,8344zm121760 74875c-8020,0 -15427,-779 -22212,-2329 -6794,-1558 -12564,-3563 -17318,-6015l0 -19883c4264,2609 10034,4982 17318,7109 7284,2128 14438,3196 21477,3196 10147,0 18491,-2451 25040,-7363 6549,-4912 11128,-13089 13746,-24550l2215 -9324c814,-3765 1839,-7941 3064,-12520 1226,-4588 2250,-8431 3064,-11540l-972 0c-5568,7197 -11916,13457 -19034,18780 -7118,5314 -15261,7976 -24419,7976 -10646,0 -19279,-3809 -25907,-11417 -6628,-7608 -9937,-18780 -9937,-33507 0,-11951 1471,-23403 4413,-34373 2951,-10962 7249,-20741 12888,-29330 5647,-8598 12441,-15392 20382,-20382 7932,-4982 16898,-7486 26879,-7486 8843,0 15952,2294 21363,6882 5393,4579 9403,9894 12021,15952l981 0 8107 -20374 16442 0 -29943 139192c-3931,18491 -10927,31668 -20995,39521 -10060,7862 -22956,11785 -38663,11785zm9079 -74385c5568,0 11128,-2049 16696,-6137 5560,-4089 10681,-9613 15348,-16574 4658,-6952 8379,-14849 11163,-23683 2784,-8843 4176,-18001 4176,-27500 0,-7854 -1839,-14236 -5525,-19148 -3686,-4912 -9858,-7363 -18535,-7363 -6549,0 -12520,2093 -17913,6260 -5411,4176 -10069,9780 -14000,16819 -3931,7039 -6952,14972 -9088,23806 -2128,8843 -3187,17843 -3187,27010 0,17677 6952,26511 20864,26511zm139691 -137966c-3441,0 -6260,-1024 -8475,-3064 -2206,-2049 -3310,-4877 -3310,-8475 0,-4255 1270,-7941 3800,-11049 2548,-3108 6102,-4658 10690,-4658 7521,0 11286,3677 11286,11049 0,5069 -1471,9035 -4421,11898 -2942,2872 -6129,4299 -9570,4299zm-45423 153437l27991 -131584 21608 0 -27991 131584 -21608 0zm103847 2451c-10471,0 -19025,-3809 -25653,-11417 -6628,-7608 -9937,-18780 -9937,-33507 0,-12275 1593,-23937 4780,-34986 3196,-11040 7652,-20785 13387,-29216 5717,-8423 12520,-15094 20365,-20006 7862,-4903 16539,-7363 26030,-7363 8668,0 15707,2294 21109,6882 5402,4579 9412,9894 12030,15952l1226 0 7862 -20374 16442 0 -27982 131584 -17187 0 3187 -24305 -981 0c-5560,7197 -12109,13457 -19638,18780 -7530,5314 -15873,7976 -25040,7976zm7118 -17922c6059,0 11986,-2206 17800,-6628 5814,-4421 11084,-10393 15838,-17922 4745,-7521 8344,-15952 10795,-25285 1313,-4745 2171,-9123 2583,-13133 403,-4010 613,-7731 613,-11172 0,-7687 -2128,-13991 -6383,-18903 -4255,-4912 -9990,-7363 -17187,-7363 -6383,0 -12275,2005 -17668,6015 -5411,4010 -10156,9491 -14245,16451 -4089,6952 -7241,14849 -9456,23683 -2206,8843 -3310,18088 -3310,27746 0,8834 1795,15462 5402,19883 3598,4421 8677,6628 15217,6628z"/>
 </g>
</svg>
