<?xml version="1.0" encoding="UTF-8"?>
<!DOCTYPE svg PUBLIC "-//W3C//DTD SVG 1.1//EN" "http://www.w3.org/Graphics/SVG/1.1/DTD/svg11.dtd">
<!-- Creator: CorelDRAW 2020 (64 Bit) -->
<svg xmlns="http://www.w3.org/2000/svg" xml:space="preserve" width="62.8295mm" height="15.988mm" version="1.1" shape-rendering="geometricPrecision" text-rendering="geometricPrecision" image-rendering="optimizeQuality" fill-rule="evenodd" clip-rule="evenodd"
viewBox="0 0 3765054 958080"
 xmlns:xlink="http://www.w3.org/1999/xlink"
 xmlns:xodm="http://www.corel.com/coreldraw/odm/2003">
 <g id="Camada_x0020_1">
  <metadata id="CorelCorpID_0Corel-Layer"/>
  <g id="_2006040738528">
   <path fill="#669999" fill-rule="nonzero" d="M297737 734937l142058 0c47143,0 80653,-6921 100542,-20758 19889,-13837 29843,-36542 29843,-68111 0,-31568 -10163,-54058 -30490,-67463 -20321,-13405 -54490,-20105 -102490,-20105l-139463 0 0 176437zm0 -350932l126496 0c42379,0 72216,-6274 89510,-18810 17294,-12536 25947,-33726 25947,-63568 0,-31568 -9294,-53189 -27895,-64863 -18601,-11673 -61621,-17516 -129084,-17516l-84974 0 0 164758zm-297737 574075l0 -955485 391795 0c84326,0 145725,2157 184215,6490 38496,4315 71580,11458 99254,21399 48431,18163 85507,46484 111239,84974 25738,38496 38604,85189 38604,140116 0,43236 -9630,80971 -28872,113186 -19242,32222 -48102,58702 -86598,79460 50595,18163 88006,45417 112215,81732 24222,36332 36332,83469 36332,141411 0,56653 -11787,105845 -35356,147571 -23568,41732 -57834,73840 -102807,96329 -30274,15563 -64869,26601 -103790,33085 -38921,6484 -103359,9732 -193300,9732l-422932 0z"/>
   <path fill="#FFCC00" fill-rule="nonzero" d="M509853 958074c0,-2589 -216,-6382 -647,-11350 -437,-4974 -659,-8761 -659,-11356 0,-66157 20333,-128755 60980,-187787 40647,-59032 106385,-120323 197195,-183898 23784,-17294 56863,-39353 99242,-66157 101201,-64869 151790,-121300 151790,-169312 0,-36752 -10049,-65618 -30160,-86586 -20111,-20980 -47682,-31467 -82708,-31467 -43673,0 -76326,13945 -97941,41846 -21621,27883 -32437,70160 -32437,126813l0 16210 -247136 0c0,-3458 -222,-8096 -653,-13939 -437,-5843 -647,-10061 -647,-12656 0,-115026 34918,-205189 104755,-270495 69843,-65288 165950,-97941 288329,-97941 112006,0 201522,27571 268554,82696 67032,55143 100542,128114 100542,218924 0,59691 -12968,109411 -38921,149195 -25953,39790 -78921,83895 -158915,132338 -9528,6046 -24875,15347 -46064,27883 -76542,44974 -135137,84548 -175784,118711l417090 0 0 228326 -775800 0z"/>
   <path fill="#669999" fill-rule="nonzero" d="M1292791 734937l142052 0c47143,0 80653,-6921 100542,-20758 19889,-13837 29843,-36542 29843,-68111 0,-31568 -10163,-54058 -30484,-67463 -20321,-13405 -54496,-20105 -102496,-20105l-139457 0 0 176437zm0 -350932l126496 0c42373,0 72210,-6274 89504,-18810 17300,-12536 25953,-33726 25953,-63568 0,-31568 -9300,-53189 -27895,-64863 -18601,-11673 -61627,-17516 -129090,-17516l-84968 0 0 164758zm-297743 574075l0 -955485 391801 0c84320,0 145725,2157 184209,6490 38496,4315 71580,11458 99254,21399 48431,18163 85513,46484 111239,84974 25744,38496 38604,85189 38604,140116 0,43236 -9630,80971 -28872,113186 -19242,32222 -48102,58702 -86598,79460 50601,18163 88006,45417 112221,81732 24216,36332 36332,83469 36332,141411 0,56653 -11787,105845 -35362,147571 -23568,41732 -57834,73840 -102807,96329 -30274,15563 -64869,26601 -103790,33085 -38921,6484 -103359,9732 -193300,9732l-422932 0z"/>
   <polygon fill="#FFCC00" fill-rule="nonzero" points="1292922,729742 971078,729742 968567,958074 1292922,958074 "/>
   <g>
    <path fill="#666666" fill-rule="nonzero" d="M1980399 561670l24096 0c15634,0 26103,-1744 31395,-5225 5273,-3494 7916,-9672 7916,-18553 0,-8983 -2535,-15221 -7598,-18703 -5082,-3494 -15646,-5231 -31712,-5231l-24096 0 0 47712zm-74984 128557l0 -233498 96066 0c21249,0 38076,1246 50487,3721 12428,2499 22807,6484 31155,11967 10775,7299 18810,16342 24084,27116 5291,10775 7946,23568 7946,38358 0,26115 -7730,46106 -23149,60003 -15437,13897 -37681,20854 -66738,20854l-44866 0 0 71478 -74984 0z"/>
    <path fill="#666666" fill-rule="nonzero" d="M2200588 610341l47077 0 -23299 -80845 -23778 80845zm-96383 79886l82109 -233498 75931 0 82121 233498 -74349 0 -8713 -30909 -74355 0 -9031 30909 -73714 0z"/>
    <path fill="#666666" fill-rule="nonzero" d="M2439796 557074l34091 0c11937,0 20183,-1606 24731,-4830 4542,-3230 6813,-8857 6813,-16887 0,-8246 -2271,-13980 -6813,-17204 -4548,-3212 -13429,-4830 -26631,-4830l-32192 0 0 43751zm-74025 133153l0 -233498 111754 0c34990,0 59955,5231 74906,15688 14951,10463 22436,27643 22436,51529 0,14262 -3074,26103 -9198,35506 -6130,9408 -15592,16851 -28374,22352 13004,2745 22454,8162 28374,16252 5915,8084 9091,19949 9510,35583l1270 32503c0,210 42,467 150,785 330,9312 2547,14166 6664,14592l0 8707 -75613 0c-1372,-5591 -2403,-10481 -3098,-14658 -677,-4171 -1019,-7419 -1019,-9744l0 -23299c0,-12057 -2379,-20536 -7143,-25450 -4746,-4914 -12992,-7377 -24719,-7377l-31874 0 0 80527 -74025 0z"/>
    <polygon fill="#666666" fill-rule="nonzero" points="2662681,690233 2662681,518237 2595469,518237 2595469,456724 2804883,456724 2804883,518237 2737665,518237 2737665,690233 "/>
    <path fill="#666666" fill-rule="nonzero" d="M2829128 690233l0 -233510 71185 0 65468 108602c2007,3056 4141,7383 6424,12992 2265,5603 4668,12363 7203,20297 -623,-4129 -1103,-8665 -1420,-13639 -330,-4956 -479,-10996 -479,-18067l0 -110184 71496 0 0 233510 -71496 0 -65474 -107799c-2001,-3170 -4195,-7658 -6580,-13477 -2367,-5801 -4782,-12464 -7209,-19973 737,4129 1264,8437 1594,12926 318,4494 473,10798 473,18936l0 109387 -71185 0z"/>
    <polygon fill="#666666" fill-rule="nonzero" points="3093391,690233 3093391,456724 3279974,456724 3279974,512694 3168369,512694 3168369,543759 3262721,543759 3262721,597338 3168369,597338 3168369,633490 3284570,633490 3284570,690233 "/>
    <path fill="#666666" fill-rule="nonzero" d="M3393627 557074l34091 0c11937,0 20177,-1606 24731,-4830 4536,-3230 6813,-8857 6813,-16887 0,-8246 -2277,-13980 -6813,-17204 -4554,-3212 -13429,-4830 -26637,-4830l-32186 0 0 43751zm-74031 133153l0 -233498 111760 0c34984,0 59955,5231 74906,15688 14951,10463 22436,27643 22436,51529 0,14262 -3074,26103 -9198,35506 -6130,9408 -15592,16851 -28374,22352 13004,2745 22454,8162 28374,16252 5915,8084 9091,19949 9510,35583l1270 32503c0,210 42,467 150,785 330,9312 2547,14166 6664,14592l0 8707 -75619 0c-1366,-5591 -2403,-10481 -3092,-14658 -683,-4171 -1019,-7419 -1019,-9744l0 -23299c0,-12057 -2385,-20536 -7143,-25450 -4752,-4914 -12992,-7377 -24719,-7377l-31874 0 0 80527 -74031 0z"/>
    <path fill="#666666" fill-rule="nonzero" d="M3556437 617479l72917 0c2001,8449 5651,14526 10936,18223 5291,3703 13160,5555 23616,5555 8785,0 15682,-1510 20704,-4512 5016,-3026 7527,-7167 7527,-12458 0,-8449 -10523,-15329 -31544,-20614 -4237,-1043 -7461,-1840 -9672,-2367 -17228,-4446 -30951,-8479 -41138,-12129 -10205,-3643 -17630,-7059 -22268,-10223 -8983,-6448 -15730,-14166 -20219,-23149 -4506,-8983 -6730,-19230 -6730,-30753 0,-23143 8707,-41318 26145,-54520 17438,-13219 41420,-19817 71970,-19817 30010,0 53639,6304 70861,18936 17228,12632 26948,30736 29165,54292l-71167 0c-1175,-6867 -4213,-11997 -9127,-15371 -4914,-3386 -11913,-5076 -21004,-5076 -8030,0 -13998,1324 -17912,3961 -3907,2637 -5867,6664 -5867,12057 0,7712 10247,14154 30759,19338 1792,527 3176,887 4117,1097 2966,755 7455,1858 13471,3332 27170,6873 44914,13112 53261,18703 10355,6873 17918,14694 22682,23467 4746,8773 7125,19140 7125,31077 0,25774 -9001,45591 -27026,59440 -18013,13849 -43835,20770 -77429,20770 -30969,0 -55514,-6921 -73642,-20770 -18121,-13849 -28297,-33336 -30514,-58487z"/>
    <path fill="#666666" fill-rule="nonzero" d="M1978176 903542l34721 0c11518,0 19703,-1690 24569,-5064 4866,-3392 7293,-8935 7293,-16653 0,-7712 -2487,-13201 -7443,-16485 -4974,-3272 -13327,-4914 -25049,-4914l-34091 0 0 43116zm0 -85753l30915 0c10349,0 17642,-1540 21879,-4596 4219,-3062 6346,-8246 6346,-15539 0,-7718 -2277,-12992 -6819,-15856 -4548,-2864 -15065,-4285 -31550,-4285l-20770 0 0 40276zm-72767 140284l0 -233504 95754 0c20614,0 35613,527 45016,1588 9414,1055 17492,2798 24264,5237 11829,4434 20896,11350 27194,20758 6286,9420 9426,20824 9426,34241 0,10565 -2355,19793 -7059,27661 -4704,7886 -11763,14358 -21154,19422 12363,4428 21495,11092 27416,19979 5921,8869 8875,20392 8875,34547 0,13849 -2870,25870 -8641,36075 -5759,10199 -14130,18043 -25127,23545 -7389,3787 -15844,6496 -25354,8078 -9510,1582 -25258,2373 -47233,2373l-103377 0z"/>
    <path fill="#666666" fill-rule="nonzero" d="M2225474 824915l34085 0c11937,0 20183,-1606 24731,-4830 4536,-3224 6813,-8857 6813,-16887 0,-8246 -2277,-13974 -6813,-17198 -4548,-3218 -13423,-4836 -26631,-4836l-32186 0 0 43751zm-74031 133153l0 -233498 111754 0c34990,0 59955,5231 74906,15688 14951,10463 22436,27643 22436,51529 0,14256 -3074,26103 -9192,35506 -6136,9408 -15598,16857 -28380,22352 13004,2745 22454,8162 28380,16258 5909,8078 9085,19943 9510,35577l1264 32503c0,210 48,467 156,785 324,9312 2541,14166 6658,14586l0 8713 -75613 0c-1372,-5591 -2403,-10481 -3098,-14658 -677,-4171 -1019,-7425 -1019,-9744l0 -23299c0,-12057 -2379,-20536 -7143,-25444 -4746,-4914 -12992,-7377 -24719,-7377l-31868 0 0 80521 -74031 0z"/>
    <polygon fill="#666666" fill-rule="nonzero" points="2388278,958074 2388278,901954 2496389,784969 2391760,784969 2391760,724564 2588500,724564 2588500,780211 2479113,897999 2594366,897999 2594366,958074 "/>
    <polygon fill="#666666" fill-rule="nonzero" points="2628122,958074 2628122,724564 2703106,724564 2703106,896088 2805032,896088 2805032,958074 "/>
   </g>
  </g>
 </g>
</svg>
