<?xml version="1.0" encoding="UTF-8"?>
<!DOCTYPE svg PUBLIC "-//W3C//DTD SVG 1.1//EN" "http://www.w3.org/Graphics/SVG/1.1/DTD/svg11.dtd">
<!-- Creator: CorelDRAW 2020 (64 Bit) -->
<svg xmlns="http://www.w3.org/2000/svg" xml:space="preserve" width="51.4688mm" height="17.7178mm" version="1.1" shape-rendering="geometricPrecision" text-rendering="geometricPrecision" image-rendering="optimizeQuality" fill-rule="evenodd" clip-rule="evenodd"
viewBox="0 0 2858.81 984.13"
 xmlns:xlink="http://www.w3.org/1999/xlink"
 xmlns:xodm="http://www.corel.com/coreldraw/odm/2003">
 <g id="Camada_x0020_1">
  <metadata id="CorelCorpID_0Corel-Layer"/>
  <g id="_2290087076544">
   <path fill="#669999" fill-rule="nonzero" d="M227.02 557.84l107.83 0c35.78,0 61.22,-5.25 76.31,-15.76 15.1,-10.5 22.65,-27.73 22.65,-51.7 0,-23.96 -7.72,-41.03 -23.14,-51.21 -15.42,-10.18 -41.36,-15.26 -77.8,-15.26l-105.86 0 0 133.92zm0 -266.37l96.01 0c32.17,0 54.81,-4.76 67.94,-14.27 13.13,-9.51 19.7,-25.6 19.7,-48.25 0,-23.96 -7.05,-40.37 -21.17,-49.23 -14.12,-8.86 -46.77,-13.3 -97.98,-13.3l-64.5 0 0 125.05zm-225.99 435.74l0 -725.24 297.38 0c64,0 110.61,1.64 139.82,4.92 29.22,3.28 54.33,8.7 75.33,16.25 36.76,13.79 64.9,35.28 84.43,64.5 19.54,29.22 29.31,64.66 29.31,106.35 0,32.82 -7.31,61.46 -21.92,85.91 -14.61,24.46 -36.51,44.56 -65.73,60.31 38.41,13.79 66.8,34.48 85.18,62.04 18.38,27.57 27.58,63.35 27.58,107.33 0,43 -8.95,80.34 -26.84,112.01 -17.89,31.68 -43.9,56.05 -78.03,73.12 -22.98,11.81 -49.24,20.19 -78.78,25.11 -29.54,4.92 -78.45,7.39 -146.72,7.39l-321.01 0z"/>
   <path fill="#FFCC00" fill-rule="nonzero" d="M388.02 727.2c0,-1.97 -0.16,-4.84 -0.49,-8.61 -0.33,-3.77 -0.5,-6.65 -0.5,-8.61 0,-50.22 15.44,-97.73 46.29,-142.54 30.85,-44.81 80.74,-91.33 149.68,-139.58 18.05,-13.13 43.16,-29.87 75.33,-50.22 76.81,-49.23 115.21,-92.07 115.21,-128.51 0,-27.89 -7.63,-49.81 -22.9,-65.73 -15.26,-15.92 -36.19,-23.88 -62.78,-23.88 -33.15,0 -57.93,10.58 -74.34,31.75 -16.41,21.17 -24.62,53.26 -24.62,96.26l0 12.3 -187.58 0c0,-2.62 -0.17,-6.15 -0.49,-10.58 -0.33,-4.43 -0.49,-7.64 -0.49,-9.6 0,-87.3 26.5,-155.75 79.51,-205.31 53.02,-49.56 125.96,-74.34 218.85,-74.34 85.02,0 152.96,20.93 203.84,62.77 50.88,41.85 76.32,97.24 76.32,166.17 0,45.31 -9.85,83.04 -29.54,113.25 -19.7,30.2 -59.9,63.68 -120.62,100.44 -7.23,4.59 -18.88,11.65 -34.97,21.17 -58.09,34.13 -102.57,64.18 -133.42,90.1l316.59 0 0 173.3 -588.86 0z"/>
   <path fill="#669999" fill-rule="nonzero" d="M982.29 557.84l107.82 0c35.78,0 61.22,-5.25 76.32,-15.76 15.09,-10.5 22.65,-27.73 22.65,-51.7 0,-23.96 -7.72,-41.03 -23.14,-51.21 -15.42,-10.18 -41.36,-15.26 -77.8,-15.26l-105.86 0 0 133.92zm0 -266.37l96.01 0c32.17,0 54.81,-4.76 67.94,-14.27 13.13,-9.51 19.7,-25.6 19.7,-48.25 0,-23.96 -7.06,-40.37 -21.17,-49.23 -14.12,-8.86 -46.78,-13.3 -97.98,-13.3l-64.5 0 0 125.05zm-225.99 435.74l0 -725.24 297.38 0c64,0 110.61,1.64 139.82,4.92 29.22,3.28 54.33,8.7 75.33,16.25 36.76,13.79 64.9,35.28 84.43,64.5 19.53,29.22 29.3,64.66 29.3,106.35 0,32.82 -7.31,61.46 -21.91,85.91 -14.61,24.46 -36.51,44.56 -65.73,60.31 38.4,13.79 66.8,34.48 85.18,62.04 18.38,27.57 27.58,63.35 27.58,107.33 0,43 -8.95,80.34 -26.84,112.01 -17.89,31.68 -43.9,56.05 -78.03,73.12 -22.98,11.81 -49.23,20.19 -78.78,25.11 -29.54,4.92 -78.45,7.39 -146.72,7.39l-321.01 0z"/>
   <polygon fill="#FFCC00" fill-rule="nonzero" points="982.4,553.89 738.11,553.89 736.2,727.2 982.4,727.2 "/>
  </g>
  <g id="_2290087079280">
   <path fill="#666666" fill-rule="nonzero" d="M1504.21 426.33l18.29 0c11.87,0 19.82,-1.33 23.83,-3.97 4.01,-2.65 6.01,-7.34 6.01,-14.08 0,-6.82 -1.92,-11.55 -5.77,-14.2 -3.85,-2.65 -11.88,-3.97 -24.07,-3.97l-18.29 0 0 36.21zm-56.92 97.58l0 -177.23 72.92 0c16.12,0 28.9,0.94 38.31,2.82 9.44,1.89 17.31,4.92 23.65,9.09 8.18,5.54 14.28,12.4 18.28,20.58 4.02,8.18 6.03,17.89 6.03,29.11 0,19.82 -5.87,35 -17.57,45.55 -11.71,10.55 -28.59,15.82 -50.65,15.82l-34.05 0 0 54.26 -56.92 0z"/>
   <path fill="#666666" fill-rule="nonzero" d="M1671.34 463.26l35.73 0 -17.69 -61.36 -18.05 61.36zm-73.16 60.64l62.32 -177.23 57.63 0 62.33 177.23 -56.43 0 -6.62 -23.46 -56.44 0 -6.85 23.46 -55.95 0z"/>
   <path fill="#666666" fill-rule="nonzero" d="M1852.91 422.84l25.87 0c9.06,0 15.32,-1.22 18.77,-3.67 3.45,-2.44 5.18,-6.72 5.18,-12.81 0,-6.26 -1.73,-10.61 -5.18,-13.06 -3.45,-2.44 -10.19,-3.67 -20.21,-3.67l-24.43 0 0 33.21zm-56.19 101.07l0 -177.23 84.83 0c26.56,0 45.51,3.97 56.86,11.91 11.35,7.94 17.03,20.98 17.03,39.11 0,10.82 -2.33,19.81 -6.98,26.95 -4.65,7.14 -11.84,12.79 -21.54,16.96 9.87,2.08 17.05,6.19 21.54,12.34 4.49,6.13 6.9,15.14 7.22,27.01l0.96 24.67c0,0.16 0.03,0.36 0.12,0.59 0.25,7.07 1.93,10.75 5.05,11.08l0 6.62 -57.39 0c-1.04,-4.25 -1.82,-7.96 -2.35,-11.13 -0.52,-3.17 -0.77,-5.64 -0.77,-7.4l0 -17.69c0,-9.15 -1.81,-15.59 -5.42,-19.32 -3.6,-3.73 -9.86,-5.6 -18.76,-5.6l-24.19 0 0 61.13 -56.19 0z"/>
   <polygon fill="#666666" fill-rule="nonzero" points="2022.08,523.91 2022.08,393.36 1971.06,393.36 1971.06,346.67 2130.01,346.67 2130.01,393.36 2078.99,393.36 2078.99,523.91 "/>
   <path fill="#666666" fill-rule="nonzero" d="M2148.41 523.91l0 -177.24 54.03 0 49.69 82.43c1.52,2.32 3.14,5.6 4.88,9.86 1.72,4.26 3.54,9.39 5.47,15.41 -0.47,-3.13 -0.84,-6.58 -1.08,-10.35 -0.25,-3.77 -0.37,-8.35 -0.37,-13.72l0 -83.63 54.27 0 0 177.24 -54.27 0 -49.69 -81.82c-1.52,-2.41 -3.19,-5.81 -4.99,-10.23 -1.8,-4.4 -3.63,-9.46 -5.48,-15.16 0.56,3.13 0.97,6.4 1.22,9.81 0.24,3.4 0.36,8.19 0.36,14.37l0 83.03 -54.03 0z"/>
   <polygon fill="#666666" fill-rule="nonzero" points="2349,523.91 2349,346.67 2490.62,346.67 2490.62,389.15 2405.91,389.15 2405.91,412.73 2477.53,412.73 2477.53,453.4 2405.91,453.4 2405.91,480.84 2494.11,480.84 2494.11,523.91 "/>
   <path fill="#666666" fill-rule="nonzero" d="M2576.89 422.84l25.87 0c9.06,0 15.31,-1.22 18.77,-3.67 3.44,-2.44 5.18,-6.72 5.18,-12.81 0,-6.26 -1.73,-10.61 -5.18,-13.06 -3.45,-2.44 -10.19,-3.67 -20.21,-3.67l-24.43 0 0 33.21zm-56.19 101.07l0 -177.23 84.83 0c26.56,0 45.51,3.97 56.86,11.91 11.35,7.94 17.03,20.98 17.03,39.11 0,10.82 -2.33,19.81 -6.98,26.95 -4.65,7.14 -11.84,12.79 -21.54,16.96 9.87,2.08 17.05,6.19 21.54,12.34 4.49,6.13 6.9,15.14 7.22,27.01l0.96 24.67c0,0.16 0.03,0.36 0.12,0.59 0.25,7.07 1.93,10.75 5.05,11.08l0 6.62 -57.39 0c-1.04,-4.25 -1.82,-7.96 -2.35,-11.13 -0.52,-3.17 -0.77,-5.64 -0.77,-7.4l0 -17.69c0,-9.15 -1.81,-15.59 -5.42,-19.32 -3.6,-3.73 -9.86,-5.6 -18.76,-5.6l-24.19 0 0 61.13 -56.19 0z"/>
   <path fill="#666666" fill-rule="nonzero" d="M2700.46 468.68l55.35 0c1.52,6.42 4.29,11.03 8.3,13.83 4.02,2.81 9.99,4.22 17.93,4.22 6.67,0 11.9,-1.14 15.71,-3.42 3.81,-2.3 5.72,-5.44 5.72,-9.46 0,-6.42 -7.98,-11.63 -23.94,-15.65 -3.22,-0.79 -5.67,-1.39 -7.34,-1.79 -13.08,-3.37 -23.49,-6.44 -31.23,-9.2 -7.74,-2.77 -13.38,-5.36 -16.9,-7.76 -6.82,-4.9 -11.94,-10.75 -15.35,-17.57 -3.42,-6.82 -5.11,-14.6 -5.11,-23.35 0,-17.56 6.62,-31.36 19.85,-41.38 13.24,-10.03 31.44,-15.04 54.62,-15.04 22.78,0 40.71,4.79 53.79,14.37 13.08,9.59 20.45,23.33 22.13,41.21l-54.02 0c-0.89,-5.22 -3.19,-9.1 -6.93,-11.67 -3.73,-2.57 -9.04,-3.85 -15.94,-3.85 -6.1,0 -10.63,1.01 -13.6,3 -2.97,2.01 -4.45,5.06 -4.45,9.15 0,5.85 7.78,10.74 23.35,14.67 1.36,0.4 2.41,0.68 3.12,0.83 2.26,0.57 5.66,1.41 10.23,2.53 20.62,5.22 34.09,9.95 40.43,14.2 7.86,5.22 13.6,11.15 17.21,17.81 3.6,6.66 5.41,14.53 5.41,23.59 0,19.56 -6.84,34.6 -20.51,45.12 -13.68,10.51 -33.27,15.76 -58.77,15.76 -23.51,0 -42.14,-5.25 -55.9,-15.76 -13.75,-10.51 -21.48,-25.31 -23.16,-44.4z"/>
   <path fill="#666666" fill-rule="nonzero" d="M1502.52 685.81l26.36 0c8.74,0 14.95,-1.28 18.65,-3.84 3.69,-2.57 5.54,-6.78 5.54,-12.64 0,-5.86 -1.89,-10.03 -5.65,-12.51 -3.77,-2.48 -10.11,-3.73 -19.01,-3.73l-25.87 0 0 32.73zm0 -65.09l23.46 0c7.86,0 13.4,-1.17 16.61,-3.49 3.2,-2.33 4.82,-6.26 4.82,-11.8 0,-5.85 -1.73,-9.86 -5.17,-12.03 -3.45,-2.17 -11.44,-3.25 -23.95,-3.25l-15.76 0 0 30.57zm-55.23 106.48l0 -177.24 72.68 0c15.65,0 27.03,0.41 34.17,1.21 7.14,0.8 13.28,2.13 18.41,3.98 8.98,3.37 15.86,8.61 20.64,15.76 4.77,7.15 7.15,15.81 7.15,25.99 0,8.02 -1.79,15.02 -5.35,21 -3.57,5.98 -8.93,10.9 -16.06,14.74 9.38,3.36 16.31,8.42 20.81,15.16 4.5,6.73 6.74,15.48 6.74,26.22 0,10.51 -2.18,19.63 -6.56,27.38 -4.37,7.74 -10.73,13.7 -19.07,17.87 -5.61,2.88 -12.03,4.93 -19.25,6.13 -7.22,1.2 -19.17,1.8 -35.85,1.8l-78.46 0z"/>
   <path fill="#666666" fill-rule="nonzero" d="M1690.22 626.14l25.88 0c9.06,0 15.31,-1.22 18.77,-3.67 3.44,-2.45 5.17,-6.72 5.17,-12.82 0,-6.25 -1.73,-10.61 -5.17,-13.06 -3.45,-2.44 -10.19,-3.67 -20.21,-3.67l-24.43 0 0 33.21zm-56.19 101.07l0 -177.24 84.83 0c26.56,0 45.51,3.97 56.86,11.91 11.35,7.94 17.03,20.98 17.03,39.11 0,10.82 -2.33,19.81 -6.98,26.95 -4.65,7.14 -11.84,12.79 -21.54,16.96 9.87,2.08 17.05,6.2 21.54,12.34 4.49,6.14 6.9,15.14 7.22,27.01l0.96 24.67c0,0.16 0.03,0.36 0.12,0.6 0.25,7.07 1.93,10.75 5.05,11.07l0 6.62 -57.39 0c-1.04,-4.25 -1.82,-7.96 -2.35,-11.13 -0.52,-3.17 -0.77,-5.63 -0.77,-7.39l0 -17.69c0,-9.15 -1.81,-15.59 -5.42,-19.31 -3.6,-3.73 -9.86,-5.6 -18.76,-5.6l-24.2 0 0 61.12 -56.19 0z"/>
   <polygon fill="#666666" fill-rule="nonzero" points="1813.8,727.21 1813.8,684.61 1895.86,595.81 1816.44,595.81 1816.44,549.97 1965.77,549.97 1965.77,592.2 1882.75,681.61 1970.22,681.61 1970.22,727.21 "/>
   <polygon fill="#666666" fill-rule="nonzero" points="1995.85,727.21 1995.85,549.97 2052.76,549.97 2052.76,680.16 2130.12,680.16 2130.12,727.21 "/>
  </g>
  <path fill="#666666" fill-rule="nonzero" d="M47.09 982.56l-26.82 -87.31 -0.62 0c0.11,2.08 0.26,5.19 0.47,9.35 0.21,4.16 0.42,8.6 0.63,13.33 0.21,4.73 0.31,9.01 0.31,12.86l0 51.76 -21.05 0 0 -111.32 32.12 0 26.35 85.13 0.47 0 27.91 -85.13 32.12 0 0 111.32 -21.98 0 0 -52.7c0,-3.53 0.08,-7.59 0.23,-12.16 0.16,-4.58 0.31,-8.91 0.47,-13.02 0.16,-4.1 0.29,-7.2 0.39,-9.28l-0.62 0 -28.69 87.15 -21.67 0zm168.08 0l-8.58 -26.19 -39.29 0 -8.57 26.19 -25.73 0 39.14 -111.79 29.31 0 39.44 111.79 -25.72 0zm-21.83 -70.32c-0.42,-1.56 -1.07,-3.89 -1.95,-7.02 -0.88,-3.12 -1.74,-6.32 -2.57,-9.59 -0.83,-3.27 -1.51,-5.95 -2.03,-8.03 -0.42,2.39 -1.01,5.12 -1.79,8.19 -0.78,3.07 -1.53,6.08 -2.26,9.04 -0.73,2.96 -1.35,5.43 -1.87,7.4l-7.95 24.17 28.22 0 -7.8 -24.17zm94.95 -41c29,0 43.5,10.81 43.5,32.43 0,7.59 -1.92,13.77 -5.77,18.55 -3.84,4.78 -8.63,8.52 -14.34,11.23l31.65 49.11 -27.28 0 -24.79 -42.72 -13.25 0 0 42.72 -23.86 0 0 -111.32 34.14 0zm-0.47 18.55l-9.82 0 0 31.65 9.82 0c6.34,0 11.23,-1.3 14.66,-3.9 3.43,-2.6 5.14,-6.86 5.14,-12.79 0,-4.99 -1.58,-8.73 -4.75,-11.23 -3.17,-2.49 -8.19,-3.74 -15.05,-3.74zm158.87 92.77l-26.82 0 -29.16 -46.93 -9.98 7.17 0 39.76 -23.55 0 0 -111.32 23.55 0 0 50.98c1.56,-2.18 3.12,-4.37 4.68,-6.55 1.56,-2.18 3.12,-4.37 4.68,-6.55l30.09 -37.89 26.19 0 -38.82 49.27 39.13 62.05zm78.11 0l-64.08 0 0 -111.32 64.08 0 0 19.34 -40.54 0 0 24.48 37.73 0 0 19.33 -37.73 0 0 28.69 40.54 0 0 19.49zm66.11 0l-23.86 0 0 -91.52 -30.09 0 0 -19.8 84.04 0 0 19.8 -30.09 0 0 91.52zm88.71 0l-50.67 0 0 -13.41 13.56 -6.24 0 -72.03 -13.56 -6.24 0 -13.41 50.67 0 0 13.41 -13.56 6.24 0 72.03 13.56 6.24 0 13.41zm117.72 0l-29.94 0 -48.49 -84.19 -0.62 0c0.21,5.3 0.44,10.6 0.7,15.9 0.26,5.3 0.49,10.6 0.71,15.9l0 52.39 -21.05 0 0 -111.32 29.78 0 48.33 83.41 0.47 0c-0.11,-5.19 -0.26,-10.34 -0.47,-15.43 -0.21,-5.09 -0.41,-10.19 -0.62,-15.28l0 -52.7 21.21 0 0 111.32zm70.31 -62.52l44.12 0 0 57.69c-5.82,1.97 -11.88,3.53 -18.16,4.68 -6.29,1.14 -13.44,1.72 -21.44,1.72 -16.63,0 -29.42,-4.89 -38.35,-14.66 -8.94,-9.77 -13.41,-24.01 -13.41,-42.72 0,-11.64 2.26,-21.72 6.78,-30.25 4.52,-8.52 11.1,-15.12 19.72,-19.8 8.63,-4.68 19.18,-7.02 31.65,-7.02 5.93,0 11.75,0.63 17.46,1.87 5.72,1.25 10.91,2.91 15.59,4.99l-7.79 18.87c-3.43,-1.77 -7.33,-3.22 -11.7,-4.37 -4.37,-1.14 -8.94,-1.72 -13.72,-1.72 -6.86,0 -12.81,1.56 -17.85,4.68 -5.04,3.12 -8.94,7.51 -11.69,13.18 -2.76,5.67 -4.13,12.34 -4.13,20.03 0,7.28 0.99,13.72 2.96,19.34 1.98,5.61 5.09,10 9.36,13.18 4.26,3.17 9.82,4.75 16.68,4.75 3.33,0 6.16,-0.16 8.5,-0.47 2.34,-0.31 4.49,-0.68 6.47,-1.09l0 -23.23 -21.05 0 0 -19.65zm888.86 30.41l0 -19.34 41 0 0 19.34 -41 0zm142.97 32.12l-23.86 0 0 -91.52 -30.09 0 0 -19.8 84.04 0 0 19.8 -30.09 0 0 91.52zm111.16 0l-64.08 0 0 -111.32 64.08 0 0 19.34 -40.54 0 0 24.48 37.73 0 0 19.33 -37.73 0 0 28.69 40.54 0 0 19.49zm71.25 -93.08c-8.94,0 -15.98,3.35 -21.13,10.06 -5.14,6.7 -7.72,15.93 -7.72,27.67 0,11.75 2.47,20.87 7.4,27.36 4.94,6.5 12.4,9.75 22.37,9.75 4.89,0 9.59,-0.57 14.11,-1.72 4.52,-1.14 9.06,-2.6 13.64,-4.37l0 20.27c-8.84,3.74 -18.97,5.62 -30.41,5.62 -11.85,0 -21.6,-2.37 -29.23,-7.09 -7.64,-4.73 -13.3,-11.39 -17,-19.96 -3.69,-8.58 -5.53,-18.58 -5.53,-30.02 0,-11.23 2.08,-21.15 6.24,-29.78 4.15,-8.63 10.24,-15.39 18.24,-20.27 8,-4.89 17.77,-7.33 29.31,-7.33 5.51,0 11.1,0.6 16.76,1.79 5.66,1.19 11.04,3.04 16.14,5.54l-7.8 19.02c-3.74,-1.77 -7.72,-3.3 -11.93,-4.6 -4.21,-1.3 -8.7,-1.95 -13.49,-1.95zm150.77 93.08l-29.94 0 -48.49 -84.19 -0.62 0c0.21,5.3 0.44,10.6 0.7,15.9 0.26,5.3 0.49,10.6 0.71,15.9l0 52.39 -21.05 0 0 -111.32 29.78 0 48.33 83.41 0.47 0c-0.11,-5.19 -0.26,-10.34 -0.47,-15.43 -0.21,-5.09 -0.41,-10.19 -0.62,-15.28l0 -52.7 21.21 0 0 111.32zm128.62 -55.82c0,11.54 -1.89,21.6 -5.69,30.17 -3.79,8.58 -9.59,15.26 -17.39,20.03 -7.79,4.78 -17.77,7.18 -29.93,7.18 -12.06,0 -22.01,-2.39 -29.86,-7.18 -7.85,-4.78 -13.67,-11.48 -17.46,-20.11 -3.79,-8.63 -5.69,-18.71 -5.69,-30.24 0,-11.44 1.89,-21.44 5.69,-30.02 3.79,-8.57 9.61,-15.22 17.46,-19.96 7.85,-4.73 17.85,-7.09 30.02,-7.09 12.05,0 22.01,2.37 29.86,7.09 7.85,4.73 13.64,11.39 17.39,19.96 3.74,8.58 5.61,18.64 5.61,30.17zm-80.92 0c0,11.64 2.21,20.76 6.63,27.36 4.42,6.6 11.51,9.9 21.28,9.9 9.98,0 17.12,-3.3 21.43,-9.9 4.32,-6.6 6.47,-15.72 6.47,-27.36 0,-11.64 -2.16,-20.79 -6.47,-27.44 -4.31,-6.65 -11.41,-9.98 -21.28,-9.98 -9.88,0 -17.02,3.33 -21.44,9.98 -4.42,6.65 -6.63,15.8 -6.63,27.44zm102.9 55.82l0 -111.32 23.86 0 0 91.68 45.06 0 0 19.65 -68.91 0zm185.38 -55.82c0,11.54 -1.89,21.6 -5.69,30.17 -3.79,8.58 -9.59,15.26 -17.39,20.03 -7.79,4.78 -17.77,7.18 -29.93,7.18 -12.06,0 -22.01,-2.39 -29.86,-7.18 -7.85,-4.78 -13.67,-11.48 -17.46,-20.11 -3.79,-8.63 -5.69,-18.71 -5.69,-30.24 0,-11.44 1.89,-21.44 5.69,-30.02 3.79,-8.57 9.61,-15.22 17.46,-19.96 7.85,-4.73 17.85,-7.09 30.02,-7.09 12.05,0 22.01,2.37 29.86,7.09 7.85,4.73 13.64,11.39 17.39,19.96 3.74,8.58 5.61,18.64 5.61,30.17zm-80.92 0c0,11.64 2.21,20.76 6.63,27.36 4.42,6.6 11.51,9.9 21.28,9.9 9.98,0 17.12,-3.3 21.43,-9.9 4.32,-6.6 6.47,-15.72 6.47,-27.36 0,-11.64 -2.16,-20.79 -6.47,-27.44 -4.31,-6.65 -11.41,-9.98 -21.28,-9.98 -9.88,0 -17.02,3.33 -21.44,9.98 -4.42,6.65 -6.63,15.8 -6.63,27.44zm145.93 -6.7l44.12 0 0 57.69c-5.82,1.97 -11.88,3.53 -18.16,4.68 -6.29,1.14 -13.44,1.72 -21.44,1.72 -16.63,0 -29.42,-4.89 -38.35,-14.66 -8.94,-9.77 -13.41,-24.01 -13.41,-42.72 0,-11.64 2.26,-21.72 6.78,-30.25 4.52,-8.52 11.1,-15.12 19.72,-19.8 8.63,-4.68 19.18,-7.02 31.65,-7.02 5.93,0 11.75,0.63 17.46,1.87 5.72,1.25 10.91,2.91 15.59,4.99l-7.79 18.87c-3.43,-1.77 -7.33,-3.22 -11.7,-4.37 -4.37,-1.14 -8.94,-1.72 -13.72,-1.72 -6.86,0 -12.81,1.56 -17.85,4.68 -5.04,3.12 -8.94,7.51 -11.69,13.18 -2.76,5.67 -4.13,12.34 -4.13,20.03 0,7.28 0.99,13.72 2.96,19.34 1.98,5.61 5.09,10 9.36,13.18 4.26,3.17 9.82,4.75 16.68,4.75 3.33,0 6.16,-0.16 8.5,-0.47 2.34,-0.31 4.49,-0.68 6.47,-1.09l0 -23.23 -21.05 0 0 -19.65zm112.26 62.52l-50.67 0 0 -13.41 13.56 -6.24 0 -72.03 -13.56 -6.24 0 -13.41 50.67 0 0 13.41 -13.56 6.24 0 72.03 13.56 6.24 0 13.41zm87.15 0l-8.58 -26.19 -39.29 0 -8.57 26.19 -25.73 0 39.14 -111.79 29.31 0 39.44 111.79 -25.72 0zm-21.83 -70.32c-0.42,-1.56 -1.07,-3.89 -1.95,-7.02 -0.88,-3.12 -1.74,-6.32 -2.57,-9.59 -0.83,-3.27 -1.51,-5.95 -2.03,-8.03 -0.42,2.39 -1.01,5.12 -1.79,8.19 -0.78,3.07 -1.53,6.08 -2.26,9.04 -0.73,2.96 -1.35,5.43 -1.87,7.4l-7.95 24.17 28.22 0 -7.8 -24.17zm-1843.82 38.2l4.05 -19.34 40.07 0 -4.05 19.34 -40.07 0zm92.3 32.12l23.54 -111.32 62.37 0 -4.2 19.49 -38.67 0 -5.14 24.32 36.17 0 -4.21 19.48 -36.17 0 -6.08 28.22 38.83 0 -4.05 19.8 -62.37 0zm104.31 0l-9.67 -111.32 22.45 0 3.9 67.04c0.21,3.22 0.29,6.86 0.23,10.91 -0.05,4.05 -0.18,7.59 -0.39,10.6l0.62 0c1.14,-3.43 2.42,-6.99 3.82,-10.68 1.41,-3.69 2.94,-7.3 4.6,-10.84l32.74 -67.04 24.01 0 -56.91 111.32 -25.41 0zm72.34 0l23.54 -111.32 62.37 0 -4.2 19.49 -38.67 0 -5.14 24.32 36.17 0 -4.21 19.48 -36.17 0 -6.08 28.22 38.83 0 -4.05 19.8 -62.37 0zm84.51 0l23.54 -111.32 26.97 0 26.66 81.54 0.47 0c0.31,-2.39 0.73,-5.3 1.24,-8.73 0.52,-3.43 1.09,-6.97 1.72,-10.6 0.62,-3.64 1.25,-6.91 1.87,-9.82l11.23 -52.39 21.36 0 -23.54 111.32 -26.97 0 -26.82 -83.73 -0.63 0c-0.1,1.67 -0.39,4.34 -0.86,8.03 -0.47,3.69 -1.04,7.69 -1.72,12 -0.67,4.32 -1.43,8.24 -2.26,11.78l-10.91 51.92 -21.36 0zm134.4 0l19.18 -91.52 -26.66 0 4.37 -19.8 77.02 0 -4.37 19.8 -26.66 0 -19.17 91.52 -23.7 0zm111.17 1.56c-13.92,0 -24.45,-3.9 -31.57,-11.7 -7.12,-7.79 -10.68,-18.24 -10.68,-31.34 0,-9.04 1.25,-17.82 3.74,-26.34 2.49,-8.53 6.18,-16.19 11.07,-23 4.88,-6.8 11.01,-12.21 18.4,-16.21 7.38,-4 15.9,-6 25.57,-6 13.3,0 23.49,3.9 30.55,11.69 7.07,7.8 10.6,18.3 10.6,31.5 0,9.04 -1.17,17.82 -3.51,26.34 -2.34,8.53 -5.9,16.16 -10.68,22.92 -4.78,6.75 -10.79,12.14 -18.01,16.14 -7.23,4 -15.72,6 -25.49,6zm1.72 -19.8c4.68,0 8.96,-1.35 12.86,-4.05 3.89,-2.71 7.25,-6.44 10.05,-11.23 2.8,-4.78 4.99,-10.26 6.55,-16.45 1.56,-6.19 2.34,-12.76 2.34,-19.72 0,-7.38 -1.66,-13.15 -4.99,-17.31 -3.33,-4.16 -7.95,-6.24 -13.87,-6.24 -4.99,0 -9.49,1.43 -13.49,4.29 -4,2.86 -7.46,6.73 -10.37,11.61 -2.91,4.89 -5.12,10.4 -6.63,16.53 -1.51,6.13 -2.26,12.53 -2.26,19.17 0,7.49 1.72,13.25 5.14,17.31 3.43,4.05 8.32,6.08 14.66,6.08zm91.05 19.8c-5.62,0 -10.74,-0.63 -15.36,-1.87 -4.63,-1.25 -8.55,-2.91 -11.78,-4.99l0 -20.9c4.58,2.6 9.1,4.63 13.56,6.08 4.47,1.46 9.05,2.18 13.73,2.18 5.19,0 9.51,-0.99 12.94,-2.96 3.43,-1.98 5.15,-5.04 5.15,-9.2 0,-4.26 -1.25,-7.61 -3.74,-10.05 -2.49,-2.44 -5.72,-5.12 -9.66,-8.03 -3.12,-2.28 -6.13,-4.83 -9.04,-7.64 -2.91,-2.8 -5.3,-6.1 -7.18,-9.9 -1.87,-3.79 -2.8,-8.24 -2.8,-13.33 0,-6.65 1.56,-12.5 4.68,-17.54 3.12,-5.04 7.57,-9.02 13.33,-11.93 5.77,-2.91 12.5,-4.37 20.19,-4.37 5.82,0 11.18,0.63 16.06,1.87 4.88,1.25 9.61,3.12 14.19,5.62l-8.27 17.77c-7.9,-3.74 -15.22,-5.62 -21.98,-5.62 -4.15,0 -7.59,1.12 -10.29,3.35 -2.71,2.23 -4.05,5.27 -4.05,9.12 0,3.95 1.19,7.09 3.59,9.43 2.39,2.34 5.77,4.97 10.13,7.88 6.13,4.05 10.73,8.52 13.8,13.41 3.07,4.88 4.6,10.6 4.6,17.15 0,7.8 -1.89,14.24 -5.69,19.34 -3.79,5.09 -8.84,8.89 -15.12,11.38 -6.29,2.49 -13.28,3.74 -20.97,3.74z"/>
 </g>
</svg>
