<?xml version="1.0" encoding="UTF-8"?>
<!DOCTYPE svg PUBLIC "-//W3C//DTD SVG 1.1//EN" "http://www.w3.org/Graphics/SVG/1.1/DTD/svg11.dtd">
<!-- Creator: CorelDRAW 2020 (64 Bit) -->
<svg xmlns="http://www.w3.org/2000/svg" xml:space="preserve" width="50.8258mm" height="21.2304mm" version="1.1" shape-rendering="geometricPrecision" text-rendering="geometricPrecision" image-rendering="optimizeQuality" fill-rule="evenodd" clip-rule="evenodd"
viewBox="0 0 5068.22 2117.04"
 xmlns:xlink="http://www.w3.org/1999/xlink"
 xmlns:xodm="http://www.corel.com/coreldraw/odm/2003">
 <g id="Camada_x0020_1">
  <metadata id="CorelCorpID_0Corel-Layer"/>
  <g id="_2289775389168">
   <g>
    <path fill="#669999" fill-rule="nonzero" d="M405.71 1001.47l193.58 0c64.24,0 109.9,-9.43 137,-28.29 27.1,-18.85 40.66,-49.79 40.66,-92.81 0,-43.02 -13.85,-73.66 -41.54,-91.93 -27.69,-18.27 -74.26,-27.4 -139.66,-27.4l-190.04 0 0 240.43zm0 -478.21l172.37 0c57.76,0 98.4,-8.55 121.97,-25.63 23.57,-17.08 35.36,-45.96 35.36,-86.62 0,-43.02 -12.66,-72.47 -38.01,-88.38 -25.35,-15.91 -83.97,-23.87 -175.9,-23.87l-115.79 0 0 224.5zm-405.71 782.27l0 -1302 533.89 0c114.9,0 198.57,2.94 251.02,8.83 52.46,5.88 97.53,15.62 135.25,29.17 65.99,24.75 116.52,63.34 151.58,115.79 35.08,52.45 52.61,116.08 52.61,190.93 0,58.92 -13.12,110.34 -39.35,154.23 -26.23,43.92 -65.54,79.99 -118.01,108.27 68.95,24.76 119.93,61.89 152.92,111.38 33,49.5 49.51,113.74 49.51,192.68 0,77.2 -16.06,144.23 -48.18,201.09 -32.12,56.87 -78.81,100.62 -140.08,131.27 -41.26,21.21 -88.4,36.25 -141.44,45.08 -53.03,8.83 -140.84,13.26 -263.4,13.26l-576.31 0z"/>
    <path fill="#FFCC00" fill-rule="nonzero" d="M694.75 1305.53c0,-3.53 -0.29,-8.7 -0.88,-15.47 -0.59,-6.77 -0.9,-11.94 -0.9,-15.47 0,-90.15 27.71,-175.45 83.09,-255.89 55.38,-80.44 144.96,-163.97 268.71,-250.59 32.41,-23.57 77.48,-53.63 135.24,-90.15 137.9,-88.39 206.83,-165.29 206.83,-230.71 0,-50.08 -13.7,-89.42 -41.1,-118 -27.4,-28.58 -64.97,-42.87 -112.7,-42.87 -59.51,0 -104.01,19 -133.45,57.01 -29.47,38 -44.2,95.61 -44.2,172.81l0 22.09 -336.77 0c0,-4.71 -0.3,-11.04 -0.89,-19 -0.6,-7.96 -0.88,-13.71 -0.88,-17.24 0,-156.74 47.58,-279.61 142.74,-368.6 95.18,-88.97 226.14,-133.46 392.9,-133.46 152.63,0 274.61,37.57 365.94,112.69 91.34,75.14 137.01,174.58 137.01,298.31 0,81.34 -17.68,149.09 -53.04,203.31 -35.36,54.22 -107.54,114.32 -216.55,180.32 -12.98,8.25 -33.89,20.92 -62.77,38 -104.29,61.28 -184.14,115.21 -239.53,161.76l568.36 0 0 311.13 -1057.16 0z"/>
    <path fill="#669999" fill-rule="nonzero" d="M1761.63 1001.47l193.57 0c64.24,0 109.91,-9.43 137.01,-28.29 27.09,-18.85 40.66,-49.79 40.66,-92.81 0,-43.02 -13.85,-73.66 -41.54,-91.93 -27.69,-18.27 -74.26,-27.4 -139.66,-27.4l-190.04 0 0 240.43zm0 -478.21l172.37 0c57.75,0 98.4,-8.55 121.96,-25.63 23.57,-17.08 35.37,-45.96 35.37,-86.62 0,-43.02 -12.67,-72.47 -38.01,-88.38 -25.35,-15.91 -83.98,-23.87 -175.9,-23.87l-115.79 0 0 224.5zm-405.71 782.27l0 -1302 533.89 0c114.9,0 198.57,2.94 251.02,8.83 52.45,5.88 97.53,15.62 135.25,29.17 65.99,24.75 116.52,63.34 151.58,115.79 35.07,52.45 52.6,116.08 52.6,190.93 0,58.92 -13.12,110.34 -39.34,154.23 -26.23,43.92 -65.55,79.99 -118.01,108.27 68.94,24.76 119.92,61.89 152.92,111.38 33,49.5 49.51,113.74 49.51,192.68 0,77.2 -16.06,144.23 -48.18,201.09 -32.12,56.87 -78.81,100.62 -140.09,131.27 -41.25,21.21 -88.39,36.25 -141.43,45.08 -53.04,8.83 -140.84,13.26 -263.4,13.26l-576.31 0z"/>
    <polygon fill="#FFCC00" fill-rule="nonzero" points="1761.82,994.39 1323.25,994.39 1319.83,1305.53 1761.82,1305.53 "/>
   </g>
   <g>
    <path fill="#666666" fill-rule="nonzero" d="M102.19 1576.87l32.83 0c21.31,0 35.58,-2.38 42.78,-7.13 7.2,-4.76 10.79,-13.17 10.79,-25.28 0,-12.24 -3.45,-20.74 -10.35,-25.49 -6.92,-4.76 -21.32,-7.12 -43.22,-7.12l-32.83 0 0 65.02zm-102.18 175.18l0 -318.18 130.91 0c28.95,0 51.88,1.69 68.79,5.07 16.94,3.4 31.08,8.83 42.46,16.31 14.69,9.94 25.64,22.26 32.82,36.95 7.21,14.68 10.83,32.11 10.83,52.26 0,35.59 -10.53,62.83 -31.55,81.77 -21.03,18.94 -51.33,28.41 -90.93,28.41l-61.14 0 0 97.41 -102.18 0z"/>
    <path fill="#666666" fill-rule="nonzero" d="M402.23 1643.18l64.15 0 -31.75 -110.16 -32.4 110.16zm-131.34 108.87l111.88 -318.18 103.47 0 111.9 318.18 -101.3 0 -11.88 -42.12 -101.32 0 -12.31 42.12 -100.45 0z"/>
    <path fill="#666666" fill-rule="nonzero" d="M728.2 1570.61l46.45 0c16.26,0 27.5,-2.19 33.69,-6.59 6.19,-4.39 9.29,-12.06 9.29,-23 0,-11.24 -3.1,-19.05 -9.29,-23.44 -6.19,-4.38 -18.29,-6.58 -36.29,-6.58l-43.86 0 0 59.62zm-100.88 181.45l0 -318.18 152.29 0c47.67,0 81.7,7.12 102.07,21.38 20.37,14.25 30.57,37.66 30.57,70.21 0,19.42 -4.19,35.57 -12.53,48.38 -8.36,12.81 -21.25,22.96 -38.67,30.45 17.72,3.74 30.6,11.12 38.67,22.15 8.06,11.01 12.38,27.18 12.96,48.48l1.73 44.29c0,0.29 0.06,0.64 0.21,1.07 0.45,12.69 3.47,19.31 9.07,19.88l0 11.88 -103.04 0c-1.86,-7.63 -3.27,-14.29 -4.22,-19.97 -0.93,-5.69 -1.39,-10.12 -1.39,-13.28l0 -31.75c0,-16.43 -3.25,-27.98 -9.73,-34.68 -6.47,-6.69 -17.71,-10.05 -33.68,-10.05l-43.43 0 0 109.74 -100.88 0z"/>
    <polygon fill="#666666" fill-rule="nonzero" points="1031.91,1752.06 1031.91,1517.69 940.32,1517.69 940.32,1433.87 1225.68,1433.87 1225.68,1517.69 1134.09,1517.69 1134.09,1752.06 "/>
    <path fill="#666666" fill-rule="nonzero" d="M1258.71 1752.06l0 -318.19 97.01 0 89.21 147.98c2.73,4.17 5.64,10.06 8.76,17.7 3.08,7.65 6.36,16.85 9.81,27.66 -0.85,-5.62 -1.51,-11.81 -1.93,-18.58 -0.45,-6.76 -0.66,-14.99 -0.66,-24.63l0 -150.13 97.43 0 0 318.19 -97.43 0 -89.21 -146.89c-2.73,-4.32 -5.72,-10.43 -8.96,-18.36 -3.23,-7.91 -6.52,-16.99 -9.83,-27.21 1.01,5.62 1.74,11.49 2.18,17.61 0.43,6.11 0.64,14.71 0.64,25.8l0 149.06 -97.01 0z"/>
    <polygon fill="#666666" fill-rule="nonzero" points="1618.81,1752.06 1618.81,1433.87 1873.06,1433.87 1873.06,1510.13 1720.98,1510.13 1720.98,1552.46 1849.56,1552.46 1849.56,1625.47 1720.98,1625.47 1720.98,1674.74 1879.33,1674.74 1879.33,1752.06 "/>
    <path fill="#666666" fill-rule="nonzero" d="M2027.94 1570.61l46.45 0c16.26,0 27.49,-2.19 33.69,-6.59 6.18,-4.39 9.29,-12.06 9.29,-23 0,-11.24 -3.11,-19.05 -9.29,-23.44 -6.2,-4.38 -18.29,-6.58 -36.29,-6.58l-43.86 0 0 59.62zm-100.88 181.45l0 -318.18 152.29 0c47.67,0 81.7,7.12 102.07,21.38 20.37,14.25 30.57,37.66 30.57,70.21 0,19.42 -4.19,35.57 -12.53,48.38 -8.36,12.81 -21.25,22.96 -38.67,30.45 17.72,3.74 30.6,11.12 38.67,22.15 8.06,11.01 12.38,27.18 12.96,48.48l1.73 44.29c0,0.29 0.06,0.64 0.21,1.07 0.45,12.69 3.46,19.31 9.07,19.88l0 11.88 -103.04 0c-1.86,-7.63 -3.27,-14.29 -4.22,-19.97 -0.93,-5.69 -1.39,-10.12 -1.39,-13.28l0 -31.75c0,-16.43 -3.25,-27.98 -9.73,-34.68 -6.47,-6.69 -17.71,-10.05 -33.68,-10.05l-43.43 0 0 109.74 -100.88 0z"/>
    <path fill="#666666" fill-rule="nonzero" d="M2249.79 1652.92l99.37 0c2.72,11.52 7.7,19.79 14.9,24.83 7.21,5.05 17.94,7.57 32.19,7.57 11.97,0 21.36,-2.05 28.2,-6.14 6.84,-4.13 10.26,-9.77 10.26,-16.98 0,-11.52 -14.33,-20.88 -42.98,-28.09 -5.77,-1.42 -10.17,-2.5 -13.18,-3.22 -23.48,-6.05 -42.17,-11.56 -56.06,-16.52 -13.9,-4.98 -24.01,-9.62 -30.34,-13.93 -12.24,-8.8 -21.43,-19.31 -27.55,-31.55 -6.13,-12.24 -9.17,-26.21 -9.17,-41.91 0,-31.53 11.88,-56.3 35.64,-74.29 23.76,-18.01 56.44,-27 98.06,-27 40.89,0 73.09,8.6 96.57,25.81 23.47,17.21 36.72,41.88 39.74,73.98l-96.98 0c-1.6,-9.36 -5.73,-16.34 -12.43,-20.95 -6.69,-4.61 -16.23,-6.91 -28.62,-6.91 -10.95,0 -19.08,1.8 -24.41,5.39 -5.32,3.6 -7.99,9.08 -7.99,16.43 0,10.51 13.96,19.29 41.91,26.35 2.44,0.72 4.33,1.22 5.6,1.5 4.05,1.03 10.16,2.53 18.37,4.55 37.03,9.36 61.2,17.86 72.57,25.49 14.11,9.36 24.41,20.01 30.9,31.97 6.47,11.96 9.71,26.09 9.71,42.35 0,35.12 -12.28,62.12 -36.83,81 -24.55,18.87 -59.73,28.3 -105.51,28.3 -42.21,0 -75.65,-9.43 -100.36,-28.3 -24.69,-18.88 -38.56,-45.43 -41.58,-79.7z"/>
    <path fill="#666666" fill-rule="nonzero" d="M99.16 2042.72l47.32 0c15.69,0 26.84,-2.3 33.48,-6.9 6.63,-4.62 9.94,-12.18 9.94,-22.69 0,-10.52 -3.39,-18 -10.15,-22.47 -6.77,-4.46 -18.15,-6.7 -34.13,-6.7l-46.45 0 0 58.75zm0 -116.85l42.12 0c14.11,0 24.05,-2.09 29.82,-6.26 5.75,-4.18 8.65,-11.24 8.65,-21.18 0,-10.51 -3.1,-17.7 -9.28,-21.6 -6.2,-3.9 -20.53,-5.83 -43,-5.83l-28.3 0 0 54.87zm-99.16 191.16l0 -318.19 130.48 0c28.09,0 48.53,0.73 61.35,2.16 12.82,1.44 23.83,3.82 33.06,7.14 16.12,6.04 28.47,15.47 37.06,28.29 8.57,12.83 12.84,28.38 12.84,46.66 0,14.39 -3.21,26.97 -9.61,37.69 -6.41,10.74 -16.02,19.56 -28.83,26.47 16.84,6.03 29.29,15.12 37.35,27.22 8.08,12.09 12.11,27.79 12.11,47.08 0,18.87 -3.92,35.25 -11.78,49.16 -7.85,13.9 -19.26,24.59 -34.24,32.08 -10.07,5.17 -21.59,8.85 -34.55,11.01 -12.95,2.15 -34.42,3.23 -64.37,3.23l-140.86 0z"/>
    <path fill="#666666" fill-rule="nonzero" d="M436.13 1935.59l46.46 0c16.26,0 27.49,-2.19 33.69,-6.58 6.18,-4.4 9.28,-12.07 9.28,-23.01 0,-11.23 -3.1,-19.05 -9.28,-23.44 -6.2,-4.38 -18.29,-6.58 -36.29,-6.58l-43.87 0 0 59.62zm-100.87 181.45l0 -318.19 152.29 0c47.67,0 81.7,7.13 102.07,21.38 20.37,14.26 30.57,37.67 30.57,70.22 0,19.42 -4.19,35.57 -12.53,48.38 -8.36,12.81 -21.25,22.96 -38.67,30.45 17.72,3.74 30.6,11.13 38.67,22.15 8.06,11.02 12.38,27.18 12.96,48.48l1.73 44.29c0,0.29 0.06,0.64 0.21,1.08 0.45,12.68 3.46,19.3 9.07,19.87l0 11.88 -103.04 0c-1.86,-7.63 -3.27,-14.29 -4.22,-19.98 -0.93,-5.68 -1.39,-10.11 -1.39,-13.27l0 -31.75c0,-16.42 -3.25,-27.98 -9.73,-34.67 -6.47,-6.7 -17.71,-10.05 -33.68,-10.05l-43.44 0 0 109.73 -100.87 0z"/>
    <polygon fill="#666666" fill-rule="nonzero" points="657.99,2117.04 657.99,2040.56 805.31,1881.15 662.73,1881.15 662.73,1798.84 930.82,1798.84 930.82,1874.67 781.77,2035.17 938.81,2035.17 938.81,2117.04 "/>
    <polygon fill="#666666" fill-rule="nonzero" points="984.82,2117.04 984.82,1798.84 1086.99,1798.84 1086.99,2032.57 1225.88,2032.57 1225.88,2117.04 "/>
   </g>
  </g>
  <path fill="#4D4D4D" fill-rule="nonzero" d="M3121.99 520.81l-100.37 -267.36 -1.71 0c0.85,8.83 1.57,20.72 2.13,35.67 0.57,14.95 0.85,30.53 0.85,46.77l0 184.93 -35.44 0 0 -304.95 56.8 0 93.96 249.85 1.71 0 95.67 -249.85 56.37 0 0 304.95 -38.01 0 0 -187.49c0,-14.81 0.36,-29.48 1.08,-44 0.71,-14.52 1.35,-26.34 1.91,-35.45l-1.71 0 -101.65 266.93 -31.6 0zm334.41 -232.76c27.9,0 48.54,6.12 61.92,18.36 13.38,12.25 20.07,31.75 20.07,58.51l0 155.89 -27.33 0 -7.26 -32.46 -1.71 0c-9.97,12.52 -20.43,21.78 -31.39,27.76 -10.96,5.97 -26.13,8.96 -45.49,8.96 -20.78,0 -38,-5.47 -51.67,-16.44 -13.67,-10.96 -20.5,-28.11 -20.5,-51.46 0,-22.78 8.97,-40.36 26.9,-52.74 17.94,-12.38 45.56,-19.15 82.86,-20.29l38.87 -1.28 0 -13.67c0,-19.08 -4.13,-32.31 -12.38,-39.72 -8.26,-7.4 -19.93,-11.1 -35.02,-11.1 -11.96,0 -23.34,1.77 -34.17,5.33 -10.82,3.56 -20.92,7.62 -30.31,12.18l-11.54 -28.19c9.97,-5.41 21.78,-10.04 35.45,-13.88 13.67,-3.85 27.9,-5.76 42.71,-5.76zm11.11 122.14c-28.48,1.14 -48.19,5.69 -59.15,13.67 -10.97,7.97 -16.44,19.22 -16.44,33.73 0,12.81 3.91,22.21 11.75,28.19 7.83,5.98 17.86,8.96 30.1,8.96 19.37,0 35.45,-5.33 48.26,-16.01 12.81,-10.68 19.22,-27.11 19.22,-49.33l0 -20.49 -33.73 1.28zm248.57 -122.57c4.27,0 8.89,0.21 13.88,0.64 4.99,0.43 9.32,1.07 13.02,1.92l-4.7 34.59c-3.7,-0.86 -7.76,-1.57 -12.17,-2.13 -4.42,-0.57 -8.62,-0.86 -12.6,-0.86 -11.68,0 -22.64,3.2 -32.89,9.61 -10.25,6.4 -18.44,15.38 -24.56,26.9 -6.11,11.54 -9.17,24.99 -9.17,40.37l0 122.14 -37.58 0 0 -228.92 30.74 0 4.28 41.85 1.71 0c7.4,-12.52 16.94,-23.34 28.62,-32.46 11.67,-9.1 25.48,-13.66 41.42,-13.66zm106.78 78.16c0,4.56 -0.22,10.53 -0.64,17.94 -0.43,7.4 -0.79,13.8 -1.08,19.22l1.72 0c1.71,-2.28 4.27,-5.55 7.69,-9.82 3.41,-4.27 6.9,-8.62 10.46,-13.02 3.56,-4.42 6.62,-8.05 9.18,-10.9l73.03 -77.3 43.99 0 -92.68 97.8 99.09 131.12 -45.27 0 -79.44 -106.78 -26.05 22.64 0 84.14 -37.15 0 0 -324.59 37.15 0 0 169.56zm279.31 -78.16c19.65,0 36.52,4.27 50.62,12.81 14.09,8.54 24.91,20.57 32.46,36.09 7.54,15.52 11.32,33.66 11.32,54.46l0 22.64 -156.75 0c0.57,25.91 7.19,45.62 19.86,59.15 12.66,13.52 30.39,20.28 53.17,20.28 14.52,0 27.4,-1.36 38.65,-4.06 11.25,-2.7 22.86,-6.62 34.81,-11.75l0 32.89c-11.68,5.13 -23.2,8.9 -34.59,11.32 -11.39,2.42 -24.92,3.63 -40.58,3.63 -21.64,0 -40.78,-4.41 -57.45,-13.23 -16.65,-8.83 -29.61,-22 -38.86,-39.51 -9.25,-17.51 -13.88,-38.94 -13.88,-64.28 0,-25.06 4.2,-46.56 12.59,-64.49 8.4,-17.94 20.21,-31.75 35.45,-41.43 15.24,-9.68 32.96,-14.52 53.17,-14.52zm-0.42 30.75c-17.94,0 -32.11,5.76 -42.5,17.29 -10.39,11.54 -16.58,27.55 -18.58,48.05l116.59 0c-0.28,-19.37 -4.84,-35.1 -13.66,-47.2 -8.82,-12.11 -22.78,-18.15 -41.85,-18.15zm229.34 175.96c5.69,0 11.54,-0.5 17.51,-1.5 5.98,-1 10.82,-2.06 14.52,-3.21l0 28.62c-3.98,1.99 -9.67,3.63 -17.08,4.92 -7.4,1.28 -14.52,1.91 -21.35,1.91 -11.97,0 -22.99,-2.06 -33.11,-6.19 -10.1,-4.13 -18.29,-11.32 -24.55,-21.57 -6.27,-10.25 -9.4,-24.63 -9.4,-43.13l0 -133.25 -32.46 0 0 -17.94 32.89 -14.95 14.95 -48.69 22.21 0 0 52.53 66.2 0 0 29.05 -66.2 0 0 132.39c0,13.95 3.35,24.27 10.04,30.96 6.69,6.69 15.31,10.04 25.84,10.04zm96.96 -288.29c5.69,0 10.75,1.92 15.16,5.76 4.42,3.85 6.62,9.9 6.62,18.16 0,7.97 -2.2,13.95 -6.62,17.94 -4.41,3.98 -9.46,5.97 -15.16,5.97 -6.26,0 -11.54,-1.99 -15.81,-5.97 -4.27,-3.99 -6.4,-9.97 -6.4,-17.94 0,-8.26 2.13,-14.31 6.4,-18.16 4.27,-3.84 9.54,-5.76 15.81,-5.76zm18.37 85.85l0 228.92 -37.58 0 0 -228.92 37.58 0zm182.79 -4.27c27.33,0 47.97,6.62 61.92,19.85 13.95,13.24 20.93,34.67 20.93,64.28l0 149.06 -37.15 0 0 -146.49c0,-36.73 -17.09,-55.09 -51.25,-55.09 -25.34,0 -42.85,7.12 -52.53,21.36 -9.68,14.23 -14.52,34.73 -14.52,61.5l0 118.73 -37.58 0 0 -228.92 30.31 0 5.55 31.18 2.13 0c7.41,-11.97 17.66,-20.86 30.75,-26.69 13.1,-5.84 26.9,-8.76 41.43,-8.76zm234.89 0c15.1,0 28.69,2.84 40.79,8.54 12.1,5.69 22.42,14.38 30.96,26.06l2.13 0 5.13 -30.32 29.9 0 0 232.76c0,32.75 -8.33,57.38 -24.99,73.89 -16.65,16.51 -42.49,24.77 -77.51,24.77 -33.6,0 -61.08,-4.84 -82.43,-14.52l0 -34.59c22.49,11.96 50.68,17.94 84.56,17.94 19.64,0 35.09,-5.77 46.34,-17.3 11.25,-11.53 16.87,-27.26 16.87,-47.2l0 -8.96c0,-3.42 0.14,-8.33 0.43,-14.74 0.28,-6.4 0.57,-10.89 0.85,-13.45l-1.71 0c-15.38,23.06 -39.01,34.59 -70.9,34.59 -29.61,0 -52.74,-10.39 -69.4,-31.17 -16.65,-20.79 -24.98,-49.83 -24.98,-87.13 0,-36.44 8.33,-65.41 24.98,-86.91 16.66,-21.49 39.65,-32.24 68.97,-32.24zm5.13 31.6c-19.08,0 -33.88,7.62 -44.41,22.86 -10.54,15.23 -15.81,36.94 -15.81,65.13 0,28.19 5.2,49.76 15.59,64.71 10.4,14.95 25.56,22.43 45.49,22.43 23.06,0 39.86,-6.19 50.4,-18.59 10.53,-12.38 15.81,-32.39 15.81,-60l0 -8.97c0,-31.31 -5.41,-53.74 -16.23,-67.26 -10.82,-13.53 -27.76,-20.29 -50.83,-20.29zm-1711.35 850.34l-170.41 0 0 -304.95 170.41 0 0 33.74 -131.98 0 0 95.24 124.29 0 0 33.32 -124.29 0 0 108.9 131.98 0 0 33.74zm112.31 0l-86.69 -228.92 40.15 0 48.69 134.96c2.27,6.27 4.7,13.24 7.26,20.93 2.56,7.69 4.84,15.02 6.83,22 1.99,6.97 3.42,12.88 4.27,17.72l1.72 0c1.14,-4.84 2.77,-10.82 4.91,-17.94 2.13,-7.11 4.56,-14.52 7.26,-22.21 2.71,-7.69 5.06,-14.52 7.05,-20.5l48.69 -134.96 40.15 0 -87.13 228.92 -43.14 0zm254.98 -233.19c19.65,0 36.52,4.27 50.62,12.81 14.09,8.54 24.91,20.57 32.46,36.09 7.54,15.52 11.32,33.66 11.32,54.46l0 22.64 -156.75 0c0.57,25.91 7.19,45.62 19.86,59.15 12.66,13.52 30.39,20.28 53.17,20.28 14.52,0 27.4,-1.36 38.65,-4.06 11.25,-2.7 22.86,-6.62 34.81,-11.75l0 32.89c-11.68,5.13 -23.2,8.9 -34.59,11.32 -11.39,2.42 -24.92,3.63 -40.58,3.63 -21.64,0 -40.78,-4.41 -57.45,-13.23 -16.65,-8.83 -29.61,-22 -38.86,-39.51 -9.25,-17.51 -13.88,-38.94 -13.88,-64.28 0,-25.06 4.2,-46.56 12.59,-64.49 8.4,-17.94 20.21,-31.75 35.45,-41.43 15.24,-9.68 32.96,-14.52 53.17,-14.52zm-0.42 30.75c-17.94,0 -32.11,5.76 -42.5,17.29 -10.39,11.54 -16.58,27.55 -18.58,48.05l116.59 0c-0.28,-19.37 -4.84,-35.1 -13.66,-47.2 -8.82,-12.11 -22.78,-18.15 -41.85,-18.15zm263.08 -30.75c27.33,0 47.97,6.62 61.92,19.85 13.95,13.24 20.93,34.67 20.93,64.28l0 149.06 -37.15 0 0 -146.49c0,-36.73 -17.09,-55.09 -51.25,-55.09 -25.34,0 -42.85,7.12 -52.53,21.36 -9.68,14.23 -14.52,34.73 -14.52,61.5l0 118.73 -37.58 0 0 -228.92 30.31 0 5.55 31.18 2.13 0c7.41,-11.97 17.66,-20.86 30.75,-26.69 13.1,-5.84 26.9,-8.76 41.43,-8.76zm230.2 206.71c5.69,0 11.54,-0.5 17.51,-1.5 5.98,-1 10.82,-2.06 14.52,-3.21l0 28.62c-3.98,1.99 -9.67,3.63 -17.08,4.92 -7.4,1.28 -14.52,1.91 -21.35,1.91 -11.97,0 -22.99,-2.06 -33.11,-6.19 -10.1,-4.13 -18.29,-11.32 -24.55,-21.57 -6.27,-10.25 -9.4,-24.63 -9.4,-43.13l0 -133.25 -32.46 0 0 -17.94 32.89 -14.95 14.95 -48.69 22.21 0 0 52.53 66.2 0 0 29.05 -66.2 0 0 132.39c0,13.95 3.35,24.27 10.04,30.96 6.69,6.69 15.31,10.04 25.84,10.04zm276.76 -88.41c0,37.86 -9.6,67.19 -28.83,87.98 -19.22,20.78 -45.2,31.17 -77.94,31.17 -20.21,0 -38.22,-4.63 -54.03,-13.88 -15.81,-9.25 -28.26,-22.78 -37.37,-40.58 -9.1,-17.79 -13.66,-39.36 -13.66,-64.7 0,-37.87 9.53,-67.06 28.61,-87.55 19.08,-20.5 44.99,-30.75 77.73,-30.75 20.79,0 39.08,4.63 54.88,13.88 15.81,9.25 28.19,22.64 37.15,40.15 8.97,17.51 13.45,38.93 13.45,64.28zm-172.97 0c0,27.04 5.34,48.47 16.01,64.28 10.68,15.8 27.69,23.7 51.04,23.7 23.06,0 40.01,-7.91 50.83,-23.7 10.82,-15.81 16.23,-37.23 16.23,-64.28 0,-27.05 -5.41,-48.26 -16.23,-63.64 -10.82,-15.38 -27.9,-23.06 -51.24,-23.06 -23.35,0 -40.3,7.69 -50.83,23.06 -10.54,15.38 -15.81,36.59 -15.81,63.64zm381.39 51.67c0,22.21 -8.26,39.01 -24.77,50.4 -16.51,11.39 -38.72,17.08 -66.62,17.08 -15.94,0 -29.69,-1.28 -41.21,-3.84 -11.54,-2.56 -21.72,-6.12 -30.54,-10.68l0 -34.16c9.11,4.56 20.14,8.76 33.1,12.59 12.96,3.85 26.13,5.76 39.51,5.76 19.08,0 32.89,-3.06 41.43,-9.17 8.54,-6.12 12.81,-14.31 12.81,-24.56 0,-5.69 -1.57,-10.82 -4.7,-15.38 -3.14,-4.56 -8.76,-9.11 -16.87,-13.67 -8.12,-4.55 -19.72,-9.67 -34.81,-15.38 -14.81,-5.69 -27.47,-11.39 -38.01,-17.08 -10.53,-5.69 -18.65,-12.52 -24.34,-20.5 -5.69,-7.97 -8.55,-18.22 -8.55,-30.74 0,-19.37 7.91,-34.31 23.7,-44.84 15.81,-10.54 36.52,-15.81 62.14,-15.81 13.95,0 26.98,1.35 39.08,4.06 12.11,2.7 23.42,6.47 33.95,11.32l-12.81 29.9c-9.68,-3.99 -19.78,-7.41 -30.32,-10.25 -10.53,-2.85 -21.35,-4.27 -32.46,-4.27 -15.38,0 -27.12,2.48 -35.23,7.47 -8.12,4.99 -12.18,11.75 -12.18,20.29 0,6.26 1.85,11.6 5.55,16.01 3.7,4.41 9.89,8.69 18.58,12.81 8.69,4.13 20.28,9.03 34.81,14.73 14.52,5.41 26.9,10.96 37.15,16.66 10.25,5.69 18.08,12.59 23.48,20.71 5.41,8.12 8.12,18.29 8.12,30.53zm-1419.22 711.96l-38.44 0 0 -271.2 -95.24 0 0 -33.74 228.49 0 0 33.74 -94.81 0 0 271.2zm194.32 -233.19c19.65,0 36.52,4.27 50.62,12.81 14.09,8.54 24.91,20.57 32.46,36.09 7.54,15.52 11.32,33.66 11.32,54.46l0 22.64 -156.75 0c0.57,25.91 7.19,45.62 19.86,59.15 12.66,13.52 30.39,20.28 53.17,20.28 14.52,0 27.4,-1.36 38.65,-4.06 11.25,-2.7 22.86,-6.62 34.81,-11.75l0 32.89c-11.68,5.13 -23.2,8.9 -34.59,11.32 -11.39,2.42 -24.92,3.63 -40.58,3.63 -21.64,0 -40.78,-4.41 -57.45,-13.23 -16.65,-8.83 -29.61,-22 -38.86,-39.51 -9.25,-17.51 -13.88,-38.94 -13.88,-64.28 0,-25.06 4.2,-46.56 12.59,-64.49 8.4,-17.94 20.21,-31.75 35.45,-41.43 15.24,-9.68 32.96,-14.52 53.17,-14.52zm-0.42 30.75c-17.94,0 -32.11,5.76 -42.5,17.29 -10.39,11.54 -16.58,27.55 -18.58,48.05l116.59 0c-0.28,-19.37 -4.84,-35.1 -13.66,-47.2 -8.82,-12.11 -22.78,-18.15 -41.85,-18.15zm244.72 206.7c-20.21,0 -38.22,-4.13 -54.03,-12.38 -15.81,-8.26 -28.19,-21.07 -37.15,-38.43 -8.97,-17.37 -13.45,-39.58 -13.45,-66.63 0,-28.19 4.7,-51.11 14.09,-68.77 9.39,-17.65 22.14,-30.6 38.22,-38.86 16.09,-8.26 34.38,-12.38 54.88,-12.38 11.68,0 22.93,1.21 33.74,3.63 10.82,2.42 19.64,5.33 26.47,8.76l-11.53 31.17c-6.84,-2.56 -14.81,-4.98 -23.92,-7.26 -9.11,-2.27 -17.65,-3.41 -25.63,-3.41 -44.98,0 -67.48,28.9 -67.48,86.69 0,27.62 5.48,48.76 16.44,63.42 10.96,14.67 27.26,22 48.9,22 12.53,0 23.56,-1.28 33.1,-3.84 9.54,-2.56 18.3,-5.69 26.28,-9.4l0 33.32c-7.69,3.99 -16.16,7.05 -25.42,9.18 -9.25,2.13 -20.43,3.2 -33.53,3.2zm223.37 -237.46c27.33,0 47.97,6.62 61.92,19.85 13.95,13.24 20.93,34.67 20.93,64.28l0 149.06 -37.15 0 0 -146.49c0,-36.73 -17.09,-55.09 -51.25,-55.09 -25.34,0 -42.85,7.12 -52.53,21.36 -9.68,14.23 -14.52,34.73 -14.52,61.5l0 118.73 -37.58 0 0 -228.92 30.31 0 5.55 31.18 2.13 0c7.41,-11.97 17.66,-20.86 30.75,-26.69 13.1,-5.84 26.9,-8.76 41.43,-8.76zm352.77 118.3c0,37.86 -9.6,67.19 -28.83,87.98 -19.22,20.78 -45.2,31.17 -77.94,31.17 -20.21,0 -38.22,-4.63 -54.03,-13.88 -15.81,-9.25 -28.26,-22.78 -37.37,-40.58 -9.1,-17.79 -13.66,-39.36 -13.66,-64.7 0,-37.87 9.53,-67.06 28.61,-87.55 19.08,-20.5 44.99,-30.75 77.73,-30.75 20.79,0 39.08,4.63 54.88,13.88 15.81,9.25 28.19,22.64 37.15,40.15 8.97,17.51 13.45,38.93 13.45,64.28zm-172.97 0c0,27.04 5.34,48.47 16.01,64.28 10.68,15.8 27.69,23.7 51.04,23.7 23.06,0 40.01,-7.91 50.83,-23.7 10.82,-15.81 16.23,-37.23 16.23,-64.28 0,-27.05 -5.41,-48.26 -16.23,-63.64 -10.82,-15.38 -27.9,-23.06 -51.24,-23.06 -23.35,0 -40.3,7.69 -50.83,23.06 -10.54,15.38 -15.81,36.59 -15.81,63.64zm269.93 114.88l-37.58 0 0 -324.59 37.58 0 0 324.59zm271.62 -114.88c0,37.86 -9.6,67.19 -28.83,87.98 -19.22,20.78 -45.2,31.17 -77.94,31.17 -20.21,0 -38.22,-4.63 -54.03,-13.88 -15.81,-9.25 -28.26,-22.78 -37.37,-40.58 -9.1,-17.79 -13.66,-39.36 -13.66,-64.7 0,-37.87 9.53,-67.06 28.61,-87.55 19.08,-20.5 44.99,-30.75 77.73,-30.75 20.79,0 39.08,4.63 54.88,13.88 15.81,9.25 28.19,22.64 37.15,40.15 8.97,17.51 13.45,38.93 13.45,64.28zm-172.97 0c0,27.04 5.34,48.47 16.01,64.28 10.68,15.8 27.69,23.7 51.04,23.7 23.06,0 40.01,-7.91 50.83,-23.7 10.82,-15.81 16.23,-37.23 16.23,-64.28 0,-27.05 -5.41,-48.26 -16.23,-63.64 -10.82,-15.38 -27.9,-23.06 -51.24,-23.06 -23.35,0 -40.3,7.69 -50.83,23.06 -10.54,15.38 -15.81,36.59 -15.81,63.64zm313.48 -118.3c15.1,0 28.69,2.84 40.79,8.54 12.1,5.69 22.42,14.38 30.96,26.06l2.13 0 5.13 -30.32 29.9 0 0 232.76c0,32.75 -8.33,57.38 -24.99,73.89 -16.65,16.51 -42.49,24.77 -77.51,24.77 -33.6,0 -61.08,-4.84 -82.43,-14.52l0 -34.59c22.49,11.96 50.68,17.94 84.56,17.94 19.64,0 35.09,-5.77 46.34,-17.3 11.25,-11.53 16.87,-27.26 16.87,-47.2l0 -8.96c0,-3.42 0.14,-8.33 0.43,-14.74 0.28,-6.4 0.57,-10.89 0.85,-13.45l-1.71 0c-15.38,23.06 -39.01,34.59 -70.9,34.59 -29.61,0 -52.74,-10.39 -69.4,-31.17 -16.65,-20.79 -24.98,-49.83 -24.98,-87.13 0,-36.44 8.33,-65.41 24.98,-86.91 16.66,-21.49 39.65,-32.24 68.97,-32.24zm5.13 31.6c-19.08,0 -33.88,7.62 -44.41,22.86 -10.54,15.23 -15.81,36.94 -15.81,65.13 0,28.19 5.2,49.76 15.59,64.71 10.4,14.95 25.56,22.43 45.49,22.43 23.06,0 39.86,-6.19 50.4,-18.59 10.53,-12.38 15.81,-32.39 15.81,-60l0 -8.97c0,-31.31 -5.41,-53.74 -16.23,-67.26 -10.82,-13.53 -27.76,-20.29 -50.83,-20.29zm195.61 -113.18c5.69,0 10.75,1.92 15.16,5.76 4.42,3.85 6.62,9.9 6.62,18.16 0,7.97 -2.2,13.95 -6.62,17.94 -4.41,3.98 -9.46,5.97 -15.16,5.97 -6.26,0 -11.54,-1.99 -15.81,-5.97 -4.27,-3.99 -6.4,-9.97 -6.4,-17.94 0,-8.26 2.13,-14.31 6.4,-18.16 4.27,-3.84 9.54,-5.76 15.81,-5.76zm18.37 85.85l0 228.92 -37.58 0 0 -228.92 37.58 0zm159.3 -3.84c27.9,0 48.54,6.12 61.92,18.36 13.38,12.25 20.07,31.75 20.07,58.51l0 155.89 -27.33 0 -7.26 -32.46 -1.71 0c-9.97,12.52 -20.43,21.78 -31.39,27.76 -10.96,5.97 -26.13,8.96 -45.49,8.96 -20.78,0 -38,-5.47 -51.67,-16.44 -13.67,-10.96 -20.5,-28.11 -20.5,-51.46 0,-22.78 8.97,-40.36 26.9,-52.74 17.94,-12.38 45.56,-19.15 82.86,-20.29l38.87 -1.28 0 -13.67c0,-19.08 -4.13,-32.31 -12.38,-39.72 -8.26,-7.4 -19.93,-11.1 -35.02,-11.1 -11.96,0 -23.34,1.77 -34.17,5.33 -10.82,3.56 -20.92,7.62 -30.31,12.18l-11.54 -28.19c9.97,-5.41 21.78,-10.04 35.45,-13.88 13.67,-3.85 27.9,-5.76 42.71,-5.76zm11.11 122.14c-28.48,1.14 -48.19,5.69 -59.15,13.67 -10.97,7.97 -16.44,19.22 -16.44,33.73 0,12.81 3.91,22.21 11.75,28.19 7.83,5.98 17.86,8.96 30.1,8.96 19.37,0 35.45,-5.33 48.26,-16.01 12.81,-10.68 19.22,-27.11 19.22,-49.33l0 -20.49 -33.73 1.28z"/>
  <polygon fill="#4D4D4D" fill-rule="nonzero" points="2859.14,94.67 2615.48,2023.33 2607.96,2022.37 2851.62,93.71 "/>
 </g>
</svg>
