<?xml version="1.0" encoding="UTF-8"?>
<!DOCTYPE svg PUBLIC "-//W3C//DTD SVG 1.1//EN" "http://www.w3.org/Graphics/SVG/1.1/DTD/svg11.dtd">
<!-- Creator: CorelDRAW 2020 (64 Bit) -->
<svg xmlns="http://www.w3.org/2000/svg" xml:space="preserve" width="46.4605mm" height="18.8205mm" version="1.1" shape-rendering="geometricPrecision" text-rendering="geometricPrecision" image-rendering="optimizeQuality" fill-rule="evenodd" clip-rule="evenodd"
viewBox="0 0 3729312 1510692"
 xmlns:xlink="http://www.w3.org/1999/xlink"
 xmlns:xodm="http://www.corel.com/coreldraw/odm/2003">
 <g id="Camada_x0020_1">
  <metadata id="CorelCorpID_0Corel-Layer"/>
  <path fill="#666666" fill-rule="nonzero" d="M2245141 371234l-52263 -170137 -1220 0c209,4046 514,10122 915,18229 409,8099 811,16752 1220,25975 401,9215 602,17571 602,25060l0 100873 -41017 0 0 -216925 62593 0 51340 165883 915 0 54382 -165883 62593 0 0 216925 -42839 0 0 -102695c0,-6887 153,-14785 458,-23695 305,-8910 602,-17370 907,-25365 305,-8003 562,-14031 763,-18084l-1220 0 -55899 169840 -42229 0zm263714 -168925c20661,0 36506,4912 47551,14737 11037,9817 16551,24353 16551,43594l0 110594 -31899 0 -8813 -22483 -1212 0c-7288,8910 -14834,15395 -22636,19441 -7794,4054 -18686,6076 -32661,6076 -14577,0 -26737,-4246 -36458,-12755 -9721,-8508 -14585,-21576 -14585,-39195 0,-17218 6277,-30229 18839,-39043 12562,-8813 31289,-13726 56204,-14737l27652 -907 0 -5161c0,-9929 -2280,-16872 -6839,-20822 -4559,-3941 -10788,-5916 -18678,-5916 -7497,0 -15203,1212 -23093,3644 -7898,2432 -15701,5370 -23398,8805l-13365 -31289c8709,-4455 18686,-8003 29924,-10636 11246,-2633 23543,-3949 36915,-3949zm1212 92967c-14585,409 -24658,2737 -30229,6991 -5571,4254 -8356,10226 -8356,17924 0,7088 1975,12305 5932,15644 3941,3347 9255,5017 15949,5017 9520,0 17563,-2833 24145,-8508 6590,-5667 9881,-13774 9881,-24305l0 -13670 -17322 907zm198400 -92967c3034,0 6277,201 9721,602 3444,409 6277,819 8500,1220l-4551 42839c-2231,-610 -4864,-1060 -7898,-1373 -3042,-297 -6686,-450 -10941,-450 -6277,0 -12554,1316 -18831,3949 -6285,2633 -11502,6991 -15652,13068 -4150,6076 -6229,14376 -6229,24907l0 84161 -45873 0 0 -165891 34941 0 6678 27957 2127 0c4864,-8508 11494,-15805 19899,-21881 8412,-6076 17771,-9110 28110,-9110zm90840 41314c0,6285 -257,12514 -763,18686 -506,6181 -1060,12410 -1670,18686l610 0c3034,-4246 6173,-8557 9415,-12915 3235,-4351 6678,-8452 10331,-12305l46483 -50433 51043 0 -65924 72009 69874 93882 -52255 0 -47704 -67145 -19441 15492 0 51653 -45271 0 0 -230908 45271 0 0 103297zm212366 -41314c23093,0 41266,6478 54534,19441 13268,12963 19899,31602 19899,55907l0 22178 -106637 0c602,12562 4503,22435 11695,29619 7192,7192 17571,10788 31136,10788 10339,0 19754,-1011 28263,-3042 8508,-2015 17218,-5057 26127,-9110l0 34331c-8107,4054 -16712,7040 -25830,8966 -9110,1918 -20252,2882 -33416,2882 -16407,0 -30935,-3090 -43602,-9263 -12658,-6181 -22628,-15540 -29924,-28102 -7288,-12562 -10933,-28359 -10933,-47399 0,-28961 7240,-50738 21721,-65322 14480,-14577 33472,-21873 56967,-21873zm1212 32509c-9110,0 -16559,2890 -22331,8661 -5771,5771 -9062,14328 -9873,25670l62593 0c-209,-9921 -2793,-18125 -7754,-24610 -4961,-6486 -12506,-9721 -22636,-9721zm180773 103297c5065,0 9929,-506 14585,-1517 4664,-1011 9319,-2231 13983,-3644l0 33721c-4864,2023 -10892,3797 -18084,5322 -7184,1517 -15042,2272 -23543,2272 -9929,0 -18783,-1621 -26585,-4856 -7802,-3243 -13975,-8862 -18534,-16864 -4559,-8003 -6831,-19088 -6831,-33271l0 -79899 -21576 0 0 -19144 24915 -15195 13060 -34933 28865 0 0 35238 46483 0 0 34034 -46483 0 0 79899c0,6277 1822,10989 5466,14135 3644,3138 8412,4704 14280,4704zm83856 -198086c6686,0 12506,1565 17466,4704 4969,3138 7449,9070 7449,17779 0,8300 -2480,14071 -7449,17314 -4961,3243 -10780,4856 -17466,4856 -6887,0 -12763,-1613 -17619,-4856 -4864,-3243 -7296,-9014 -7296,-17314 0,-8709 2432,-14641 7296,-17779 4856,-3138 10732,-4704 17619,-4704zm22788 65314l0 165891 -45873 0 0 -165891 45873 0zm139450 -3034c18229,0 32613,4808 43144,14432 10531,9616 15797,25068 15797,46331l0 108162 -45568 0 0 -96619c0,-23896 -8910,-35848 -26737,-35848 -13774,0 -23141,4712 -28110,14127 -4953,9415 -7441,22941 -7441,40560l0 77780 -45873 0 0 -165891 35246 0 6381 22186 1814 0c10941,-16816 28054,-25220 51348,-25220zm157992 0c11342,0 20910,2175 28712,6534 7802,4351 14224,10178 19289,17466l1517 0 3957 -20966 38890 0 0 167103c0,23495 -6791,41322 -20356,53475 -13573,12153 -34540,18229 -62890,18229 -12763,0 -24209,-763 -34339,-2280 -10130,-1517 -19642,-4102 -28560,-7746l0 -38890c9319,4054 18743,7192 28263,9415 9520,2231 20557,3347 33111,3347 12554,0 22186,-2938 28865,-8805 6686,-5876 10026,-13983 10026,-24313l0 -4551c0,-2432 153,-5675 458,-9729 305,-4054 658,-7593 1060,-10628l-1517 0c-4656,7288 -10788,13156 -18381,17619 -7593,4455 -17065,6678 -28407,6678 -19240,0 -34531,-7385 -45873,-22178 -11342,-14785 -17017,-35952 -17017,-63492 0,-27548 5771,-48819 17322,-63805 11543,-14986 26834,-22483 45873,-22483zm14890 36153c-10130,0 -17876,4359 -23246,13068 -5370,8709 -8051,21263 -8051,37670 0,32814 10740,49221 32204,49221 12153,0 20814,-3540 25975,-10636 5169,-7088 7746,-18125 7746,-33111l0 -6686c0,-16608 -2577,-29017 -7746,-37220 -5161,-8203 -14127,-12305 -26882,-12305zm-1334383 594275l-124874 0 0 -216925 124874 0 0 37678 -78992 0 0 47696 73526 0 0 37670 -73526 0 0 55907 78992 0 0 37975zm81119 0l-63195 -165883 48001 0 30992 97831c1011,3243 2280,7642 3805,13212 1517,5571 2480,10282 2882,14127l1220 0c401,-4046 1365,-8653 2882,-13822 1525,-5169 2890,-9568 4102,-13212l31602 -98136 48001 0 -63195 165883 -47093 0zm203256 -168925c23093,0 41266,6478 54534,19449 13268,12955 19899,31594 19899,55899l0 22186 -106637 0c610,12554 4503,22427 11695,29619 7192,7192 17571,10780 31136,10780 10339,0 19754,-1011 28263,-3034 8508,-2023 17218,-5065 26127,-9118l0 34339c-8099,4046 -16712,7032 -25822,8958 -9118,1926 -20260,2890 -33424,2890 -16407,0 -30935,-3090 -43602,-9271 -12658,-6181 -22628,-15540 -29916,-28102 -7296,-12554 -10941,-28351 -10941,-47399 0,-28961 7240,-50730 21721,-65314 14480,-14585 33472,-21881 56967,-21881zm1212 32509c-9110,0 -16551,2890 -22331,8661 -5771,5771 -9062,14328 -9873,25670l62593 0c-201,-9921 -2793,-18125 -7754,-24602 -4961,-6486 -12506,-9729 -22636,-9729zm204171 -32509c18229,0 32613,4808 43144,14432 10531,9624 15797,25068 15797,46331l0 108162 -45568 0 0 -96611c0,-23904 -8910,-35848 -26745,-35848 -13766,0 -23133,4704 -28102,14119 -4961,9424 -7441,22941 -7441,40560l0 77780 -45873 0 0 -165883 35246 0 6373 22178 1822 0c10941,-16816 28054,-25220 51348,-25220zm174094 135814c5065,0 9921,-514 14585,-1525 4656,-1011 9311,-2231 13975,-3644l0 33721c-4864,2031 -10884,3797 -18076,5322 -7192,1517 -15042,2280 -23543,2280 -9929,0 -18791,-1629 -26593,-4864 -7794,-3243 -13975,-8862 -18526,-16864 -4559,-8003 -6839,-19088 -6839,-33263l0 -79907 -21576 0 0 -19144 24915 -15187 13060 -34941 28865 0 0 35246 46491 0 0 34026 -46491 0 0 79907c0,6277 1830,10981 5474,14127 3644,3138 8404,4712 14280,4712zm213586 -50136c0,27548 -7240,48811 -21729,63797 -14480,14994 -34178,22491 -59094,22491 -15588,0 -29418,-3347 -41467,-10026 -12048,-6686 -21520,-16463 -28407,-29322 -6887,-12859 -10331,-28503 -10331,-46941 0,-27548 7240,-48715 21721,-63500 14488,-14785 34283,-22178 59399,-22178 15596,0 29370,3291 41322,9873 11952,6582 21367,16254 28254,29017 6887,12763 10331,28359 10331,46788zm-114238 0c0,16206 2633,28816 7898,37831 5266,9006 13975,13517 26135,13517 11743,0 20244,-4511 25509,-13517 5274,-9014 7906,-21624 7906,-37831 0,-16407 -2633,-28961 -7906,-37670 -5266,-8709 -13870,-13068 -25822,-13068 -11952,0 -20557,4359 -25822,13068 -5266,8709 -7898,21263 -7898,37670zm268578 34331c0,15805 -5627,28407 -16856,37831 -11246,9415 -28519,14127 -51813,14127 -11743,0 -22074,-763 -30984,-2280 -8910,-1525 -17523,-3997 -25822,-7441l0 -37983c8910,4254 18478,7593 28704,10026 10234,2432 19192,3644 26890,3644 9319,0 16054,-1316 20204,-3949 4158,-2633 6229,-6173 6229,-10636 0,-3034 -1060,-5771 -3187,-8195 -2127,-2432 -5876,-4969 -11238,-7601 -5370,-2633 -13020,-5868 -22941,-9721 -14785,-5868 -25975,-12401 -33576,-19602 -7593,-7184 -11390,-17667 -11390,-31441 0,-15395 6020,-27034 18076,-34941 12056,-7890 28006,-11848 47848,-11848 10539,0 20460,1116 29780,3339 9319,2231 18735,5370 28254,9424l-13365 31289c-7698,-3435 -15604,-6277 -23703,-8508 -8099,-2223 -15291,-3339 -21568,-3339 -14585,0 -21873,4054 -21873,12153 0,3042 1060,5627 3187,7754 2127,2119 5868,4407 11238,6831 5370,2432 12915,5571 22636,9424 9929,4046 18277,8195 25068,12458 6783,4246 11848,9464 15195,15644 3339,6181 5009,14023 5009,23543zm-1073093 510419l-46491 0 0 -178340 -58636 0 0 -38585 163764 0 0 38585 -58636 0 0 178340zm136111 -168925c23093,0 41266,6486 54534,19449 13268,12963 19899,31602 19899,55899l0 22186 -106637 0c602,12554 4503,22427 11695,29619 7192,7192 17571,10780 31136,10780 10339,0 19754,-1011 28263,-3034 8508,-2023 17218,-5057 26127,-9118l0 34339c-8107,4046 -16712,7040 -25830,8966 -9110,1918 -20252,2882 -33416,2882 -16407,0 -30935,-3090 -43602,-9271 -12658,-6173 -22636,-15540 -29924,-28102 -7288,-12554 -10933,-28351 -10933,-47390 0,-28969 7240,-50738 21721,-65322 14480,-14585 33472,-21881 56967,-21881zm1212 32509c-9110,0 -16559,2890 -22331,8661 -5771,5779 -9062,14328 -9873,25678l62593 0c-209,-9929 -2793,-18133 -7754,-24610 -4961,-6486 -12506,-9729 -22636,-9729zm181688 139458c-15998,0 -30028,-2986 -42085,-8966 -12048,-5972 -21416,-15235 -28102,-27797 -6678,-12562 -10026,-28656 -10026,-48306 0,-20260 3644,-36811 10941,-49678 7288,-12859 17218,-22274 29772,-28254 12562,-5972 26842,-8966 42839,-8966 9520,0 18638,1019 27347,3042 8709,2023 16399,4760 23093,8203l-13678 34636c-6076,-2633 -12201,-4808 -18381,-6534 -6173,-1718 -12297,-2577 -18381,-2577 -11751,0 -20806,4150 -27187,12450 -6389,8308 -9576,20765 -9576,37373 0,16407 3187,28560 9576,36458 6381,7898 15235,11848 26577,11848 8508,0 16712,-1164 24618,-3492 7890,-2328 15187,-5418 21873,-9271l0 37373c-6486,3845 -13622,6887 -21424,9118 -7794,2223 -17065,3339 -27797,3339zm179255 -171967c18229,0 32613,4816 43144,14440 10531,9616 15797,25060 15797,46331l0 108154 -45568 0 0 -96611c0,-23896 -8910,-35848 -26745,-35848 -13766,0 -23133,4704 -28102,14127 -4953,9415 -7441,22933 -7441,40552l0 77780 -45873 0 0 -165883 35246 0 6373 22178 1822 0c10941,-16808 28054,-25220 51348,-25220zm255824 85687c0,27540 -7240,48811 -21729,63797 -14480,14986 -34178,22483 -59094,22483 -15596,0 -29418,-3339 -41467,-10026 -12048,-6686 -21520,-16463 -28415,-29322 -6879,-12859 -10323,-28503 -10323,-46933 0,-27548 7240,-48715 21721,-63500 14488,-14785 34283,-22186 59399,-22186 15596,0 29370,3299 41322,9881 11952,6574 21367,16254 28246,29009 6895,12763 10339,28359 10339,46797zm-114238 0c0,16198 2633,28808 7898,37822 5266,9014 13975,13517 26127,13517 11751,0 20252,-4503 25517,-13517 5274,-9014 7906,-21624 7906,-37822 0,-16407 -2633,-28969 -7906,-37678 -5266,-8709 -13870,-13068 -25822,-13068 -11952,0 -20557,4359 -25822,13068 -5266,8709 -7898,21271 -7898,37678zm196874 83238l-45873 0 0 -230900 45873 0 0 230900zm197789 -83238c0,27540 -7240,48811 -21721,63797 -14488,14986 -34178,22483 -59102,22483 -15588,0 -29410,-3339 -41467,-10026 -12048,-6686 -21520,-16463 -28407,-29322 -6887,-12859 -10331,-28503 -10331,-46933 0,-27548 7240,-48715 21729,-63500 14480,-14785 34275,-22186 59391,-22186 15596,0 29370,3299 41322,9881 11952,6574 21367,16254 28254,29009 6887,12763 10331,28359 10331,46797zm-114238 0c0,16198 2633,28808 7898,37822 5266,9014 13975,13517 26135,13517 11743,0 20244,-4503 25517,-13517 5266,-9014 7898,-21624 7898,-37822 0,-16407 -2633,-28969 -7898,-37678 -5274,-8709 -13870,-13068 -25830,-13068 -11952,0 -20557,4359 -25822,13068 -5266,8709 -7898,21271 -7898,37678zm206298 -85687c11342,0 20910,2175 28712,6534 7794,4351 14224,10178 19289,17466l1517 0 3957 -20958 38882 0 0 167103c0,23495 -6783,41322 -20356,53475 -13565,12153 -34531,18229 -62882,18229 -12771,0 -24209,-763 -34339,-2280 -10130,-1525 -19650,-4102 -28560,-7746l0 -38890c9319,4054 18743,7192 28254,9415 9520,2223 20565,3347 33119,3347 12554,0 22178,-2938 28865,-8813 6678,-5876 10026,-13975 10026,-24305l0 -4559c0,-2432 153,-5667 458,-9729 297,-4046 658,-7585 1060,-10628l-1517 0c-4656,7288 -10788,13164 -18381,17619 -7593,4455 -17065,6686 -28407,6686 -19240,0 -34531,-7393 -45873,-22178 -11350,-14785 -17017,-35952 -17017,-63500 0,-27548 5771,-48811 17314,-63797 11551,-14994 26842,-22491 45881,-22491zm14890 36161c-10130,0 -17876,4351 -23246,13060 -5370,8709 -8051,21271 -8051,37678 0,32814 10732,49221 32204,49221 12153,0 20814,-3548 25975,-10636 5169,-7088 7746,-18133 7746,-33119l0 -6678c0,-16616 -2577,-29017 -7746,-37229 -5161,-8203 -14127,-12297 -26882,-12297zm145230 -98441c6678,0 12498,1573 17466,4712 4961,3138 7441,9062 7441,17771 0,8300 -2480,14071 -7441,17314 -4969,3251 -10788,4864 -17466,4864 -6895,0 -12771,-1613 -17627,-4864 -4864,-3243 -7296,-9014 -7296,-17314 0,-8709 2432,-14633 7296,-17771 4856,-3138 10732,-4712 17627,-4712zm22780 65322l0 165883 -45873 0 0 -165883 45873 0zm118797 -3042c20653,0 36506,4912 47543,14737 11045,9825 16559,24361 16559,43602l0 110586 -31899 0 -8813 -22483 -1212 0c-7296,8918 -14842,15404 -22636,19449 -7794,4046 -18686,6076 -32661,6076 -14585,0 -26737,-4254 -36458,-12763 -9721,-8500 -14585,-21568 -14585,-39195 0,-17218 6277,-30229 18839,-39043 12554,-8805 31289,-13718 56204,-14729l27644 -907 0 -5169c0,-9929 -2272,-16864 -6831,-20814 -4559,-3949 -10788,-5924 -18686,-5924 -7497,0 -15195,1212 -23085,3644 -7906,2432 -15701,5370 -23398,8813l-13373 -31297c8709,-4455 18686,-8003 29932,-10628 11238,-2633 23543,-3957 36915,-3957zm1212 92975c-14585,401 -24666,2729 -30229,6983 -5571,4254 -8356,10234 -8356,17932 0,7088 1975,12297 5924,15644 3949,3347 9263,5017 15949,5017 9520,0 17571,-2842 24153,-8508 6590,-5675 9873,-13774 9873,-24313l0 -13670 -17314 915z"/>
  <g id="_2006044797296">
   <g>
    <path fill="#669999" fill-rule="nonzero" d="M289512 714638l138134 0c45841,0 78422,-6726 97767,-20188 19337,-13453 29017,-35527 29017,-66221 0,-30703 -9889,-52568 -29651,-65603 -19762,-13036 -52985,-19553 -99653,-19553l-135614 0 0 171566zm0 -341237l123003 0c41210,0 70219,-6100 87035,-18285 16816,-12193 25228,-32798 25228,-61815 0,-30695 -9038,-51725 -27123,-63075 -18084,-11350 -59920,-17033 -125516,-17033l-82628 0 0 160208zm-289512 558219l0 -929091 380970 0c82002,0 141698,2103 179127,6309 37437,4198 69601,11141 96515,20806 47085,17667 83142,45199 108162,82628 25028,37429 37542,82837 37542,136248 0,42045 -9367,78735 -28078,110056 -18711,31337 -46772,57087 -84210,77266 49205,17667 85582,44164 109125,79474 23543,35326 35326,81167 35326,137508 0,55088 -11462,102920 -34379,143488 -22925,40584 -56236,71800 -99966,93673 -29442,15131 -63083,25862 -100922,32172 -37847,6301 -100504,9464 -187965,9464l-411247 0z"/>
    <path fill="#FFCC00" fill-rule="nonzero" d="M495770 931612c0,-2520 -209,-6205 -634,-11037 -417,-4832 -634,-8516 -634,-11037 0,-64335 19770,-125203 59286,-182603 39524,-57400 103450,-116999 191753,-178814 23125,-16824 55289,-38272 96499,-64335 98401,-63075 147598,-117946 147598,-164631 0,-35736 -9777,-63805 -29330,-84202 -19553,-20396 -46363,-30590 -80421,-30590 -42462,0 -74216,13557 -95239,40688 -21022,27115 -31537,68220 -31537,123308l0 15765 -240308 0c0,-3363 -217,-7874 -642,-13557 -417,-5675 -626,-9785 -626,-12305 0,-111846 33954,-199523 101861,-263024 67915,-63484 161372,-95230 280370,-95230 108900,0 195951,26810 261129,80413 65178,53611 97767,124569 97767,212872 0,58042 -12610,106388 -37847,145077 -25236,38689 -76745,81577 -154525,128678 -9263,5884 -24193,14922 -44790,27115 -74425,43730 -131407,82211 -170932,115426l405572 0 0 222023 -754371 0z"/>
    <path fill="#669999" fill-rule="nonzero" d="M1257076 714638l138126 0c45841,0 78430,-6726 97767,-20188 19337,-13453 29017,-35527 29017,-66221 0,-30703 -9881,-52568 -29643,-65603 -19762,-13036 -52985,-19553 -99661,-19553l-135606 0 0 171566zm0 -341237l122995 0c41210,0 70219,-6100 87035,-18285 16824,-12193 25236,-32798 25236,-61815 0,-30695 -9038,-51725 -27123,-63075 -18084,-11350 -59928,-17033 -125524,-17033l-82620 0 0 160208zm-289512 558219l0 -929091 380970 0c81994,0 141698,2103 179127,6309 37429,4198 69601,11141 96507,20806 47093,17667 83150,45199 108162,82628 25036,37429 37542,82837 37542,136248 0,42045 -9359,78735 -28078,110056 -18711,31337 -46772,57087 -84202,77266 49197,17667 85574,44164 109125,79474 23543,35326 35326,81167 35326,137508 0,55088 -11462,102920 -34387,143488 -22917,40584 -56236,71800 -99966,93673 -29434,15131 -63075,25862 -100922,32172 -37847,6301 -100504,9464 -187957,9464l-411247 0z"/>
    <polygon fill="#FFCC00" fill-rule="nonzero" points="1257205,709589 944246,709589 941806,931612 1257205,931612 "/>
   </g>
   <g>
    <path fill="#666666" fill-rule="nonzero" d="M72916 1125235l23430 0c15203,0 25389,-1694 30526,-5081 5137,-3403 7698,-9407 7698,-18044 0,-8733 -2456,-14802 -7385,-18189 -4937,-3395 -15211,-5081 -30839,-5081l-23430 0 0 46395zm-72908 125010l0 -227055 93416 0c20661,0 37020,1212 49084,3620 12088,2424 22178,6301 30293,11639 10483,7096 18293,15885 23422,26368 5145,10475 7722,22917 7722,37293 0,25397 -7513,44838 -22507,58347 -15010,13517 -36635,20276 -64897,20276l-43626 0 0 69512 -72908 0z"/>
    <path fill="#666666" fill-rule="nonzero" d="M287024 1172561l45777 0 -22652 -78615 -23125 78615zm-93721 77684l79843 -227055 73831 0 79851 227055 -72290 0 -8468 -30061 -72306 0 -8781 30061 -71680 0z"/>
    <path fill="#666666" fill-rule="nonzero" d="M519626 1120764l33151 0c11607,0 19626,-1565 24048,-4696 4415,-3138 6622,-8613 6622,-16423 0,-8019 -2207,-13589 -6622,-16728 -4423,-3122 -13060,-4696 -25895,-4696l-31305 0 0 42542zm-71985 129481l0 -227055 108667 0c34026,0 58299,5089 72844,15259 14537,10170 21809,26874 21809,50104 0,13862 -2986,25381 -8942,34523 -5964,9151 -15163,16391 -27588,21737 12642,2665 21833,7939 27588,15805 5747,7858 8838,19393 9247,34596l1236 31610c0,201 40,458 144,763 321,9054 2480,13774 6478,14183l0 8476 -73518 0c-1340,-5442 -2344,-10194 -3018,-14256 -658,-4062 -987,-7216 -987,-9480l0 -22652c0,-11727 -2320,-19971 -6943,-24747 -4623,-4776 -12634,-7176 -24040,-7176l-30992 0 0 78310 -71985 0z"/>
    <polygon fill="#666666" fill-rule="nonzero" points="736359,1250245 736359,1083006 670996,1083006 670996,1023190 874621,1023190 874621,1083006 809266,1083006 809266,1250245 "/>
    <path fill="#666666" fill-rule="nonzero" d="M898204 1250245l0 -227055 69215 0 63661 105601c1951,2970 4021,7176 6245,12626 2199,5458 4543,12024 7007,19738 -610,-4013 -1076,-8420 -1381,-13260 -321,-4824 -474,-10692 -474,-17571l0 -107134 69521 0 0 227055 -69521 0 -63661 -104823c-1951,-3082 -4078,-7449 -6397,-13100 -2304,-5643 -4648,-12121 -7007,-19425 714,4013 1228,8203 1549,12570 305,4367 458,10499 458,18414l0 106364 -69215 0z"/>
    <polygon fill="#666666" fill-rule="nonzero" points="1155159,1250245 1155159,1023190 1336590,1023190 1336590,1077612 1228075,1077612 1228075,1107817 1319814,1107817 1319814,1159911 1228075,1159911 1228075,1195069 1341061,1195069 1341061,1250245 "/>
    <path fill="#666666" fill-rule="nonzero" d="M1447104 1120764l33151 0c11607,0 19626,-1565 24048,-4696 4415,-3138 6622,-8613 6622,-16423 0,-8019 -2207,-13589 -6622,-16728 -4423,-3122 -13060,-4696 -25895,-4696l-31305 0 0 42542zm-71985 129481l0 -227055 108667 0c34026,0 58307,5089 72844,15259 14537,10170 21817,26874 21817,50104 0,13862 -2994,25381 -8942,34523 -5964,9151 -15171,16391 -27596,21737 12642,2665 21833,7939 27596,15805 5747,7858 8838,19393 9247,34596l1228 31610c0,201 48,458 153,763 321,9054 2472,13774 6478,14183l0 8476 -73526 0c-1332,-5442 -2344,-10194 -3010,-14256 -666,-4062 -995,-7216 -995,-9480l0 -22652c0,-11727 -2312,-19971 -6943,-24747 -4615,-4776 -12634,-7176 -24040,-7176l-30992 0 0 78310 -71985 0z"/>
    <path fill="#666666" fill-rule="nonzero" d="M1605417 1179497l70901 0c1951,8219 5498,14127 10636,17723 5145,3604 12795,5402 22965,5402 8549,0 15251,-1469 20131,-4391 4880,-2938 7320,-6967 7320,-12113 0,-8219 -10234,-14906 -30679,-20043 -4118,-1019 -7248,-1790 -9399,-2304 -16752,-4318 -30093,-8244 -40006,-11791 -9921,-3548 -17137,-6863 -21656,-9937 -8733,-6277 -15291,-13782 -19658,-22515 -4375,-8733 -6542,-18703 -6542,-29908 0,-22499 8468,-40174 25429,-53009 16953,-12851 40271,-19272 69978,-19272 29178,0 52150,6133 68902,18414 16752,12281 26208,29892 28359,52801l-69199 0c-1140,-6686 -4094,-11671 -8870,-14954 -4784,-3291 -11591,-4937 -20428,-4937 -7810,0 -13614,1292 -17418,3853 -3797,2569 -5699,6478 -5699,11727 0,7497 9961,13758 29908,18799 1742,514 3090,867 3997,1068 2890,730 7256,1806 13108,3243 26416,6686 43666,12747 51789,18189 10066,6678 17418,14288 22050,22812 4615,8533 6935,18614 6935,30221 0,25060 -8757,44332 -26288,57801 -17515,13461 -42623,20196 -75292,20196 -30109,0 -53973,-6735 -71607,-20196 -17619,-13469 -27516,-32420 -29667,-56878z"/>
    <path fill="#666666" fill-rule="nonzero" d="M70757 1457659l33761 0c11197,0 19160,-1637 23896,-4920 4728,-3299 7088,-8693 7088,-16190 0,-7505 -2416,-12843 -7240,-16038 -4832,-3179 -12955,-4776 -24353,-4776l-33151 0 0 41924zm0 -83383l30061 0c10066,0 17161,-1493 21271,-4471 4110,-2978 6173,-8019 6173,-15107 0,-7505 -2207,-12634 -6622,-15420 -4431,-2785 -14657,-4166 -30687,-4166l-20196 0 0 39163zm-70757 136408l0 -227047 93111 0c20043,0 34628,514 43770,1541 9159,1019 17009,2721 23591,5097 11502,4310 20316,11029 26440,20179 6116,9159 9167,20252 9167,33295 0,10274 -2288,19248 -6863,26898 -4567,7666 -11438,13959 -20565,18887 12016,4302 20902,10780 26657,19425 5755,8621 8629,19834 8629,33592 0,13469 -2793,25156 -8404,35077 -5595,9921 -13734,17547 -24434,22893 -7184,3684 -15404,6317 -24650,7858 -9247,1541 -24562,2304 -45930,2304l-100520 0z"/>
    <path fill="#666666" fill-rule="nonzero" d="M311225 1381203l33143 0c11607,0 19626,-1557 24048,-4696 4415,-3130 6630,-8613 6630,-16415 0,-8019 -2215,-13597 -6630,-16728 -4423,-3130 -13052,-4704 -25895,-4704l-31297 0 0 42542zm-71985 129481l0 -227047 108667 0c34026,0 58299,5081 72836,15251 14537,10178 21817,26882 21817,50104 0,13870 -2986,25381 -8942,34531 -5964,9143 -15163,16383 -27596,21729 12642,2673 21833,7939 27596,15805 5747,7858 8838,19401 9247,34596l1228 31610c0,209 48,458 153,763 321,9054 2472,13774 6478,14183l0 8476 -73526 0c-1332,-5442 -2336,-10194 -3010,-14256 -658,-4054 -995,-7216 -995,-9472l0 -22660c0,-11719 -2312,-19963 -6943,-24747 -4615,-4776 -12634,-7168 -24032,-7168l-30992 0 0 78302 -71985 0z"/>
    <polygon fill="#666666" fill-rule="nonzero" points="469530,1510692 469530,1456118 574650,1342361 472918,1342361 472918,1283629 664221,1283629 664221,1337738 557858,1452273 669920,1452273 669920,1510692 "/>
    <polygon fill="#666666" fill-rule="nonzero" points="702750,1510692 702750,1283629 775658,1283629 775658,1450411 874766,1450411 874766,1510692 "/>
   </g>
  </g>
  <polygon fill="#4D4D4D" fill-rule="nonzero" points="2049960,68790 1876090,1445049 1851279,1441902 2025157,65644 "/>
 </g>
</svg>
