<?xml version="1.0" encoding="UTF-8"?>
<!DOCTYPE svg PUBLIC "-//W3C//DTD SVG 1.1//EN" "http://www.w3.org/Graphics/SVG/1.1/DTD/svg11.dtd">
<!-- Creator: CorelDRAW 2020 (64 Bit) -->
<svg xmlns="http://www.w3.org/2000/svg" xml:space="preserve" width="18.9813mm" height="5.9231mm" version="1.1" shape-rendering="geometricPrecision" text-rendering="geometricPrecision" image-rendering="optimizeQuality" fill-rule="evenodd" clip-rule="evenodd"
viewBox="0 0 195.06 60.87"
 xmlns:xlink="http://www.w3.org/1999/xlink"
 xmlns:xodm="http://www.corel.com/coreldraw/odm/2003">
 <g id="Camada_x0020_1">
  <metadata id="CorelCorpID_0Corel-Layer"/>
  <path fill="#666666" d="M-0 3.25l23.72 0 2.6 0.11 2.49 0.22 2.38 0.54 2.27 0.54 2.06 0.87 1.95 0.87 1.84 1.08 1.73 1.19 1.52 1.3 1.52 1.41 1.3 1.52 1.19 1.62 0.97 1.73 0.98 1.73 0.76 1.84 0.65 1.84 33.68 -21.66 12.24 8.23 -26.21 16.9 4.22 2.82 26.43 -16.79 11.37 7.58 -26.1 17.22 4.44 2.71 26.53 -16.9 0 -18.52 19.49 0 0 36.93 17.33 0 0 17.33 -36.82 0 0 -17.76 -32.82 21.12 -33.47 -22.64 -0.65 1.95 -0.65 1.84 -0.97 1.84 -0.98 1.84 -1.19 1.62 -1.3 1.62 -1.41 1.52 -1.62 1.3 -1.62 1.3 -1.95 1.08 -1.95 0.97 -2.17 0.87 -2.28 0.65 -2.38 0.43 -2.49 0.32 -2.71 0.11 -23.94 0 0 -54.26zm18.63 17l5.09 0 2.27 0.22 1.84 0.65 1.62 0.97 1.41 1.3 0.97 1.52 0.76 1.62 0.43 1.84 0.11 1.84 -0.11 1.84 -0.43 1.84 -0.76 1.62 -1.08 1.52 -1.3 1.3 -1.62 0.98 -1.95 0.65 -2.17 0.22 -5.09 0 0 -19.93zm139.6 -17l19.6 0 0 36.93 17.22 0 0 17.33 -36.82 0 0 -54.26z"/>
 </g>
</svg>
