<?xml version="1.0" encoding="UTF-8"?>
<!DOCTYPE svg PUBLIC "-//W3C//DTD SVG 1.1//EN" "http://www.w3.org/Graphics/SVG/1.1/DTD/svg11.dtd">
<!-- Creator: CorelDRAW 2020 (64 Bit) -->
<svg xmlns="http://www.w3.org/2000/svg" xml:space="preserve" width="183.029mm" height="61.35mm" version="1.1" shape-rendering="geometricPrecision" text-rendering="geometricPrecision" image-rendering="optimizeQuality" fill-rule="evenodd" clip-rule="evenodd"
viewBox="0 0 18288531 6130177"
 xmlns:xlink="http://www.w3.org/1999/xlink"
 xmlns:xodm="http://www.corel.com/coreldraw/odm/2003">
 <g id="Camada_x0020_1">
  <metadata id="CorelCorpID_0Corel-Layer"/>
  <g id="_1704072685744">
   <g>
    <path fill="#669999" fill-rule="nonzero" d="M773981 2213718l369289 0c122544,0 209665,-17986 261364,-53968 51699,-35962 77579,-94975 77579,-177041 0,-82065 -26419,-140529 -79258,-175372 -52828,-34853 -141659,-52279 -266430,-52279l-362545 0 0 458659zm0 -912262l328841 0c110163,0 187712,-16307 232677,-48892 44965,-32594 67457,-87671 67457,-165250 0,-82065 -24171,-138281 -72523,-168617 -48342,-30356 -160184,-45534 -335556,-45534l-220896 0 0 428293zm-773981 1492336l0 -2483826 1018499 0c219208,0 378812,5606 478873,16857 100071,11221 186064,29787 258017,55636 125891,47223 222275,120835 289162,220886 66917,100081 100351,221466 100351,364253 0,112392 -25030,210484 -75051,294229 -50021,83764 -125042,152600 -225123,206557 131537,47223 228790,118057 291730,212473 62950,94436 94446,216989 94446,367601 0,147274 -30646,275154 -91918,383608 -61272,108495 -150342,191959 -267250,250433 -78708,40448 -168627,69136 -269808,85992 -101180,16847 -268689,25300 -502495,25300l-1099435 0z"/>
    <path fill="#FFCC00" fill-rule="nonzero" d="M1325387 2793772c0,-6725 -550,-16577 -1679,-29507 -1129,-12920 -1709,-22762 -1709,-29507 0,-171985 52858,-334717 158515,-488156 105657,-153459 276542,-312804 512617,-478054 61821,-44965 147814,-102300 257987,-171995 263073,-168627 394580,-315322 394580,-440124 0,-95535 -26129,-170586 -78408,-225093 -52279,-54527 -123942,-81786 -215001,-81786 -113521,0 -198414,36251 -254600,108764 -56206,72493 -84314,182387 -84314,329661l0 42147 -642455 0c0,-8983 -580,-21053 -1699,-36241 -1129,-15178 -1679,-26149 -1679,-32894 0,-299015 90779,-533410 272306,-703167 181567,-169726 431411,-254600 749540,-254600 291151,0 523868,71664 698111,214971 174253,143337 261364,333038 261364,569102 0,155168 -33713,284406 -101170,387845 -67467,103439 -205159,218088 -413115,344009 -24761,15728 -64659,39909 -119746,72493 -198963,116898 -351294,219787 -456950,308587l1084247 0 0 593543 -2016743 0z"/>
    <path fill="#669999" fill-rule="nonzero" d="M3360676 2213718l369269 0c122554,0 209675,-17986 261374,-53968 51699,-35962 77579,-94975 77579,-177041 0,-82065 -26429,-140529 -79258,-175372 -52828,-34853 -141659,-52279 -266430,-52279l-362535 0 0 458659zm0 -912262l328821 0c110163,0 187722,-16307 232677,-48892 44975,-32594 67467,-87671 67467,-165250 0,-82065 -24171,-138281 -72523,-168617 -48342,-30356 -160194,-45534 -335566,-45534l-220876 0 0 428293zm-773991 1492336l0 -2483826 1018499 0c219208,0 378822,5606 478863,16857 100081,11221 186074,29787 258017,55636 125901,47223 222285,120835 289162,220886 66917,100081 100361,221466 100361,364253 0,112392 -25030,210484 -75061,294229 -50021,83764 -125042,152600 -225113,206557 131537,47223 228780,118057 291730,212473 62940,94436 94436,216989 94436,367601 0,147274 -30636,275154 -91908,383608 -61272,108495 -150352,191959 -267250,250433 -78708,40448 -168637,69136 -269818,85992 -101170,16847 -268679,25300 -502495,25300l-1099425 0z"/>
    <polygon fill="#FFCC00" fill-rule="nonzero" points="3361016,2200219 2524364,2200219 2517839,2793772 3361016,2793772 "/>
    <g>
     <path fill="#666666" fill-rule="nonzero" d="M194947 3311415l62641 0c40638,0 67857,-4536 81606,-13599 13719,-9073 20584,-25140 20584,-48222 0,-23352 -6585,-39569 -19754,-48622 -13210,-9083 -40678,-13589 -82435,-13589l-62641 0 0 124032zm-194917 334187l0 -606992 249724 0c55237,0 98972,3237 131237,9672 32305,6495 59283,16847 80986,31116 28018,18965 48902,42477 62611,70485 13749,28018 20644,61272 20644,99712 0,67887 -20084,119866 -60173,155987 -40118,36122 -97943,54197 -173484,54197l-116628 0 0 185824 -194917 0z"/>
     <path fill="#666666" fill-rule="nonzero" d="M767326 3437925l122394 0 -60572 -210155 -61821 210155zm-250543 207677l213452 -606992 197375 0 213482 606992 -193268 0 -22652 -80347 -193298 0 -23472 80347 -191619 0z"/>
     <path fill="#666666" fill-rule="nonzero" d="M1389177 3299464l88610 0c31046,0 52469,-4187 64289,-12570 11811,-8373 17716,-23012 17716,-43895 0,-21423 -5905,-36331 -17716,-44715 -11821,-8353 -34903,-12560 -69226,-12560l-83674 0 0 113741zm-192449 346138l0 -606992 290511 0c90968,0 155857,13599 194727,40788 38869,27189 58324,71853 58324,133945 0,37071 -7984,67857 -23901,92307 -15947,24441 -40548,43806 -73772,58104 33803,7124 58384,21213 73772,42247 15358,21003 23621,51849 24721,92487l3287 84504c0,550 120,1219 400,2038 859,24211 6625,36831 17316,37930l0 22642 -196555 0c-3567,-14539 -6245,-27249 -8054,-38100 -1769,-10851 -2648,-19295 -2648,-25340l0 -60562c0,-31345 -6195,-53378 -18565,-66158 -12350,-12770 -33783,-19175 -64259,-19175l-82855 0 0 209335 -192449 0z"/>
     <polygon fill="#666666" fill-rule="nonzero" points="1968581,3645612 1968581,3198504 1793849,3198504 1793849,3038599 2338220,3038599 2338220,3198504 2163498,3198504 2163498,3645612 "/>
     <path fill="#666666" fill-rule="nonzero" d="M2401261 3645612l0 -607012 185044 0 170186 282308c5216,7954 10762,19205 16707,33773 5875,14579 12130,32135 18715,52768 -1609,-10732 -2868,-22522 -3687,-35452 -859,-12890 -1249,-28598 -1249,-46973l0 -286425 185854 0 0 607012 -185854 0 -170196 -280230c-5216,-8234 -10911,-19904 -17107,-35032 -6145,-15088 -12430,-32405 -18735,-51909 1918,10732 3287,21923 4147,33594 819,11671 1219,28078 1219,49231l0 284346 -185044 0z"/>
     <polygon fill="#666666" fill-rule="nonzero" points="3088220,3645612 3088220,3038599 3573249,3038599 3573249,3184095 3283137,3184095 3283137,3264841 3528404,3264841 3528404,3404122 3283137,3404122 3283137,3498108 3585199,3498108 3585199,3645612 "/>
     <path fill="#666666" fill-rule="nonzero" d="M3868706 3299464l88610 0c31036,0 52469,-4187 64289,-12570 11801,-8373 17716,-23012 17716,-43895 0,-21423 -5915,-36331 -17716,-44715 -11821,-8353 -34893,-12560 -69226,-12560l-83674 0 0 113741zm-192449 346138l0 -606992 290521 0c90948,0 155857,13599 194717,40788 38869,27189 58324,71853 58324,133945 0,37071 -7994,67857 -23901,92307 -15947,24441 -40548,43806 -73772,58104 33803,7124 58374,21213 73772,42247 15368,21003 23621,51849 24721,92487l3297 84504c0,550 120,1219 390,2038 859,24211 6615,36831 17316,37930l0 22642 -196565 0c-3557,-14539 -6245,-27249 -8044,-38100 -1769,-10851 -2648,-19295 -2648,-25340l0 -60562c0,-31345 -6195,-53378 -18565,-66158 -12350,-12770 -33773,-19175 -64259,-19175l-82855 0 0 209335 -192449 0z"/>
     <path fill="#666666" fill-rule="nonzero" d="M4291933 3456481l189551 0c5206,21973 14688,37770 28438,47373 13739,9632 34203,14449 61392,14449 22842,0 40758,-3937 53808,-11741 13050,-7864 19575,-18625 19575,-32375 0,-21973 -27348,-39849 -82005,-53598 -11011,-2708 -19395,-4776 -25150,-6145 -44785,-11561 -80447,-22043 -106936,-31525 -26519,-9483 -45814,-18356 -57894,-26579 -23342,-16767 -40878,-36831 -52549,-60183 -11711,-23342 -17496,-49991 -17496,-79947 0,-60153 22642,-107405 67977,-141728 45334,-34353 107665,-51519 187083,-51519 78009,0 139430,16407 184205,49231 44785,32834 70055,79907 75820,141139l-185004 0c-3058,-17856 -10951,-31185 -23721,-39959 -12770,-8803 -30976,-13200 -54597,-13200 -20884,0 -36391,3437 -46573,10302 -10152,6865 -15248,17316 -15248,31345 0,20054 26649,36791 79957,50260 4666,1379 8263,2318 10702,2858 7714,1958 19385,4826 35032,8663 70634,17866 116748,34083 138451,48622 26919,17866 46573,38190 58964,61002 12340,22802 18525,49751 18525,80776 0,67007 -23412,118527 -70265,154528 -46823,35992 -113950,53988 -201282,53988 -80507,0 -144306,-17996 -191439,-53988 -47103,-36002 -73562,-86662 -79318,-152050z"/>
     <path fill="#666666" fill-rule="nonzero" d="M189161 4200126l90269 0c29926,0 51210,-4397 63860,-13170 12650,-8813 18965,-23232 18965,-43286 0,-20054 -6465,-34323 -19355,-42856 -12930,-8503 -34633,-12780 -65119,-12780l-88620 0 0 112092zm0 -222925l80367 0c26909,0 45874,-3997 56875,-11951 10971,-7964 16497,-21433 16497,-40388 0,-20064 -5915,-33783 -17716,-41218 -11831,-7444 -39169,-11131 -82035,-11131l-53988 0 0 104688zm-189151 364673l0 -606992 248904 0c53598,0 92577,1369 117028,4117 24481,2738 45474,7284 63070,13629 30756,11521 54317,29497 70694,53958 16337,24481 24501,54127 24501,89010 0,27458 -6125,51460 -18346,71913 -12220,20484 -30576,37311 -54997,50480 32135,11511 55886,28827 71274,51939 15398,23042 23082,53008 23082,89809 0,35992 -7474,67237 -22472,93766 -14968,26519 -36731,46913 -65329,61212 -19205,9842 -41178,16887 -65898,21003 -24721,4107 -65668,6155 -122793,6155l-268719 0z"/>
     <path fill="#666666" fill-rule="nonzero" d="M832025 3995726l88610 0c31036,0 52459,-4177 64289,-12560 11801,-8373 17716,-23012 17716,-43895 0,-21423 -5915,-36331 -17716,-44715 -11831,-8353 -34903,-12560 -69226,-12560l-83674 0 0 113731zm-192449 346148l0 -606992 290511 0c90968,0 155867,13589 194727,40778 38869,27199 58324,71853 58324,133945 0,37071 -7984,67867 -23901,92307 -15947,24451 -40548,43816 -73772,58104 33803,7134 58374,21223 73772,42257 15358,21003 23621,51849 24721,92487l3287 84494c0,560 130,1219 400,2048 859,24211 6615,36821 17316,37920l0 22652 -196555 0c-3567,-14549 -6255,-27259 -8054,-38110 -1759,-10841 -2658,-19295 -2658,-25330l0 -60572c0,-31335 -6185,-53378 -18555,-66148 -12350,-12770 -33783,-19175 -64269,-19175l-82845 0 0 209335 -192449 0z"/>
     <polygon fill="#666666" fill-rule="nonzero" points="1255242,4341884 1255242,4195989 1536281,3891888 1264305,3891888 1264305,3734862 1775733,3734862 1775733,3879508 1491387,4185717 1790981,4185717 1790981,4341884 "/>
     <polygon fill="#666666" fill-rule="nonzero" points="1878732,4341884 1878732,3734862 2073649,3734862 2073649,4180751 2338610,4180751 2338610,4341884 "/>
    </g>
   </g>
   <path fill="#666666" d="M10176643 2931713c3028,60552 31635,54427 -16637,101001 -48732,47043 -92377,95735 -151171,136652 -43556,30316 -52828,46234 -96924,19944 8643,-45604 64969,-62761 108894,-84294 42586,-20884 84404,-49381 81566,-114080 -50960,-70864 -112032,-24061 -183336,12560 -207607,106646 -653676,256029 -696512,429342 -26529,107296 50880,136832 108015,176391 144646,100161 281608,55566 436247,-13759 290481,-130208 484149,-288473 663938,-461197 76979,-73952 96404,-48222 218318,-60952 60492,-6315 192249,-23392 243309,-44035 37071,-14978 47353,-36821 67057,-68496 31915,-51300 105587,-96344 151900,-135843 31895,-27209 53648,-49301 83235,-12830 26459,56885 -88091,253401 -17706,422827 159814,384657 598809,230748 844576,43456 72623,-55346 66787,-64449 127130,-133095 35852,31795 27978,54727 80187,78608 131836,60333 261454,-53018 353112,-129608 88340,-73832 153259,-176991 237713,-261444 23771,-23791 55466,-72793 97643,-69745 26709,61891 17077,336495 72663,503274 55197,165610 237263,219777 384038,145965 202501,-101830 286165,-281848 433179,-429492 36861,-37021 100921,-137192 145156,-154868 13619,34043 35552,64589 49311,103479 42616,120365 83444,217809 233286,249064 99472,20744 174243,-11831 250613,-52119 43266,-22822 178300,-94116 199783,-120565l-88890 -221646c-55336,14758 -72753,34233 -145056,17306 -37331,-8733 -63560,-43806 -75401,-85922 -17836,-63430 -18455,-386436 -57385,-424446 -21693,-21173 -74961,-38100 -117408,-42037 -109844,-10202 -161673,55776 -202311,119756 -49971,78688 -58124,114580 -123663,197914 -83264,105877 -114890,168797 -212123,278441 -54307,61242 -86602,120795 -159345,162152 -33204,18875 -75770,52019 -111482,58054 -43506,-35612 -39569,-111133 -40378,-177670 -869,-72443 -2408,-150522 5546,-221126 12390,-109944 54747,-267829 90859,-366202 21423,-58374 26079,-122853 47902,-180528 31245,-82545 137402,-321617 -46443,-283057 -198254,41567 -251402,159405 -361086,324135l-100301 127959c-18216,22452 -33374,34403 -52569,57225 -111063,132086 -183416,247285 -313453,372077 -36931,35442 -113111,202930 -183356,60622 288823,-368410 141679,-977361 -303901,-818686l-113850 39939c-28528,7964 -52299,9892 -38869,-30446 3187,-9572 11271,-26189 16097,-36291 14449,-30256 27478,-41507 18016,-71444 -39929,-55806 -171425,-29327 -217539,-1079 -81766,50101 -151651,145635 -221636,209985 -51769,47603 -107485,80537 -148583,139021 -86002,122374 -188512,179409 -283717,283077 -98443,107196 -155248,112132 -240701,190650 -48642,44695 -70015,149952 -163431,114560 -34003,-34193 -22452,-251832 -37790,-317280 -29217,-124592 -74611,-218078 -155737,-293189 -42916,-39729 -83814,-105127 -124412,-146565 -38000,-38769 -46923,-53518 -84583,-92727 -92907,-96714 -338973,-390333 -406640,-499017 -215890,-346797 -86162,-532891 182227,-766057 48142,-41817 92797,-95994 150661,-129048 73752,-42127 82805,11181 33843,59873 -56536,56206 -163791,98702 -181647,184915 -13999,67537 27548,101770 93666,92547 140509,-19605 523478,-328851 652427,-431910 85323,-68186 90239,-167938 87861,-279610 -6415,-301483 -298995,-154269 -448028,-80886 -124882,61502 -255499,91978 -362954,178609 -35042,28268 -66248,42966 -116079,69935 -97713,52888 -219008,152940 -303591,229819 -90849,82565 -190130,180858 -245467,304171 -40158,89460 -88001,156657 -111193,252321 -55586,229380 -6095,454572 118807,570421 149472,138641 60582,159425 239911,301483 93047,73712 131327,128449 187393,176511 67647,57984 111812,117897 169057,186194 85273,101740 169427,196955 217919,332049 33014,91998 -58334,173943 -119776,229010z"/>
   <g>
    <path fill="#666666" d="M7935457 5614023l0 148873c16997,39659 14329,107316 24671,155458 13909,64769 25280,63580 78318,91288 98233,51330 103948,99302 259056,83914 89939,-8913 213672,-25740 304990,-41108 96284,-16207 168887,-62621 250913,-96374l245677 -100811c141259,-74871 155648,-166429 238562,-286195 47653,-68836 171565,-250213 248894,-267679 37750,68146 16487,176501 30896,262404 23352,139310 30356,346178 180718,403463 241940,92157 416842,-133165 547639,-286704l203580 -236574c28338,-29607 39459,-60972 79837,-72113 13759,38740 34263,67857 49841,112202 44085,125441 85453,208846 233966,240301 189491,40138 309606,-115020 452044,-166599 -6425,75581 -28627,88650 -21783,174373 13170,164900 95325,231868 220467,313933 120615,79108 96034,88910 280579,82475 99662,-3467 215021,-19585 301393,-52529 85992,-32804 174043,-86472 230129,-133735 89789,-75660 96514,-95575 203750,-151391 81216,-42277 241070,-168278 309636,-232037 28238,-26259 53898,-76380 98393,-79158 65379,-4097 115619,158525 143697,216779 92607,192129 359327,221935 503294,142518 36241,-19994 97224,-19295 142338,-35202 100641,-35492 199013,-112102 275383,-181747 15468,-14109 26579,-29047 40958,-43266 39339,-38929 43336,-62821 74052,-103658 37251,-49541 95585,-89230 142458,-128309l131756 -130587c21393,-21953 183426,-207826 218928,-108365 3457,9702 3597,12460 4147,23242 1809,35422 -67467,237553 -79737,279270 -30696,104358 -64339,204939 -96384,309866 -38480,126021 -78178,177031 -44935,322396 13759,60143 70564,64899 141649,61212 78488,-4067 99112,-24980 140190,-62231l202601 -203540c35912,-35922 65658,-65608 101580,-101520 63210,-63180 115000,-179589 185754,-220427 114140,-65878 258437,-227441 361366,-239681 38520,39539 56506,59893 90599,109114 27249,39339 59583,71903 87391,107415 61701,78788 82255,186703 155757,241750 87411,65468 218868,58364 301303,-350l217939 -180668 -22312 -70804c9782,36381 46204,64629 23272,114860 -8613,18865 -50071,60952 -66847,85503 -79667,116548 -75361,376983 142698,394170 73242,5775 174153,-50840 227541,-83065 242120,-146105 242739,-179579 426944,-359817 22123,-21643 56965,-45814 85373,-66927l172764 -143157c83734,96654 -3647,453193 372237,451255 109884,-570 231648,-66638 291551,-122843l156567 -148183c19235,-21823 28847,-31485 49041,-50390 -7664,-54147 -62471,-187203 -91078,-220786 -50121,35002 -143897,151131 -191030,165310 -92118,27728 -167498,-85593 -177910,-166239 -13379,-103618 23991,-239611 -4047,-335756 -85353,-292630 -496669,178260 -511957,188592l-290601 242499c-27119,26249 -163731,150771 -211893,125861 -8563,-26269 66198,-120795 83744,-144257 58174,-77789 111732,-129648 177750,-194187 21743,-21263 39879,-34863 62061,-56575 73582,-72053 156567,-190530 165150,-198704 23901,-22722 37301,-23462 64959,-53418 22482,-24361 36491,-31745 60163,-58474 82065,-92657 109963,-100371 184095,-179419 19415,-20704 43136,-35802 61232,-57025 49851,-58484 65109,-68376 129208,-116428 13579,-10182 19784,-16667 32285,-26809 149372,-121085 97703,-390023 -305320,-161573 -105327,59703 -187962,134484 -277731,204509l-129798 115669c-20944,18995 -36421,41727 -59533,58714 -52219,38380 -92947,59943 -142468,102669 -45404,39169 -93916,97783 -128559,117048 -65928,36671 -75151,72543 -117278,128119 -73502,96974 -218498,136113 -270757,211514 -33034,47672 -59203,98163 -113521,122983 -157916,72173 -210714,-207117 -250513,-333208 -40848,-129428 -101190,-232557 -257358,-232867 -167458,-340 -350804,170456 -448047,278711l-232367 249843c-34623,37291 -68176,101550 -115649,121504 -30116,-62940 19635,-139520 45494,-200143 27778,-65119 47143,-133375 69505,-201112 44715,-135403 195436,-534569 33284,-633881 -57924,-35472 -164421,-25270 -223934,3327 -198724,95465 -159724,129798 -287534,253760 -42846,41557 -101610,97523 -137961,141299 -56466,68026 -263982,303661 -323016,353562 -76720,64849 -157316,185124 -200602,205578 -129238,61102 -272526,124722 -418391,84094 -70964,-19764 -127150,-59393 -145126,-125961 -30226,-111872 16957,-145286 67357,-191849 74921,-69206 132466,-141169 197834,-208366 113281,-116448 212533,-260095 252831,-423257 25880,-104728 49351,-95925 26040,-219807 -34803,-184964 -107605,-251082 -316161,-206228 -138891,29876 -218398,151341 -298755,251092 -90249,112042 -153030,190830 -211643,329831 -84633,200742 -77649,216160 -116908,424796 -13320,70754 -89590,91898 -129288,141159 -21033,26109 -38320,51210 -57705,77629l-205169 209545 -336136 205059c-78159,47752 -113211,41357 -202301,68556 -46883,14319 -50930,30376 -98652,15598 -39289,-12170 -64929,-19215 -99941,-36401 -64839,-31815 -102999,-76200 -109214,-164501 -3887,-55316 18416,-189611 40778,-234016 34413,-68336 151411,-150092 214741,-199913l228410 -177600c28518,-20704 43476,-45914 69345,-65848 26769,-20624 60842,-28378 92597,-43326 33703,-15868 53488,-33194 86982,-47792 95275,-41547 179189,-94795 187473,-221306 5396,-82435 20324,-200422 -56675,-217209 -173474,-37810 -430381,197674 -465993,213292 -85812,37630 -183096,100461 -246286,159534 -113571,106166 -248884,209155 -367451,309387 -74611,63080 -169317,105987 -225732,180488 -53618,70824 -64979,108075 -178619,87591 -76420,-13779 -90609,-90799 -93936,-175152 -3018,-76810 -18286,-172484 -25000,-254720 -7774,-95255 -49411,-118657 -145825,-124892 -180378,-11651 -198214,162033 -276413,263423 -75621,98053 -276472,377833 -357249,454912 -25190,24041 -138161,91958 -169437,98772 -100871,-95845 -12350,-586818 42836,-733153 26979,-71534 36921,-153469 64639,-222745 66927,-167218 122654,-364763 -150711,-235735 -32105,15158 -73552,29377 -94236,49801 -60313,59533 -124752,173913 -174383,248824 -54527,82315 -108345,127570 -164730,198774l-156757 198524c-20134,25440 -41507,54597 -65269,78718 -37900,38460 -77199,69395 -103848,116179 -6615,11621 -20684,29417 -29667,37910 -23342,22073 -50011,34873 -77969,65838 -32365,35832 -20044,53628 -73122,70814 -69355,22472 -133705,52089 -212283,75461 -90799,27009 -397178,97074 -482550,73962 -111213,-94855 18635,-673610 52379,-816568 17117,-72483 23991,-137152 34013,-213102 14139,-107116 76840,-263872 102669,-378592 16067,-71364 7934,-133475 28098,-208936 37630,-140839 86822,-221036 92567,-391762 2488,-73612 17027,-144117 25430,-216999 5196,-45164 2568,-62471 23801,-95455 55566,-86352 36421,-190560 61572,-301623 15008,-66268 28288,-133465 36711,-201152 8054,-64699 -2148,-152060 -42487,-188761 -50680,-46114 -123213,-20794 -181927,-1449 -162212,53438 -159674,113581 -221576,260815 -42846,101890 -109944,235365 -138361,344069 -33244,127140 -51330,265701 -85733,396488 -32235,122564 -71694,268659 -88700,392501 -4656,33943 -15098,77109 -14429,111133 2128,107955 101840,4966 63160,268279 -20244,137832 -56735,269878 -72883,409828 -12640,109484 4387,158146 -869,226542l-127310 584460z"/>
    <path fill="white" d="M11978955 2355387c-73782,43336 -102829,156897 -156986,207467 -100321,93666 -123683,-9393 -195416,176881 -72463,188182 -159664,500906 185844,388904 161733,-52419 233157,-209615 331999,-311065 42117,-43216 57195,-142788 76640,-202461 25620,-78628 25050,-98752 -31265,-206667 -26619,-51000 -112961,-56995 -169237,-60972 -40168,-2838 -14409,-8044 -41577,7914z"/>
    <path fill="white" d="M13552517 4553168c-112152,41487 -307488,425375 -167089,361066 20054,-9183 51749,-69755 70025,-91868 44565,-53898 109694,-93187 141719,-179849 15558,-42087 19045,-112901 -44655,-89350z"/>
    <path fill="#666666" fill-rule="nonzero" d="M17898738 4336119c-19814,60882 -19085,149572 -18306,246616 1479,182227 3168,388265 -105337,596800l-250043 -129978c77059,-148103 75690,-316071 74481,-464624 -989,-121814 -1899,-233147 31535,-335846l267669 87032z"/>
   </g>
   <polygon fill="#666666" fill-rule="nonzero" points="6470140,749 6470140,6123412 6364383,6123412 6364383,749 "/>
  </g>
 </g>
</svg>
