<?xml version="1.0" encoding="UTF-8"?>
<!DOCTYPE svg PUBLIC "-//W3C//DTD SVG 1.1//EN" "http://www.w3.org/Graphics/SVG/1.1/DTD/svg11.dtd">
<!-- Creator: CorelDRAW 2020 (64 Bit) -->
<svg xmlns="http://www.w3.org/2000/svg" xml:space="preserve" width="24.2953mm" height="7.5755mm" version="1.1" shape-rendering="geometricPrecision" text-rendering="geometricPrecision" image-rendering="optimizeQuality" fill-rule="evenodd" clip-rule="evenodd"
viewBox="0 0 240.93 75.12"
 xmlns:xlink="http://www.w3.org/1999/xlink"
 xmlns:xodm="http://www.corel.com/coreldraw/odm/2003">
 <g id="Camada_x0020_1">
  <metadata id="CorelCorpID_0Corel-Layer"/>
  <g id="_2290402290016">
   <g id="vivo.svg">
    <g data-name="Capa 2">
     <g data-name="Layer 1">
      <path fill="#666666" fill-rule="nonzero" d="M209.8 0.51c1.22,-0.34 2.49,-0.51 3.76,-0.51 5.96,0 11.28,3.73 13.3,9.33 1.77,4.88 0.49,10.68 -3.07,14.43 -1.2,1.31 -2.84,2.07 -4.15,3.24 -0.89,0.73 -0.57,2.3 0.47,2.72 0.7,0.39 1.51,0.07 2.24,-0.05 3.8,-0.88 7.59,-1.84 11.4,-2.72 0.37,-0.08 0.75,-0.12 1.13,-0.12 2.07,0 3.95,1.23 4.78,3.13 0.49,1.46 0.78,2.98 1.14,4.48 0.59,2.55 -1.07,5.38 -3.61,6.04 -3.85,1.01 -7.77,1.86 -11.61,2.85 -1.36,0.33 -2.66,1.32 -2.89,2.78 -0.29,1.31 0.47,2.55 1.25,3.54 3.92,4.88 7.85,9.77 11.77,14.65 0.78,0.95 1.22,2.14 1.22,3.36 0,0.58 -0.1,1.16 -0.29,1.71 -0.68,2.06 -2.72,3.11 -4.27,4.48 -2.04,1.83 -5.53,1.63 -7.29,-0.49 -3.13,-3.74 -6.16,-7.56 -9.25,-11.34 -0.66,-0.8 -1.64,-1.6 -2.75,-1.32 -0.79,0.32 -1.48,0.86 -1.98,1.55 -2.83,3.54 -5.71,7.04 -8.55,10.56 -0.99,1.43 -2.62,2.28 -4.36,2.28 -0.19,0 -0.38,-0.01 -0.57,-0.03 -2.19,-0.15 -3.61,-1.99 -5.27,-3.18 -2.33,-1.67 -2.79,-5.33 -0.95,-7.52 3.89,-4.89 7.83,-9.76 11.75,-14.63 0.84,-1.03 1.6,-2.3 1.31,-3.68 -0.19,-1.47 -1.58,-2.4 -2.91,-2.75 -3.78,-0.95 -7.58,-1.82 -11.35,-2.77 -2.31,-0.59 -3.93,-2.68 -3.93,-5.07 0,-0.22 0.01,-0.45 0.04,-0.67 0.28,-1.51 0.66,-3 1.06,-4.48 0.71,-2.1 2.68,-3.51 4.9,-3.51 0.35,0 0.7,0.04 1.04,0.11 4.17,0.91 8.29,2.05 12.47,2.9 1.55,0.56 2.96,-1.5 1.89,-2.72 -1.07,-1.04 -2.47,-1.66 -3.55,-2.69 -5.1,-4.44 -6.11,-12.79 -2.17,-18.3 1.89,-2.73 4.68,-4.72 7.87,-5.61l-0 0z"/>
      <path fill="#666666" fill-rule="nonzero" d="M60.19 5.93c4.04,-1.53 8.94,0.57 10.63,4.54 0.5,1.1 0.76,2.3 0.76,3.51 0,4.7 -3.81,8.52 -8.52,8.52 -0.59,0 -1.17,-0.06 -1.74,-0.18 -3.56,-0.74 -6.25,-3.67 -6.69,-7.27 -0.59,-3.86 1.89,-7.87 5.58,-9.12l0 -0z"/>
      <path fill="#666666" fill-rule="nonzero" d="M3.76 28.2c2.25,-0.81 4.44,-2.63 6.95,-1.92 1.6,0.45 2.9,1.62 3.5,3.17 3.61,7.25 7.18,14.51 10.8,21.76 3.62,-7.41 7.35,-14.76 10.98,-22.17 0.96,-2.1 3.5,-3.4 5.75,-2.77 1.35,0.39 2.58,1.12 3.89,1.65 1.3,0.53 2.72,1.05 3.5,2.26 0.57,0.81 0.88,1.77 0.88,2.76 0,0.85 -0.23,1.68 -0.66,2.41 -5.72,10.22 -11.49,20.41 -17.21,30.62 -0.64,1.23 -1.67,2.22 -2.93,2.8 -1.79,0.78 -3.79,0.36 -5.68,0.48 -0.12,0.01 -0.24,0.01 -0.35,0.01 -2.1,0 -4.05,-1.13 -5.09,-2.96 -5.56,-9.84 -11.11,-19.7 -16.65,-29.57 -0.75,-1.29 -1.58,-2.66 -1.4,-4.22 0.09,-2.11 1.85,-3.68 3.74,-4.32z"/>
      <path fill="#666666" fill-rule="nonzero" d="M81.46 27.49c1.84,-0.88 3.96,-1.98 6,-0.99 2.37,0.89 3.06,3.5 4.13,5.53 3.24,6.36 6.27,12.82 9.57,19.14 3.63,-7.37 7.28,-14.74 10.96,-22.1 0.94,-2.14 3.52,-3.45 5.79,-2.79 1.33,0.42 2.55,1.11 3.84,1.64 1.19,0.54 2.54,0.96 3.36,2.05 0.67,0.85 1.03,1.9 1.03,2.98 0,0.87 -0.23,1.72 -0.67,2.46 -5.78,10.26 -11.56,20.52 -17.34,30.79 -1.02,1.89 -2.99,3.06 -5.13,3.06 -0.06,0 -0.12,-0 -0.18,-0 -2.14,-0.12 -4.48,0.42 -6.42,-0.75 -1.22,-0.61 -2.01,-1.76 -2.63,-2.93 -5.61,-10.02 -11.24,-20.02 -16.88,-30.02 -0.49,-0.77 -0.75,-1.67 -0.75,-2.59 0,-0.92 0.26,-1.81 0.75,-2.59 0.98,-1.66 2.98,-2.07 4.59,-2.89l0 0z"/>
      <path fill="#666666" fill-rule="nonzero" d="M145.74 26.65c4.45,-0.78 9.17,-0.32 13.26,1.66 7.57,3.56 12.41,11.17 12.41,19.55 0,11.92 -9.67,21.59 -21.59,21.59 -11.92,0 -21.59,-9.67 -21.59,-21.59 0,-10.35 7.35,-19.25 17.51,-21.2l0 0zm16.17 14.55c-2.62,0.38 -4.92,1.96 -6.22,4.27 -0.72,1.27 -1.1,2.72 -1.1,4.18 0,4.69 3.81,8.5 8.5,8.5 0.12,0 0.25,-0 0.37,-0.01 4.5,-0.05 8.44,-4.27 8.09,-8.78 0.05,-4.88 -4.87,-9.01 -9.65,-8.16l0 0z"/>
      <path fill="#666666" fill-rule="nonzero" d="M59.79 26.84c1.89,-0.14 3.79,-0.03 5.69,-0.07 2.81,-0.09 5.14,2.56 5.08,5.3 0.06,10.37 0,20.75 0.03,31.13 0.08,1.94 -0.63,4.01 -2.33,5.12 -1.94,1.41 -4.45,0.78 -6.68,0.92 -0.2,0.02 -0.4,0.03 -0.61,0.03 -1.95,0 -3.76,-1.05 -4.71,-2.75 -0.78,-1.36 -0.65,-2.96 -0.65,-4.47 0,-9.97 0,-19.94 0,-29.92 -0,-0.04 -0,-0.08 -0,-0.12 0,-2.5 1.75,-4.66 4.19,-5.18l-0 0z"/>
     </g>
    </g>
   </g>
   <circle fill="#666666" cx="150.02" cy="47.85" r="21.81"/>
   <circle fill="white" cx="150.02" cy="47.85" r="9.14"/>
  </g>
 </g>
</svg>
