<?xml version="1.0" encoding="UTF-8"?>
<!DOCTYPE svg PUBLIC "-//W3C//DTD SVG 1.1//EN" "http://www.w3.org/Graphics/SVG/1.1/DTD/svg11.dtd">
<!-- Creator: CorelDRAW 2020 (64 Bit) -->
<svg xmlns="http://www.w3.org/2000/svg" xml:space="preserve" width="173.029mm" height="61.35mm" version="1.1" shape-rendering="geometricPrecision" text-rendering="geometricPrecision" image-rendering="optimizeQuality" fill-rule="evenodd" clip-rule="evenodd"
viewBox="0 0 17288532 6129899"
 xmlns:xlink="http://www.w3.org/1999/xlink"
 xmlns:xodm="http://www.corel.com/coreldraw/odm/2003">
 <g id="Camada_x0020_1">
  <metadata id="CorelCorpID_0Corel-Layer"/>
  <g id="_1704297402384">
   <path fill="#669999" fill-rule="nonzero" d="M773946 2213618l369273 0c122538,0 209656,-17985 261352,-53965 51697,-35960 77575,-94971 77575,-177033 0,-82062 -26418,-140523 -79254,-175364 -52826,-34851 -141652,-52276 -266418,-52276l-362528 0 0 458638zm0 -912221l328826 0c110158,0 187704,-16306 232666,-48889 44963,-32593 67454,-87667 67454,-165242 0,-82062 -24170,-138275 -72520,-168610 -48340,-30355 -160177,-45532 -335541,-45532l-220886 0 0 428274zm-773946 1492268l0 -2483713 1018452 0c219198,0 378795,5605 478851,16856 100067,11221 186055,29785 258005,55634 125885,47221 222265,120829 289149,220876 66914,100077 100346,221456 100346,364237 0,112386 -25029,210475 -75048,294215 -50018,83760 -125036,152593 -225113,206548 131531,47221 228780,118052 291717,212463 62948,94431 94441,216979 94441,367584 0,147267 -30644,275141 -91914,383591 -61269,108490 -150335,191950 -267238,250422 -78704,40446 -168620,69132 -269795,85988 -101176,16846 -268676,25299 -502472,25299l-1099385 0z"/>
   <path fill="#FFCC00" fill-rule="nonzero" d="M1325327 2793645c0,-6724 -550,-16576 -1679,-29505 -1129,-12919 -1709,-22761 -1709,-29505 0,-171977 52856,-334701 158508,-488134 105652,-153452 276530,-312790 512593,-478032 61819,-44963 147807,-102295 257975,-171987 263061,-168620 394562,-315308 394562,-440104 0,-95530 -26128,-170578 -78405,-225083 -52276,-54525 -123937,-81782 -214991,-81782 -113516,0 -198405,36250 -254588,108759 -56203,72490 -84310,182378 -84310,329646l0 42145 -642425 0c0,-8983 -580,-21052 -1699,-36240 -1129,-15177 -1679,-26148 -1679,-32893 0,-299001 90774,-533386 272293,-703135 181559,-169719 431391,-254588 749506,-254588 291138,0 523844,71660 698079,214961 174245,143331 261352,333023 261352,569076 0,155161 -33712,284393 -101166,387827 -67464,103434 -205149,218079 -413096,343994 -24759,15727 -64656,39907 -119740,72490 -198954,116893 -351278,219777 -456930,308573l1084198 0 0 593516 -2016652 0z"/>
   <path fill="#669999" fill-rule="nonzero" d="M3360523 2213618l369253 0c122548,0 209666,-17985 261362,-53965 51697,-35960 77575,-94971 77575,-177033 0,-82062 -26428,-140523 -79254,-175364 -52826,-34851 -141652,-52276 -266418,-52276l-362518 0 0 458638zm0 -912221l328806 0c110158,0 187714,-16306 232666,-48889 44973,-32593 67464,-87667 67464,-165242 0,-82062 -24170,-138275 -72520,-168610 -48340,-30355 -160187,-45532 -335551,-45532l-220866 0 0 428274zm-773956 1492268l0 -2483713 1018452 0c219198,0 378805,5605 478841,16856 100077,11221 186065,29785 258005,55634 125895,47221 222275,120829 289149,220876 66914,100077 100356,221456 100356,364237 0,112386 -25029,210475 -75058,294215 -50018,83760 -125036,152593 -225103,206548 131531,47221 228770,118052 291717,212463 62938,94431 94431,216979 94431,367584 0,147267 -30635,275141 -91904,383591 -61269,108490 -150345,191950 -267238,250422 -78704,40446 -168630,69132 -269805,85988 -101166,16846 -268666,25299 -502472,25299l-1099375 0z"/>
   <polygon fill="#FFCC00" fill-rule="nonzero" points="3360863,2200119 2524249,2200119 2517725,2793645 3360863,2793645 "/>
   <g>
    <path fill="#666666" fill-rule="nonzero" d="M194938 3311264l62638 0c40636,0 67854,-4536 81602,-13599 13719,-9072 20583,-25139 20583,-48220 0,-23351 -6585,-39567 -19754,-48620 -13209,-9082 -40676,-13589 -82431,-13589l-62638 0 0 124027zm-194908 334172l0 -606965 249712 0c55234,0 98968,3237 131231,9672 32303,6495 59281,16846 80983,31114 28017,18964 48899,42475 62608,70481 13749,28017 20643,61269 20643,99707 0,67884 -20083,119860 -60170,155980 -40117,36120 -97938,54195 -173476,54195l-116623 0 0 185815 -194908 0z"/>
    <path fill="#666666" fill-rule="nonzero" d="M767291 3437769l122388 0 -60570 -210145 -61819 210145zm-250532 207667l213442 -606965 197366 0 213472 606965 -193259 0 -22651 -80343 -193289 0 -23470 80343 -191611 0z"/>
    <path fill="#666666" fill-rule="nonzero" d="M1389114 3299314l88606 0c31044,0 52466,-4187 64286,-12570 11810,-8373 17715,-23011 17715,-43893 0,-21422 -5905,-36330 -17715,-44713 -11820,-8353 -34901,-12560 -69222,-12560l-83670 0 0 113735zm-192440 346122l0 -606965 290498 0c90964,0 155850,13599 194718,40786 38868,27187 58321,71850 58321,133939 0,37069 -7983,67854 -23900,92303 -15947,24440 -40546,43804 -73769,58102 33802,7124 58381,21212 73769,42245 15357,21003 23620,51847 24719,92483l3287 84500c0,550 120,1219 400,2038 859,24210 6624,36829 17316,37928l0 22641 -196546 0c-3567,-14538 -6245,-27247 -8053,-38098 -1769,-10851 -2648,-19294 -2648,-25339l0 -60560c0,-31344 -6195,-53376 -18565,-66155 -12350,-12769 -33782,-19174 -64257,-19174l-82851 0 0 209326 -192440 0z"/>
    <polygon fill="#666666" fill-rule="nonzero" points="1968492,3645446 1968492,3198358 1793767,3198358 1793767,3038461 2338114,3038461 2338114,3198358 2163400,3198358 2163400,3645446 "/>
    <path fill="#666666" fill-rule="nonzero" d="M2401152 3645446l0 -606985 185036 0 170178 282295c5216,7953 10761,19204 16706,33772 5875,14578 12130,32133 18714,52766 -1609,-10731 -2868,-22521 -3687,-35450 -859,-12889 -1249,-28596 -1249,-46971l0 -286412 185845 0 0 606985 -185845 0 -170188 -280217c-5216,-8233 -10911,-19903 -17106,-35031 -6145,-15087 -12430,-32403 -18734,-51907 1918,10731 3287,21922 4147,33592 819,11670 1219,28077 1219,49229l0 284333 -185036 0z"/>
    <polygon fill="#666666" fill-rule="nonzero" points="3088080,3645446 3088080,3038461 3573086,3038461 3573086,3183950 3282988,3183950 3282988,3264693 3528244,3264693 3528244,3403967 3282988,3403967 3282988,3497949 3585036,3497949 3585036,3645446 "/>
    <path fill="#666666" fill-rule="nonzero" d="M3868530 3299314l88606 0c31034,0 52466,-4187 64286,-12570 11800,-8373 17715,-23011 17715,-43893 0,-21422 -5915,-36330 -17715,-44713 -11820,-8353 -34891,-12560 -69222,-12560l-83670 0 0 113735zm-192440 346122l0 -606965 290508 0c90944,0 155850,13599 194708,40786 38868,27187 58321,71850 58321,133939 0,37069 -7993,67854 -23900,92303 -15947,24440 -40546,43804 -73769,58102 33802,7124 58371,21212 73769,42245 15367,21003 23620,51847 24719,92483l3297 84500c0,550 120,1219 390,2038 859,24210 6614,36829 17316,37928l0 22641 -196556 0c-3557,-14538 -6245,-27247 -8043,-38098 -1769,-10851 -2648,-19294 -2648,-25339l0 -60560c0,-31344 -6195,-53376 -18565,-66155 -12350,-12769 -33772,-19174 -64257,-19174l-82851 0 0 209326 -192440 0z"/>
    <path fill="#666666" fill-rule="nonzero" d="M4291738 3456324l189542 0c5206,21972 14688,37769 28436,47371 13739,9632 34202,14448 61389,14448 22841,0 40756,-3937 53805,-11740 13049,-7863 19574,-18625 19574,-32373 0,-21972 -27347,-39847 -82002,-53595 -11011,-2708 -19394,-4776 -25149,-6145 -44783,-11560 -80443,-22042 -106931,-31524 -26518,-9482 -45812,-18355 -57892,-26578 -23341,-16766 -40876,-36829 -52546,-60180 -11710,-23341 -17495,-49988 -17495,-79943 0,-60150 22641,-107401 67973,-141722 45332,-34351 107660,-51517 187074,-51517 78005,0 139424,16406 184197,49229 44783,32833 70052,79904 75817,141133l-184996 0c-3057,-17855 -10951,-31184 -23720,-39957 -12769,-8803 -30974,-13199 -54595,-13199 -20883,0 -36390,3437 -46571,10301 -10152,6864 -15247,17316 -15247,31344 0,20053 26648,36789 79953,50258 4666,1379 8263,2318 10701,2858 7714,1958 19384,4826 35031,8663 70631,17865 116743,34082 138445,48620 26918,17865 46571,38188 58961,60999 12340,22801 18525,49749 18525,80773 0,67004 -23411,118521 -70262,154521 -46821,35990 -113945,53985 -201272,53985 -80503,0 -144300,-17995 -191431,-53985 -47101,-36000 -73559,-86658 -79314,-152043z"/>
    <path fill="#666666" fill-rule="nonzero" d="M189153 4199935l90265 0c29925,0 51207,-4396 63857,-13169 12649,-8813 18964,-23231 18964,-43284 0,-20053 -6465,-34321 -19354,-42854 -12929,-8503 -34631,-12779 -65116,-12779l-88616 0 0 112087zm0 -222914l80363 0c26908,0 45872,-3997 56873,-11950 10971,-7963 16496,-21432 16496,-40386 0,-20063 -5915,-33782 -17715,-41216 -11830,-7444 -39167,-11131 -82032,-11131l-53985 0 0 104683zm-189143 364657l0 -606965 248893 0c53595,0 92573,1369 117023,4117 24480,2738 45472,7284 63068,13629 30754,11520 54315,29495 70691,53955 16336,24480 24500,54125 24500,89006 0,27457 -6125,51457 -18345,71910 -12220,20483 -30575,37309 -54994,50478 32133,11510 55883,28826 71271,51937 15397,23041 23081,53006 23081,89805 0,35990 -7474,67234 -22471,93762 -14968,26518 -36729,46911 -65326,61209 -19204,9842 -41176,16886 -65895,21003 -24719,4107 -65665,6155 -122788,6155l-268706 0z"/>
    <path fill="#666666" fill-rule="nonzero" d="M831988 3995545l88606 0c31034,0 52456,-4177 64286,-12560 11800,-8373 17715,-23011 17715,-43893 0,-21422 -5915,-36330 -17715,-44713 -11830,-8353 -34901,-12560 -69222,-12560l-83670 0 0 113725zm-192440 346132l0 -606965 290498 0c90964,0 155860,13589 194718,40776 38868,27197 58321,71850 58321,133939 0,37069 -7983,67864 -23900,92303 -15947,24450 -40546,43814 -73769,58102 33802,7134 58371,21222 73769,42255 15357,21003 23620,51847 24719,92483l3287 84490c0,560 130,1219 400,2048 859,24210 6614,36819 17316,37918l0 22651 -196546 0c-3567,-14548 -6255,-27257 -8053,-38108 -1759,-10841 -2658,-19294 -2658,-25329l0 -60570c0,-31334 -6185,-53376 -18555,-66145 -12350,-12769 -33782,-19174 -64267,-19174l-82841 0 0 209326 -192440 0z"/>
    <polygon fill="#666666" fill-rule="nonzero" points="1255185,4341687 1255185,4195798 1536212,3891711 1264248,3891711 1264248,3734692 1775652,3734692 1775652,3879332 1491319,4185527 1790900,4185527 1790900,4341687 "/>
    <polygon fill="#666666" fill-rule="nonzero" points="1878647,4341687 1878647,3734692 2073554,3734692 2073554,4180561 2338504,4180561 2338504,4341687 "/>
   </g>
  </g>
  <path fill="#666666" d="M9177013 2931580c3027,60550 31634,54425 -16636,100996 -48729,47041 -92373,95730 -151164,136646 -43554,30315 -52826,46232 -96919,19943 8643,-45602 64966,-62758 108889,-84290 42585,-20883 84400,-49379 81562,-114075 -50958,-70861 -112027,-24060 -183327,12560 -207597,106641 -653646,256017 -696480,429323 -26528,107291 50878,136826 108010,176383 144640,100157 281596,55564 436227,-13759 290468,-130202 484127,-288460 663907,-461176 76976,-73948 96400,-48220 218308,-60949 60490,-6315 192240,-23391 243298,-44033 37069,-14978 47351,-36819 67054,-68493 31913,-51297 105582,-96340 151894,-135837 31893,-27207 53645,-49299 83231,-12829 26458,56883 -88087,253389 -17705,422808 159807,384640 598782,230738 844537,43454 72620,-55344 66784,-64446 127124,-133089 35850,31794 27977,54724 80183,78605 131830,60330 261442,-53016 353096,-129602 88336,-73829 153252,-176983 237702,-261432 23770,-23790 55464,-72789 97639,-69742 26708,61888 17076,336480 72660,503251 55194,165602 237253,219767 384020,145959 202491,-101825 286152,-281835 433160,-429473 36859,-37019 100916,-137186 145149,-154861 13619,34042 35550,64586 49309,103474 42615,120360 83441,217799 233276,249053 99467,20743 174235,-11830 250601,-52117 43264,-22821 178292,-94112 199774,-120560l-88886 -221636c-55334,14758 -72749,34232 -145049,17306 -37329,-8733 -63557,-43804 -75397,-85918 -17835,-63427 -18455,-386418 -57382,-424427 -21692,-21172 -74958,-38098 -117402,-42035 -109839,-10202 -161665,55774 -202302,119750 -49968,78685 -58122,114575 -123657,197905 -83261,105872 -114884,168790 -212113,278428 -54305,61239 -86598,120789 -159337,162145 -33202,18874 -75767,52017 -111477,58052 -43504,-35610 -39567,-111128 -40376,-177662 -869,-72440 -2408,-150515 5545,-221116 12390,-109939 54744,-267817 90854,-366185 21422,-58371 26078,-122848 47900,-180520 31244,-82541 137396,-321602 -46441,-283044 -198245,41565 -251391,159397 -361070,324120l-100297 127954c-18215,22451 -33372,34401 -52566,57222 -111058,132080 -183407,247274 -313439,372060 -36929,35441 -113106,202921 -183347,60620 288810,-368393 141672,-977317 -303887,-818649l-113845 39937c-28526,7963 -52296,9892 -38868,-30445 3187,-9572 11271,-26188 16097,-36290 14448,-30255 27477,-41505 18015,-71441 -39927,-55804 -171417,-29326 -217529,-1079 -81762,50098 -151644,145629 -221626,209975 -51767,47600 -107481,80533 -148576,139014 -85998,122368 -188503,179401 -283704,283064 -98438,107191 -155241,112127 -240690,190641 -48640,44693 -70012,149945 -163424,114555 -34002,-34192 -22451,-251820 -37789,-317266 -29216,-124586 -74608,-218069 -155730,-293176 -42914,-39727 -83810,-105123 -124406,-146558 -37998,-38768 -46921,-53515 -84580,-92723 -92903,-96710 -338958,-390315 -406622,-498995 -215880,-346781 -86158,-532867 182218,-766022 48140,-41815 92793,-95990 150655,-129043 73749,-42125 82801,11181 33842,59870 -56533,56203 -163784,98698 -181639,184906 -13998,67534 27547,101765 93662,92543 140503,-19604 523454,-328836 652397,-431891 85319,-68183 90235,-167930 87857,-279597 -6415,-301469 -298981,-154262 -448007,-80883 -124876,61499 -255487,91973 -362938,178601 -35041,28266 -66245,42964 -116073,69932 -97709,52886 -218998,152933 -303577,229809 -90844,82561 -190122,180849 -245456,304157 -40157,89456 -87997,156650 -111187,252310 -55584,229369 -6095,454552 118801,570395 149466,138635 60580,159417 239900,301469 93043,73709 131321,128443 187384,176503 67644,57982 111807,117892 169049,186185 85269,101735 169419,196946 217909,332034 33013,91993 -58331,173935 -119770,228999z"/>
  <g id="_1704297378672">
   <path fill="#666666" d="M6935928 5613768l0 148866c16996,39657 14328,107311 24669,155451 13908,64766 25279,63577 78315,91284 98228,51327 103943,99297 259044,83910 89935,-8913 213662,-25739 304976,-41106 96280,-16207 168879,-62618 250901,-96370l245666 -100806c141252,-74868 155640,-166421 238551,-286182 47650,-68833 171557,-250202 248883,-267667 37749,68143 16486,176493 30894,262392 23351,139304 30355,346162 180710,403444 241929,92153 416823,-133159 547614,-286691l203571 -236563c28336,-29605 39457,-60969 79834,-72110 13759,38738 34261,67854 49839,112197 44083,125436 85449,208836 233955,240290 189482,40137 309592,-115014 452024,-166591 -6425,75577 -28626,88646 -21782,174365 13169,164893 95321,231857 220457,313919 120610,79104 96030,88906 280567,82471 99657,-3467 215011,-19584 301379,-52526 85988,-32803 174035,-86468 230118,-133729 89785,-75657 96510,-95570 203740,-151384 81212,-42275 241059,-168270 309622,-232027 28237,-26258 53895,-76376 98388,-79154 65376,-4097 115614,158518 143690,216770 92603,192120 359311,221925 503271,142511 36240,-19993 97219,-19294 142332,-35201 100636,-35490 199004,-112097 275371,-181739 15467,-14108 26578,-29046 40956,-43264 39337,-38928 43334,-62818 74048,-103654 37249,-49539 95580,-89226 142451,-128303l131750 -130581c21392,-21952 183417,-207817 218918,-108360 3457,9702 3597,12460 4147,23241 1808,35421 -67464,237542 -79734,279258 -30694,104353 -64336,204929 -96380,309852 -38478,126015 -78175,177023 -44933,322382 13759,60140 70561,64896 141642,61209 78485,-4067 99108,-24979 140183,-62228l202591 -203531c35910,-35920 65655,-65605 101575,-101516 63207,-63177 114994,-179581 185745,-220417 114135,-65875 258425,-227431 361349,-239671 38518,39537 56503,59890 90595,109109 27247,39337 59580,71900 87387,107411 61699,78784 82252,186695 155750,241739 87407,65466 218858,58361 301289,-350l217929 -180660 -22311 -70801c9782,36380 46202,64626 23271,114854 -8613,18864 -50068,60949 -66844,85499 -79664,116543 -75357,376966 142691,394152 73239,5775 174145,-50838 227531,-83061 242109,-146098 242728,-179571 426925,-359801 22122,-21642 56963,-45812 85369,-66924l172756 -143151c83730,96650 -3647,453173 372220,451234 109879,-570 231637,-66635 291537,-122838l156560 -148177c19234,-21822 28846,-31484 49039,-50388 -7664,-54145 -62468,-187194 -91074,-220776 -50118,35001 -143890,151124 -191021,165302 -92113,27727 -167491,-85589 -177902,-166232 -13379,-103614 23990,-239601 -4047,-335741 -85349,-292616 -496647,178252 -511934,188583l-290588 242488c-27117,26248 -163724,150765 -211884,125855 -8563,-26268 66195,-120789 83740,-144250 58172,-77785 111727,-129642 177742,-194178 21742,-21262 39877,-34861 62058,-56573 73579,-72050 156560,-190521 165143,-198695 23900,-22721 37299,-23460 64956,-53416 22481,-24360 36490,-31744 60160,-58471 82062,-92653 109958,-100366 184087,-179411 19414,-20703 43134,-35800 61229,-57023 49849,-58481 65106,-68373 129202,-116423 13579,-10182 19784,-16666 32283,-26808 149366,-121079 97699,-390005 -305306,-161566 -105322,59700 -187954,134478 -277719,204500l-129792 115664c-20943,18994 -36420,41725 -59530,58711 -52217,38378 -92943,59940 -142461,102665 -45402,39167 -93912,97779 -128553,117043 -65925,36669 -75147,72540 -117272,128113 -73499,96969 -218488,136107 -270745,211504 -33033,47670 -59201,98158 -113516,122978 -157909,72170 -210705,-207108 -250502,-333193 -40846,-129422 -101186,-232546 -257346,-232856 -167451,-340 -350788,170448 -448027,278698l-232357 249832c-34621,37289 -68173,101545 -115644,121499 -30115,-62938 19634,-139514 45492,-200133 27777,-65116 47141,-133369 69502,-201103 44713,-135397 195427,-534545 33282,-633852 -57922,-35470 -164413,-25269 -223924,3327 -198715,95461 -159717,129792 -287521,253749 -42844,41555 -101605,97519 -137955,141292 -56463,68023 -263970,303647 -323001,353546 -76716,64846 -157309,185116 -200593,205569 -129232,61099 -272513,124716 -418372,84090 -70961,-19764 -127144,-59391 -145119,-125955 -30225,-111867 16956,-145279 67354,-191840 74918,-69202 132460,-141163 197825,-208357 113276,-116443 212523,-260084 252820,-423238 25878,-104723 49349,-95920 26038,-219797 -34801,-184956 -107600,-251071 -316147,-206218 -138884,29875 -218388,151334 -298741,251081 -90245,112037 -153023,190821 -211634,329816 -84630,200733 -77645,216150 -116903,424776 -13319,70751 -89585,91894 -129282,141153 -21032,26108 -38318,51207 -57702,77625l-205159 209536 -336120 205049c-78155,47750 -113206,41356 -202292,68553 -46881,14318 -50928,30375 -98648,15597 -39287,-12170 -64926,-19214 -99937,-36400 -64836,-31814 -102994,-76197 -109209,-164493 -3887,-55314 18415,-189602 40776,-234005 34411,-68333 151404,-150085 214731,-199904l228400 -177592c28516,-20703 43474,-45912 69342,-65845 26768,-20623 60839,-28376 92593,-43324 33702,-15867 53485,-33192 86978,-47790 95271,-41545 179181,-94791 187464,-221296 5396,-82431 20323,-200413 -56673,-217199 -173466,-37809 -430362,197665 -465972,213283 -85809,37629 -183088,100456 -246275,159527 -113565,106162 -248873,209146 -367434,309373 -74608,63078 -169309,105982 -225722,180480 -53615,70821 -64976,108070 -178611,87587 -76416,-13779 -90605,-90794 -93932,-175144 -3017,-76806 -18285,-172476 -24999,-254708 -7774,-95251 -49409,-118651 -145819,-124886 -180370,-11650 -198205,162025 -276400,263411 -75617,98048 -276460,377816 -357233,454891 -25189,24040 -138155,91953 -169429,98768 -100866,-95840 -12350,-586792 42834,-733120 26978,-71530 36919,-153462 64636,-222735 66924,-167211 122648,-364746 -150705,-235724 -32103,15157 -73549,29376 -94232,49799 -60310,59530 -124746,173905 -174375,248813 -54525,82311 -108340,127564 -164723,198765l-156750 198515c-20133,25439 -41505,54595 -65266,78714 -37898,38458 -77196,69392 -103844,116173 -6614,11620 -20683,29416 -29665,37908 -23341,22072 -50008,34871 -77965,65835 -32363,35830 -20043,53625 -73119,70811 -69352,22471 -133699,52087 -212273,75457 -90794,27008 -397159,97069 -482528,73958 -111207,-94851 18634,-673579 52376,-816530 17116,-72480 23990,-137146 34012,-213093 14138,-107111 76836,-263860 102665,-378575 16067,-71361 7933,-133469 28097,-208926 37629,-140833 86818,-221026 92563,-391744 2488,-73609 17026,-144110 25429,-216989 5196,-45162 2568,-62468 23800,-95451 55564,-86348 36420,-190551 61569,-301609 15008,-66265 28286,-133459 36709,-201143 8053,-64696 -2148,-152053 -42485,-188753 -50678,-46112 -123207,-20793 -181919,-1449 -162205,53436 -159667,113575 -221566,260803 -42844,101885 -109939,235354 -138355,344054 -33242,127134 -51327,265689 -85729,396470 -32233,122558 -71690,268646 -88696,392483 -4656,33942 -15097,77106 -14428,111128 2128,107950 101835,4966 63157,268267 -20243,137825 -56733,269865 -72879,409809 -12639,109479 4386,158138 -869,226531l-127304 584434z"/>
   <path fill="white" d="M10979243 2355280c-73779,43334 -102824,156889 -156979,207457 -100317,93662 -123677,-9392 -195407,176873 -72460,188173 -159657,500883 185835,388886 161725,-52416 233146,-209606 331984,-311051 42115,-43214 57192,-142781 76636,-202452 25619,-78625 25049,-98748 -31264,-206658 -26618,-50998 -112956,-56993 -169229,-60969 -40167,-2838 -14408,-8043 -41575,7913z"/>
   <path fill="white" d="M12552733 4552961c-112147,41485 -307474,425356 -167081,361050 20053,-9182 51747,-69752 70022,-91864 44563,-53895 109689,-93182 141712,-179840 15557,-42085 19044,-112896 -44653,-89346z"/>
   <path fill="#666666" fill-rule="nonzero" d="M16898756 4335922c-19814,60879 -19084,149566 -18305,246605 1479,182218 3167,388247 -105332,596773l-250032 -129972c77056,-148097 75687,-316057 74478,-464603 -989,-121809 -1898,-233136 31534,-335831l267657 87028z"/>
  </g>
  <polygon fill="#666666" fill-rule="nonzero" points="5970261,749 5970261,6123134 5864509,6123134 5864509,749 "/>
 </g>
</svg>
