<?xml version="1.0" encoding="UTF-8"?>
<!DOCTYPE svg PUBLIC "-//W3C//DTD SVG 1.1//EN" "http://www.w3.org/Graphics/SVG/1.1/DTD/svg11.dtd">
<!-- Creator: CorelDRAW 2020 (64 Bit) -->
<svg xmlns="http://www.w3.org/2000/svg" xml:space="preserve" width="212.446mm" height="37.9506mm" version="1.1" shape-rendering="geometricPrecision" text-rendering="geometricPrecision" image-rendering="optimizeQuality" fill-rule="evenodd" clip-rule="evenodd"
viewBox="0 0 23925438 4273966"
 xmlns:xlink="http://www.w3.org/1999/xlink"
 xmlns:xodm="http://www.corel.com/coreldraw/odm/2003">
 <g id="Camada_x0020_1">
  <metadata id="CorelCorpID_0Corel-Layer"/>
  <g id="_2122708025712">
   <path fill="#669999" fill-rule="nonzero" d="M877191 2890912l418527 0c138893,0 237626,-20395 296222,-61163 58596,-40757 87933,-107653 87933,-200654 0,-93012 -29957,-159266 -89825,-198762 -59880,-39496 -160561,-59249 -301966,-59249l-410891 0 0 519828zm0 -1033923l372691 0c124850,0 212749,-18481 263709,-55409 50960,-36939 76457,-99364 76457,-187286 0,-93012 -27400,-156710 -82201,-191103 -54789,-34405 -181553,-51602 -380304,-51602l-250352 0 0 485400zm-877191 1691349l0 -2815052 1154313 0c248438,0 429338,6363 542734,19111 113419,12715 210879,33763 292416,63055 142689,53517 251929,136945 327733,250341 75838,113419 113734,250994 113734,412817 0,127384 -28369,238561 -85061,333465 -56692,94938 -141720,172961 -255139,234101 149074,53528 259294,133814 330627,240814 71344,107033 107033,245915 107033,416623 0,166902 -34720,311831 -104173,434766 -69441,122958 -170393,217546 -302889,283823 -89194,45836 -191115,78349 -305784,97461 -114669,19100 -304511,28673 -569504,28673l-1246041 0z"/>
   <path fill="#FFCC00" fill-rule="nonzero" d="M1502126 3548315c0,-7624 -619,-18785 -1903,-33437 -1273,-14640 -1937,-25812 -1937,-33448 0,-194921 59913,-379346 179650,-553253 119759,-173929 313430,-354514 580980,-541800 70072,-50971 167532,-115953 292382,-194933 298159,-191115 447211,-357374 447211,-498813 0,-108272 -29619,-193333 -88868,-255105 -59249,-61805 -140470,-92697 -243663,-92697 -128667,0 -224878,41083 -288553,123262 -63709,82167 -95569,206713 -95569,373625l0 47773 -728117 0c0,-10192 -653,-23875 -1926,-41072 -1284,-17208 -1903,-29653 -1903,-37288 0,-338894 102878,-604540 308622,-796938 205778,-192354 488936,-288553 849486,-288553 329974,0 593717,81232 791206,243640 197478,162453 296222,377454 296222,644993 0,175866 -38212,322339 -114669,439564 -76457,117225 -232525,247165 -468203,389888 -28065,17828 -73293,45228 -135706,82156 -225509,132496 -398143,249091 -517902,349739l1228833 0 0 672697 -2285674 0z"/>
   <path fill="#669999" fill-rule="nonzero" d="M3808826 2890912l418515 0c138893,0 237626,-20395 296222,-61163 58596,-40757 87922,-107653 87922,-200654 0,-93012 -29945,-159266 -89825,-198762 -59868,-39496 -160539,-59249 -301955,-59249l-410880 0 0 519828zm0 -1033923l372668 0c124861,0 212760,-18481 263709,-55409 50971,-36939 76457,-99364 76457,-187286 0,-93012 -27389,-156710 -82189,-191103 -54789,-34405 -181553,-51602 -380315,-51602l-250330 0 0 485400zm-877202 1691349l0 -2815052 1154313 0c248438,0 429338,6363 542723,19111 113419,12715 210879,33763 292427,63055 142689,53517 251918,136945 327722,250341 75838,113419 113745,250994 113745,412817 0,127384 -28380,238561 -85073,333465 -56692,94938 -141720,172961 -255139,234101 149085,53528 259294,133814 330639,240814 71333,107033 107033,245915 107033,416623 0,166902 -34732,311831 -104173,434766 -69430,122958 -170393,217546 -302889,283823 -89194,45836 -191115,78349 -305784,97461 -114680,19100 -304522,28673 -569515,28673l-1246030 0z"/>
   <polygon fill="#FFCC00" fill-rule="nonzero" points="3809209,2875607 2860989,2875607 2853590,3548315 3809209,3548315 "/>
   <g>
    <path fill="#666666" fill-rule="nonzero" d="M5834653 2380443l70995 0c46061,0 76908,-5147 92494,-15406 15553,-10293 23323,-28504 23323,-54654 0,-26466 -7467,-44845 -22389,-55116 -14967,-10293 -46095,-15406 -93429,-15406l-70995 0 0 140583zm-220903 378750l0 -687934 283023 0c62605,0 112180,3671 148736,10958 36612,7354 67189,19100 91796,35272 31747,21499 55420,48133 70961,79881 15575,31747 23391,69441 23391,113013 0,76930 -22760,135841 -68202,176790 -45464,40926 -110997,61423 -196622,61423l-132181 0 0 210598 -220903 0z"/>
    <path fill="#666666" fill-rule="nonzero" d="M6483374 2523818l138713 0 -68653 -238178 -70060 238178zm-283958 235374l241917 -687934 223695 0 241951 687934 -219044 0 -25666 -91064 -219078 0 -26601 91064 -217175 0z"/>
    <path fill="#666666" fill-rule="nonzero" d="M7188145 2366895l100434 0c35171,0 59463,-4741 72853,-14235 13379,-9505 20080,-26083 20080,-49755 0,-24292 -6701,-41185 -20080,-50679 -13390,-9471 -39552,-14235 -78451,-14235l-94837 0 0 128904zm-218110 392298l0 -687934 329253 0c103092,0 176643,15406 220689,46230 44057,30813 66096,81435 66096,151811 0,42007 -9043,76908 -27085,104612 -18064,27704 -45949,49643 -83608,65848 38313,8075 66164,24044 83608,47874 17411,23808 26770,58776 28020,104837l3728 95760c0,619 135,1385 450,2320 969,27423 7500,41737 19630,42975l0 25666 -222772 0c-4043,-16476 -7084,-30880 -9122,-43178 -2005,-12309 -2996,-21871 -2996,-28718l0 -68641c0,-35520 -7027,-60499 -21049,-74982 -13999,-14472 -38279,-21724 -72831,-21724l-93902 0 0 237244 -218110 0z"/>
    <polygon fill="#666666" fill-rule="nonzero" points="7844804,2759204 7844804,2252474 7646775,2252474 7646775,2071247 8263748,2071247 8263748,2252474 8065718,2252474 8065718,2759204 "/>
    <path fill="#666666" fill-rule="nonzero" d="M8335193 2759204l0 -687957 209708 0 192883 319951c5924,9010 12208,21769 18943,38279 6656,16521 13751,36421 21217,59801 -1836,-12163 -3255,-25531 -4189,-40183 -969,-14607 -1419,-32401 -1419,-53235l0 -324614 210643 0 0 687957 -210643 0 -192883 -317597c-5913,-9336 -12366,-22558 -19382,-39698 -6982,-17107 -14100,-36725 -21251,-58844 2185,12163 3739,24844 4707,38077 923,13233 1374,31826 1374,55792l0 322271 -209708 0z"/>
    <polygon fill="#666666" fill-rule="nonzero" points="9113752,2759204 9113752,2071247 9663469,2071247 9663469,2236144 9334666,2236144 9334666,2327658 9612644,2327658 9612644,2485517 9334666,2485517 9334666,2592021 9677017,2592021 9677017,2759204 "/>
    <path fill="#666666" fill-rule="nonzero" d="M9998320 2366895l100434 0c35171,0 59452,-4741 72865,-14235 13368,-9505 20080,-26083 20080,-49755 0,-24292 -6712,-41185 -20080,-50679 -13413,-9471 -39552,-14235 -78462,-14235l-94837 0 0 128904zm-218110 392298l0 -687934 329253 0c103092,0 176643,15406 220700,46230 44045,30813 66096,81435 66096,151811 0,42007 -9066,76908 -27096,104612 -18064,27704 -45949,49643 -83597,65848 38313,8075 66153,24044 83597,47874 17422,23808 26781,58776 28020,104837l3739 95760c0,619 135,1385 450,2320 969,27423 7489,41737 19618,42975l0 25666 -222772 0c-4043,-16476 -7084,-30880 -9122,-43178 -2005,-12309 -3007,-21871 -3007,-28718l0 -68641c0,-35520 -7005,-60499 -21037,-74982 -13987,-14472 -38279,-21724 -72831,-21724l-93902 0 0 237244 -218110 0z"/>
    <path fill="#666666" fill-rule="nonzero" d="M10477987 2544844l214821 0c5913,24911 16645,42818 32232,53697 15586,10913 38775,16375 69587,16375 25880,0 46185,-4460 60983,-13300 14787,-8919 22175,-21116 22175,-36703 0,-24900 -30993,-45149 -92933,-60736 -12478,-3075 -21983,-5417 -28504,-6971 -50757,-13098 -91176,-24979 -121201,-35723 -30058,-10744 -51929,-20801 -65601,-30126 -26466,-18999 -46343,-41748 -59564,-68202 -13278,-26466 -19832,-56670 -19832,-90625 0,-68168 25666,-121719 77043,-160617 51377,-38932 122023,-58393 212028,-58393 88406,0 158027,18593 208773,55803 50757,37209 79397,90557 85928,159964l-209674 0c-3457,-20249 -12411,-35351 -26893,-45295 -14472,-9978 -35092,-14956 -61873,-14956 -23661,0 -41241,3897 -52785,11667 -11510,7782 -17276,19630 -17276,35520 0,22738 30193,41703 90625,56974 5282,1554 9359,2624 12118,3243 8751,2207 21983,5462 39710,9809 80050,20249 132316,38628 156912,55105 30509,20249 52785,43291 66817,69137 13987,25846 21003,56388 21003,91559 0,75939 -26533,134321 -79633,175123 -53066,40802 -129140,61186 -228121,61186 -91244,0 -163557,-20384 -216961,-61186 -53393,-40802 -83372,-98215 -89904,-172330z"/>
    <path fill="#666666" fill-rule="nonzero" d="M5828110 3387664l102303 0c33921,0 58044,-4978 72380,-14933 14336,-9978 21488,-26319 21488,-49057 0,-22727 -7332,-38899 -21938,-48573 -14652,-9640 -39259,-14472 -73799,-14472l-100434 0 0 127034zm0 -252650l91075 0c30509,0 51996,-4527 64463,-13548 12433,-9021 18695,-24292 18695,-45780 0,-22738 -6701,-38279 -20080,-46714 -13402,-8424 -44394,-12613 -92967,-12613l-61186 0 0 118656zm-214382 413301l0 -687946 282100 0c60736,0 104927,1565 132632,4674 27749,3108 51546,8255 71479,15440 34856,13064 61569,33437 80117,61152 18526,27749 27783,61355 27783,100884 0,31128 -6949,58314 -20801,81503 -13852,23222 -34653,42289 -62335,57211 36421,13053 63337,32682 80782,58866 17456,26116 26161,60082 26161,101785 0,40802 -8480,76209 -25463,106279 -16972,30058 -41635,53168 -74047,69362 -21769,11172 -46669,19145 -74689,23808 -28020,4662 -74419,6982 -139164,6982l-304556 0z"/>
    <path fill="#666666" fill-rule="nonzero" d="M6556700 3156006l100423 0c35171,0 59463,-4730 72865,-14235 13368,-9494 20080,-26083 20080,-49744 0,-24292 -6712,-41185 -20080,-50679 -13402,-9471 -39552,-14246 -78451,-14246l-94837 0 0 128904zm-218110 392298l0 -687934 329253 0c103092,0 176643,15406 220689,46230 44057,30813 66096,81435 66096,151811 0,42007 -9043,76896 -27085,104612 -18075,27716 -45949,49643 -83608,65848 38313,8086 66153,24055 83608,47886 17411,23808 26770,58776 28020,104815l3728 95771c0,631 135,1385 450,2320 969,27434 7489,41737 19630,42975l0 25666 -222772 0c-4043,-16476 -7095,-30880 -9133,-43178 -1993,-12298 -3007,-21871 -3007,-28707l0 -68653c0,-35509 -7005,-60499 -21037,-74971 -13987,-14472 -38279,-21736 -72831,-21736l-93891 0 0 237244 -218110 0z"/>
    <polygon fill="#666666" fill-rule="nonzero" points="7036356,3548326 7036356,3382979 7354866,3038319 7046616,3038319 7046616,2860358 7626244,2860358 7626244,3024298 7303973,3371334 7643520,3371334 7643520,3548326 "/>
    <polygon fill="#666666" fill-rule="nonzero" points="7742985,3548326 7742985,2860358 7963899,2860358 7963899,3365703 8264187,3365703 8264187,3548326 "/>
   </g>
  </g>
  <g id="_2122702962576">
   <rect fill="none" x="13069569" y="-4" width="10855869" height="4273966"/>
   <path fill="#669999" fill-rule="nonzero" d="M15071521 3438421c-97021,0 -192432,-27490 -286210,-82471 -93789,-54981 -212907,-139603 -357363,-253866 -107799,-86244 -199967,-155775 -276503,-208593 -76536,-52830 -159548,-97562 -249024,-134220 -89465,-36646 -180562,-54969 -273270,-54969 -32333,0 -57132,1070 -74374,3232l481864 -2241156c-144457,58213 -256028,147137 -334727,266795 -78687,119658 -118036,265736 -118036,438212 0,79768 7545,135289 22636,166553 15091,31263 22636,49046 22636,53359 -116426,0 -203199,-24258 -260331,-72763 -57132,-48516 -85703,-128825 -85703,-240937 0,-137981 56591,-272189 169785,-402625 113194,-130447 258179,-236084 434969,-316933 176790,-80849 353590,-121280 530380,-121280 30182,0 73304,2162 129354,6464l-498036 2322016c60375,15091 122361,37187 185957,66299 63607,29101 140684,68450 231230,118036 140143,75455 259801,133127 358974,173017 99184,39890 202669,59835 310469,59835 97021,0 187567,-17253 271649,-51749 -17242,157385 -55510,281357 -114804,371914 -59283,90546 -133127,135830 -221522,135830z"/>
   <path id="1" fill="#669999" fill-rule="nonzero" d="M14809558 2649321c-103486,0 -187027,-32344 -250634,-97021 -63607,-64677 -95400,-161699 -95400,-291053 0,-53911 8615,-123971 25869,-210215l219911 -1038112 465692 0 -232840 1099557c-6476,32344 -9708,62526 -9708,90557 0,88395 32344,132587 97021,132587 60364,0 112112,-25328 155234,-75995 43122,-50667 77617,-120198 103486,-208593l219911 -1038112 465692 0 -232840 1099557c-8627,32344 -12940,66839 -12940,103486 0,43122 10237,73844 30723,92168 20485,18334 54440,27490 101875,27490 60364,0 112653,-25869 156845,-77617 44203,-51737 79239,-120728 105107,-206972l135830 0c-79779,232851 -178411,390777 -295918,473778 -117496,83012 -235543,124512 -354120,124512 -92708,0 -166553,-25869 -221533,-77617 -54969,-51749 -87854,-128285 -98632,-229608 -73304,118577 -150380,199426 -231230,242548 -80849,43122 -163320,64677 -247402,64677z"/>
   <path id="2" fill="#669999" fill-rule="nonzero" d="M16585021 2649321c-159536,0 -283508,-41500 -371902,-124512 -88406,-83000 -132598,-212907 -132598,-389696 0,-148759 29641,-312620 88935,-491560 59283,-178952 154153,-333646 284589,-464081 130436,-130436 295907,-195653 496414,-195653 129366,0 221533,28020 276514,84081 54981,56051 82460,127203 82460,213436 0,75466 -16161,133679 -48505,174639 -32344,40971 -73304,61445 -122890,61445 -36658,0 -74385,-12929 -113194,-38809 25869,-71142 38809,-134749 38809,-190799 0,-40971 -7545,-73304 -22636,-97021 -15091,-23718 -37727,-35576 -67909,-35576 -64688,0 -129366,52818 -194043,158466 -64677,105648 -117507,233921 -158466,384842 -40960,150921 -61445,286751 -61445,407490 0,105637 18323,177330 54981,215058 36646,37727 95940,56591 177871,56591 116414,0 216139,-26950 299139,-80849 83012,-53900 174098,-135819 273270,-245780l109961 0c-239316,398863 -535763,598289 -889354,598289z"/>
   <path id="3" fill="#669999" fill-rule="nonzero" d="M17826873 2649321c-159536,0 -283508,-41500 -371902,-124512 -88406,-83000 -132598,-212907 -132598,-389696 0,-148759 29101,-312620 87314,-491560 58213,-178952 153083,-333646 284600,-464081 131505,-130436 298598,-195653 501268,-195653 237153,0 355730,103486 355730,310457 0,120739 -34495,231770 -103486,333105 -68991,101335 -160617,182713 -274881,244170 -114275,61445 -236084,96481 -365449,105096 -4313,64688 -6464,107799 -6464,129366 0,105637 18323,177330 54981,215058 36646,37727 95940,56591 177871,56591 116414,0 216139,-26950 299139,-80849 83012,-53900 174098,-135819 273270,-245780l109961 0c-239316,398863 -535763,598289 -889354,598289zm6464 -827909c79779,-4302 155775,-32333 227998,-84081 72234,-51737 130447,-117496 174639,-197275 44203,-79768 66299,-163850 66299,-252244 0,-88395 -26950,-132598 -80849,-132598 -77617,0 -153613,67921 -227998,203739 -74385,135830 -127744,289983 -160088,462459z"/>
   <path id="4" fill="#669999" fill-rule="nonzero" d="M19773732 2649321c-131505,0 -227986,-35036 -289443,-105107 -61445,-70072 -92168,-156845 -92168,-260331 0,-45284 5394,-96481 16172,-153624 10778,-57132 22096,-112642 33955,-166541 11859,-53900 19945,-88395 24258,-103497 17253,-75455 33414,-149840 48516,-223144 15091,-73304 22636,-132587 22636,-177871 0,-109950 -38809,-164931 -116426,-164931 -56062,0 -105648,27490 -148770,82471 -43111,54969 -77617,126663 -103486,215058l-219911 1038112 -465692 0 342802 -1616997 465692 0 -35565 168163c107799,-120728 233921,-181103 378378,-181103 109950,0 197264,30193 261952,90557 64677,60364 97021,151991 97021,274892 0,62515 -7557,132046 -22648,208593 -15091,76536 -36646,169785 -64677,279735 -17242,66839 -32874,132057 -46895,195653 -14010,63607 -21015,113734 -21015,150380 0,43122 9697,76547 29101,100254 19404,23718 52818,35576 100254,35576 64677,0 116426,-23177 155234,-69531 38809,-46354 77617,-118036 116426,-215058l135830 0c-79779,237165 -171947,396160 -276514,477010 -104567,80849 -212907,121280 -325019,121280z"/>
   <path id="5" fill="#669999" fill-rule="nonzero" d="M20627510 2649321c-122890,0 -225295,-42041 -307225,-126122 -81930,-84093 -122890,-215598 -122890,-394550 0,-159548 31804,-327170 95400,-502890 63607,-175708 158466,-324478 284589,-446287 126133,-121820 276514,-182725 451152,-182725 88395,0 154153,15091 197264,45273 43122,30193 64688,70072 64688,119658l0 22648 35565 -171406 465703 0 -232851 1099557c-8627,32344 -12940,66839 -12940,103486 0,43122 10248,73844 30723,92168 20485,18334 54440,27490 101875,27490 30182,0 53900,-4313 71153,-12929 -47435,120728 -92708,205350 -135830,253866 -43122,48505 -105648,72763 -187579,72763 -88395,0 -160077,-26409 -215058,-79228 -54981,-52830 -88935,-126674 -101864,-221533 -131517,200507 -292145,300761 -481875,300761zm210215 -313701c53900,0 107259,-25328 160077,-75995 52830,-50667 88935,-120198 108340,-208593l155234 -730887c0,-28020 -10778,-55510 -32333,-82460 -21567,-26950 -54981,-40430 -100254,-40430 -86244,0 -163861,50127 -232851,150380 -68991,100254 -122890,220993 -161699,362206 -38809,141224 -58213,265736 -58213,373535 0,107799 15632,176790 46895,206972 31263,30182 69531,45273 114804,45273z"/>
   <polygon fill="#669999" fill-rule="nonzero" points="16202139,3833534 15863527,3833534 15863527,3227598 16202139,3227598 16202139,3294640 15939905,3294640 15939905,3483886 16186856,3483886 16186856,3550083 15939905,3550083 15939905,3766492 16202139,3766492 "/>
   <path id="1" fill="#669999" fill-rule="nonzero" d="M16425327 3833534l-172274 -454880 79768 0 96751 268180c4527,12444 9336,26308 14427,41579 5090,15282 9618,29844 13582,43708 3953,13863 6791,25598 8480,35216l3401 0c2264,-9618 5518,-21499 9753,-35644 4246,-14145 9055,-28853 14427,-44124 5383,-15282 10046,-28853 14010,-40734l96740 -268180 79779 0 -173129 454880 -85714 0z"/>
   <path id="2" fill="#669999" fill-rule="nonzero" d="M16931979 3370174c39034,0 72561,8480 100569,25452 27997,16972 49496,40881 64497,71716 14990,30835 22490,66896 22490,108205l0 44980 -311460 0c1126,51478 14280,90658 39462,117529 25182,26882 60398,40318 105659,40318 28853,0 54451,-2692 76806,-8064 22344,-5372 45397,-13154 69159,-23335l0 65342c-23200,10181 -46106,17681 -68743,22490 -22625,4809 -49507,7219 -80624,7219 -42998,0 -81041,-8773 -114140,-26308 -33099,-17546 -58844,-43708 -77223,-78507 -18391,-34799 -27580,-77369 -27580,-127721 0,-49789 8345,-92505 25035,-128149 16690,-35644 40160,-63078 70432,-82313 30272,-19235 65488,-28853 105659,-28853zm-845 61096c-35644,0 -63799,11465 -84442,34371 -20654,22918 -32964,54744 -36917,95479l231680 0c-563,-38471 -9618,-69734 -27164,-93778 -17535,-24044 -45262,-36072 -83158,-36072z"/>
   <path id="3" fill="#669999" fill-rule="nonzero" d="M17453901 3370174c54316,0 95332,13154 123059,39462 27716,26308 41579,68878 41579,127721l0 296177 -73833 0 0 -291087c0,-72988 -33943,-109477 -101842,-109477 -50352,0 -85140,14145 -104375,42435 -19235,28290 -28853,69024 -28853,122203l0 235926 -74689 0 0 -454880 60263 0 11025 61952 4246 0c14708,-23763 35081,-41444 61107,-53044 26015,-11589 53460,-17388 82313,-17388z"/>
   <path id="4" fill="#669999" fill-rule="nonzero" d="M17911326 3780919c11318,0 22918,-991 34799,-2973 11881,-1982 21499,-4099 28853,-6363l0 56861c-7928,3964 -19235,7208 -33955,9753 -14708,2556 -28853,3829 -42424,3829 -23763,0 -45690,-4111 -65770,-12309 -20091,-8210 -36353,-22490 -48798,-42863 -12456,-20362 -18672,-48933 -18672,-85714l0 -264779 -64497 0 0 -35644 65342 -29698 29709 -96751 44124 0 0 104387 131539 0 0 57706 -131539 0 0 263090c0,27716 6645,48224 19945,61524 13300,13300 30407,19945 51343,19945z"/>
   <path id="5" fill="#669999" fill-rule="nonzero" d="M18461257 3605244c0,75252 -19089,133521 -57278,174830 -38189,41297 -89825,61952 -154885,61952 -40171,0 -75950,-9201 -107349,-27592 -31409,-18379 -56152,-45250 -74261,-80613 -18109,-35362 -27152,-78225 -27152,-128577 0,-75241 18954,-133240 56850,-173974 37908,-40734 89397,-61096 154457,-61096 41309,0 77651,9190 109049,27580 31409,18379 56017,44980 73833,79768 17828,34799 26736,77369 26736,127721zm-343702 0c0,53753 10609,96323 31826,127721 21217,31398 55014,47109 101414,47109 45825,0 79487,-15710 100986,-47109 21499,-31398 32254,-73968 32254,-127721 0,-53742 -10755,-95895 -32254,-126449 -21499,-30554 -55442,-45825 -101830,-45825 -46399,0 -80061,15271 -100997,45825 -20936,30554 -31398,72707 -31398,126449z"/>
   <path id="6" fill="#669999" fill-rule="nonzero" d="M18875403 3707930c0,44135 -16409,77516 -49226,100141 -32817,22636 -76941,33955 -132395,33955 -31680,0 -58979,-2556 -81897,-7647 -22907,-5090 -43133,-12163 -60668,-21217l0 -67887c18098,9055 40025,17400 65770,25035 25733,7636 51906,11453 78496,11453 37908,0 65342,-6081 82325,-18244 16972,-12163 25452,-28425 25452,-48798 0,-11318 -3108,-21499 -9336,-30554 -6217,-9043 -17388,-18098 -33515,-27152 -16127,-9055 -39180,-19235 -69171,-30554 -29416,-11318 -54598,-22625 -75522,-33943 -20936,-11318 -37063,-24900 -48381,-40734 -11307,-15846 -16972,-36207 -16972,-61107 0,-38471 15699,-68168 47097,-89104 31409,-20936 72561,-31398 123487,-31398 27716,0 53607,2680 77651,8064 24044,5372 46534,12861 67470,22479l-25463 59407c-19235,-7917 -39327,-14708 -60251,-20362 -20936,-5665 -42435,-8491 -64497,-8491 -30554,0 -53900,4955 -70015,14854 -16127,9899 -24191,23335 -24191,40306 0,12456 3683,23064 11037,31826 7354,8773 19652,17253 36917,25463 17253,8199 40306,17963 69159,29281 28853,10744 53472,21781 73833,33099 20373,11307 35926,25035 46681,41151 10744,16127 16127,36353 16127,60679z"/>
   <path id="7" fill="#669999" fill-rule="nonzero" d="M19449941 3370174c39034,0 72561,8480 100569,25452 27997,16972 49496,40881 64497,71716 14990,30835 22490,66896 22490,108205l0 44980 -311460 0c1126,51478 14280,90658 39462,117529 25182,26882 60398,40318 105659,40318 28853,0 54451,-2692 76806,-8064 22344,-5372 45397,-13154 69159,-23335l0 65342c-23200,10181 -46106,17681 -68743,22490 -22625,4809 -49507,7219 -80624,7219 -42998,0 -81041,-8773 -114140,-26308 -33099,-17546 -58844,-43708 -77223,-78507 -18391,-34799 -27580,-77369 -27580,-127721 0,-49789 8345,-92505 25035,-128149 16690,-35644 40160,-63078 70432,-82313 30272,-19235 65488,-28853 105659,-28853zm-845 61096c-35644,0 -63799,11465 -84442,34371 -20654,22918 -32964,54744 -36917,95479l231680 0c-563,-38471 -9618,-69734 -27164,-93778 -17535,-24044 -45262,-36072 -83158,-36072z"/>
   <path id="8" fill="#669999" fill-rule="nonzero" d="M20431834 3833534l-72988 -187556 -240160 0 -72144 187556 -77223 0 236771 -608481 68743 0 235926 608481 -78924 0zm-163793 -438753c-1689,-4527 -4527,-12726 -8480,-24607 -3964,-11881 -7782,-24191 -11465,-36917 -3671,-12737 -6645,-22490 -8908,-29281 -3953,17535 -8480,34653 -13571,51343 -5102,16690 -9336,29844 -12737,39462l-68743 183310 191802 0 -67898 -183310z"/>
   <path id="9" fill="#669999" fill-rule="nonzero" d="M20735646 3780919c11318,0 22918,-991 34799,-2973 11881,-1982 21499,-4099 28853,-6363l0 56861c-7928,3964 -19235,7208 -33955,9753 -14708,2556 -28853,3829 -42424,3829 -23763,0 -45690,-4111 -65770,-12309 -20091,-8210 -36353,-22490 -48798,-42863 -12456,-20362 -18672,-48933 -18672,-85714l0 -264779 -64497 0 0 -35644 65342 -29698 29709 -96751 44124 0 0 104387 131539 0 0 57706 -131539 0 0 263090c0,27716 6645,48224 19945,61524 13300,13300 30407,19945 51343,19945z"/>
   <path id="10" fill="#669999" fill-rule="nonzero" d="M20928293 3208081c11318,0 21364,3818 30126,11453 8773,7636 13154,19663 13154,36072 0,15834 -4381,27716 -13154,35644 -8762,7917 -18807,11870 -30126,11870 -12444,0 -22907,-3953 -31398,-11870 -8480,-7928 -12726,-19810 -12726,-35644 0,-16409 4246,-28436 12726,-36072 8491,-7636 18954,-11453 31398,-11453zm36500 170573l0 454880 -74689 0 0 -454880 74689 0z"/>
   <path id="11" fill="#669999" fill-rule="nonzero" d="M21209199 3833534l-172274 -454880 79768 0 96751 268180c4527,12444 9336,26308 14427,41579 5090,15282 9618,29844 13582,43708 3953,13863 6791,25598 8480,35216l3401 0c2264,-9618 5518,-21499 9753,-35644 4246,-14145 9055,-28853 14427,-44124 5383,-15282 10046,-28853 14010,-40734l96740 -268180 79779 0 -173129 454880 -85714 0z"/>
   <path id="12" fill="#669999" fill-rule="nonzero" d="M21712460 3371019c55442,0 96458,12163 123048,36489 26589,24326 39890,63089 39890,116268l0 309759 -54316 0 -14427 -64497 -3390 0c-19810,24889 -40599,43280 -62380,55161 -21781,11881 -51906,17828 -90377,17828 -41309,0 -75534,-10902 -102697,-32682 -27152,-21781 -40734,-55870 -40734,-102258 0,-45262 17828,-80196 53472,-104815 35644,-24607 90523,-38043 164638,-40306l77223 -2545 0 -27152c0,-37908 -8199,-64215 -24607,-78924 -16409,-14719 -39608,-22073 -69587,-22073 -23763,0 -46399,3536 -67898,10609 -21499,7072 -41579,15136 -60251,24191l-22918 -56017c19810,-10744 43291,-19945 70443,-27580 27152,-7636 55442,-11453 84870,-11453zm22062 242717c-56580,2264 -95760,11318 -117541,27152 -21781,15846 -32671,38189 -32671,67042 0,25463 7782,44135 23335,56017 15564,11881 35498,17816 59835,17816 38471,0 70432,-10609 95895,-31826 25463,-21206 38189,-53888 38189,-98012l0 -40734 -67042 2545z"/>
   <path id="13" fill="#669999" fill-rule="nonzero" d="M22198739 3842026c-40171,0 -75962,-8210 -107360,-24619 -31398,-16409 -56006,-41861 -73833,-76378 -17816,-34507 -26725,-78642 -26725,-132384 0,-56017 9325,-101560 27997,-136641 18672,-35070 43989,-60814 75962,-77223 31961,-16409 68315,-24607 109049,-24607 23200,0 45543,2399 67042,7208 21499,4809 39034,10609 52616,17400l-22907 61952c-13582,-5090 -29427,-9899 -47525,-14427 -18109,-4527 -35081,-6791 -50926,-6791 -89386,0 -134084,57425 -134084,172274 0,54879 10890,96886 32671,126032 21781,29135 54170,43708 97168,43708 24900,0 46827,-2556 65781,-7647 18943,-5090 36342,-11307 52188,-18672l0 66198c-15271,7928 -32108,14010 -50498,18244 -18379,4246 -40588,6374 -66614,6374zm69587 109466c0,27164 -10462,48235 -31398,63236 -20936,14990 -52334,22479 -94206,22479 -18098,0 -32243,-1408 -42424,-4234l0 -46681c5090,1137 11870,2117 20362,2973 8491,845 16690,1273 24607,1273 20373,0 35926,-2692 46681,-8064 10744,-5372 16127,-15136 16127,-29281 0,-14708 -7500,-25452 -22490,-32243 -15001,-6791 -33245,-11600 -54744,-14427l36500 -72988 49215 0 -22062 44980c20373,4527 37761,12444 52188,23763 14427,11318 21645,27716 21645,49215z"/>
   <path id="14" fill="#669999" fill-rule="nonzero" d="M22819101 3605244c0,75252 -19089,133521 -57278,174830 -38189,41297 -89825,61952 -154885,61952 -40171,0 -75950,-9201 -107349,-27592 -31409,-18379 -56152,-45250 -74261,-80613 -18109,-35362 -27152,-78225 -27152,-128577 0,-75241 18954,-133240 56850,-173974 37908,-40734 89397,-61096 154457,-61096 41309,0 77651,9190 109049,27580 31409,18379 56017,44980 73833,79768 17828,34799 26736,77369 26736,127721zm-343702 0c0,53753 10609,96323 31826,127721 21217,31398 55014,47109 101414,47109 45825,0 79487,-15710 100986,-47109 21499,-31398 32254,-73968 32254,-127721 0,-53742 -10755,-95895 -32254,-126449 -21499,-30554 -55442,-45825 -101830,-45825 -46399,0 -80061,15271 -100997,45825 -20936,30554 -31398,72707 -31398,126449zm-22062 -285996c3390,-33380 13154,-59823 29281,-79351 16116,-19517 37480,-29270 64069,-29270 16972,0 32952,4099 47942,12298 15001,8210 29281,16273 42863,24191 13582,7917 26308,11881 38189,11881 13008,0 23053,-4099 30126,-12309 7072,-8199 12591,-20508 16555,-36917l42424 0c-3390,32817 -13008,59125 -28853,78924 -15834,19810 -37052,29709 -63641,29709 -15846,0 -31263,-3964 -46253,-11881 -15001,-7917 -29427,-15981 -43280,-24191 -13863,-8199 -27017,-12298 -39473,-12298 -13571,0 -23763,4099 -30542,12298 -6791,8210 -12163,20508 -16127,36917l-43280 0z"/>
   <path id="15" fill="#669999" fill-rule="nonzero" d="M23112733 3370174c39034,0 72561,8480 100569,25452 27997,16972 49496,40881 64497,71716 14990,30835 22490,66896 22490,108205l0 44980 -311460 0c1126,51478 14280,90658 39462,117529 25182,26882 60398,40318 105659,40318 28853,0 54451,-2692 76806,-8064 22344,-5372 45397,-13154 69159,-23335l0 65342c-23200,10181 -46106,17681 -68743,22490 -22625,4809 -49507,7219 -80624,7219 -42998,0 -81041,-8773 -114140,-26308 -33099,-17546 -58844,-43708 -77223,-78507 -18391,-34799 -27580,-77369 -27580,-127721 0,-49789 8345,-92505 25035,-128149 16690,-35644 40160,-63078 70432,-82313 30272,-19235 65488,-28853 105659,-28853zm-845 61096c-35644,0 -63799,11465 -84442,34371 -20654,22918 -32964,54744 -36917,95479l231680 0c-563,-38471 -9618,-69734 -27164,-93778 -17535,-24044 -45262,-36072 -83158,-36072z"/>
   <path id="16" fill="#669999" fill-rule="nonzero" d="M23711890 3707930c0,44135 -16409,77516 -49226,100141 -32817,22636 -76941,33955 -132395,33955 -31680,0 -58979,-2556 -81897,-7647 -22907,-5090 -43133,-12163 -60668,-21217l0 -67887c18098,9055 40025,17400 65770,25035 25733,7636 51906,11453 78496,11453 37908,0 65342,-6081 82325,-18244 16972,-12163 25452,-28425 25452,-48798 0,-11318 -3108,-21499 -9336,-30554 -6217,-9043 -17388,-18098 -33515,-27152 -16127,-9055 -39180,-19235 -69171,-30554 -29416,-11318 -54598,-22625 -75522,-33943 -20936,-11318 -37063,-24900 -48381,-40734 -11307,-15846 -16972,-36207 -16972,-61107 0,-38471 15699,-68168 47097,-89104 31409,-20936 72561,-31398 123487,-31398 27716,0 53607,2680 77651,8064 24044,5372 46534,12861 67470,22479l-25463 59407c-19235,-7917 -39327,-14708 -60251,-20362 -20936,-5665 -42435,-8491 -64497,-8491 -30554,0 -53900,4955 -70015,14854 -16127,9899 -24191,23335 -24191,40306 0,12456 3683,23064 11037,31826 7354,8773 19652,17253 36917,25463 17253,8199 40306,17963 69159,29281 28853,10744 53472,21781 73833,33099 20373,11307 35926,25035 46681,41151 10744,16127 16127,36353 16127,60679z"/>
  </g>
 </g>
</svg>
