<?xml version="1.0" encoding="UTF-8"?>
<!DOCTYPE svg PUBLIC "-//W3C//DTD SVG 1.1//EN" "http://www.w3.org/Graphics/SVG/1.1/DTD/svg11.dtd">
<!-- Creator: CorelDRAW 2020 (64 Bit) -->
<svg xmlns="http://www.w3.org/2000/svg" xml:space="preserve" width="190.436mm" height="61.2684mm" version="1.1" shape-rendering="geometricPrecision" text-rendering="geometricPrecision" image-rendering="optimizeQuality" fill-rule="evenodd" clip-rule="evenodd"
viewBox="0 0 19029171 6122211"
 xmlns:xlink="http://www.w3.org/1999/xlink"
 xmlns:xodm="http://www.corel.com/coreldraw/odm/2003">
 <g id="Camada_x0020_1">
  <metadata id="CorelCorpID_0Corel-Layer"/>
  <rect fill="black" y="277100" width="19029171" height="5568009"/>
  <path fill="yellow" d="M3443786 2927906c3018,60474 31586,54349 -16617,100864 -48673,46984 -92260,95618 -150976,136477 -43497,30277 -52760,46175 -96797,19915 8633,-45536 64881,-62673 108748,-84176 42538,-20864 84296,-49323 81468,-113934 -50902,-70776 -111885,-24032 -183102,12541 -207333,106509 -652826,255697 -695604,428786 -26500,107159 50812,136657 107868,176167 144461,100024 281247,55488 435681,-13750 290111,-130032 483524,-288092 663079,-460592 76882,-73854 96277,-48164 218035,-60874 60414,-6305 191995,-23362 242986,-43977 37022,-14959 47294,-36772 66979,-68408 31866,-51231 105440,-96217 151695,-135667 31856,-27169 53579,-49233 83127,-12810 26430,56807 -87973,253069 -17677,422271 159599,384160 598028,230456 843472,43407 72525,-55278 66700,-64371 126964,-132929 35803,31756 27939,54659 80089,78511 131660,60254 261113,-52950 352653,-129442 88223,-73734 153054,-176756 237400,-261103 23742,-23762 55388,-72695 97516,-69657 26670,61813 17057,336056 72565,502620 55128,165395 236961,219494 383540,145780 202237,-101703 285794,-281487 432613,-428936 36822,-36972 100794,-137016 144970,-154663 13600,33994 35503,64501 49253,103342 42558,120209 83327,217526 232974,248742 99345,20714 174018,-11821 250291,-52051 43207,-22793 178065,-93999 199529,-120409l-88783 -221363c-55258,14739 -72655,34194 -144860,17287 -37282,-8723 -63482,-43747 -75303,-85815 -17817,-63342 -18436,-385928 -57317,-423889 -21664,-21144 -74863,-38051 -117251,-41988 -109697,-10182 -161468,55708 -202047,119600 -49902,78591 -58046,114433 -123507,197661 -83157,105740 -114733,168583 -211840,278080 -54239,61164 -86495,120639 -159140,161938 -33165,18856 -75673,51951 -111336,57986 -43457,-35573 -39520,-110996 -40330,-177446 -869,-72345 -2408,-150326 5536,-220833 12381,-109807 54679,-267488 90741,-365723 21394,-58306 26050,-122697 47844,-180294 31206,-82438 137226,-321207 -46385,-282696 -198000,41519 -251080,159200 -360617,323715l-100174 127793c-18186,22423 -33325,34354 -52500,57147 -110916,131920 -183171,246973 -313043,371599 -36882,35393 -112965,202667 -183112,60544 288442,-367932 141493,-976092 -303510,-817622l-113704 39880c-28488,7954 -52231,9883 -38821,-30397 3188,-9563 11261,-26160 16078,-36253 14429,-30217 27449,-41449 17996,-71346 -39880,-55738 -171201,-29288 -217256,-1079 -81658,50032 -151455,145450 -221353,209711 -51701,47544 -107339,80429 -148388,138845 -85895,122208 -188268,179175 -283346,282706 -98316,107059 -155053,111985 -240388,190406 -48583,44636 -69927,149757 -163217,114403 -33964,-34144 -22423,-251500 -37741,-316870 -29178,-124426 -74514,-217785 -155542,-292799 -42858,-39680 -83697,-104991 -124246,-146379 -37951,-38721 -46865,-53450 -84476,-92610 -92780,-96587 -338534,-389825 -406113,-498363 -215607,-346348 -86045,-532198 181992,-765061 48084,-41768 92680,-95868 150466,-128883 73654,-42068 82697,11162 33804,59795 -56467,56138 -163586,98575 -181413,184670 -13979,67449 27509,101643 93539,92430 140334,-19575 522805,-328422 651577,-431344 85216,-68099 90122,-167723 87754,-279249 -6405,-301092 -298614,-154073 -447452,-80779 -124716,61414 -255167,91851 -362476,178375 -35004,28229 -66170,42908 -115932,69837 -97586,52820 -218725,152745 -303201,229526 -90721,82458 -189876,180623 -245145,303770 -40100,89342 -87884,156462 -111046,251999 -55518,229077 -6085,453977 118650,569679 149277,138455 60504,159220 239599,301092 92930,73614 131161,128283 187148,176277 67559,57916 111666,117751 168842,185949 85156,101613 169202,196701 217635,331619 32965,91881 -58256,173719 -119620,228717z"/>
  <path fill="#66FFCC" d="M1205508 5606730l0 148678c16977,39610 14309,107179 24641,155253 13889,64691 25241,63502 78211,91171 98106,51261 103812,99175 258724,83807 89822,-8903 213389,-25711 304590,-41059 96157,-16188 168672,-62533 250591,-96247l245354 -100674c141073,-74773 155442,-166214 238250,-285824 47594,-68748 171350,-249891 248572,-267338 37701,68059 16468,176277 30857,262062 23322,139135 30317,345729 180484,402945 241627,92030 416305,-132999 546926,-286333l203316 -236271c28299,-29568 39410,-60894 79730,-72016 13750,38691 34224,67769 49782,112055 44027,125275 85335,208572 233663,239989 189237,40090 309196,-114873 451459,-166384 -6425,75483 -28598,88533 -21764,174148 13160,164685 95208,231565 220184,313523 120459,79010 95907,88793 280218,82368 99525,-3457 214738,-19555 301002,-52460 85875,-32755 173809,-86355 229826,-133559 89672,-75563 96387,-95448 203486,-151196 81109,-42218 240758,-168053 309236,-231735 28199,-26220 53819,-76282 98266,-79050 65291,-4097 115463,158310 143501,216496 92490,191875 358869,221642 502640,142332 36203,-19975 97097,-19275 142153,-35163 100514,-35443 198760,-111955 275032,-181503 15448,-14089 26540,-29018 40899,-43217 39290,-38871 43287,-62733 73964,-103522 37202,-49473 95458,-89113 142272,-128143l131581 -130411c21364,-21923 183191,-207563 218645,-108228 3447,9693 3587,12441 4137,23212 1809,35373 -67379,237241 -79630,278909 -30657,104221 -64261,204675 -96257,309466 -38431,125855 -78081,176796 -44876,321977 13740,60065 70467,64811 141463,61124 78381,-4057 98985,-24941 140004,-62143l202337 -203276c35863,-35873 65580,-65520 101453,-101393 63122,-63092 114843,-179354 185510,-220134 113994,-65800 258105,-227148 360897,-239369 38471,39480 56427,59815 90482,108968 27209,39290 59505,71816 87274,107279 61623,78681 82148,186459 155552,241437 87304,65381 218585,58286 300912,-350l217655 -180434 -22283 -70717c9773,36333 46145,64551 23242,114713 -8603,18836 -50002,60874 -66760,85385 -79560,116402 -75263,376495 142512,393662 73145,5766 173928,-50772 227248,-82957 241807,-145910 242427,-179344 426388,-359348 22093,-21614 56887,-45755 85266,-66839l172540 -142972c83627,96527 -3647,452608 371749,450669 109737,-570 231345,-66550 291170,-122687l156362 -147988c19215,-21794 28818,-31446 48983,-50322 -7654,-54079 -62393,-186959 -90961,-220503 -50052,34954 -143711,150936 -190786,165095 -91990,27689 -167274,-85485 -177676,-166024 -13360,-103482 23962,-239299 -4037,-335316 -85246,-292249 -496025,178025 -511293,188348l-290221 242177c-27090,26220 -163526,150576 -211620,125705 -8554,-26240 66110,-120639 83637,-144071 58096,-77691 111586,-129482 177516,-193933 21714,-21234 39830,-34824 61983,-56507 73484,-71956 156362,-190276 164935,-198440 23872,-22693 37252,-23432 64871,-53350 22453,-24332 36442,-31706 60085,-58396 81958,-92540 109817,-100244 183861,-179185 19385,-20684 43077,-35763 61144,-56957 49792,-58406 65031,-68288 129042,-116272 13560,-10172 19765,-16647 32246,-26780 149177,-120929 97576,-389515 -304919,-161358 -105190,59625 -187718,134308 -277380,204236l-129622 115523c-20914,18976 -36372,41678 -59455,58636 -52151,38331 -92830,59865 -142282,102542 -45346,39110 -93799,97656 -128393,116892 -65840,36622 -75053,72445 -117131,127953 -73404,96847 -218215,135937 -270406,211240 -32985,47604 -59125,98036 -113364,122817 -157711,72085 -210441,-206844 -250191,-332768 -40799,-129262 -101064,-232254 -257026,-232564 -167244,-340 -350345,170231 -447462,278350l-232065 249511c-34584,37242 -68089,101423 -115503,121348 -30077,-62852 19605,-139335 45436,-199879 27739,-65031 47084,-133199 69418,-200848 44656,-135228 195182,-533876 33235,-633061 -57846,-35423 -164206,-25241 -223641,3327 -198460,95338 -159519,129622 -287163,253428 -42788,41499 -101473,97396 -137776,141113 -56397,67939 -263641,303271 -322596,353103 -76622,64761 -157111,184880 -200339,205315 -129072,61014 -272174,124556 -417854,83977 -70866,-19735 -126984,-59315 -144930,-125795 -30187,-111726 16927,-145100 67269,-191595 74823,-69118 132290,-140993 197571,-208103 113134,-116292 212259,-259754 252509,-422700 25840,-104591 49283,-95798 26000,-219524 -34754,-184720 -107469,-250760 -315751,-205964 -138705,29837 -218115,151146 -298364,250770 -90132,111895 -152834,190586 -211370,329401 -84526,200478 -77551,215877 -116752,424249 -13310,70657 -89472,91771 -129122,140973 -21004,26070 -38271,51141 -57626,77521l-204905 209282 -335696 204785c-78061,47694 -113065,41309 -202037,68468 -46825,14299 -50872,30337 -98525,15578 -39240,-12151 -64851,-19185 -99815,-36353 -64751,-31776 -102862,-76102 -109068,-164286 -3887,-55248 18386,-189367 40719,-233713 34374,-68248 151216,-149897 214468,-199649l228108 -177376c28478,-20674 43417,-45855 69258,-65760 26730,-20594 60764,-28339 92480,-43267 33655,-15848 53410,-33155 86864,-47734 95148,-41489 178955,-94668 187228,-221013 5386,-82328 20295,-200169 -56597,-216936 -173249,-37751 -429825,197421 -465388,213019 -85705,37582 -182862,100334 -245974,159330 -113424,106030 -248552,208882 -366973,308986 -74514,62992 -169092,105850 -225440,180254 -53550,70727 -64891,107928 -178385,87474 -76322,-13760 -90492,-90681 -93809,-174928 -3018,-76702 -18266,-172260 -24971,-254388 -7764,-95128 -49343,-118500 -145640,-124726 -180144,-11641 -197950,161818 -276051,263081 -75523,97926 -276111,377335 -356780,454316 -25161,24012 -137986,91841 -169222,98645 -100734,-95718 -12331,-586057 42788,-732196 26940,-71446 36872,-153274 64551,-222462 66839,-166994 122497,-364285 -150516,-235422 -32066,15139 -73454,29338 -94109,49732 -60234,59455 -124596,173689 -174158,248502 -54459,82208 -108208,127404 -164516,198510l-156552 198270c-20115,25411 -41459,54529 -65191,78621 -37851,38401 -77092,69298 -103712,116022 -6605,11611 -20654,29378 -29628,37861 -23312,22043 -49942,34824 -77871,65750 -32316,35793 -20015,53560 -73025,70727 -69268,22443 -133529,52021 -212010,75363 -90681,26970 -396660,96947 -481916,73864 -111076,-94728 18606,-672731 52310,-815503 17087,-72395 23952,-136976 33964,-212829 14119,-106979 76742,-263531 102532,-378104 16048,-71266 7924,-133299 28069,-208662 37582,-140654 86704,-220743 92440,-391254 2488,-73514 17007,-143921 25401,-216716 5186,-45106 2568,-62383 23772,-95328 55488,-86245 36372,-190316 61494,-301232 14989,-66180 28249,-133289 36662,-200888 8044,-64611 -2148,-151865 -42438,-188517 -50612,-46055 -123047,-20764 -181683,-1449 -162007,53370 -159469,113434 -221293,260483 -42788,101753 -109797,235052 -138176,343620 -33205,126974 -51271,265349 -85625,395971 -32196,122407 -71596,268307 -88583,391994 -4656,33894 -15079,77002 -14409,110986 2118,107818 101703,4956 63072,267927 -20215,137656 -56657,269526 -72785,409301 -12620,109337 4377,157941 -869,226239l-127144 583709z"/>
  <path fill="#6699FF" d="M5243755 2352321c-73684,43287 -102702,156702 -156781,207203 -100194,93539 -123527,-9383 -195162,176646 -72375,187938 -159459,500262 185600,388406 161518,-52350 232854,-209352 331569,-310665 42058,-43157 57117,-142602 76542,-202197 25581,-78531 25011,-98625 -31226,-206404 -26590,-50931 -112815,-56917 -169022,-60884 -40110,-2838 -14389,-8034 -41519,7894z"/>
  <path fill="red" d="M6815267 4547252c-112005,41429 -307088,424819 -166864,360597 20025,-9173 51681,-69667 69927,-91751 44506,-53829 109557,-93070 141533,-179614 15538,-42028 19026,-112755 -44596,-89233z"/>
  <path fill="#66FFCC" fill-rule="nonzero" d="M11155844 4330485c-19795,60804 -19066,149377 -18286,246294 1479,181992 3168,387757 -105200,596029l-249711 -129812c76952,-147908 75583,-315661 74384,-464019 -989,-121658 -1899,-232844 31486,-335416l267328 86924z"/>
 </g>
</svg>
