<?xml version="1.0" encoding="UTF-8"?>
<!DOCTYPE svg PUBLIC "-//W3C//DTD SVG 1.1//EN" "http://www.w3.org/Graphics/SVG/1.1/DTD/svg11.dtd">
<!-- Creator: CorelDRAW 2020 (64 Bit) -->
<svg xmlns="http://www.w3.org/2000/svg" xml:space="preserve" width="12.6673mm" height="8.1642mm" version="1.1" shape-rendering="geometricPrecision" text-rendering="geometricPrecision" image-rendering="optimizeQuality" fill-rule="evenodd" clip-rule="evenodd"
viewBox="0 0 62.61 40.35"
 xmlns:xlink="http://www.w3.org/1999/xlink"
 xmlns:xodm="http://www.corel.com/coreldraw/odm/2003">
 <g id="Camada_x0020_1">
  <metadata id="CorelCorpID_0Corel-Layer"/>
  <g id="_2290252675248">
   <polygon fill="#666666" points="24.93,39.89 30.03,39.89 30.03,14.92 24.93,14.92 "/>
   <path fill="#666666" d="M34.71 14.96l0 4.68 4.3 0 0 14.08c0,1.94 0.53,3.5 1.56,4.68 1.03,1.22 2.4,1.82 4.12,1.86 1.71,0.04 3.23,-0.34 4.52,-1.14l0.08 -0.04 0 -0.08 1.22 -4.75 -0.3 0.19c-1.37,0.83 -2.63,1.25 -3.78,1.25 -1.59,0 -2.4,-0.94 -2.4,-2.81l0 -13.25 5.22 0 0 -4.68 -5.22 0 0 -7.8 -5.02 2.7 0 5.11 -4.3 0z"/>
   <polygon fill="#666666" points="54.27,39.89 59.42,39.89 59.42,14.92 54.27,14.92 "/>
   <path fill="#666666" d="M22 18.85l-0.11 -0.08c-2.35,-2.86 -5.3,-4.26 -8.83,-4.26 -3.7,0 -6.73,1.14 -9.17,3.38 -2.59,2.37 -3.89,5.56 -3.89,9.55 0,4 1.3,7.16 3.89,9.55 2.4,2.24 5.48,3.35 9.17,3.35 3.53,0 6.5,-1.41 8.83,-4.23l0.11 -0.08 -2.89 -3.49 -0.11 0.11c-1.88,1.86 -3.89,2.82 -6.05,2.82 -2.26,0 -4.12,-0.77 -5.6,-2.29 -1.49,-1.49 -2.2,-3.42 -2.2,-5.75 0,-2.33 0.71,-4.27 2.2,-5.79 1.48,-1.48 3.34,-2.24 5.6,-2.24 2.16,0 4.18,0.96 6.05,2.82l0.11 0.11 2.89 -3.49z"/>
   <path fill="#666666" d="M27.44 10.81c2.01,-2.05 4.26,-3.61 6.82,-4.72 2.46,-1.07 5.09,-1.59 7.8,-1.59 2.7,0 5.33,0.52 7.84,1.59 2.5,1.11 4.75,2.67 6.76,4.72l0.08 0.07 5.86 0 -0.22 -0.34c-2.33,-3.27 -5.34,-5.86 -8.95,-7.75 -3.61,-1.87 -7.38,-2.79 -11.38,-2.79 -3.96,0 -7.77,0.92 -11.39,2.79 -3.61,1.89 -6.63,4.48 -8.94,7.75l-0.23 0.34 5.9 0 0.04 -0.07z"/>
   <polygon fill="#666666" points="24.93,39.89 30.03,39.89 30.03,14.92 24.93,14.92 "/>
   <path fill="#666666" d="M34.71 14.96l0 4.68 4.3 0 0 14.08c0,1.94 0.53,3.5 1.56,4.68 1.03,1.22 2.4,1.82 4.12,1.86 1.71,0.04 3.23,-0.34 4.52,-1.14l0.08 -0.04 0 -0.08 1.22 -4.75 -0.3 0.19c-1.37,0.83 -2.63,1.25 -3.78,1.25 -1.59,0 -2.4,-0.94 -2.4,-2.81l0 -13.25 5.22 0 0 -4.68 -5.22 0 0 -7.8 -5.02 2.7 0 5.11 -4.3 0z"/>
   <polygon fill="#666666" points="54.27,39.89 59.42,39.89 59.42,14.92 54.27,14.92 "/>
   <path fill="#666666" d="M22 18.85l-0.11 -0.08c-2.35,-2.86 -5.3,-4.26 -8.83,-4.26 -3.7,0 -6.73,1.14 -9.17,3.38 -2.59,2.37 -3.89,5.56 -3.89,9.55 0,4 1.3,7.16 3.89,9.55 2.4,2.24 5.48,3.35 9.17,3.35 3.53,0 6.5,-1.41 8.83,-4.23l0.11 -0.08 -2.89 -3.49 -0.11 0.11c-1.88,1.86 -3.89,2.82 -6.05,2.82 -2.26,0 -4.12,-0.77 -5.6,-2.29 -1.49,-1.49 -2.2,-3.42 -2.2,-5.75 0,-2.33 0.71,-4.27 2.2,-5.79 1.48,-1.48 3.34,-2.24 5.6,-2.24 2.16,0 4.18,0.96 6.05,2.82l0.11 0.11 2.89 -3.49z"/>
   <path fill="#666666" d="M27.44 10.81c2.01,-2.05 4.26,-3.61 6.82,-4.72 2.46,-1.07 5.09,-1.59 7.8,-1.59 2.7,0 5.33,0.52 7.84,1.59 2.5,1.11 4.75,2.67 6.76,4.72l0.08 0.07 5.86 0 -0.22 -0.34c-2.33,-3.27 -5.34,-5.86 -8.95,-7.75 -3.61,-1.87 -7.38,-2.79 -11.38,-2.79 -3.96,0 -7.77,0.92 -11.39,2.79 -3.61,1.89 -6.63,4.48 -8.94,7.75l-0.23 0.34 5.9 0 0.04 -0.07z"/>
  </g>
 </g>
</svg>
