<?xml version="1.0" encoding="UTF-8"?>
<!DOCTYPE svg PUBLIC "-//W3C//DTD SVG 1.1//EN" "http://www.w3.org/Graphics/SVG/1.1/DTD/svg11.dtd">
<!-- Creator: CorelDRAW 2020 (64 Bit) -->
<svg xmlns="http://www.w3.org/2000/svg" xml:space="preserve" width="19.8709mm" height="10.7573mm" version="1.1" shape-rendering="geometricPrecision" text-rendering="geometricPrecision" image-rendering="optimizeQuality" fill-rule="evenodd" clip-rule="evenodd"
viewBox="0 0 214.42 116.08"
 xmlns:xlink="http://www.w3.org/1999/xlink"
 xmlns:xodm="http://www.corel.com/coreldraw/odm/2003">
 <g id="Camada_x0020_1">
  <metadata id="CorelCorpID_0Corel-Layer"/>
  <g id="logo_chilli_beans_1c.eps">
   <path fill="#666666" d="M73.41 15.16c-4.11,0.8 -7.01,3.7 -6.47,6.47 0.54,2.77 4.31,4.36 8.43,3.56 4.11,-0.8 7.01,-3.7 6.47,-6.47 -0.54,-2.77 -4.31,-4.36 -8.43,-3.56zm93.66 24.77c12.22,-13.06 -5.62,-13.7 -18.07,-12.27 -40.64,4.67 -64.06,48.65 -111.45,33.84 -7.88,-2.46 -7.48,2.17 -2.97,5.29 44.38,30.71 69.72,-11.5 113.51,-8.24 13.14,0.98 40.47,-12.64 18.99,-18.63l0 0zm42.47 -9.03c-3.24,-5.95 -13.26,-4.68 -24.52,-1.67 -4.18,-10.19 -11.79,-13.54 -23.55,-8.66l-2.45 -5.15c-3.39,0.84 -5.13,2.78 -3.27,7.1 15.93,0.4 23.17,4.69 17.71,14.69 8.8,4.35 8.36,16.92 -13.45,23.41 1.1,2.37 2.07,4.85 5.23,5.49 6.38,-5.89 10,-11.59 18.55,-14.32 3.85,-2.36 5,-7.71 5.4,-13.91 5.18,-2.85 10.97,-2.26 17.36,1.78 -0.03,-3.32 1.2,-6.16 3,-8.77l0 0zm-42.34 -9.97c4.56,0 9.34,1.62 12.19,4.22 0.43,-3.29 -8.64,-5.97 -12.19,-4.22l0 0zm31.85 7.96c2.63,0.39 5.38,1.17 7.03,2.11 0.25,-1.65 -4.98,-2.98 -7.03,-2.11l0 0zm-53.52 0.45c8.2,0.35 14.17,1.68 21.95,5.08 1.28,0.56 0.36,-2.61 -1.42,-3.2 -8.39,-2.75 -13.83,-2.34 -20.52,-1.88l0 0zm-103.44 33.91c27.35,15 53.33,-4.39 75.26,-21.56 -24.27,17.18 -48.81,31.03 -75.26,21.56l0 0zm11.89 17.24c-2.18,-0.58 -4.43,-1.3 -6.75,-2.18l0.5 7.25c1.97,-2.63 4.11,-4.26 6.26,-5.07l0 0zm1.76 8.63c-5.94,-0.38 -7.03,6.16 -5.93,15.84 8.09,3.34 6.03,-11.69 5.93,-15.84l0 0zm28.04 -3.24c4.36,-0.93 7.08,-2.95 6.17,-7.35 -0.25,-0.01 -0.5,-0.01 -0.74,-0 -1.2,0.44 -2.41,0.85 -3.63,1.23 -1.36,1.19 -1.96,3.23 -1.8,6.13l0 0zm38.65 -16.06l-4.37 1.17c-6.95,17.44 7.19,22.06 4.37,-1.17l0 0zm74.06 -17.61c-2.67,-1.18 -5.43,-1.37 -7.42,-0.95 -0.79,1.03 -1.7,1.98 -2.73,2.85 0.4,1 1.8,2.14 4.61,3.25 18.78,7.4 -1.46,24.11 -15.52,18.81l-0.28 -7.87c6.94,5.86 12.44,0.16 3.69,-4.69 -1.26,-0.7 -2.3,-1.42 -3.16,-2.17 -1.93,2.16 -3.71,3.89 -5.36,5.2l1.24 13.58 -12.16 3.26 -1.03 -16.88c0.78,1.03 1.64,1.74 2.58,2.13 -1.76,-1.18 -3.22,-3.58 -4.4,-7.24 -0.21,0.06 -0.41,0.12 -0.62,0.17 0.09,0.26 0.18,0.52 0.28,0.77 -4.73,2.7 -3.71,13.84 -3.45,22.83l-12.16 3.26 -1.77 -25.87c-1.37,-0.02 -2.71,0 -4.03,0.08l1.82 26.68 -11.78 3.16 -0.6 -7.57c-10.01,24.3 -27.66,0.87 -19.22,-13.35 -2.32,1.07 -4.63,2.15 -6.96,3.2 1.14,1.01 1.95,2.27 2.27,3.74 1.66,7.7 -8.86,9.43 -15.68,12.14 2.51,4.55 7.1,5.49 16.29,-1.51l0.09 7.92c-20.7,14.83 -33.81,-2.33 -28.83,-14.77 -2.77,0.19 -5.64,0.17 -8.64,-0.12 3.11,2.52 5.37,6.85 5.79,12.06 0.83,10.11 -11.05,22 -20,15.22l0.23 3.29 -12.16 3.26 -2.72 -39.78 4.89 -1.31c-1.29,-0.63 -2.59,-1.3 -3.93,-2.02 -3.26,-1.77 -4.5,-2.75 -5.89,-4.77l-0.69 0.52c-30.77,22.3 -43.88,-27.21 -5.21,-27.56l3.1 8.31c-18.1,-6.84 -18.48,27.84 1.29,9.67 0.24,-0.3 1.75,-1.81 3.35,-2.31l-2 -29.2 13 -3.48 0.7 11.57c10.21,-5.68 20.21,-7.52 21.03,5.37l1.2 18.72c-4.09,0.6 -8.73,0.82 -13.2,0.26l-1.12 -18.41c-5.64,0.56 -5.83,8.33 -5.73,17.1 9.34,2.55 17.27,1.7 24.99,0.27l-2.2 -30.64 13 -3.48 2.1 29.23c1.66,-0.8 3.3,-1.65 4.94,-2.54l-2.67 -38.97 13 -3.48 2.39 34.96c2.01,-1.24 4.04,-2.49 6.09,-3.73l-2.25 -32.9 13 -3.48 1.99 29.14c1.78,-0.92 3.58,-1.8 5.42,-2.64l-1.22 -17.06 13 -3.48 1.13 15.71c4.17,-1.21 8.53,-2.13 13.15,-2.65 -1.27,-9.91 7.34,-15.92 12.98,-6.62 10.19,-4.65 17.81,-1.83 22.85,8.45 15.66,-4.2 24.74,-1.7 27.22,7.52 -4.23,2.92 -5.02,7.91 -2.37,14.96 -6.71,-4.9 -13.18,-8.01 -19.13,-7.2 -0.09,1.66 -0.34,3.22 -0.72,4.68 0.6,0.09 1.19,0.22 1.78,0.38l2.5 7.07 0 0zm-67.28 -52.01c-4.11,0.8 -7.01,3.7 -6.47,6.47 0.54,2.77 4.31,4.36 8.43,3.56 4.11,-0.8 7.01,-3.7 6.47,-6.47 -0.45,-2.29 -3.1,-3.77 -6.32,-3.77l-0.04 0c-0.67,0 -1.36,0.07 -2.07,0.21l0 0z"/>
  </g>
 </g>
</svg>
