<?xml version="1.0" encoding="UTF-8"?>
<!DOCTYPE svg PUBLIC "-//W3C//DTD SVG 1.1//EN" "http://www.w3.org/Graphics/SVG/1.1/DTD/svg11.dtd">
<!-- Creator: CorelDRAW 2020 (64 Bit) -->
<svg xmlns="http://www.w3.org/2000/svg" xml:space="preserve" width="51.4502mm" height="16.1931mm" version="1.1" shape-rendering="geometricPrecision" text-rendering="geometricPrecision" image-rendering="optimizeQuality" fill-rule="evenodd" clip-rule="evenodd"
viewBox="0 0 2857.89 899.47"
 xmlns:xlink="http://www.w3.org/1999/xlink"
 xmlns:xodm="http://www.corel.com/coreldraw/odm/2003">
 <g id="Camada_x0020_1">
  <metadata id="CorelCorpID_0Corel-Layer"/>
  <g id="_2290168194592">
   <path fill="#669999" fill-rule="nonzero" d="M226 557.86l107.83 0c35.78,0 61.22,-5.25 76.32,-15.76 15.1,-10.5 22.65,-27.73 22.65,-51.7 0,-23.96 -7.72,-41.03 -23.14,-51.21 -15.43,-10.18 -41.37,-15.26 -77.8,-15.26l-105.86 0 0 133.93zm0 -266.38l96.02 0c32.17,0 54.81,-4.76 67.94,-14.28 13.13,-9.52 19.7,-25.6 19.7,-48.25 0,-23.96 -7.05,-40.37 -21.17,-49.23 -14.12,-8.87 -46.78,-13.3 -97.98,-13.3l-64.5 0 0 125.06zm-226 435.76l0 -725.27 297.4 0c64.01,0 110.61,1.64 139.83,4.92 29.22,3.28 54.33,8.7 75.34,16.25 36.76,13.79 64.91,35.28 84.44,64.5 19.54,29.22 29.31,64.66 29.31,106.36 0,32.82 -7.31,61.46 -21.92,85.91 -14.61,24.46 -36.51,44.56 -65.73,60.31 38.41,13.79 66.81,34.48 85.18,62.05 18.38,27.57 27.58,63.36 27.58,107.33 0,43 -8.95,80.34 -26.84,112.02 -17.89,31.68 -43.9,56.05 -78.03,73.12 -22.99,11.81 -49.24,20.19 -78.79,25.11 -29.54,4.92 -78.45,7.39 -146.73,7.39l-321.03 0z"/>
   <path fill="#FFCC00" fill-rule="nonzero" d="M387 727.23c0,-1.97 -0.16,-4.84 -0.49,-8.62 -0.33,-3.77 -0.5,-6.65 -0.5,-8.62 0,-50.22 15.44,-97.73 46.29,-142.54 30.85,-44.81 80.75,-91.34 149.68,-139.59 18.05,-13.13 43.16,-29.87 75.33,-50.22 76.82,-49.24 115.21,-92.07 115.21,-128.51 0,-27.9 -7.63,-49.81 -22.9,-65.73 -15.26,-15.92 -36.19,-23.88 -62.78,-23.88 -33.15,0 -57.94,10.58 -74.34,31.76 -16.41,21.17 -24.62,53.26 -24.62,96.26l0 12.3 -187.59 0c0,-2.62 -0.17,-6.15 -0.49,-10.58 -0.33,-4.43 -0.49,-7.64 -0.49,-9.6 0,-87.31 26.5,-155.75 79.51,-205.32 53.02,-49.56 125.97,-74.34 218.86,-74.34 85.02,0 152.97,20.93 203.85,62.77 50.88,41.85 76.32,97.25 76.32,166.17 0,45.31 -9.85,83.05 -29.55,113.25 -19.7,30.2 -59.9,63.68 -120.63,100.45 -7.23,4.59 -18.88,11.65 -34.97,21.17 -58.1,34.13 -102.57,64.18 -133.43,90.11l316.6 0 0 173.31 -588.88 0z"/>
   <path fill="#669999" fill-rule="nonzero" d="M981.3 557.86l107.83 0c35.78,0 61.22,-5.25 76.32,-15.76 15.09,-10.5 22.65,-27.73 22.65,-51.7 0,-23.96 -7.72,-41.03 -23.14,-51.21 -15.43,-10.18 -41.37,-15.26 -77.8,-15.26l-105.86 0 0 133.93zm0 -266.38l96.02 0c32.17,0 54.81,-4.76 67.94,-14.28 13.13,-9.52 19.7,-25.6 19.7,-48.25 0,-23.96 -7.06,-40.37 -21.17,-49.23 -14.12,-8.87 -46.78,-13.3 -97.98,-13.3l-64.5 0 0 125.06zm-226 435.76l0 -725.27 297.4 0c64.01,0 110.61,1.64 139.83,4.92 29.22,3.28 54.33,8.7 75.34,16.25 36.76,13.79 64.91,35.28 84.44,64.5 19.54,29.22 29.3,64.66 29.3,106.36 0,32.82 -7.31,61.46 -21.91,85.91 -14.61,24.46 -36.52,44.56 -65.73,60.31 38.4,13.79 66.8,34.48 85.18,62.05 18.38,27.57 27.58,63.36 27.58,107.33 0,43 -8.95,80.34 -26.84,112.02 -17.89,31.68 -43.9,56.05 -78.04,73.12 -22.98,11.81 -49.24,20.19 -78.78,25.11 -29.55,4.92 -78.45,7.39 -146.73,7.39l-321.03 0z"/>
   <polygon fill="#FFCC00" fill-rule="nonzero" points="981.4,553.92 737.1,553.92 735.2,727.23 981.4,727.23 "/>
  </g>
  <g id="_2290168212832">
   <path fill="#999999" fill-rule="nonzero" d="M1503.24 426.34l18.29 0c11.87,0 19.82,-1.33 23.83,-3.97 4.01,-2.65 6.01,-7.34 6.01,-14.08 0,-6.82 -1.92,-11.55 -5.77,-14.2 -3.85,-2.65 -11.88,-3.97 -24.07,-3.97l-18.29 0 0 36.22zm-56.92 97.58l0 -177.24 72.92 0c16.13,0 28.9,0.94 38.32,2.82 9.44,1.89 17.31,4.92 23.65,9.09 8.18,5.54 14.28,12.4 18.28,20.58 4.02,8.18 6.03,17.89 6.03,29.11 0,19.82 -5.87,35 -17.57,45.55 -11.71,10.55 -28.6,15.83 -50.65,15.83l-34.06 0 0 54.26 -56.92 0z"/>
   <path fill="#999999" fill-rule="nonzero" d="M1670.37 463.28l35.73 0 -17.69 -61.36 -18.05 61.36zm-73.16 60.65l62.32 -177.24 57.64 0 62.33 177.24 -56.43 0 -6.62 -23.46 -56.44 0 -6.85 23.46 -55.95 0z"/>
   <path fill="#999999" fill-rule="nonzero" d="M1851.95 422.85l25.87 0c9.06,0 15.32,-1.22 18.77,-3.67 3.45,-2.44 5.18,-6.72 5.18,-12.81 0,-6.26 -1.73,-10.61 -5.18,-13.06 -3.45,-2.44 -10.19,-3.67 -20.21,-3.67l-24.43 0 0 33.21zm-56.2 101.07l0 -177.24 84.83 0c26.56,0 45.51,3.97 56.86,11.91 11.35,7.94 17.03,20.98 17.03,39.11 0,10.82 -2.33,19.81 -6.98,26.95 -4.65,7.14 -11.84,12.79 -21.54,16.96 9.87,2.08 17.05,6.19 21.54,12.34 4.49,6.13 6.9,15.14 7.22,27.01l0.96 24.67c0,0.16 0.03,0.36 0.12,0.59 0.25,7.07 1.93,10.75 5.05,11.08l0 6.62 -57.4 0c-1.04,-4.25 -1.82,-7.96 -2.35,-11.13 -0.52,-3.17 -0.77,-5.64 -0.77,-7.4l0 -17.69c0,-9.15 -1.81,-15.59 -5.42,-19.32 -3.6,-3.73 -9.87,-5.6 -18.76,-5.6l-24.19 0 0 61.13 -56.2 0z"/>
   <polygon fill="#999999" fill-rule="nonzero" points="2021.13,523.93 2021.13,393.38 1970.11,393.38 1970.11,346.68 2129.06,346.68 2129.06,393.38 2078.04,393.38 2078.04,523.93 "/>
   <path fill="#999999" fill-rule="nonzero" d="M2147.47 523.93l0 -177.24 54.04 0 49.69 82.43c1.52,2.32 3.14,5.6 4.88,9.86 1.72,4.26 3.54,9.39 5.47,15.41 -0.47,-3.13 -0.84,-6.58 -1.08,-10.35 -0.25,-3.77 -0.37,-8.35 -0.37,-13.72l0 -83.63 54.27 0 0 177.24 -54.27 0 -49.69 -81.83c-1.52,-2.41 -3.19,-5.81 -4.99,-10.23 -1.8,-4.4 -3.63,-9.47 -5.48,-15.16 0.56,3.13 0.97,6.4 1.22,9.81 0.24,3.41 0.36,8.19 0.36,14.37l0 83.03 -54.04 0z"/>
   <polygon fill="#999999" fill-rule="nonzero" points="2348.06,523.93 2348.06,346.68 2489.68,346.68 2489.68,389.17 2404.97,389.17 2404.97,412.74 2476.59,412.74 2476.59,453.42 2404.97,453.42 2404.97,480.86 2493.17,480.86 2493.17,523.93 "/>
   <path fill="#999999" fill-rule="nonzero" d="M2575.96 422.85l25.87 0c9.06,0 15.31,-1.22 18.77,-3.67 3.44,-2.44 5.18,-6.72 5.18,-12.81 0,-6.26 -1.73,-10.61 -5.18,-13.06 -3.46,-2.44 -10.19,-3.67 -20.21,-3.67l-24.43 0 0 33.21zm-56.2 101.07l0 -177.24 84.83 0c26.56,0 45.51,3.97 56.86,11.91 11.35,7.94 17.03,20.98 17.03,39.11 0,10.82 -2.33,19.81 -6.98,26.95 -4.65,7.14 -11.84,12.79 -21.54,16.96 9.87,2.08 17.05,6.19 21.54,12.34 4.49,6.13 6.9,15.14 7.22,27.01l0.96 24.67c0,0.16 0.03,0.36 0.12,0.59 0.25,7.07 1.93,10.75 5.05,11.08l0 6.62 -57.4 0c-1.04,-4.25 -1.82,-7.96 -2.35,-11.13 -0.52,-3.17 -0.77,-5.64 -0.77,-7.4l0 -17.69c0,-9.15 -1.81,-15.59 -5.42,-19.32 -3.6,-3.73 -9.87,-5.6 -18.76,-5.6l-24.19 0 0 61.13 -56.2 0z"/>
   <path fill="#999999" fill-rule="nonzero" d="M2699.53 468.7l55.35 0c1.52,6.42 4.29,11.03 8.3,13.83 4.02,2.81 9.99,4.22 17.93,4.22 6.67,0 11.9,-1.14 15.71,-3.42 3.81,-2.3 5.72,-5.44 5.72,-9.46 0,-6.42 -7.98,-11.63 -23.94,-15.65 -3.22,-0.79 -5.67,-1.39 -7.34,-1.79 -13.08,-3.37 -23.49,-6.44 -31.23,-9.2 -7.74,-2.77 -13.38,-5.36 -16.9,-7.76 -6.82,-4.9 -11.94,-10.75 -15.35,-17.57 -3.42,-6.82 -5.11,-14.6 -5.11,-23.35 0,-17.56 6.62,-31.36 19.85,-41.38 13.24,-10.03 31.44,-15.04 54.62,-15.04 22.78,0 40.72,4.79 53.79,14.38 13.08,9.59 20.45,23.33 22.14,41.21l-54.02 0c-0.89,-5.22 -3.19,-9.1 -6.93,-11.67 -3.73,-2.57 -9.04,-3.85 -15.94,-3.85 -6.1,0 -10.63,1.01 -13.6,3.01 -2.97,2.01 -4.45,5.06 -4.45,9.15 0,5.85 7.78,10.74 23.35,14.68 1.36,0.4 2.41,0.68 3.12,0.83 2.26,0.57 5.66,1.41 10.23,2.53 20.62,5.22 34.09,9.95 40.43,14.2 7.86,5.22 13.6,11.15 17.21,17.81 3.6,6.66 5.41,14.53 5.41,23.59 0,19.56 -6.84,34.61 -20.51,45.12 -13.68,10.51 -33.27,15.76 -58.77,15.76 -23.51,0 -42.14,-5.25 -55.9,-15.76 -13.75,-10.51 -21.48,-25.31 -23.16,-44.4z"/>
   <path fill="#999999" fill-rule="nonzero" d="M1501.55 685.84l26.36 0c8.74,0 14.95,-1.28 18.65,-3.84 3.69,-2.57 5.54,-6.78 5.54,-12.64 0,-5.86 -1.89,-10.03 -5.65,-12.51 -3.77,-2.48 -10.11,-3.73 -19.01,-3.73l-25.87 0 0 32.73zm0 -65.09l23.46 0c7.86,0 13.4,-1.17 16.61,-3.49 3.21,-2.33 4.82,-6.26 4.82,-11.8 0,-5.85 -1.73,-9.86 -5.17,-12.03 -3.46,-2.17 -11.44,-3.25 -23.95,-3.25l-15.76 0 0 30.57zm-55.24 106.48l0 -177.24 72.68 0c15.65,0 27.03,0.41 34.17,1.21 7.14,0.8 13.28,2.13 18.41,3.98 8.98,3.37 15.86,8.62 20.64,15.76 4.77,7.15 7.15,15.81 7.15,25.99 0,8.02 -1.79,15.03 -5.35,21 -3.57,5.98 -8.93,10.9 -16.06,14.74 9.38,3.36 16.31,8.42 20.81,15.16 4.5,6.73 6.74,15.48 6.74,26.22 0,10.51 -2.18,19.64 -6.56,27.38 -4.37,7.74 -10.73,13.7 -19.07,17.87 -5.61,2.88 -12.03,4.93 -19.25,6.13 -7.22,1.2 -19.17,1.8 -35.86,1.8l-78.47 0z"/>
   <path fill="#999999" fill-rule="nonzero" d="M1689.26 626.16l25.88 0c9.06,0 15.31,-1.22 18.77,-3.67 3.44,-2.45 5.17,-6.72 5.17,-12.82 0,-6.25 -1.73,-10.61 -5.17,-13.06 -3.46,-2.44 -10.19,-3.67 -20.21,-3.67l-24.43 0 0 33.21zm-56.19 101.07l0 -177.24 84.83 0c26.56,0 45.51,3.97 56.86,11.91 11.35,7.94 17.03,20.99 17.03,39.12 0,10.82 -2.33,19.81 -6.98,26.95 -4.65,7.14 -11.84,12.79 -21.54,16.96 9.87,2.08 17.05,6.2 21.54,12.34 4.49,6.14 6.9,15.14 7.22,27.01l0.96 24.67c0,0.16 0.03,0.36 0.12,0.6 0.25,7.07 1.93,10.75 5.05,11.07l0 6.62 -57.4 0c-1.04,-4.25 -1.82,-7.96 -2.35,-11.13 -0.52,-3.17 -0.77,-5.63 -0.77,-7.39l0 -17.69c0,-9.15 -1.81,-15.59 -5.42,-19.31 -3.6,-3.73 -9.87,-5.6 -18.76,-5.6l-24.2 0 0 61.12 -56.19 0z"/>
   <polygon fill="#999999" fill-rule="nonzero" points="1812.84,727.24 1812.84,684.63 1894.9,595.84 1815.48,595.84 1815.48,549.99 1964.82,549.99 1964.82,592.23 1881.79,681.64 1969.27,681.64 1969.27,727.24 "/>
   <polygon fill="#999999" fill-rule="nonzero" points="1994.9,727.24 1994.9,549.99 2051.81,549.99 2051.81,680.19 2129.18,680.19 2129.18,727.24 "/>
  </g>
  <path fill="#999999" fill-rule="nonzero" stroke="#999999" stroke-width="11.11" stroke-miterlimit="22.9256" d="M2295.55 596.24l-0.74 3.69 -59.6 0 -16.88 61.62 0.52 0.18c3.11,-3.2 6.36,-5.75 9.76,-7.65 3.39,-1.91 7.05,-3.26 10.96,-4.06 3.92,-0.8 8.14,-1.2 12.7,-1.2 7.87,0 14.23,1.54 19.09,4.61 4.85,3.08 8.17,7.5 9.96,13.29 1.78,5.78 1.86,12.73 0.22,20.85 -1.64,8.12 -4.63,15.16 -8.97,21.13 -4.34,5.97 -9.7,10.55 -16.06,13.74 -6.37,3.2 -13.49,4.8 -21.36,4.8 -5.9,0 -11.18,-0.71 -15.81,-2.12 -4.64,-1.42 -8.56,-3.6 -11.78,-6.55 -3.22,-2.96 -5.79,-6.64 -7.73,-11.07l3.73 -2.03c2.67,6.28 6.67,10.86 11.99,13.75 5.32,2.89 12.1,4.34 20.34,4.34 10.83,0 19.81,-3.11 26.97,-9.32 7.16,-6.21 11.72,-14.18 13.68,-23.89l1.04 -5.17c1.96,-9.72 0.76,-17.59 -3.63,-23.62 -4.38,-6.03 -11.86,-9.04 -22.44,-9.04 -7.87,0 -14.24,1.05 -19.09,3.14 -4.85,2.09 -9.63,5.35 -14.34,9.78l-4.13 -0.55 18.66 -68.64 62.92 0zm17.64 131c-1.6,0 -2.74,-0.4 -3.44,-1.2 -0.7,-0.8 -0.9,-1.94 -0.61,-3.41l0.3 -1.48c0.3,-1.48 0.96,-2.62 1.98,-3.42 1.02,-0.8 2.33,-1.2 3.93,-1.2 1.72,0 2.91,0.4 3.54,1.2 0.64,0.8 0.81,1.94 0.51,3.42l-0.3 1.48c-0.3,1.47 -0.93,2.61 -1.89,3.41 -0.96,0.8 -2.31,1.2 -4.03,1.2zm77.5 0c-8.98,0 -16.15,-2.28 -21.5,-6.83 -5.35,-4.55 -8.7,-11.71 -10.05,-21.5 -1.34,-9.78 -0.43,-22.54 2.75,-38.28 3.18,-15.75 7.42,-28.51 12.71,-38.29 5.29,-9.78 11.54,-16.94 18.73,-21.5 7.19,-4.55 15.28,-6.82 24.26,-6.82 8.98,0 16.15,2.27 21.5,6.82 5.35,4.55 8.7,11.72 10.05,21.5 1.35,9.78 0.43,22.54 -2.75,38.29 -3.18,15.74 -7.42,28.51 -12.71,38.28 -5.3,9.78 -11.54,16.95 -18.74,21.5 -7.19,4.55 -15.28,6.83 -24.25,6.83zm0.74 -3.69c8.24,0 15.59,-2.12 22.04,-6.37 6.45,-4.24 11.98,-10.61 16.59,-19.1 4.6,-8.49 8.17,-19.01 10.7,-31.55l2.39 -11.81c2.56,-12.67 3.24,-23.22 2.06,-31.64 -1.19,-8.43 -4.15,-14.76 -8.9,-19 -4.74,-4.24 -11.23,-6.37 -19.47,-6.37 -8.12,0 -15.44,2.12 -21.95,6.37 -6.52,4.24 -12.07,10.58 -16.66,19 -4.59,8.43 -8.17,18.97 -10.73,31.64l-2.38 11.81c-2.53,12.54 -3.22,23.06 -2.04,31.55 1.18,8.49 4.17,14.85 8.97,19.1 4.8,4.24 11.26,6.37 19.38,6.37z"/>
  <path fill="#999999" fill-rule="nonzero" d="M39.52 899.47c-8.25,0 -15.33,-1.9 -21.24,-5.69 -5.9,-3.8 -10.43,-9.43 -13.56,-16.88 -3.14,-7.45 -4.72,-16.67 -4.72,-27.64 0,-10.97 1.57,-20.27 4.72,-27.91 3.14,-7.64 7.66,-13.45 13.56,-17.44 5.91,-3.98 12.99,-5.98 21.24,-5.98 8.15,0 15.05,1.88 20.67,5.63 5.62,3.75 9.98,9.04 13.08,15.89l-9.56 5.77c-1.97,-5.07 -4.97,-9.12 -9,-12.16 -4.03,-3.05 -9.09,-4.57 -15.19,-4.57 -8.44,0 -15.03,3.07 -19.76,9.21 -4.73,6.14 -7.1,14.23 -7.1,24.26l0 14.63c0,10.03 2.37,17.93 7.1,23.7 4.74,5.77 11.33,8.65 19.76,8.65 6.28,0 11.53,-1.62 15.75,-4.85 4.22,-3.24 7.31,-7.52 9.28,-12.87l9.42 5.91c-3.09,6.84 -7.57,12.28 -13.43,16.31 -5.86,4.03 -12.87,6.05 -21.02,6.05zm64.55 -43.88l0 42.19 -11.81 0 0 -98.16 39.1 0c5.72,0 10.62,1.08 14.7,3.23 4.08,2.16 7.22,5.3 9.42,9.43 2.21,4.12 3.31,9.19 3.31,15.19 0,7.13 -1.69,13.03 -5.07,17.72 -3.37,4.69 -8.25,7.78 -14.63,9.28l22.5 43.32 -13.36 0 -21.24 -42.19 -22.92 0zm0 -10.13l27.28 0c3.09,0 5.74,-0.54 7.95,-1.62 2.2,-1.08 3.89,-2.67 5.06,-4.78 1.17,-2.11 1.76,-4.67 1.76,-7.67l0 -7.31c0,-3.01 -0.59,-5.56 -1.76,-7.67 -1.17,-2.11 -2.86,-3.7 -5.06,-4.78 -2.21,-1.08 -4.85,-1.62 -7.95,-1.62l-27.28 0 0 35.44zm112.93 52.31l-39.38 0 0 -9.84 13.78 0 0 -78.48 -13.78 0 0 -9.84 39.38 0 0 9.84 -13.78 0 0 78.48 13.78 0 0 9.84zm95.35 0l-12.38 0 -9.85 -28.97 -39.65 0 -9.85 28.97 -11.95 0 34.32 -98.16 15.05 0 34.32 98.16zm-25.17 -39.38l-12.38 -35.58 -4.22 -12.24 -0.7 0 -4.22 12.24 -12.38 35.58 33.89 0zm96.62 -48.38l-31.22 0 0 87.76 -11.81 0 0 -87.76 -31.22 0 0 -10.4 74.25 0 0 10.4zm49.93 87.76l-39.38 0 0 -9.84 13.78 0 0 -78.48 -13.78 0 0 -9.84 39.38 0 0 9.84 -13.79 0 0 78.48 13.79 0 0 9.84zm58.22 0l-14.35 0 -32.62 -98.16 12.65 0 16.18 49.5 10.83 36.85 0.7 0 11.11 -36.85 16.31 -49.5 12.24 0 -33.05 98.16zm83.68 0l-39.38 0 0 -9.84 13.78 0 0 -78.48 -13.78 0 0 -9.84 39.38 0 0 9.84 -13.79 0 0 78.48 13.79 0 0 9.84zm21.51 0l0 -98.16 32.91 0c8.15,0 15.26,1.81 21.3,5.41 6.05,3.62 10.71,9.05 14,16.32 3.28,7.27 4.92,16.38 4.92,27.35 0,10.97 -1.64,20.09 -4.92,27.36 -3.28,7.27 -7.95,12.7 -14,16.31 -6.04,3.6 -13.15,5.41 -21.3,5.41l-32.91 0zm11.81 -10.4l21.1 0c5.44,0 10.22,-1.22 14.34,-3.65 4.13,-2.44 7.37,-5.93 9.7,-10.48 2.34,-4.54 3.52,-10.05 3.52,-16.53l0 -16.03c0,-6.47 -1.18,-12 -3.52,-16.59 -2.34,-4.6 -5.58,-8.09 -9.7,-10.48 -4.13,-2.39 -8.9,-3.59 -14.34,-3.59l-21.1 0 0 77.35zm154.7 10.4l-12.38 0 -9.84 -28.97 -39.65 0 -9.85 28.97 -11.95 0 34.32 -98.16 15.05 0 34.32 98.16zm-25.17 -39.38l-12.38 -35.58 -4.22 -12.24 -0.7 0 -4.22 12.24 -12.38 35.58 33.89 0zm41.49 39.38l0 -98.16 32.91 0c8.15,0 15.25,1.81 21.3,5.41 6.05,3.62 10.71,9.05 13.99,16.32 3.28,7.27 4.93,16.38 4.93,27.35 0,10.97 -1.64,20.09 -4.93,27.36 -3.28,7.27 -7.94,12.7 -13.99,16.31 -6.05,3.6 -13.15,5.41 -21.3,5.41l-32.91 0zm11.81 -10.4l21.1 0c5.43,0 10.22,-1.22 14.34,-3.65 4.13,-2.44 7.36,-5.93 9.7,-10.48 2.34,-4.54 3.52,-10.05 3.52,-16.53l0 -16.03c0,-6.47 -1.17,-12 -3.52,-16.59 -2.34,-4.6 -5.58,-8.09 -9.7,-10.48 -4.13,-2.39 -8.91,-3.59 -14.34,-3.59l-21.1 0 0 77.35zm142.47 10.4l-59.91 0 0 -98.16 59.91 0 0 10.4 -48.1 0 0 32.91 45.29 0 0 10.4 -45.29 0 0 34.04 48.1 0 0 10.4zm28.12 1.69c-2.91,0 -5.06,-0.77 -6.47,-2.32 -1.41,-1.55 -2.11,-3.49 -2.11,-5.84l0 -1.83c0,-2.44 0.7,-4.41 2.11,-5.91 1.41,-1.5 3.56,-2.25 6.47,-2.25 3,0 5.18,0.75 6.54,2.25 1.36,1.5 2.04,3.47 2.04,5.91l0 1.83c0,2.34 -0.68,4.29 -2.04,5.84 -1.36,1.54 -3.54,2.32 -6.54,2.32zm1028.33 -1.69l0 -44.44 -49.64 0 0 44.44 -11.81 0 0 -98.16 11.81 0 0 43.32 49.64 0 0 -43.32 11.81 0 0 98.16 -11.81 0zm37.27 -98.16l11.81 0 0 60.76c0,6.19 0.75,11.41 2.25,15.68 1.5,4.27 3.96,7.48 7.38,9.63 3.42,2.16 8.04,3.24 13.86,3.24 5.81,0 10.43,-1.08 13.85,-3.24 3.42,-2.16 5.88,-5.37 7.38,-9.63 1.5,-4.27 2.25,-9.49 2.25,-15.68l0 -60.76 11.81 0 0 57.94c0,9.47 -1.14,17.33 -3.44,23.56 -2.3,6.24 -6.07,10.85 -11.32,13.85 -5.25,3 -12.24,4.5 -20.96,4.5 -8.72,0 -15.61,-1.5 -20.67,-4.5 -5.06,-3 -8.69,-7.62 -10.9,-13.85 -2.2,-6.23 -3.31,-14.09 -3.31,-23.56l0 -57.94zm96.06 98.16l0 -98.16 15.75 0 18.56 34.74 9.57 18.14 0.71 0 9.7 -18.14 18.56 -34.74 15.19 0 0 98.16 -11.53 0 0 -66.23 0 -16.46 -0.71 0 -8.29 16.46 -23.49 42.75 -23.48 -42.75 -8.3 -16.46 -0.71 0 0 16.46 0 66.23 -11.53 0zm188.03 0l-12.38 0 -9.85 -28.97 -39.65 0 -9.84 28.97 -11.96 0 34.32 -98.16 15.05 0 34.32 98.16zm-25.17 -39.38l-12.38 -35.58 -4.22 -12.24 -0.71 0 -4.22 12.24 -12.38 35.58 33.89 0zm101.12 39.38l-35.87 -59.91 -11.81 -21.8 -0.42 0 0 21.8 0 59.91 -11.53 0 0 -98.16 13.64 0 35.87 59.91 11.81 21.8 0.42 0 0 -21.8 0 -59.91 11.53 0 0 98.16 -13.64 0zm74.54 0l-39.38 0 0 -9.84 13.78 0 0 -78.48 -13.78 0 0 -9.84 39.38 0 0 9.84 -13.79 0 0 78.48 13.79 0 0 9.84zm21.51 0l0 -98.16 32.91 0c8.15,0 15.25,1.81 21.3,5.41 6.05,3.62 10.71,9.05 13.99,16.32 3.28,7.27 4.93,16.38 4.93,27.35 0,10.97 -1.64,20.09 -4.93,27.36 -3.28,7.27 -7.94,12.7 -13.99,16.31 -6.05,3.6 -13.15,5.41 -21.3,5.41l-32.91 0zm11.81 -10.4l21.1 0c5.44,0 10.22,-1.22 14.34,-3.65 4.13,-2.44 7.36,-5.93 9.7,-10.48 2.34,-4.54 3.52,-10.05 3.52,-16.53l0 -16.03c0,-6.47 -1.17,-12 -3.52,-16.59 -2.34,-4.6 -5.58,-8.09 -9.7,-10.48 -4.13,-2.39 -8.9,-3.59 -14.34,-3.59l-21.1 0 0 77.35zm154.7 10.4l-12.38 0 -9.84 -28.97 -39.65 0 -9.85 28.97 -11.95 0 34.32 -98.16 15.05 0 34.32 98.16zm-25.17 -39.38l-12.38 -35.58 -4.22 -12.24 -0.7 0 -4.22 12.24 -12.38 35.58 33.89 0zm41.49 39.38l0 -98.16 32.91 0c8.15,0 15.25,1.81 21.3,5.41 6.05,3.62 10.71,9.05 13.99,16.32 3.28,7.27 4.92,16.38 4.92,27.35 0,10.97 -1.64,20.09 -4.92,27.36 -3.28,7.27 -7.94,12.7 -13.99,16.31 -6.05,3.6 -13.15,5.41 -21.3,5.41l-32.91 0zm11.81 -10.4l21.1 0c5.43,0 10.22,-1.22 14.34,-3.65 4.13,-2.44 7.36,-5.93 9.7,-10.48 2.34,-4.54 3.52,-10.05 3.52,-16.53l0 -16.03c0,-6.47 -1.17,-12 -3.52,-16.59 -2.34,-4.6 -5.58,-8.09 -9.7,-10.48 -4.13,-2.39 -8.91,-3.59 -14.34,-3.59l-21.1 0 0 77.35zm142.47 10.4l-59.91 0 0 -98.16 59.91 0 0 10.4 -48.1 0 0 32.91 45.29 0 0 10.4 -45.29 0 0 34.04 48.1 0 0 10.4zm28.12 1.69c-2.91,0 -5.06,-0.77 -6.47,-2.32 -1.41,-1.55 -2.11,-3.49 -2.11,-5.84l0 -1.83c0,-2.44 0.7,-4.41 2.11,-5.91 1.41,-1.5 3.56,-2.25 6.47,-2.25 3,0 5.18,0.75 6.54,2.25 1.37,1.5 2.04,3.47 2.04,5.91l0 1.83c0,2.34 -0.68,4.29 -2.04,5.84 -1.36,1.54 -3.54,2.32 -6.54,2.32zm-1749.52 -89.72l-29.96 0 -17.58 88.04 -11.39 0 17.58 -88.04 -29.96 0 1.97 -10.13 71.31 0 -1.97 10.13zm58.92 88.04l-60.19 0 19.69 -98.16 57.8 0 -2.11 10.13 -46.27 0 -6.61 33.19 41.63 0 -1.97 10.13 -41.77 0 -6.89 34.59 48.66 0 -1.97 10.13zm53.16 1.69c-6.38,0 -12.05,-1.5 -17.02,-4.5 -4.97,-3 -8.88,-7.41 -11.74,-13.22 -2.86,-5.82 -4.29,-12.94 -4.29,-21.37 0,-3.38 0.18,-6.68 0.56,-9.92 0.38,-3.23 0.89,-6.35 1.54,-9.35 1.41,-6.19 3.47,-11.91 6.19,-17.16 2.72,-5.25 6.02,-9.82 9.92,-13.71 3.89,-3.89 8.27,-6.91 13.15,-9.07 4.87,-2.16 10.17,-3.23 15.89,-3.23 7.97,0 14.63,1.83 19.97,5.48 5.35,3.66 9.19,9.28 11.53,16.88l-10.27 4.64c-1.78,-5.54 -4.43,-9.71 -7.95,-12.52 -3.52,-2.81 -8.32,-4.22 -14.41,-4.22 -4.97,0 -9.56,1.22 -13.78,3.65 -4.22,2.43 -7.78,5.85 -10.69,10.27 -2.91,4.41 -4.97,9.61 -6.19,15.61l-3.24 16.18c-0.37,1.78 -0.61,3.42 -0.7,4.92 -0.09,1.5 -0.14,2.96 -0.14,4.36 0,7.69 1.97,13.95 5.9,18.77 3.94,4.83 9.43,7.24 16.45,7.24 6.84,0 12.26,-1.62 16.25,-4.85 3.98,-3.23 7.57,-7.71 10.76,-13.43l9.56 4.79c-4.32,8.15 -9.42,14.15 -15.33,18 -5.91,3.84 -13.22,5.77 -21.94,5.77zm106.74 -1.69l-21.37 -59.06 -7.74 -23.49 -0.7 0 -4.64 23.49 -11.81 59.06 -11.11 0 19.69 -98.16 13.22 0 21.37 59.07 7.74 23.49 0.7 0 4.64 -23.49 11.81 -59.07 11.11 0 -19.69 98.16 -13.23 0zm75.24 1.69c-6.47,0 -12.29,-1.47 -17.44,-4.43 -5.15,-2.96 -9.23,-7.27 -12.24,-12.94 -3,-5.68 -4.5,-12.64 -4.5,-20.89 0,-3 0.14,-5.95 0.42,-8.86 0.28,-2.91 0.75,-5.77 1.41,-8.58 1.31,-6.37 3.34,-12.33 6.12,-17.86 2.77,-5.53 6.19,-10.38 10.27,-14.55 4.08,-4.17 8.77,-7.45 14.06,-9.84 5.3,-2.39 11.13,-3.59 17.51,-3.59 6.56,0 12.4,1.48 17.51,4.43 5.11,2.95 9.17,7.27 12.16,12.94 3.01,5.67 4.5,12.64 4.5,20.89 0,2.91 -0.14,5.84 -0.43,8.79 -0.28,2.96 -0.75,5.84 -1.41,8.65 -1.31,6.29 -3.35,12.21 -6.12,17.79 -2.77,5.58 -6.19,10.45 -10.27,14.63 -4.08,4.17 -8.77,7.45 -14.06,9.84 -5.3,2.39 -11.14,3.59 -17.51,3.59zm1.12 -10.27c5.81,0 10.99,-1.31 15.54,-3.94 4.54,-2.63 8.37,-6.38 11.46,-11.25 3.09,-4.88 5.3,-10.69 6.61,-17.44l2.82 -14.06c0.37,-1.78 0.63,-3.49 0.77,-5.13 0.14,-1.64 0.21,-3.17 0.21,-4.57 0,-7.5 -2.11,-13.48 -6.33,-17.93 -4.22,-4.45 -10.13,-6.68 -17.72,-6.68 -5.72,0 -10.88,1.31 -15.47,3.93 -4.59,2.63 -8.42,6.35 -11.46,11.18 -3.05,4.83 -5.28,10.66 -6.68,17.51l-2.81 14.07c-0.38,1.78 -0.63,3.49 -0.77,5.13 -0.14,1.64 -0.22,3.17 -0.22,4.57 0,7.41 2.12,13.36 6.33,17.86 4.22,4.5 10.13,6.75 17.72,6.75zm109.84 8.58l-51.9 0 19.69 -98.16 11.39 0 -17.58 88.04 40.37 0 -1.97 10.13zm49.08 1.69c-6.47,0 -12.29,-1.47 -17.44,-4.43 -5.16,-2.96 -9.24,-7.27 -12.24,-12.94 -3,-5.68 -4.49,-12.64 -4.49,-20.89 0,-3 0.14,-5.95 0.42,-8.86 0.28,-2.91 0.75,-5.77 1.41,-8.58 1.31,-6.37 3.35,-12.33 6.12,-17.86 2.77,-5.53 6.19,-10.38 10.27,-14.55 4.08,-4.17 8.77,-7.45 14.06,-9.84 5.3,-2.39 11.14,-3.59 17.51,-3.59 6.57,0 12.4,1.48 17.51,4.43 5.11,2.95 9.17,7.27 12.16,12.94 3.01,5.67 4.5,12.64 4.5,20.89 0,2.91 -0.14,5.84 -0.43,8.79 -0.28,2.96 -0.75,5.84 -1.41,8.65 -1.31,6.29 -3.35,12.21 -6.12,17.79 -2.77,5.58 -6.19,10.45 -10.27,14.63 -4.08,4.17 -8.77,7.45 -14.06,9.84 -5.3,2.39 -11.13,3.59 -17.51,3.59zm1.12 -10.27c5.82,0 10.99,-1.31 15.54,-3.94 4.55,-2.63 8.37,-6.38 11.46,-11.25 3.09,-4.88 5.29,-10.69 6.61,-17.44l2.81 -14.06c0.37,-1.78 0.63,-3.49 0.77,-5.13 0.14,-1.64 0.21,-3.17 0.21,-4.57 0,-7.5 -2.11,-13.48 -6.33,-17.93 -4.22,-4.45 -10.13,-6.68 -17.72,-6.68 -5.72,0 -10.88,1.31 -15.46,3.93 -4.6,2.63 -8.42,6.35 -11.46,11.18 -3.05,4.83 -5.27,10.66 -6.68,17.51l-2.82 14.07c-0.38,1.78 -0.63,3.49 -0.77,5.13 -0.14,1.64 -0.21,3.17 -0.21,4.57 0,7.41 2.11,13.36 6.33,17.86 4.22,4.5 10.13,6.75 17.72,6.75zm117.43 8.58l2.96 -14.34 -0.56 0c-2.06,4.31 -5.44,8.07 -10.13,11.25 -4.69,3.18 -10.64,4.78 -17.86,4.78 -6.19,0 -11.65,-1.47 -16.39,-4.43 -4.73,-2.96 -8.45,-7.34 -11.18,-13.15 -2.72,-5.81 -4.08,-12.98 -4.08,-21.51 0,-1.97 0.07,-3.92 0.21,-5.84 0.14,-1.92 0.33,-3.84 0.57,-5.77 0.23,-1.92 0.54,-3.82 0.92,-5.69 1.31,-6.38 3.31,-12.28 5.97,-17.72 2.67,-5.43 6,-10.22 9.99,-14.34 3.99,-4.13 8.6,-7.34 13.85,-9.63 5.25,-2.3 11.11,-3.45 17.58,-3.45 8.53,0 15.68,1.99 21.45,5.98 5.77,3.99 9.68,9.44 11.74,16.39l-10.27 4.64c-1.88,-5.25 -4.76,-9.35 -8.65,-12.31 -3.89,-2.96 -9.12,-4.43 -15.69,-4.43 -5.53,0 -10.5,1.24 -14.9,3.72 -4.4,2.49 -8.11,6.03 -11.11,10.62 -3.01,4.59 -5.16,10.13 -6.47,16.59l-2.96 14.63c-0.28,1.41 -0.49,2.81 -0.63,4.22 -0.14,1.41 -0.22,2.81 -0.22,4.22 0,8.44 2.04,15.05 6.12,19.83 4.08,4.78 9.92,7.17 17.51,7.17 4.5,0 8.69,-0.89 12.59,-2.67 3.89,-1.78 7.24,-4.45 10.05,-8.02 2.82,-3.57 4.74,-7.97 5.77,-13.22l1.55 -7.74 -20.96 0 2.25 -10.4 31.93 0 -10.13 50.63 -10.83 0zm66.8 0l-37.55 0 1.97 -9.7 13.08 0 15.61 -78.76 -13.08 0 1.97 -9.7 37.55 0 -1.97 9.7 -13.08 0 -15.61 78.76 13.08 0 -1.97 9.7zm92.55 0l-11.68 0 -3.65 -28.97 -38.11 0 -15.19 28.97 -12.09 0 52.46 -98.16 15.04 0 13.23 98.16zm-16.46 -39.09l-4.5 -36.28 -1.54 -11.95 -0.71 0 -6.33 12.23 -18.7 36.01 31.78 0zm41.34 40.78c-2.24,0 -4,-0.49 -5.27,-1.47 -1.27,-0.99 -1.9,-2.37 -1.9,-4.15 0,-0.66 0.07,-1.46 0.22,-2.39 0.14,-0.94 0.26,-1.73 0.35,-2.39 0.47,-1.87 1.31,-3.63 2.53,-5.27 1.22,-1.64 3.42,-2.46 6.61,-2.46 2.26,0 4.01,0.47 5.28,1.41 1.27,0.94 1.9,2.34 1.9,4.22 0,0.66 -0.05,1.43 -0.14,2.32 -0.09,0.89 -0.23,1.72 -0.42,2.47 -0.37,1.87 -1.19,3.63 -2.46,5.27 -1.26,1.64 -3.49,2.46 -6.68,2.46z"/>
 </g>
</svg>
